/* XPM */
static char *exit[] = {
/* columns rows colors chars-per-pixel */
"64 64 205 2 ",
"   c #312140",
".  c #382742",
"X  c #312C46",
"o  c #3D2B43",
"O  c #303349",
"+  c #313C4E",
"@  c #3B384A",
"#  c #313F50",
"$  c #422E44",
"%  c #453245",
"&  c #4A3545",
"*  c #44344A",
"=  c #4D3B4B",
"-  c #4C3948",
";  c #533C47",
":  c #533E4A",
">  c #4F3D53",
",  c #3A404E",
"<  c #314452",
"1  c #314C56",
"2  c #3C4A53",
"3  c #31535A",
"4  c #305C5E",
"5  c #3E5258",
"6  c #3D605E",
"7  c #345E60",
"8  c #316362",
"9  c #3C6661",
"0  c #306C66",
"q  c #3B6B65",
"w  c #31736A",
"e  c #317C6E",
"r  c #39766B",
"t  c #54424B",
"y  c #594249",
"u  c #5D4A4C",
"i  c #534B4F",
"p  c #424B54",
"a  c #5C4B5A",
"s  c #564653",
"d  c #465758",
"f  c #585955",
"g  c #48444D",
"h  c #614C4C",
"j  c #6B594F",
"k  c #66544E",
"l  c #624D55",
"z  c #6D5B52",
"x  c #65545B",
"c  c #6C5C5C",
"v  c #675655",
"b  c #725D5B",
"n  c #4A655E",
"m  c #57665D",
"M  c #64685B",
"N  c #746454",
"B  c #7C6C5B",
"V  c #76655A",
"C  c #6B5A62",
"Z  c #665561",
"A  c #496963",
"S  c #5A6E62",
"D  c #457668",
"F  c #547667",
"G  c #796767",
"H  c #697465",
"J  c #826F6A",
"K  c #837364",
"L  c #867469",
"P  c #88756C",
"I  c #8B7A6B",
"U  c #897766",
"Y  c #826E71",
"T  c #867579",
"R  c #8E7E7D",
"E  c #887674",
"W  c #917D75",
"Q  c #318271",
"!  c #348975",
"~  c #368E78",
"^  c #398374",
"/  c #3A957C",
"(  c #3C9A7E",
")  c #37917A",
"_  c #568771",
"`  c #439B7D",
"'  c #489478",
"]  c #599979",
"[  c #4F846E",
"{  c #618E71",
"}  c #688B6D",
"|  c #5EA57C",
" . c #46A17F",
".. c #67A47B",
"X. c #93816F",
"o. c #948374",
"O. c #9D8C7D",
"+. c #988779",
"@. c #86977E",
"#. c #A28E7A",
"$. c #A5927E",
"%. c #91DB79",
"&. c #9CE177",
"*. c #A9E67A",
"=. c #B7E977",
"-. c #B6E977",
";. c #C0E870",
":. c #3C9C80",
">. c #3EA285",
",. c #449C80",
"<. c #42A483",
"1. c #4BA682",
"2. c #4CAA84",
"3. c #43AB89",
"4. c #45A985",
"5. c #55AE85",
"6. c #47B18B",
"7. c #4AB58C",
"8. c #4DBB8E",
"9. c #57B98A",
"0. c #4FBF90",
"q. c #53BF90",
"w. c #63AB84",
"e. c #6EBD88",
"r. c #55C18D",
"t. c #5CC48C",
"y. c #4FC294",
"u. c #4DC699",
"i. c #4CC89C",
"p. c #50C090",
"a. c #5CCC94",
"s. c #57C99B",
"d. c #58C697",
"f. c #58D49F",
"g. c #6CCC86",
"h. c #65C887",
"j. c #78D284",
"k. c #61CE94",
"l. c #69CA95",
"z. c #63D396",
"x. c #67D798",
"c. c #6BDB99",
"v. c #6BD596",
"b. c #75DC98",
"n. c #76CF8E",
"m. c #73E39C",
"M. c #7BE59B",
"N. c #7BEB9E",
"B. c #7DE093",
"V. c #4ACBA1",
"C. c #5BCEA1",
"Z. c #48D0A8",
"A. c #5AD1A4",
"S. c #61D6AC",
"D. c #64DBB1",
"F. c #7FEFA0",
"G. c #68E0B8",
"H. c #9B8B85",
"J. c #A28D82",
"K. c #A49483",
"L. c #A99584",
"P. c #AA9985",
"I. c #A3938D",
"U. c #AB9A8A",
"Y. c #AD9689",
"T. c #B19D8B",
"R. c #B09B86",
"E. c #B39E91",
"W. c #B3A18E",
"Q. c #B9A38D",
"!. c #B5A391",
"~. c #BAA693",
"^. c #BDAA95",
"/. c #BFAD99",
"(. c #C2AE99",
"). c #C1AC97",
"_. c #C5B19C",
"`. c #C9B49E",
"'. c #C9B99F",
"]. c #CCB6A0",
"[. c #CEBAA3",
"{. c #C7B7A0",
"}. c #D3BCA5",
"|. c #9BED8C",
" X c #96ED8F",
".X c #8EEE96",
"XX c #86EF9C",
"oX c #89EF99",
"OX c #93ED91",
"+X c #83F09E",
"@X c #A4EB85",
"#X c #A8EB82",
"$X c #80F0A0",
"%X c #D4C2A9",
"&X c #DAC3AA",
"*X c #DDC9AF",
"=X c #D3C0A7",
"-X c #DECDB1",
";X c #E1CDB2",
":X c #E4D2B5",
">X c #E9D6B9",
",X c #EDDCBD",
"<X c #E7D7B8",
"1X c #F0DFC0",
"2X c #F0E0C0",
/* pixels */
"p.p.p.0.p.p.p.p.p.8.p.p.p.p.p.p.p.p.p.p.p.p.p.p.8.p.p.p.p.p.p.p.p.p.p.g.&.=.;.&.j.p.p.p.p.p.p.p.p.p.p.p.p.p.p.p.p.p.p.p.p.p.p.p.",
"p.p.p.p.p.p.p.p.p.p.p.p.p.p.p.p.8.p.p.p.p.p.p.p.p.p.p.p.p.p.p.p.p.p.p.g.*.=.;.*.g.p.p.p.p.p.p.p.p.p.p.p.p.p.p.p.p.p.p.p.p.p.p.p.",
"r.0.p.p.p.p.p.8.p.p.p.p.p.p.8.p.p.p.p.p.p.p.p.p.p.p.p.p.8.p.p.p.p.p.p.h.%.*.*.%.h.p.p.p.p.p.p.p.p.p.p.p.p.p.p.p.p.p.p.p.p.p.p.p.",
"8.0.0.y.p.p.p.y.p.p.p.p.p.p.p.p.p.p.p.p.p.p.p.p.p.p.p.p.p.p.p.p.p.h.t.r.| j.j.g.r.p.p.p.p.p.p.p.p.p.p.p.p.p.p.p.p.p.p.p.p.p.p.p.",
"p.p.r.y.y.y.y.r.p.8.0.y.p.p.p.p.p.p.p.p.p.p.p.p.p.p.p.p.p.p.r.y.0.j.h.p.r.8.r.0.p.p.p.p.p.p.p.p.p.p.p.p.p.p.p.p.p.p.p.p.p.p.p.p.",
"p.p.0.u.Z.Z.y.p.p.r.0.p.p.p.p.p.p.p.p.p.p.p.p.p.p.p.p.u.p.p.y.p.0.p.p.p.r.r.r.0.p.p.p.p.p.p.p.p.p.p.p.p.7.p.u.>.p.p.p.p.p.p.p.p.",
"p.p.p.u.Z.Z.y.p.p.y.y.p.p.p.p.p.p.p.8.p.p.p.p.p.p.8.y.A.s.p.p.p.r.p.p.p.p.p.p.p.p.p.p.p.p.p.p.p.p.p.p.p.p.p. .7.p.p.p.p.p.p.p.p.",
"p.p.y.y.u.u.y.8.8.d.D.A.p.p.p.p.p.p.p.p.p.p.p.p.p.p.p.s.p.p.p.p.p.p.p.p.p.p.p.p.p.p.p.p.p.p.p.p.p.p.p.p.p.p.>.y.p.p.p.p.p.y.y.>.",
"p.p.p.p.p.p.p.p.p.s.G.G.C.r.0.y.p.p.p.p.p.p.p.p.p.p.0.0.0.0.0.0.p.p.p.p.p.p.p.p.p.p.p.p.p.p.p.p.p.p.p.p.p.p.6.8.p.p.p.p.p.p.p.p.",
"p.8.8.p.p.8.p.p.p.p.A.D.s.y.p.8.p.p.p.p.p.p.p.p.p.p.p.r.p.d.s.s.p.p.p.p.p.p.p.p.p.p.p.p.p.p.p.p.p.0.p.p.p.p.y.p.p.p.p.y.p.p.p.p.",
"8.6.7.y.p.p.r.y.p.p.p.p.y.8.p.p.p.p.p.p.p.p.p.8.0.p.0.0.0.A.G.D.p.p.p.p.p.p.p.p.p.p.p.p.p.p.p.p.p.p.p.p.p.p.y.8.p.7.>.u.7.>.p.p.",
">.7.p.p.p.p.8.y.p.p.p.p.r.y.r.p.p.p.p.p.p.p.p.p.p.p.0.0.0.S.G.D.p.p.p.p.p.p.p.p.p.p.p.p.p.p.p.p.p.0.p.p.p.p.y.8. .8.>.>.p.p.p.p.",
"3.7.y.p.p.p.p.C.s.p.p.p.0.r.y.8.p.p.p.p.p.p.y.i.V.i.p.p.0.d.s.s.p.p.p.p.p.p.y.p.p.p.p.p.p.p.p.p.p.0.p.p.p.p.p. .6.8. . .8.p.p.p.",
"7.y.p.p.p.p.p.s.s.p.p.p.y.8.p.p.p.y.p.p.p.p.y.i.Z.V.p.p.0.0.0.0.p.p.p.r.p.p.u. .(  .y.r.p.p.p.p.p.p.p.p.p.p.p.8.8.u.>.p.8.p.p.p.",
"p.p.p.p.p.p.p.p.y.p.p.p.p.p.p.p.k.r.p.y.r.k.r.i.V.A.p.z.p.5.| w.' ]  .r.r.a. .( ) ( >.y.| 9.9.y.p.a.p.p.p.p.p.p.y.8.>.u.p.p.p.p.",
"p.p.p.p.p.p.p.p.p.p.8.p.p.p.p.a.N.a.y.a.z.m.a.a.c.m.a.M.h.} B L h k [  .a.m. .( ( ( /  .@.$.@.| y.m.z.a.y.p.8.p.p.y.p.p.p.p.r.r.",
"p.p.p.p.8.p.p.p.8.p.p.p.p.p.y.a.N.a.c.F.m.p.N.F.x.z.F.F.} K o.X.W * - A 3.3.F.4.e ! ,.t ].;XJ.M F.a.c.F.m.r.p.p.p.p.p.p.p.p.g.%.",
"p.p.p.p.p.p.p.p.y.a.m.p.r.x.m.m.a.c.F.$XF.M.F.F.M.e.p p @ % * * *   . X + # , w.c.b.l.@ E.&XJ.f 8./ / t.m.r.p.x.z.p.p.p.p.p.g.&.",
"p.p.p.p.p.p.p.k.z.a.$Xb.c.M.F.F.c.N.$X$X$X+XF.| F A i G H.I.I.I.I.I.I.H.G Z o d F F } c O.Y.I i ) ( /  .9.c.m.F.x.a.x.p.p.p.t.g.",
"p.p.p.p.p.p.p.z.x.c.$X$XOXoXF.$X$X$X$X$Xb.] ] f x E L._.*X*X=X=X%X=X%X{.~.!.G C : $ & x L J H { Q ) / )  . XF.F.m.x.x.p.p.p.p.p.",
"p.p.p.p.p.p.p.y.c.$X$X$X@XOXXXN.$X$X$XM...% s G ^.,X,X:X&X(.E.E.U.U.K.U.[.-X&X(.+.u .   x u H m.( `  .` | -.+XF.F.m.a.p.p.p.p.p.",
"p.p.p.p.p.p.p.m.$X$X+X$X$XF.M.XXXXM.M.] % V -X2X,X<X}.U.].&X}.[.U.P.O.o.o.U.[.:X[.R : .     A N.B.N.F.F.F.F.F.F.F.F.N.y.p.p.p.p.",
"p.p.p.z.m.p.m.F.|.=.-.XX$Xk.' f @ @ @ g K -X,X:X_.U.O.].}.(.E.I.U.`.[.^.+.V o.U.[.}.+.: .   X @ ,  .c.F.F.F.F.*.-.*.F.N.a.c.c.p.",
"p.p.p.r.z.c.F.F.|.;.=.XXv.] H E G G = x ).,X:X_.#.o.).~.~.(.`.`.`.}.=XY.L './.E.!.{.}.T.> s G v & 1 ^ | z.z.F.*.=.*.F.F.m.x.g.j.",
"p.p.p.a.c.F.F.F..X@X|.+X..m B U.U.C t Y :X2X&XT.U K $.).].}.>X;X}.R.W Y +.,X:X].Q./.,X:XC t G I V y 2 w 4.7.M. X*.OX+XF.F.x.a.g.",
"p.p.y.z.N.F.F.oXoXF.F.+XS u K O.K.> t H.,X>X&X$.U I K #.^.(._./.T.b @ C ].>X1X&X)._.,X,XE - g L G j % 1 ! >.M.+XF.F.F.F.+Xm.z.a.",
"p.p.c.c.z.F.F.@X|.+XoXF.n = V I I & C /.>X}.=XW #.`.J.> - ; ; & ; . . T ,X}.>X^.).}.=X,XW.x & k i y o 1 Q ! c.+X+XF.F.F.oX+XN.m.",
"p.p.r.z.F.$X$X+X+X.X-.oXd % y u N @ H.,X:XU.}.o.#.].U._.l       .   x !.:XU.}.L.W.`.Q.,X,XY o i e i o 1 Q Q 8.&.|.+XF.+X*. Xc.p.",
"p.p.z.N.F.F.+XF.+X+X.X+XS % @ q @   H.2X:XU.[.T.Q.(.O.}.l           $ E }.U.[.L.W.~.I <X,XT   . O 9 f n ! ( p.B.oX+XF.F..XoXF.c.",
"x.a.c.F.F.F.F.F.F.+XF.+X| q 3 <     I.2X-XU.[.{.}._.b G *           $ l W O.}.+.$.Q.K <X2XT       0 r [ ( 3.z.N..X@X|.+XF.F.F.N.",
"c.z.c.m.F.F.F.F.F.F.F.+Xk.2.r #     H.1X<X~.(.&X[.J.: s a Z a     a J J W P.Q.U #.).X.>X2XT     $ w ! ( 8.a.F.+X@X=.-.oXF.F.N.c.",
"p.c.z.c.F.F.F.+XF.+XF.b.j.5.^ 8     H.<X,X&XE.%XU.v b W H.E.W   . Y.'.}.}.`.+.K K.].~.,X,XT     ; 8 ! ` t.F.F.+X|.-.*.+XoXF.c.z.",
"r.y.c.$X$X$X$X$X$XXXM.v : $         G _.2X,X!.`./.!.}.U.+.G u   : J #.~.].L.o.H.^.}.*X,X*XG           $ S +X+X+XF.F.$X$X-.|.+XM.",
"y.c.F.$X$X$X$X$X$Xn.f y V W P G = . C ^.2X1X}.^./._.W.P.=X-XH.> ).`.].).E.Y.L.).}.*X,X1XE.x     - h k = % M B.F.$XF.$X$X+X+XF.F.",
"c.z.m.F.$X$X$X$Xe.H G J.J.!.^.+.k o : W [.2X>X}.[.}._._._._.o.o W T.].}.`._._.}.*X,X2X2XG o   . y j B V i y H n.$X$X$X$XF.F.F.N.",
"x.a.c.$X$X$X$X$X..z #.}.(.'.(.o.z @ o c U.:X,X>X*X}._.!.K.K.Y : #.T.].}.(.(.}.*X<X1X,X'.a . o . y v K L V h % | m.F.$X$XF.F.N.N.",
"p.a.c.+XoXF.$X$X..C O._.].`.R.K j $   = P `.:X,X:X=X^.K.o.o.L z )._.`.(.!.^.&X>X,X<X[.I & % % . y j K I U k . r r.N.$X$XF.$X$XN.",
"a.m.F. X-.$X$X$Xh.D N J.K.+.K z y .     * E (.;X,X,X,X&XL.U B B o.o.L.^.;X1X1X,X*X~.K y . % & . ; j K I G y . 8 / p.$X$X$X$XF.F.",
"N.F.F.+X+X+XF.F.k.' N N N j u y ; .       o h P Q.;X2X,X>X:X&X}.<X<X<X,X,X,X*XU.I v .     % %   . ; y u h y ; q Q 2.$X$X$X$XF.$X",
"N.F.+XF.F.F.@X.Xk.] K N _ m - o o     . & & o - x K O.^.=X>X,X>X2X2X>X`.P.o.C s - o       .       ; y & @ A k r Q  .+X*.oX$X$X$X",
"x.N.F.F.F.F.|.oXz.1.} { F p o X 1 X   o y h & % % & t c G T R R R R T G s & .       $             % d 5 O Q D r ! 5.+X|.oX$X$X$X",
"r.x.N.+X+X XOXoXm.q.:.6.S ; o < 8 X . - u z y y & .   . o $ .     . . .             ; $ o .     #   w q , e Q Q / r.$X$X$X$X$XF.",
"p.y.c.F.oX;.;.|.F.m.d.6.} M m w     ; u h j y : ; & . ; : ; %     & : &           o ; : y %   O Q + 4 n d Q Q Q ( p.$X$X$X$X$XM.",
"p.m.+XF.oX;.;. XF.F.XXF.M.M.v./   - V B j y y $ % & . ; : &       ; ; &       & % $ : y j h % O Q e e Q e Q Q ( 6.a.$X$X$X$X$XF.",
"p.m.F.F.+XoXOX+X X-.#XoXF.l.' p T T.).Q.o.J h ; %     ; y o       & $ .       & ; : z B I L b & O w Q Q ! :.6.7.z.N.$X$X$X$X$X$X",
"p.z.m.F.oX#XoX+X|.;.=.oX$Xw.S Y }.}._.^.~.#.G h ; & % $ $         $           o ; z K O.O.J.W M % < 0 ! <.x.c.c.m.$X$X$X$X$XF.N.",
"p.a.c.m.oX@XoXF.OX@X@X$XF._ b E.:X[.^.).^.L.I k ; ; %                   X 3 o . y B o.L.U.U.H.U h o 4 ( z.F.$X$XF.F.F.F.F.F.N.c.",
"a.c.x.c.$X$X$X$X$X$X$XF.a._ H Y.].L.~.^.K.O.b h ; %     O     O       X O ' A * ; N I $.K.K.O.K j o 4  .N.$X$X$X$XF.F.F.F.N.c.k.",
"N.a.c.F.F.F.F.F.F.F.+XF.k.7.| o.P.B X.O.L N y y %       0 1 < w     4 3 o t 2.m y u N X.$.#.K j y . 4 ) r.F.F.F.+XF.F.F.F.z.z.m.",
"a.y.c.m.k.F.k.m.F.oX-.+Xa._ F 5.o.N N N h t y $         8 d p Q w 0 e e 8 o ( m F _ u N N N j ; .   4 Q  .F.F.@X|.F.N.a.m.z.z.N.",
"p.p.a.z.c.z.c.N.F.+X X+Xk.' 9 A ..M F S ; o o 1 4 1   3 w r r e Q ) ( ~ e 4 ! 2 6 [ u ] m h u t 4 X 4 Q  .+XF..XoXF.F.m.x.r.r.z.",
"p.p.a.x.z.y.x.M.N.c.+XF.c.7.e q 7.p 5 9 p   1 3 0 w 3 ! ( 2.1./ ( r.a.r.9.5. .w 0 w A r n n p , Q 4 0 Q  .F.F.F.N.m.F.x.a.y.r.z.",
"p.p.x.x.p.a.a.c.z.a.F.F.$Xv.7.3.>.4 < 4 0 < w 4 4 Q ~ 3.p.m.m.p.a.N.F.F.XX.Xj.t. .( ( < w Q 0 1 Q Q ~  .a.F.F.F.x.z.c.z.a.u.z.c.",
"p.p.0.p.a.N.N.k.p.a.F.F.F.F.F.0.6.6.( Q Q Q Q Q ! ) 7.p.m.+X$X$XF.F.$XF. X;.=.|.c.r.>.Q ! ) Q Q ~ >.p.x.F.F.F.F.x.y.r.N.N.z.p.p.",
"p.p.8.0.p.p.d.r.z.m.a.F.a.v.F.m.N.N.z.7.7.>.>.7.k.M.N.N.*.|.$X$X$X$X$X$X.X=.=. XF.m.p.>. .>.p.r.M.N.N.F.m.a.N.z.x.c.r.y.p.p.p.p.",
"p.k.a.0.0.p.r.y.d.a.p.a.c.F.$XF.F.F.m.m.m.c.c.m.M.F.F.F..XXX$X$X$X$Xc.c.+X X X+XF.N.m.c.c.c.m.m.F.F.F.F.F.c.k.r.r.a.p.p.p.p.p.p.",
"0.a.p.p.p.p.8.p.0.0.8.y.z.x.x.c.F.c.m.F.F.x.N.c.c.F.F.F.F.F.N.c.F.$Xm.x.c.F.F.m.m.m.c.F.c.m.F.N.x.N.c.z.x.z.p.p.y.p.p.p.p.p.p.p.",
"0.p.p.p.p.p.p.p.0.0.p.p.8.p.y.r.c.y.z.c.x.r.c.a.z.N.F.m.N.m.c.z.F.$XF.c.a.F.m.a.a.z.r.c.a.z.c.c.p.x.z.p.p.p.p.p.p.p.p.p.p.p.p.p.",
"p.0.p.p.p.p.p.p.y.y.8.p.p.p.p.p.p.p.p.p.p.p.p.p.p.a.m.r.c.z.a.m.N.N.m.c.a.m.r.p.p.p.p.p.p.p.p.p.p.p.p.p.p.p.p.p.p.p.p.p.p.p.p.p.",
"p.p.p.p.p.p.p.p.8.r.r.y.p.p.p.p.p.p.p.p.p.p.p.p.p.p.r.p.y.y.p.p.p.r.y.p.p.p.p.p.p.p.p.p.p.y.p.p.p.p.p.p.p.p.p.p.p.p.p.p.p.p.p.p.",
"p.0.p.p.p.p.p.p.p.p.p.p.p.p.p.p.p.p.p.p.p.p.p.p.p.p.p.p.p.p.p.p.p.p.p.p.p.p.p.p.p.p.p.p.p.p.p.p.p.p.p.p.p.p.p.p.p.p.p.p.p.p.8.p.",
"p.p.p.p.p.p.p.p.p.p.p.p.p.p.p.p.p.p.p.8.p.p.p.p.p.p.p.p.p.8.p.p.p.p.p.p.p.p.p.p.p.p.p.p.p.p.p.p.p.p.p.p.p.p.p.p.8.p.p.p.p.p.p.p.",
"0.y.0.p.p.p.p.p.p.p.p.p.p.p.8.p.p.p.p.p.p.p.p.p.y.p.p.p.p.p.p.p.p.p.p.p.p.p.p.p.p.p.p.p.p.p.p.p.p.p.p.p.p.p.p.p.p.p.p.p.p.p.p.p.",
"p.0.r.p.p.p.p.p.8.p.p.p.p.p.p.p.p.p.p.p.p.p.p.p.p.p.p.p.p.p.p.p.p.p.p.p.p.p.p.p.p.p.p.p.p.7.p.p.p.p.p.p.r.r.p.p.p.p.p.p.p.p.p.p."
};
