/* XPM */
static char *minish_exit[] = {
/* columns rows colors chars-per-pixel */
"64 64 236 2 ",
"   c #1A1C1C",
".  c #303416",
"X  c #1E372C",
"o  c #36342A",
"O  c #333228",
"+  c #252416",
"@  c #500F14",
"#  c #720D12",
"$  c #7E1A28",
"%  c #523028",
"&  c #5E351C",
"*  c #2E4A1A",
"=  c #165324",
"-  c #31482E",
";  c #157328",
":  c #31752F",
">  c #14651D",
",  c #6D4D16",
"<  c #7B7510",
"1  c #524F36",
"2  c #745838",
"3  c #675239",
"4  c #636222",
"5  c #312140",
"6  c #382742",
"7  c #312C46",
"8  c #3D2B43",
"9  c #36394B",
"0  c #313F50",
"q  c #422E44",
"w  c #453245",
"e  c #4B3545",
"r  c #493849",
"t  c #533C47",
"y  c #533E4A",
"u  c #503E53",
"i  c #334854",
"p  c #305C5E",
"a  c #33535A",
"s  c #35504B",
"d  c #39795E",
"f  c #356553",
"g  c #345E60",
"h  c #316362",
"j  c #386A64",
"k  c #31736A",
"l  c #317C6E",
"z  c #39766B",
"x  c #1E5049",
"c  c #54424B",
"v  c #594249",
"b  c #5E4A4C",
"n  c #524B4C",
"m  c #574954",
"M  c #465758",
"N  c #585855",
"B  c #494A4D",
"V  c #614C4C",
"C  c #6B594F",
"Z  c #65564D",
"A  c #6D5B52",
"S  c #685759",
"D  c #6D5552",
"F  c #58655B",
"G  c #526C55",
"H  c #69614B",
"J  c #65695B",
"K  c #746454",
"L  c #79685A",
"P  c #7C6649",
"I  c #6C5A61",
"U  c #5A6E62",
"Y  c #467567",
"T  c #547566",
"R  c #476762",
"E  c #796866",
"W  c #6C7465",
"Q  c #8E0611",
"!  c #B5001B",
"~  c #A30014",
"^  c #B70023",
"/  c #AF0F27",
"(  c #A22B36",
")  c #C60128",
"_  c #D90137",
"`  c #CD0836",
"'  c #E4003C",
"]  c #E7033F",
"[  c #C62B35",
"{  c #9C701B",
"}  c #E90040",
"|  c #E70040",
" . c #EA0B43",
".. c #D82B41",
"X. c #8D724E",
"o. c #837364",
"O. c #8B7A6B",
"+. c #87756A",
"@. c #897877",
"#. c #88726A",
"$. c #D47268",
"%. c #CB594D",
"&. c #1C8B1C",
"*. c #11B019",
"=. c #28B81C",
"-. c #3A8F27",
";. c #31AF23",
":. c #4A9426",
">. c #648F29",
",. c #47AE34",
"<. c #26D416",
"1. c #12EF0A",
"2. c #1BCA17",
"3. c #3A836B",
"4. c #318271",
"5. c #348975",
"6. c #378B77",
"7. c #3A957C",
"8. c #3B977A",
"9. c #6BA850",
"0. c #5B8669",
"q. c #568771",
"w. c #45987B",
"e. c #59997A",
"r. c #48896F",
"t. c #6A9070",
"y. c #51A67C",
"u. c #6EA874",
"i. c #5DA64F",
"p. c #A69F12",
"a. c #CB9302",
"s. c #E1C702",
"d. c #B7955D",
"f. c #AF8652",
"g. c #92826D",
"h. c #8C8974",
"j. c #948374",
"k. c #9D8C7C",
"l. c #998876",
"z. c #8F9279",
"x. c #AA9174",
"c. c #8CAC69",
"v. c #B1AC7A",
"b. c #998549",
"n. c #D09168",
"m. c #CFAE76",
"M. c #94DC79",
"N. c #9CE177",
"B. c #AAE77A",
"V. c #B6E977",
"C. c #A0DE74",
"Z. c #C0E870",
"A. c #3C9B80",
"S. c #3EA285",
"D. c #4D9D80",
"F. c #42A483",
"G. c #43AC89",
"H. c #4AA783",
"J. c #4AB58B",
"K. c #4DBB8E",
"L. c #47B18B",
"P. c #56B789",
"I. c #4FBF90",
"U. c #53BF90",
"Y. c #58A884",
"T. c #64AB85",
"R. c #6BB788",
"E. c #59C38D",
"W. c #4EC495",
"Q. c #50C090",
"!. c #5CCC94",
"~. c #58C798",
"^. c #6BCC87",
"/. c #77D184",
"(. c #65CB95",
"). c #63D396",
"_. c #67D798",
"`. c #6BDB99",
"'. c #69D396",
"]. c #75DC98",
"[. c #74CF8E",
"{. c #73E39C",
"}. c #7BE59B",
"|. c #7BEB9E",
" X c #7DE093",
".X c #4ECFA6",
"XX c #61D6AC",
"oX c #7FEFA0",
"OX c #68E0B8",
"+X c #999086",
"@X c #A49483",
"#X c #AB9A89",
"$X c #A79486",
"%X c #B19E8B",
"&X c #A89386",
"*X c #B4A18D",
"=X c #BAA692",
"-X c #BDAA95",
";X c #B6A691",
":X c #B3B18E",
">X c #83A089",
",X c #C3AE99",
"<X c #C2AD97",
"1X c #C6B29C",
"2X c #C9B59D",
"3X c #D8B688",
"4X c #E4BE92",
"5X c #CCB6A0",
"6X c #CEBBA4",
"7X c #C4B8A1",
"8X c #D2BCA5",
"9X c #ABC283",
"0X c #9BED8C",
"qX c #96ED8F",
"wX c #8EEE96",
"eX c #86EF9C",
"rX c #89EF99",
"tX c #93ED91",
"yX c #83F09E",
"uX c #A4EB85",
"iX c #A8EB82",
"pX c #80F0A0",
"aX c #BCCBA7",
"sX c #DBCB9A",
"dX c #DEC9AF",
"fX c #D8C3A9",
"gX c #D8D2AC",
"hX c #E4D2B6",
"jX c #ECDCBD",
"kX c #E6D8B7",
"lX c #E9D0AC",
"zX c #EDDAAB",
"xX c #F0E0C0",
"cX c #F6EDC4",
"vX c #FDF9D1",
"bX c #F0DFC0",
/* pixels */
"Q.Q.Q.I.Q.Q.Q.Q.Q.Q.Q.Q.Q.Q.Q.Q.Q.Q.Q.K.Q.Q.Q.Q.Q.Q.Q.Q.W.y.0.P K H 0.^.N.V.Z.C.^.Q.Q.Q.Q.Q.Q.K.Q.Q.Q.Q.Q.Q.Q.Q.Q.Q.Q.Q.Q.Q.K.Q.",
"Q.Q.Q.Q.Q.Q.Q.Q.Q.Q.Q.Q.Q.Q.Q.Q.Q.Q.Q.Q.Q.Q.Q.Q.Q.Q.Q.K.Q.0.Q Q ! Q Z u.B.V.Z.C./.Q.Q.Q.Q.Q.Q.Q.Q.Q.Q.Q.Q.Q.Q.Q.Q.Q.Q.Q.Q.Q.Q.Q.",
"Q.Q.Q.Q.Q.Q.Q.Q.Q.K.Q.Q.K.Q.Q.Q.Q.Q.Q.Q.Q.Q.Q.Q.Q.Q.Q.Q.G Q ) _ _ _ / , c.C.V.M.^.K.Q.I.Q.Q.Q.Q.Q.Q.Q.Q.Q.Q.Q.Q.Q.Q.Q.Q.Q.Q.Q.Q.",
"Q.Q.I.Q.Q.Q.Q.K.Q.Q.Q.Q.Q.Q.Q.Q.Q.Q.Q.Q.Q.Q.Q.Q.Q.Q.Q.Q.3 Q ) ! ^ ] ~ $ 9././.^.E.Q.Q.Q.Q.Q.Q.Q.Q.Q.Q.Q.Q.Q.Q.Q.Q.Q.Q.Q.Q.Q.Q.Q.",
"K.Q.Q.W.W.W.W.Q.Q.Q.Q.Q.Q.Q.Q.Q.Q.Q.Q.Q.Q.Q.Q.Q.Q.Q.Q.Q.H # Q Q # ` ! # 0.y.E.Q.Q.Q.Q.Q.K.Q.Q.Q.Q.Q.Q.Q.Q.Q.Q.K.K.Q.Q.Q.Q.Q.Q.Q.",
"Q.Q.W.W..X.XW.K.K.Q.Q.Q.Q.Q.Q.Q.Q.Q.Q.Q.Q.Q.Q.Q.Q.Q.P.E.s + # @ @ ` ` ~ # 0.Q.Q.Q.Q.Q.Q.Q.Q.Q.I.Q.Q.Q.Q.Q.Q.Q.L.S.Q.Q.Q.Q.Q.Q.Q.",
"Q.Q.Q.W..X.XW.W.Q.Q.Q.Q.Q.Q.Q.Q.Q.K.Q.Q.Q.Q.Q.Q.Q.Q.P.0.& # Q # # _ ' ) Q H Q.Q.Q.Q.Q.Q.Q.Q.Q.Q.Q.Q.Q.Q.Q.Q.G.J.W.W.Q.Q.Q.Q.Q.J.",
"Q.Q.Q.Q.W.W.W.W.Q.W.XXXXW.Q.Q.Q.Q.Q.Q.Q.Q.Q.Q.K.Q.J.r.$ ~ ! ! ! ) _ ] _ ) P y.Q.Q.Q.Q.Q.Q.Q.Q.Q.Q.K.Q.Q.Q.K.S.Q.Q.W.Q.Q.Q.Q.Q.K.",
"Q.Q.Q.Q.Q.I.Q.Q.Q.W.OXOX.XQ.Q.Q.Q.Q.Q.Q.Q.Q.Q.Q.K.d o ^ ' _ ! ) ' | | | | $ x y.Q.Q.Q.Q.Q.Q.Q.Q.Q.Q.Q.Q.Q.Q.S.Q.Q.Q.Q.Q.Q.Q.Q.Q.",
"Q.K.K.Q.Q.Q.Q.I.Q.W.XXXX~.Q.Q.Q.Q.Q.Q.Q.Q.Q.Q.K.Q.f # _ ] ' _ ' | | | } } Q % w.Q.Q.Q.Q.I.Q.Q.I.Q.Q.Q.Q.Q.Q.W.Q.Q.Q.Q.Q.K.K.Q.Q.",
"I.G.J.Q.Q.Q.Q.Q.Q.Q.Q.Q.Q.Q.Q.Q.Q.Q.Q.Q.Q.J.P.!.H.3 Q _ ] ] ] } | | } } ] ^ # T P.(.P.P.Q.Q.Q.Q.Q.Q.Q.Q.Q.Q.Q.Q.Q.K.S.Q.S.L.Q.Q.",
"S.K.I.Q.I.Q.Q.I.Q.Q.Q.Q.Q.Q.Q.Q.Q.Q.Q.Q.Q.{ v.gXB @ ! ' ] ] ] ] | | } | ] ` Q O z.gXX.9.Q.Q.I.U.Q.Q.Q.Q.Q.Q.Q.K.J.J.S.L.Q.Q.Q.Q.",
"S.K.Q.Q.Q.Q.Q.XX~.Q.Q.Q.Q.Q.Q.Q.Q.Q.Q.Q.K.& b.sXz.( / _ ] ] ] ] ] ] ] ] ] ) / X.:Xm.3 G E.Q.I.I.Q.Q.Q.Q.Q.Q.Q.S.L.Q.S.S.Q.Q.Q.Q.",
"K.Q.Q.Q.Q.Q.Q.~.~.I.Q.Q.Q.Q.Q.Q.Q.Q.Q.Q.Q.X 3 f.zXn.[ ..] ] ] ] } ] ' ' ] ` %.4X3XX.- d Q.Q.U.U.Q.Q.Q.Q.Q.Q.Q.J.Q.Q.S.L.Q.Q.Q.Q.",
"I.Q.Q.Q.Q.Q.Q.Q.Q.Q.Q.I.Q.I.Q.Q.).Q.Q.Q.E.y.M 1 d.4X4Xn.[ ` _ } }  .` / %.m.zXm.P - 3.J.P.T.T.~.Q.!.Q.Q.Q.Q.Q.Q.Q.K.L.Q.Q.Q.Q.Q.",
"Q.Q.Q.Q.Q.Q.Q.Q.Q.Q.Q.Q.Q.Q.I.!.oX!.W.!.).{.w.f 3 v.fXX.X.$.%.[ ) ..$.$.X.v.sXX.1 x 4.y.z.k.u.Y.!.{.).!.W.Q.Q.Q.Q.Q.Q.Q.Q.Q.Q.E.",
"Q.Q.Q.Q.I.Q.Q.Q.Q.Q.Q.Q.Q.Q.Q.Q.oX!.`.oX{.Q.|.[.- O.m.O J fXm.%.[ n.sX:Xo P m.1 x 5.F.m 5XlX&XJ oX!.`.oX{.Q.Q.Q.Q.Q.Q.Q.Q.Q.^.M.",
"Q.Q.Q.Q.Q.Q.Q.I.Q.~.{.Q.Q.).|.{.!.{.oXyXoX{.oXoX^.c.f.O   V sXzXzXzXz.o   C f.t.^.].(.8 %X8X&XN J.8.8.E.|.Q.Q.`.).Q.Q.Q.Q.Q.^.N.",
"Q.Q.Q.I.Q.Q.Q.!.).!.oX{.`.|.oX|.`.|.yXoX|.eXoXe.T N 2 2 2 g.cXvXvXvX:XP 2 3 3 M T T W J +X&XO.m 7.7.8.w.P.`.{.|._.!._.Q.Q.Q.E.^.",
"I.Q.Q.Q.Q.Q.Q.)._.`.oXpXtXwXoXoXoXoXoXoX].e.e.G S n . b.m.m.zXcXcXxXzXm.d.3 X N c q r S #.#.W q.4.7.8.7.w.0XoXoX`.`._.Q.Q.Q.Q.E.",
"Q.Q.Q.Q.Q.Q.Q.W.`.oXoXpXuXqXoXeXeX|.eX].u.w m E <Xh.; :.b.b.d.sXxXm.f.p.>.-.f :X@.m 8 5 S m W ].8.8.w.w.y.V.yXyXoX{.!.Q.Q.Q.Q.Q.",
"Q.Q.Q.Q.W.Q.Q.{.eXeXpXpXoXoX|.eX}.eX}.e.8 L gXkXV.,.*.;.:.< 2 b.d.P 4 4 -.=.2.9.:Xj.v 5 5 5 Y }.|.oXoXoXpXpXyXyXeXoX|.W.Q.Q.Q.Q.",
"Q.Q.Q.).{.Q.{.|.0XV.V.eXoX).w.m 9 9 i n E gXkX9X,.<.1.;.-.: . , 4 . : -.:.<.1.,.9.:Xj.u 5 5 8 i 9 w.`.oXpXoXoXuXV.B.oX|.!._._.Q.",
"Q.Q.Q.Q.).{.|.yX0XZ.V.eX_.e.W O.#.E r S 2XjX:X,.<.1.1.;.> * : -.:.-.* . :.<.1.1.<.9.2X%Xu c E S e i r.P.).).oXiXV.B.oXoX{.`.^./.",
"Q.Q.Q.~.`.oXoXyXwXuX0XyXe.J E #X#XI c @.hXbX:Xi.=.*.*.> = > *.<.<.<.&.X = &.2.*.,.c.hXlXI c I O.K c s k F.K.|.qXuXqXpXpXpX_.!.^.",
"Q.Q.!.).{.oXoXrXrXyXoXyXU V o.k.@Xr r +XbXkXdXj.: ; = * * &.2.1.1.1.*.> . * ; &.t.1XkXxXO.r c +.o.A r i 5.S.{.oXpXoXpXpXpX{.).!.",
"Q.Q._.`.).oXyXuX0XyXeXyXR t K O.O.r I <XjX8X8XO.h.N * s.>.+ ; 2.1.&.= * p.>.o h.;XfXfXjX*Xm r C c y 8 i l 5.].eXyXyXoXpXeXyX|.{.",
"Q.Q.Q.).oXoXoXyXyXwXV.eXM w v V A q +XjXhX*X8X@.l.S . s.a.& = &.*.= . { s.{ O h.%X2X*XjXjX@.8 n l m 8 i 4.4.K.N.0XyXoXpXB.0X`.Q.",
"Q.Q._.{.oXoXoXoXyXeXwXyXU e 0 j w 5 +XbXhX#X6X%X*XW . a.a.{ O = ; X & a.a.{ 1 @.*X<XO.kXbX@.5 8 0 j N R 5.S.K. XrXyXoXoXwXeXoX`.",
"_.!.`.oXoXyXyXoXyXoXoXoXe.j i i 5 5 &XbXhX#X6X7X8X>Xd 1 @ + d w.w.r.- . . 2 *Xj.&X*Xo.lXbX@.5 5 5 h z r.8.G._.|.tXuX0XyXoXyXoX|.",
"`._._.{.oXoXoXoXoXoXoXoX).H.z i 5 5 +XbXhX-X,XdX8X+XR a x f w.G.D.H.3.s B +.=X+.k.<X@.jXbX@.5 5 q j 5.8.J.!.oXyXuXV.V.yXoXoX|.`.",
"Q.`._._.oXyXyXoXoXyXoX X[.P.3.h 5 5 +XkXjXfX%X8X#XD J D.y.e.D.r.r.D.Y.R.-X2Xl.o.@X6X;XbXbXE 5 5 t h 5.w.E.oXoXyX0XV.B.yXrXyX{.!.",
"Q.Q.`.pXpXpXpXpXpXpXeXV t q 5 O 5 5 E 2XbXbX;X1X-X;X6X#X+XW N 9 m W +X;X7X$Xj.@X-X8XdXbXdXE 5 5 5 5 5 q U yXyXyXoXoXpXpXV.0XyX|.",
"Q.`.oXpXpXpXpXpXpX[.N t E @.@.E t 5 I -XbXbX8X-X-X7X%X#X6XdX+Xr ,X6X5X,X#X#X@X-X8XdXjXbX%XS 5 6 r m Z y r F }.yXyXoXpXpXyXyXoXoX",
"`._.{.pXpXpXpXpXR.W E @X@X%X=Xl.A 8 y @.6XbXkX8X6X8X,X,X7X,X@.r O.*X5X5X,X5X1X8XdXjXxXxXE q 5 6 t A E K v v W [.oXoXyXoXoXyXoX|.",
"`.Q.`.pXpXpXpXpXu.D @X8X1X1X,Xl.K 8 8 I #XhXjXkXdX8X,X;X@X@X#.y k.=X5X8X,X,X8XdXkXbXjX5Xm 6 6 6 v A o.+.L V e Y.{.oXoXoXoXoXoX{.",
"Q.!.{.eXwXpXpXpXT.J +X,X5X1X%Xo.C 8 O u #.1XhXbXkX8X=X@Xj.l.#.K <X,X1X<X;X-XdXkXjXhX6X+.r w e 5 t A #.O.O.Z 6 z Q.|.pXpXoXpXpX|.",
"!.{.|.tXB.yXpXpXR.Y K @X@Xl.o.C v 6 5 5 r @.,XdXjXbXjXdX&X#.K L l.l.@X<XdXbXjXjXdX=Xo.v 6 w e 6 t C #.#.o.t 5 h 8.Q.pXpXpXpXoXoX",
"|.oXyXyXyXyXoXyX(.w.A K K S b v u 6 5 5 5 8 b @.=XdXbXjXjXhXdX8XhXhXkXjXjXbXdX%X@.S 6 5 5 w e 5 o t v b y c t j 4.y.pXpXpXpXpXpX",
"|.oXoXyXpXpXuXwX(.e.o.K 0.F t 8 q 5 5 5 e e q w S #.l.=X8XkXjXjXxXxXkX2X#X@.I m u 8 5 O 5 5 5 5 5 u y t r R Z Y l H.yXB.rXpXpXpX",
"_.|.oXoXpXpX0XrX_.H.0.q.T M 8 5 i 7 5 q y V e w q w v I E @.@.@.@.j.@.E m r 5 5 5 5 q 5 5 5 5 5 5 8 M M 9 4.T z 5.J.eX0XrXpXpXpX",
"Q._.|.oXyXqXqXrX].U.D.G.U y 7 i p 7 6 w V A V t w 6 5 8 8 8 6 5 5 8 8 5 5 5 5 5 5 6 t q 8 5 5 5 i 6 j j 0 l 4.4.7.U.pXpXpXpXpX|.",
"Q.Q.{.oXwXZ.V.0XoX{.~.L.t.S R k 5 5 r v V D V t t t 6 t u t e 5 5 t u e 5 5 5 5 5 q y y v e 5 7 l 0 p j M l 4.4.7.Q.pXpXpXpXpX|.",
"Q.{.oXoXwXZ.Z.qXoXoXeXpX}.eX'.w.7 e E o.D t u % q t 5 t y e 5 5 5 t y w 5 5 5 w q q y v C b e 9 l l l 4.l 4.4.8.L.).pXpXpXpXpXoX",
"Q.{.pXoXyXwXwXrXqXV.iXeXpX'.r.i @.%X<X%Xj.o.b t q 6 5 t u 6 5 5 5 e q 5 5 5 5 r t y A o.o.o.S r 9 k 4.4.5.S.L.J.!.|.pXpXpXpXpXpX",
"Q.).{.yXrXuXrXpX0XZ.V.rXpXT.U @.8X8X1X-X-Xk.E V t e w q q 5 5 5 5 q 5 5 5 5 5 6 y A o.k.k.@Xj.A 8 i h 5.F.).`.`.{.pXpXpXpXpXoX|.",
"K.)._.{.yXiXyXyXtXuXuXyXoXq.S ;XhX6X-X<X<X&XO.D y t r 5 5 5 5 5 5 5 5 5 7 i q 5 t L j.&X#X#Xk.+.V o p 8.).oXpXpXpXpXpXpXpXpX|.`.",
"~.`._.`.yXpXpXpXpXpXpXpX!.q.E #X5X&X=X-X@X+XA b t q 5 5 7 5 O 7 5 5 5 7 9 w.F r t L O.@X$X$Xk.o.D 8 p J.}.pXpXpXpXpXpXpXpX|.`.!.",
"|.!.`.yXoXyXoXoXoXoXyXoX!.J.e.j.#XE g.k.+.A b t w 5 5 5 h a i k 5 5 p p 8 c P.F v b K O.@Xl.o.C y 6 g 6.K.oXyXyXoXpXoXoXoX).).{.",
"~.Q.`.{.!.oX).{.oXwXV.yX).r.T T.h.L K K V b c w 5 5 5 5 h M M l k k l l g 8 7.F T q.b K L K A t 6 5 g 4.H.pXoXuX0XpX|.~.|.)._.{.",
"Q.Q.!._.`.).`.|.oXyXqXyX).r.j R u.N T F t 6 8 i p a 5 a l k k l l 7.7.6.l p 6.i f Y b e.F V v n p 7 p l w.oXyXwXrX|.oX{._.W.E.!.",
"Q.Q.!._._.Q.).|.|.`.oXoX`.P.4.j L.M M j M 5 i i h k a 6.w.H.H.8.8.I.!.U.P.P.w.z z z Y Y R M M r 4.a k 5.H.pXpXpX|.{.|.`.E.Q.!.).",
"Q.Q.)._.Q.!.!.`.).!.pXoXoX_.J.G.S.g i a k i l a p 4.6.G.~.{.{.I.!.oXoXpXeXtX[.E.H.A.A.0 k 4.h x l 5.6.S.!.oXoXoX`.!.{.!.!.W.).`.",
"Q.Q.Q.Q.!.oX|.!.Q.).|.oXoXoXoXQ.L.L.8.4.4.4.4.4.5.7.L.Q.{.yXyXoXpXpXpXpXwXZ.V.qX`.I.G.4.5.5.5.5.6.S.I._.oX|.oX|.`.W.E.|.oX).Q.Q.",
"Q.Q.Q.Q.Q.Q.!.Q.).{.~.|.)._.oXoX|.|.!.Q.L.8.S.L.!.{.|.|.B.0XyXoXpXpXpXpXwXZ.Z.tXoX`.I.S.y.S.Q.Q.oX{.oXoX{.!.|.).).`.Q.W.E.Q.Q.Q.",
"Q.(.~.K.Q.Q.Q.Q.Q.!.I.!.`.{.oXoXoXoX{.{.{.`.`.{.|.oXoXoXwXyXoXyXpXpX`.`.eXtXtXyXoXoX].`.`.`.{.{.oXoXoXoX|.{.).Q.!.!.Q.Q.Q.Q.Q.K.",
"Q.~.Q.Q.Q.Q.Q.Q.Q.Q.Q.Q.)._._.`.oX`.{.oX|._.|.{.{.oXoXoXoXoX|.`.oXpX{._.`.oXoX{.{.{._.oX`.|.oX|._.|.`._._.).Q.Q.Q.Q.Q.Q.Q.Q.Q.J.",
"Q.Q.Q.Q.Q.Q.Q.Q.Q.Q.Q.Q.K.Q.Q.Q.`.Q.).`.`.W._.!.!.{.oX{.oX{.`.).oXpXoX`.!.oX`.~.!.).Q.`.!.).`._.Q._.!.Q.Q.Q.Q.Q.Q.Q.Q.Q.Q.Q.Q.Q.",
"Q.Q.Q.Q.Q.Q.K.Q.Q.Q.Q.Q.Q.Q.Q.Q.Q.Q.Q.Q.Q.Q.Q.Q.Q.!.{.E.`._.!.{.}.|.|._.!.|.!.Q.Q.Q.Q.Q.Q.Q.Q.Q.Q.Q.Q.Q.Q.Q.Q.Q.Q.Q.Q.Q.Q.Q.Q.Q.",
"Q.Q.Q.Q.Q.Q.Q.Q.Q.Q.Q.Q.Q.Q.Q.Q.Q.Q.Q.Q.Q.Q.Q.Q.Q.Q.Q.Q.Q.Q.Q.Q.Q.Q.I.Q.K.Q.Q.Q.Q.Q.Q.Q.Q.Q.Q.Q.Q.Q.Q.Q.Q.Q.Q.Q.Q.Q.Q.Q.Q.Q.Q.Q.",
"Q.Q.Q.U.Q.Q.I.Q.Q.Q.Q.K.Q.Q.Q.Q.Q.Q.Q.Q.Q.Q.Q.Q.Q.Q.Q.Q.Q.Q.Q.Q.Q.Q.Q.Q.Q.Q.Q.Q.Q.Q.Q.Q.Q.Q.Q.Q.Q.Q.Q.Q.Q.Q.Q.Q.Q.Q.Q.Q.Q.Q.Q.Q.",
"Q.Q.Q.Q.Q.Q.Q.Q.Q.Q.Q.Q.Q.Q.Q.Q.Q.Q.Q.Q.Q.Q.Q.Q.Q.Q.Q.Q.Q.Q.Q.Q.Q.Q.Q.Q.Q.Q.Q.Q.Q.Q.Q.Q.Q.Q.Q.Q.Q.Q.Q.Q.Q.Q.Q.Q.Q.Q.Q.Q.Q.Q.Q.Q.",
"Q.Q.Q.Q.Q.Q.Q.Q.Q.Q.Q.Q.Q.Q.Q.Q.Q.Q.Q.Q.Q.Q.Q.Q.Q.Q.Q.Q.Q.Q.Q.Q.Q.Q.Q.Q.Q.Q.Q.Q.Q.Q.Q.Q.Q.Q.Q.Q.Q.Q.Q.Q.Q.Q.Q.Q.Q.Q.Q.Q.Q.K.Q.Q.",
"Q.Q.Q.I.Q.Q.Q.Q.Q.Q.Q.Q.I.Q.Q.Q.Q.Q.Q.Q.Q.Q.Q.Q.Q.Q.Q.Q.Q.K.Q.Q.Q.Q.Q.Q.Q.K.Q.Q.Q.Q.Q.Q.Q.K.Q.Q.Q.Q.Q.Q.Q.E.Q.Q.Q.Q.Q.Q.Q.Q.Q.Q."
};
