/* XPM */
static char *test[] = {
/* columns rows colors chars-per-pixel */
"64 64 206 2 ",
"   c #1A1C1C",
".  c #13371C",
"X  c #3A2C12",
"o  c #223D1B",
"O  c #373616",
"+  c #3A260C",
"@  c #1E3B2C",
"#  c #382B27",
"$  c #283527",
"%  c #363429",
"&  c #363F30",
"*  c #361011",
"=  c #500F14",
"-  c #75040A",
";  c #7A1A19",
":  c #690A18",
">  c #4C3A18",
",  c #6F2018",
"<  c #7D162F",
"1  c #58312B",
"2  c #6B3B2D",
"3  c #13591D",
"4  c #26461C",
"5  c #364416",
"6  c #28551E",
"7  c #0C7E19",
"8  c #20651F",
"9  c #184621",
"0  c #185F22",
"q  c #115429",
"w  c #3E4123",
"e  c #244A32",
"r  c #0F7C21",
"t  c #17722A",
"y  c #197635",
"u  c #126B28",
"i  c #327023",
"p  c #564A1D",
"a  c #6D4D16",
"s  c #797F0E",
"d  c #786515",
"f  c #5F5738",
"g  c #484B37",
"h  c #745838",
"j  c #6B5438",
"k  c #6A6E25",
"l  c #3D5444",
"z  c #28594E",
"x  c #2D6956",
"c  c #36775E",
"v  c #34674E",
"b  c #5B594B",
"n  c #785747",
"m  c #5B7357",
"M  c #4B6B4C",
"N  c #69624A",
"B  c #7C6649",
"V  c #726859",
"C  c #87010A",
"Z  c #95000E",
"A  c #9C0312",
"S  c #811C1D",
"D  c #8E0716",
"F  c #A30014",
"G  c #B3001B",
"H  c #B9001B",
"J  c #940625",
"K  c #B40022",
"L  c #BF0026",
"P  c #AF0F27",
"I  c #953F3F",
"U  c #BE3C3D",
"Y  c #C20025",
"T  c #CD002B",
"R  c #C8042A",
"E  c #CB0338",
"W  c #D50035",
"Q  c #DE0139",
"!  c #D80137",
"~  c #CF0E34",
"^  c #E4003C",
"/  c #E8003F",
"(  c #E20C3E",
")  c #C92336",
"_  c #C13D34",
"`  c #995C09",
"'  c #90710A",
"]  c #B97102",
"[  c #937532",
"{  c #AE7A3C",
"}  c #DC1B41",
"|  c #E70040",
" . c #E90040",
".. c #EA0B43",
"X. c #D43B41",
"o. c #826A47",
"O. c #937552",
"+. c #8B6C60",
"@. c #CE4D4E",
"#. c #C8664B",
"$. c #D47268",
"%. c #1C8B1C",
"&. c #0EA41A",
"*. c #0EBC17",
"=. c #14B11A",
"-. c #28B81C",
";. c #388927",
":. c #3F9928",
">. c #1AB925",
",. c #38B022",
"<. c #3BB031",
"1. c #2DAF31",
"2. c #479527",
"3. c #549123",
"4. c #648F29",
"5. c #0FCD12",
"6. c #1FDD14",
"7. c #25D416",
"8. c #27D218",
"9. c #0FE90C",
"0. c #17EC0C",
"q. c #0FF409",
"w. c #10F708",
"e. c #2DC620",
"r. c #299051",
"t. c #3EB04D",
"y. c #3D856C",
"u. c #308070",
"i. c #3E9573",
"p. c #3C9A6E",
"a. c #35A366",
"s. c #6B945C",
"d. c #41AC4D",
"f. c #5A8866",
"g. c #499172",
"h. c #7C947B",
"j. c #4AB368",
"k. c #46A67E",
"l. c #58A57B",
"z. c #4BB57A",
"x. c #5DB17D",
"c. c #68C878",
"v. c #B3B507",
"b. c #808930",
"n. c #B3890A",
"m. c #CB9903",
"M. c #CD8700",
"N. c #D7C103",
"B. c #EBCC01",
"V. c #998649",
"C. c #A88556",
"Z. c #B8975C",
"A. c #BD884C",
"S. c #948C72",
"D. c #BB9769",
"F. c #B6A674",
"G. c #90A670",
"H. c #CB9761",
"J. c #D58B6E",
"K. c #C2A675",
"L. c #D4AF78",
"P. c #D2B176",
"I. c #98E078",
"U. c #C0E870",
"Y. c #3CA182",
"T. c #38B0B8",
"R. c #49A583",
"E. c #49AA83",
"W. c #40A888",
"Q. c #47A880",
"!. c #4FBC8D",
"~. c #4BB784",
"^. c #53BD8E",
"/. c #53B486",
"(. c #50BE90",
"). c #55AE81",
"_. c #62B987",
"`. c #50C090",
"'. c #68C596",
"]. c #48D0A8",
"[. c #78D0A0",
"{. c #66DCB0",
"}. c #68E0B8",
"|. c #60E0C8",
" X c #809782",
".X c #89B69B",
"XX c #B7AF8E",
"oX c #D5BD8B",
"OX c #DEA983",
"+X c #E6BE97",
"@X c #E0BE87",
"#X c #98D8B8",
"$X c #BCCBA7",
"%X c #80F0A0",
"&X c #DBCB9A",
"*X c #E8CF9D",
"=X c #D2C8A1",
"-X c #D0D5A7",
";X c #EAC7A5",
":X c #F2DCB3",
">X c #E9DAAE",
",X c #F2E5BA",
"<X c #80F8C8",
"1X c #D8F0D8",
"2X c #FEFAD2",
"3X c #F8F1C8",
/* pixels */
"|.|.%X%Xu.W.`.`.`.`.`.`.`.`.`.`.`.`.`.`.`.`.`.`.`.`.`.`.`.`.`.`.`.`.`.`.`.`.`.`.`.`.`.`.`.`.`.`.`.`.`.`.`.`.`.`.`.`.`.`.`.`.`.`.",
"|.|.W.u.%XW.`.`.`.`.`.`.`.`.`.`.}.}.`.`.`.`.`.`.`.`.`.}.`.`.`.`.`.`.`.}.`.`.`.`.`.`.`.`.`.`.`.`.`.`.`.}.`.`.`.`.`.`.`.`.`.`.`.`.",
"|.|.|.T.W.%X`.`.`.`.`.`.`.`.`.`.}.}.`.`.`.`.`.}.`.`.`.`.`.`.`.`.`.`.`.`.`.`.`.`.`.`.`.`.W.`.`.`.`.`.`.`.`.`.`.`.`.`.`.`.W.`.`.`.",
"|.|.`.%X`.`.`.`.`.`.`.`.`.`.`.`.`.`.].}.}.].`.`.`.`.`.`.`.`.`.`.`.`.`.`.`.`.`.`.`.`.`.W.W.`.`.`.`.`.`.`.`.`.`.`.`.`.`.W.W.`.`.`.",
"|.|.|.W.%X`.`.`.`.`.`.`.`.`.`.`.`.`.}.<X<X}.`.`.`.`.`.`.`.}.}.`.`.`.`.`.`.}.}.`.`.`.`.`.`.`.W.`.`.`.`.`.`.}.}.`.`.`.`.`.`.`.W.`.",
"%X%X`.`.%X`.`.`.`.`.`.`.`.`.`.`.`.`.}.<X<X}.`.`.`.`.`.`.`.}.}.`.`.`.`.`.`.}.}.`.`.`.`.`.`.`.`.`.`.`.`.`.`.}.}.`.`.`.`.`.`.`.`.`.",
"`.`.%X%X`.`.`.`.`.`.`.`.`.`.`.`.`.`.].}.}.].`.`.].].`.`.`.`.`.`.].].`.`.`.`.`.`.`.W.`.`.`.`.`.`.].].`.`.`.`.`.`.`.W.`.`.`.`.`.`.",
"`.`.`.`.`.`.`.`.`.`.`.`.`.`.`.`.}.`.`.`.`.`.`.`.].].`.`.`.`.`.`.].].`.`.`.`.`.`.`.`.`.`.`.`.`.`.].].`.`.`.`.`.`.`.`.`.`.`.`.`.`.",
"`.`.`.`.`.`.`.`.`.`.`.`.`.`.`.`.`.`.`.`.`.`.`.`.`.`.`.`.`.`.[.`.`.`.`.`.`.`.`.`.`.`.`.`.`.`.`.`.`.`.`.`.`.`.`.`.`.`.`.`.`.`.`.`.",
"`.`.`.`.`.`.`.`.W.`.`.W.`.`.`.`.`.`.`.`.`.`.[.`.`.`.`.#X#X`.`.`.`.W.`.`.`.`.`.`.`.`.`.`.`.`.[.`.`.W.`.`.`.`.`.`.`.`.`.`.`.`.[.`.",
"`.`.`.`.`.`.`.`.`.W.`.W.`.W.`.`.`.`.`.`.`.`.`.`.`.`.#X1X1X#X`.`.`.`.`.`.`.`.`.`.`.`.`.`.`.`.`.`.`.`.`.`.`.`.`.`.`.`.`.`.`.`.`.`.",
"`.`.`.`.`.`.`.`.`.W.W.`.`.W.`.`.`.`.#X#X`.`.`.`.`.`.#X1X1X#X`.`.`.`.`.`.`.`.W.`.`.`.#X#X`.`.`.`.`.`.`.`.`.`.W.`.`.`.#X#X`.`.`.`.",
"`.`.`.`.`.`.`.`.`.`.W.`.`.`.`.W.`.`.#X#X`.`.`.`.`.`.`.#X#X`.`.`.`.`.`.W.W.`.`.`.`.`.#X#X`.`.`.`.`.`.`.W.W.`.`.`.`.`.#X#X`.`.`.`.",
"`.`.`.`.`.`.`.`.`.`.`.`.`.`.W.`.`.`.`.`.`.`.`.`.`.`.`.`.`.`.`.[.`.`.`.`.W.`.`.`.`.`.`.`.`.`.`.`.`.`.`.`.W.`.`.`.`.`.`.`.`.`.`.`.",
"`.`.`.`.`.`.`.`.`.`.`.`.`.`.W.`.`.`.`.`.`.`.`.`.#X#X`.`.(.`.`.(.`.(.`.`.`.`.`.`.`.`.`.`.`.`.`.`.`.`.`.`.`.`.`.`.`.`.`.`.`.`.`.`.",
"`.`.`.`.`.`.`.`.`.`.`.`.`.`.`.`.`.`.`.`.[.`.`.`.#X#X`.`.(./.m N B N g.`.`.`.`.`.`.`.`.`.[.`.`.`.`.`.`.`.`.`.`.`.`.`.`.`.[.`.`.`.",
"#X#X`.`.`.`.`.`.`.`.`.`.`.`.`.`.`.`.`.`.`.`.`.`.`.`.`.`.^.f.S F K Z n R.^.`.`.`.`.`.`.`.`.`.`.`.`.`.`.`.`.`.`.`.`.[.`.`.`.`.`.`.",
"#X#X`.`.`.`.`.`.`.`.`.`.`.`.`.`.`.`.`.`.`.`.`.`.`.W.`.`.m S R Q Q ! A 2 l.`.`.`.`.`.`.`.`.`.`.`.`.`.`.`.`.`.`.`.`.`.`.#X#X`.`.`.",
"`.`.`.`.`.`.`.[.`.`.`.`.W.`.`.`.`.`.`.`.`.`.`.`.`.`.`.(.N C Y Y L Q K , g.(.`.`.`.`.`.`.`.`.`.`.`.`.`.`.W.`.`.`.`.`.#X1X1X#X`.`.",
"`.`.`.#X#X`.`.`.`.`.`.W.W.`.`.`.`.`.`.`.`.`.`.`.`.`.`.(.b - Z C - W K , m /.`.(.`.`.`.`.`.`.`.`.`.`.`.W.W.`.`.`.`.`.#X1X1X#X`.`.",
"`.`.#X1X1X#X`.`.`.`.`.`.`.`.W.`.`.`.`.`.`.`.`.`.`.`.`.(.v * - = = E E D ; m W.(.`.`.`.`.`.`.`.`.`.`.`.`.`.`.W.`.`.`.`.#X#X`.`.`.",
"`.`.#X1X1X#X`.`.`.`.`.`.`.`.`.`.`.`.`.`.`.`.`.`.`.`.^.m 1 : C - : | Q Y A V (.(.`.`.`.`.`.`.`.`.`.`.`.`.`.`.`.`.[.`.`.`.`.`.`.`.",
"`.`.`.#X#X`.`.`.`.W.`.`.`.`.`.`.`.`.`.`.`.`.`.`.`.Y.f.S F H G G Y Q  .^ Y n k.`.`.`.`.`.`.`.`.`.`.W.`.`.`.`.`.`.`.`.`.`.`.`.#X#X",
"`.`.`.`.`.`.[.`.`.`.`.`.`.`.`.`.`.`.`.`.`.`.`.`.Y.x # P ^ W H R ^ / | | | S e k.`.`.`.`.`.`.`.`.`.`.`.`.`.`.`.`.`.`.`.`.`.`.#X#X",
"`.`.`.`.`.`.`.`.`.`.`.`.`.`.`.`.`.`.`.`.`.`.`.`.`.M = E  . .W !  .| /  . .J 1 .X`.`.`.`.`.`.`.`.`.`.`.`.`.`.`.`.`.`.`.`.`.`.`.`.",
"`.`.`.`.`.`.`.`.`.`.`.`.`.`.[.`.`.`.`.`.(.x._.'.E.f Z Q  . ./  .| |  . . .K D _.`.'._./.`.`.`.`.`.`.`.`.`.`.`.`.`.`.`.`.`.`.`.`.",
"`.`.`.`.W.`.`.`.`.`.`.`.`.`.`.`.`.`.`.`.`.[ F.$XM = G Q  . . . .| / | | / T Z # h.-XV.s.`.`.`.`.`.`.`.`.`.`.`.`.`.`.`.`.W.`.`.`.",
"`.`.`.W.W.`.`.`.`.`.#X#X`.`.`.`.`.`.`.`.`.> C.&XS.I H Q  . . . ./ / |  ./ Y P +.XXP.h M `.`.`.`.`.`.`.`.`.`.`.`.`.`.`.W.W.`.`.`.",
"`.`.`.`.`.`.W.`.`.`.#X#X`.`.`.`.`.`.`.`.`.@ f Z.;XJ.) } | |  . ./ / ^ ! } ~ @.;XoXO.% c `.`.`.`.`.`.`.`.`.`.`.`.`.`.`.`.`.`.W.`.",
"`.`.`.`.`.`.`.`.`.`.`.`.`.`.`.`.`.`.`.`.(.k.v 1 D.+X+XH.U K |  .| / T P #.OX;XL.o.e g.~.`.`.`.`.`.`.`.`.`.`.`.`.`.`.`.`.`.`.`.`.",
"`.W.`.`.`.`.`.`.`.`.`.`.`.`.`.`.`.`.`.`.(.(.i.v f F.&XO.O.$.@.) R X.$.$.B F.&Xo.g c /.`.`.`.`.`.`.`.`.`.`.`.`.`.`.W.`.`.`.`.`.`.",
"`.`.`.`.`.`.`.`.`.`.`.`.[.`.`.`.`.`.`.`.(.(.`.k.l +.K.% V =XL.#.U H.&XXX& B K.g c `.`.`.`.`.`.`.`.`.`.`.`.`.`.`.`.`.`.`.`.`.`.`.",
"`.`.`.`.`.`.`.`.`.`.`.`.`.`.`.`.`.`.`.`.`.`.`.!.k.G.C.%   b &X:X;X,XS.&   h F.l.!.`.`.`.`.`.`.`.`.`.`.`.`.`.`.`.`.`.`.`.`.`.`.`.",
"`.`.`.`.`.`.`.`.`.`.`.`.`.`.`.`.`.`.`.}.`.`.`.`.`.f.j h N S.>X2X2X2XXXB h h N x.`.`.`.`.`.`.`.`.`.`.`.`.`.`.[.`.`.`.`.`.`.`.[.`.",
"`.`.`.`.Y.`.`.`.`.`.`.`.`.`.`.`.`.`.`.`.`.`.`.`.`.v O V.H.&X:X3X3X,X*XL.Z.f $ k.`.`.`.`.Y.`.`.`.`.`.`.`.`.`.`.`.`.`.`.`.`.`.`.`.",
"`.`.`.W.W.`.`.`.`.`.`.`.`.`.`.`.`.`.`.`.`.`.`.`.`.r.t 3.b.{ H.;X,XL.A.[ 4.;.y z.`.`.`.Y.Y.`.`.`.`.`.#X#X`.`.`.`.`.`.#X#X`.`.`.`.",
"`.`.`.`.`.`.Y.`.`.`.`.`.`.`.`.`.`.`.`.`.`.}.}.`.j.1.5.,.3.k k O.D.n k 4.:.-.>.t.z.`.`.`.`.`.Y.`.`.`.#X#X`.`.`.`.`.`.#X#X`.`.`.`.",
"`.`.`.`.`.`.`.`.`.`.`.`.`.`.`.`.`.`.`.`.`.}.{.j.<.7.6.,.2.i o p d O 6 ;.,.8.0.-.t.z.`.`.`.`.`.`.`.`.`.`.`.`.`.`.`.`.`.`.`.`.`.`.",
"`.W.`.`.`.`.`.`.`.`.`.`.`.`.`.`.].].`.`.`.`.j.<.6.q.0.,.8 o i 2.2.;.6 4 ;.e.w.0.e.t.`.`.`.`.`.`.`.`.`.`.`.`.`.`.`.`.`.`.`.`.`.`.",
"`.`.`.`.`.`.`.`.`.`.`.`.`.`.`.`.].].`.`.(.(.z.t.>.*.=.8 9 0 -.8.8.8.%.9 6 %.*.*.1.j.!.`.`.`.`.`.`.`.`.`.[.`.`.`.`.`.`.`.[.`.`.`.",
"}.`.`.`.`.`.`.`.`.`.`.`.`.`.`.`.`.`.`.`.`.`.`.~.r.r 0 5 4 r 5.q.q.9.&.0 O 6 8 %.p.`.`.`.`.`.`.`.`.`.`.`.`.`.`.`.`.`.`.`.`.`.[.`.",
"`.`.].}.}.].`.`.`.`.`.`.`.`.`.`.`.[.`.`.`.`.`.`.~.z 5 v.4.. r 5.9.&.q 5 v.4.9 g.`.`.`.`.`.`.[.`.`.`.`.`.`.`.`.`.`.`.`.#X#X`.`.`.",
"`.`.}.<X<X}.`.`.`.`.`.`.`.`.`.`.`.`.`.`.`.`.`.`.(.x X N.m.a O r &.3 O ` B.' @ k.`.`.`.`.`.`.`.`.`.`.`.`.`.`.`.`.`.`.#X1X1X#X`.`.",
"`.`.}.<X<X}.`.`.`.`.`.`.`.`.`.`.`.`.`.`.#X#X`.`.(.c 5 n.M.` O q u @ a ] m.d @ Q.`.`.#X#X`.`.`.`.`.`.`.`.`.`.`.`.`.`.#X1X1X#X`.`.",
"`.`.].}.}.].`.`.`.`.`.`.`.`.`.`.`.`.`.`.#X#X`.`.(.R.c g + # c i.i.y.l X X v Q.!.`.`.#X#X`.`.`.`.`.`.`.`.`.`.`.`.`.`.`.#X#X`.`.`.",
"}.}.`.`.`.`.`.}.`.`.`.`.`.`.`.`.`.`.`.`.`.`.`.`.(.(.R.x z x R.R.R.R.y.z z g.`.`.`.`.`.`.`.`.`.`.`.`.`.`.`.`.`.`.`.`.`.`.`.`.`.[.",
"}.}.`.`.`.`.`.`.`.`.`.`.`.`.`.`.`.`.`.`.`.`.`.`.].].!.E.R.R.E.R.R.R.R.E.!.`.`.`.`.`.`.`.`.`.`.`.`.`.`.`.`.`.`.`.#X#X`.`.`.`.`.`.",
"`.`.`.`.`.`.`.`.`.`.`.`.`.`.`.`.`.`.`.[.`.`.`.`.].].(.!.^.^.`.`.!.!.!.!.`.`.`.`.`.`.`.`.[.`.`.`.`.`.`.`.`.`.`.`.#X#X`.`.`.`.`.`.",
"`.`.`.`.`.`.`.`.`.`.`.`.`.`.`.`.`.`.`.`.`.`.`.`.`.`.`.`.`.`.`.`.`.`.`.`.`.`.`.`.`.`.`.`.`.`.`.`.`.`.`.`.`.`.`.`.`.`.`.`.`.`.`.`.",
"`.`.`.`.`.`.`.`.`.`.`.`.`.`.`.`.`.`.`.`.`.`.`.`.I.I.`.`.`.`.`.`.`.`.`.`.`.`.`.`.`.`.`.`.`.`.`.`.`.`.`.`.`.`.`.`.`.`.`.`.`.`.`.`.",
"`.`.`.`.`.`.`.`.`.`.`.`.`.`.`.`.`.`.`.`.`.`.`.`.I.I.`.`.`.`.`.I.`.`.`.`.`.`.`.`.`.`.`.`.`.`.`.`.`.`.`.`.`.`.`.`.`.`.`.`.`.`.`.`.",
"`.`.`.`.`.`.`.`.`.`.`.`.`.`.`.`.`.`.`.`.`.`.`.`.`.`.c.I.I.c.`.`.`.`.`.`.`.`.`.`.`.`.`.`.`.`.`.`.`.`.`.`.`.`.`.`.`.`.`.`.`.`.`.`.",
"`.`.`.`.`.`.`.`.`.`.`.`.`.`.`.`.`.`.`.`.`.`.`.`.`.`.I.U.U.I.`.`.`.`.`.`.`.`.`.`.`.`.`.`.`.`.`.`.`.`.`.`.`.`.`.`.`.`.`.`.`.`.`.`.",
"`.`.`.`.`.`.`.`.`.`.`.`.`.`.`.`.`.`.`.`.`.`.`.`.`.`.I.U.U.I.`.`.`.`.`.`.`.`.`.`.`.`.`.`.`.`.`.`.`.`.`.`.`.`.`.`.`.`.`.`.`.`.`.`.",
"`.`.`.`.`.`.`.`.`.`.`.`.`.`.`.`.`.`.`.`.`.`.`.`.`.`.c.I.I.c.`.`.`.`.`.`.`.`.`.`.`.`.`.`.`.`.`.`.`.`.`.`.`.`.`.`.`.`.`.`.`.`.`.`.",
"`.`.`.`.`.`.`.`.`.`.`.`.`.`.`.`.`.`.`.`.`.`.`.`.I.`.`.`.`.`.`.`.`.`.`.`.`.`.`.`.`.`.`.`.`.`.`.`.`.`.`.`.`.`.`.`.`.`.`.`.`.`.`.`.",
"].].`.`.`.`.`.`.`.`.`.`.`.`.`.`.`.`.`.`.`.`.`.`.`.`.`.`.`.`.`.`.`.`.`.`.`.`.`.`.`.`.W.`.`.`.`.`.`.`.W.`.`.`.`.`.`.`.`.`.`.`.`.`.",
"].].`.`.`.`.`.`.`.`.`.`.`.`.`.`.`.`.`.}.`.`.`.`.`.`.`.`.`.`.`.`.`.`.`.`.`.`.`.`.`.W.`.`.`.`.`.`.`.W.`.`.`.`.`.`.`.`.`.`.`.`.`.`.",
"`.`.`.`.`.}.}.`.`.`.`.`.`.`.`.`.`.`.`.`.`.`.`.`.`.`.`.`.`.`.`.`.`.`.`.`.`.`.`.`.`.W.`.`.`.`.`.`.`.W.`.`.`.`.`.`.`.`.`.`.`.`.`.`.",
"`.`.`.`.`.}.}.`.`.`.`.`.`.`.`.`.`.`.`.`.`.`.`.`.`.`.`.`.`.`.`.`.`.`.`.`.`.`.`.`.`.`.`.`.`.`.`.`.`.`.`.`.`.`.`.`.`.`.`.`.`.`.`.`.",
"`.`.`.`.`.`.`.`.`.`.`.`.`.`.`.`.`.`.`.`.`.}.}.`.`.`.`.`.`.`.`.`.`.`.`.`.`.`.`.`.`.`.`.`.W.`.W.`.`.`.`.`.W.`.W.`.`.`.`.`.`.`.`.`.",
"`.`.`.`.`.`.`.`.`.`.`.`.`.`.`.`.`.`.`.`.`.}.}.`.`.`.`.`.`.`.`.`.`.`.`.`.`.`.`.`.`.`.W.`.W.W.`.`.`.`.W.`.W.W.`.`.`.`.`.`.`.`.`.`.",
"`.`.`.}.`.`.`.`.`.`.`.`.`.`.`.`.].].`.`.`.`.`.`.`.`.`.`.`.`.`.`.`.`.`.`.`.`.`.`.`.`.W.`.W.W.`.`.`.`.W.`.W.W.`.`.`.`.`.`.`.`.`.`.",
"`.`.`.`.`.`.`.`.`.`.`.`.`.`.`.`.].].`.`.`.`.`.`.`.`.`.`.`.u.u.`.`.`.`.`.`.`.`.`.`.`.`.`.W.`.`.`.`.`.`.`.W.`.`.`.`.`.`.`.`.`.`.`."
};
