/* XPM */
static char *minish_right_left[] = {
/* columns rows colors chars-per-pixel */
"64 64 191 2 ",
"   c #60E0C8",
".  c #80F0A0",
"X  c #308070",
"o  c #40A888",
"O  c #50C090",
"+  c #68E0B8",
"@  c #38B0B8",
"#  c #48D0A8",
"$  c #80F8C8",
"%  c #78D0A0",
"&  c #98D8B8",
"*  c #D8F0D8",
"=  c #7B0002",
"-  c #A20012",
";  c #93000C",
":  c #740100",
">  c #930010",
",  c #B70023",
"<  c #CB002C",
"1  c #C30029",
"2  c #AC001E",
"3  c #9D0013",
"4  c #E90041",
"5  c #E5003E",
"6  c #BB0024",
"7  c #9D000F",
"8  c #DA0034",
"9  c #DD0139",
"0  c #840109",
"q  c #3D0917",
"w  c #1A1C1A",
"e  c #62411C",
"r  c #654C24",
"t  c #563131",
"y  c #D30439",
"u  c #B91C2A",
"i  c #191617",
"p  c #665D42",
"a  c #CC9B6E",
"s  c #E51A49",
"d  c #E8003E",
"f  c #E02044",
"g  c #C77E4F",
"h  c #A56F2F",
"j  c #7E6539",
"k  c #BC7643",
"l  c #C11429",
"z  c #D1002C",
"x  c #C92D3A",
"c  c #DCAE78",
"v  c #AF7F3D",
"b  c #985C1A",
"n  c #AF3E2E",
"m  c #CA192F",
"M  c #BA262B",
"N  c #BB523A",
"B  c #C5975C",
"V  c #825F32",
"C  c #673F1A",
"Z  c #312A21",
"A  c #9C7748",
"S  c #B94839",
"D  c #BA2231",
"F  c #A95F34",
"G  c #BD9256",
"H  c #9C692B",
"J  c #372816",
"K  c #141418",
"L  c #977B5C",
"P  c #EABB92",
"I  c #EDCEAF",
"U  c #EAC4A1",
"Y  c #E1B184",
"T  c #E8D1A2",
"R  c #EFE4B9",
"E  c #423626",
"W  c #0C0E10",
"Q  c #534B3D",
"!  c #92805E",
"~  c #E2C58C",
"^  c #F5E0A9",
"/  c #F9E7B2",
"(  c #F0D89F",
")  c #DAB67A",
"_  c #CDA065",
"`  c #8E8871",
"'  c #DDC89A",
"]  c #4B4A49",
"[  c #0A0C0F",
"{  c #0B2718",
"}  c #364025",
"|  c #8B6B41",
" . c #9E825E",
".. c #A38C69",
"X. c #7E7125",
"o. c #3F3712",
"O. c #343230",
"+. c #9B9781",
"@. c #43423A",
"#. c #178626",
"$. c #156923",
"%. c #1C2B1C",
"&. c #1A281C",
"*. c #358825",
"=. c #2E6421",
"-. c #167B27",
";. c #3A9A29",
":. c #21CC17",
">. c #18C516",
",. c #287A25",
"<. c #359429",
"1. c #268928",
"2. c #0F6024",
"3. c #F80045",
"4. c #863C0B",
"5. c #A9732E",
"6. c #5B9650",
"7. c #099F1C",
"8. c #25D516",
"9. c #18F20B",
"0. c #14DC10",
"q. c #29B61F",
"w. c #13241D",
"e. c #970420",
"r. c #B50534",
"t. c #BC082A",
"y. c #A24546",
"u. c #AE7A58",
"i. c #D9AD6F",
"p. c #587944",
"a. c #0A8919",
"s. c #1CE210",
"d. c #13B819",
"f. c #2FB021",
"g. c #33C21E",
"h. c #2FAA22",
"j. c #3B9C1C",
"k. c #493C12",
"l. c #231D17",
"z. c #381113",
"x. c #C70130",
"c. c #DA3461",
"v. c #E2CFD3",
"b. c #E4E6E4",
"n. c #E7D1B5",
"m. c #51412C",
"M. c #0D3C1C",
"N. c #359626",
"B. c #13EF09",
"V. c #3AD109",
"C. c #A97304",
"Z. c #4A2E12",
"A. c #0B1416",
"S. c #4A111F",
"D. c #471120",
"F. c #48202C",
"G. c #463E31",
"H. c #20341C",
"J. c #176B1B",
"K. c #1EDF11",
"L. c #227B1A",
"P. c #1B811D",
"I. c #160B16",
"U. c #134A13",
"Y. c #10AC15",
"T. c #276C1F",
"R. c #594916",
"E. c #854F0B",
"W. c #87620B",
"Q. c #184629",
"!. c #285749",
"~. c #243430",
"^. c #215136",
"/. c #1C7239",
"(. c #673A0B",
"). c #B97402",
"_. c #BC8C07",
"`. c #494D26",
"'. c #1C2F2E",
"]. c #2C4F43",
"[. c #459A7B",
"{. c #3E8269",
"}. c #282419",
"|. c #3A7B64",
" X c #49A382",
".X c #489E7F",
"XX c #377864",
"oX c #4BA987",
"OX c #98E078",
"+X c #68C878",
"@X c #C0E870",
/* pixels */
"    . . X o O O O O O O O O O O O O O O O O O O O O O O O O O O O O O O O O O O O O O O O O O O O O O O O O O O O O O O O O O O ",
"    o X . o O O O O O O O O O O + + O O O O O O O O O + O O O O O O O + O O O O O O O O O O O O O O O + O O O O O O O O O O O O ",
"      @ o . O O O O O O O O O O + + O O O O O + O O O O O O O O O O O O O O O O O O O O o O O O O O O O O O O O O O O O o O O O ",
"    O . O O O O O O O O O O O O O O # + + # O O O O O O O O O O O O O O O O O O O O O o o O O O O O O O O O O O O O O o o O O O ",
"      o . O O O O O O O O O O O O O + $ $ + O O O O O O O + + O O O O O O + + O O O O O O O o O O O O O O + + O O O O O O O o O ",
". . O O . O O O O O O O O O O O O O + $ $ + O O O O O O O + + O O O O O O + + O O O O O O O O O O O O O O + + O O O O O O O O O ",
"O O . . O O O O O O O O O O O O O O # + + # O O # # O O O O O O # # O O O O O O O o O O O O O O # # O O O O O O O o O O O O O O ",
"O O O O O O O O O O O O O O O O + O O O O O O O # # O O O O O O # # O O O O O O O O O O O O O O # # O O O O O O O O O O O O O O ",
"O O O O O O O O O O O O O O O O O O O O O O O O O O O O O O % O O O O O O O O O O O O O O O O O O O O O O O O O O O O O O O O O ",
"O O O O O O O O o O O o O O O O O O O O O O % O O O O & & O O O O o O O O O O O O O O O O O % O O o O O O O O O O O O O O O % O ",
"O O O O O O O O O o O o O o O O O O O O O O O O O O & * * & O O O O O O O O O O O O O O O O O O O O O O O O O O O O O O O O O O ",
"O O O O O O O O O o o O O o O O O O & & O O O O O O & * * & O O O O O O O O o O O O & & O O O O O O O O O O o O O O & & O O O O ",
"O O O O O O O O O O o O O O O o O O & & O O O O O O O & & O O O O O O o o O O O O O & & O O O O O O O o o O O O O O & & O O O O ",
"O O O O O O O O O O O O O O o O O O O O O O O O O O O O O O O % O O O O o O O O O O O O O O O O O O O O o O O O O O O O O O O O ",
"O O O O O O O O O O O O O O o O O O O O O O O O & & O O O O O O O O O O O O O O O O O O O O O O O O O O O O O O O O O O O O O O ",
"O O O O O O O O O O O O O O O O O O O O % O O O & & O O O O O O O O O O O O O O O O O O % O O O O O O O O O O O O O O O % O O O ",
"& & O O O O O O O O O O O O O O O O O O O O O O O O O O O O O O O O O O O O O O O O O O O O O O O O O O O O O O O % O O O O O O ",
"& & O O O O O O O O O O O O O O O O O O O O O O O o O O O O O O O O O = - ; : O O O O O O O O O O O O O O O O O O O O & & O O O ",
"O O O O O O O % O O O O o O O O O O O O O O O O O O O O O O O O O O > , < 1 2 = O O O O O O O O O O O O o O O O O O & * * & O O ",
"O O O & & O O O O O O o o O O O O O O O O O O O O O O O O O O O O : 3 4 4 5 6 = O O O O O O O O O O O o o O O O O O & * * & O O ",
"O O & * * & O O O O O O O O o O O O O O O O O O O O O O O O O O O : 3 5 4 < - = O O O O O O O O O O O O O O o O O O O & & O O O ",
"O O & * * & O O O O O O O O O O O O O O O O O O O O O O O O O o O 7 6 5 4 < 7 = O O O O O O O O O O O O O O O O % O O O O O O O ",
"O O O & & O O O O o O O O O O O O O O O O O O O O o O O O O o o O , 8 5 4 8 6 ; = O O O O O O O O o O O O O O O O O O O O O & & ",
"O O O O O O % O O O O O O O O O O O O O O O O O o o O O O O O O = 6 4 4 4 4 9 6 3 0 O O O O O O O O O O O O O O O O O O O O & & ",
"O O O O O O O O O O O O O O O O O O O O O O O O O O O O O O % O = 6 4 4 4 4 5 5 5 2 = O O O O O O O O O O O O O O O O O O O O O ",
"O O O O O O O O O O O O O O % O O O O O O O O O O O O & & O O O 3 < 4 4 4 4 4 4 4 9 , = O O O O O O O O O O O O O O O O O O O O ",
"O O O O o O O O O O O O O O O O O O O O O O O O O O & * * & O q 6 9 4 4 4 4 4 4 4 4 8 ; O O O O O O O O O O O O O O O O o O O O ",
"O O O o o O O O O O & & O O O O O O O O O O O O O O & * w e r t y 4 4 4 4 4 4 4 4 4 9 u O O O O O O O O O O O O O O O o o O O O ",
"O O O O O O o O O O & & O O O O O O O O O O O O O O O & & i p a s d 4 4 4 4 4 4 4 d f g h O O O O O O O O O O O O O O O O O o O ",
"O O O O O O O O O O O O O O O O O O O O O O O O O O O O O O j k l 8 4 4 4 4 4 4 4 z x c v b O O O O O O O O O O O O O O O O O O ",
"O o O O O O O O O O O O O O O O O O O O O O O O & & O O O O O e n m z z z z z z m M N B V C O O O O O O O O O O O o O O O O O O ",
"O O O O O O O O O O O O % O O O O O O O O O O O & & O O O O O Z A S u D D D u M F G B H J K O O O O O O O O O O O O O O O O O O ",
"O O O O O O O O O O O O O O O O O O O O O O O O O O O O O O O O Z L P I I I U Y T R T G E W O O O O O O O O O O O O O O O O O O ",
"O O O O O O O O O O O O O O O O O O O + O O O O O O O O O O % O O Q ! ~ ^ / ( ) _ L ` ' ] [ O O O O O O O O % O O O O O O O % O ",
"O O O O o O O O O O O O O O O O O O O O O O O O O O O O O O O O O { } |  ... .| X.o.O.+.@.W O O O O O O O O O O O O O O O O O O ",
"O O O o o O O O O O O O O O O O O O O O O O O O O O & & O O O O O #.$.%.&.%.&.%.*.=.w w w O O O O O & & O O O O O O & & O O O O ",
"O O O O O O o O O O O O O O O O O O O O O + + O O O & & O O O -.;.:.>.*.$.,.,.$.<.1.2.O O O o O O O & & O O O O O O & & O O O O ",
"O O O O O O O O O O O O O O O O O O 6 3.4 4 < 7 : 4.5._ ~ 6.7.>.8.9.0.1.1.;.<.#.>.q.,.w.K O O O O O O O O O O O O O O O O O O O ",
"O o O O O O O O O O O O O O O O # : e.r.< 5 8 t.y.u.B i.) p.a.0.s.0.d.#.f.g.h.#.>.8.j.k.l.K O O O O O O O O O O O O O O O O O O ",
"O O O O O O O O O O O O O O O O # # w z.0 x.9 c.v.b.n.) G m.M.-.N.1.#.h.s.B.>.-.*.:.V.C.Z.A.O O O O O O % O O O O O O O % O O O ",
"+ O O O O O O O O O O O O O O O O O O O O S.D.F.] ] ] G.E O O %.H.%.J.K.g.L.M.&.%.J.P.o.O O O O O O O O O O O O O O O O O O % O ",
"O O # + + # O O O O O O O O O O O % O O O O A.O O O O W O O O O I.I.U.Y.T.R.E.W.J { Q.!.O O % O O O O O O O O O O O O & & O O O ",
"O O + $ $ + O O O O O O O O O O O O O O O O O O O O O O O O O O O ~.^./.&.(.)._.`.'.].[.O O O O O O O O O O O O O O & * * & O O ",
"O O + $ $ + O O O O O O O O O O O O O O & & O O O O O O O O O O O [.[.{.~.l.}.Z |.[.[. XO O O O O O O O O O O O O O & * * & O O ",
"O O # + + # O O O O O O O O O O O O O O & & O O O O O O O + + O O O  X.X{.XXXX|.[. X X& O O O O O O O O O O O O O O O & & O O O ",
"+ + O O O O O + O O O O O O O O O O O O O O O O O O O O O + + O O O O  X XoXoXoX X XO O O O O O O O O O O O O O O O O O O O O % ",
"+ + O O O O O O O O O O O O O O O O O O O O O O # # O O O O O O O O O O O O O O O O O O O O O O O O O O O O O O & & O O O O O O ",
"O O O O O O O O O O O O O O O O O O O % O O O O # # O O O O O O O O O O O O O O O O O O % O O O O O O O O O O O & & O O O O O O ",
"O O O O O O O O O O O O O O O O O O O O O O O O O O O O O O O O O O O O O O O O O O O O O O O O O O O O O O O O O O O O O O O O ",
"O O O O O O O O O O O O O O O O O O O O O O O O OXOXO O O O O O O O O O O O O O O O O O O O O O O O O O O O O O O O O O O O O O ",
"O O O O O O O O O O O O O O O O O O O O O O O O OXOXO O O O O OXO O O O O O O O O O O O O O O O O O O O O O O O O O O O O O O O ",
"O O O O O O O O O O O O O O O O O O O O O O O O O O +XOXOX+XO O O O O O O O O O O O O O O O O O O O O O O O O O O O O O O O O O ",
"O O O O O O O O O O O O O O O O O O O O O O O O O O OX@X@XOXO O O O O O O O O O O O O O O O O O O O O O O O O O O O O O O O O O ",
"O O O O O O O O O O O O O O O O O O O O O O O O O O OX@X@XOXO O O O O O O O O O O O O O O O O O O O O O O O O O O O O O O O O O ",
"O O O O O O O O O O O O O O O O O O O O O O O O O O +XOXOX+XO O O O O O O O O O O O O O O O O O O O O O O O O O O O O O O O O O ",
"O O O O O O O O O O O O O O O O O O O O O O O O OXO O O O O O O O O O O O O O O O O O O O O O O O O O O O O O O O O O O O O O O ",
"# # O O O O O O O O O O O O O O O O O O O O O O O O O O O O O O O O O O O O O O O O o O O O O O O O o O O O O O O O O O O O O O ",
"# # O O O O O O O O O O O O O O O O O + O O O O O O O O O O O O O O O O O O O O O o O O O O O O O o O O O O O O O O O O O O O O ",
"O O O O O + + O O O O O O O O O O O O O O O O O O O O O O O O O O O O O O O O O O o O O O O O O O o O O O O O O O O O O O O O O ",
"O O O O O + + O O O O O O O O O O O O O O O O O O O O O O O O O O O O O O O O O O O O O O O O O O O O O O O O O O O O O O O O O ",
"O O O O O O O O O O O O O O O O O O O O O + + O O O O O O O O O O O O O O O O O O O O O o O o O O O O O o O o O O O O O O O O O ",
"O O O O O O O O O O O O O O O O O O O O O + + O O O O O O O O O O O O O O O O O O O o O o o O O O O o O o o O O O O O O O O O O ",
"O O O + O O O O O O O O O O O O # # O O O O O O O O O O O O O O O O O O O O O O O O o O o o O O O O o O o o O O O O O O O O O O ",
"O O O O O O O O O O O O O O O O # # O O O O O O O O O O O X X O O O O O O O O O O O O O o O O O O O O O o O O O O O O O O O O O "
};
