/* XPM */
static char *minish_down_right[] = {
/* columns rows colors chars-per-pixel */
"64 64 203 2 ",
"   c #60E0C8",
".  c #80F0A0",
"X  c #308070",
"o  c #40A888",
"O  c #50C090",
"+  c #68E0B8",
"@  c #38B0B8",
"#  c #48D0A8",
"$  c #80F8C8",
"%  c #78D0A0",
"&  c #98D8B8",
"*  c #D8F0D8",
"=  c #850107",
"-  c #990310",
";  c #A60118",
":  c #940212",
">  c #8D020D",
",  c #AB0119",
"<  c #C10026",
"1  c #CB012C",
"2  c #BC0023",
"3  c #A10115",
"4  c #7D0205",
"5  c #C5002B",
"6  c #D40233",
"7  c #CA0131",
"8  c #B3052D",
"9  c #900916",
"0  c #780308",
"q  c #B2001E",
"w  c #9B0625",
"e  c #521013",
"r  c #630809",
"t  c #4B0E0E",
"y  c #98000D",
"u  c #B30320",
"i  c #DD0139",
"p  c #E4003D",
"a  c #750A1D",
"s  c #42100E",
"d  c #E8003F",
"f  c #A47A44",
"g  c #A57436",
"h  c #E90040",
"j  c #DA0136",
"k  c #A65247",
"l  c #C69772",
"z  c #D4C088",
"x  c #A82E37",
"c  c #BD745F",
"v  c #C00A2C",
"b  c #A01522",
"n  c #921E1C",
"m  c #A90316",
"M  c #BA011F",
"N  c #8F0917",
"B  c #2F2E28",
"V  c #5B4928",
"C  c #9B4A34",
"Z  c #B92C36",
"A  c #C31630",
"S  c #CC0D31",
"D  c #DC0B3C",
"F  c #DD0840",
"G  c #E71147",
"H  c #E80A42",
"J  c #79644B",
"K  c #7D745B",
"L  c #96896A",
"P  c #BD936D",
"I  c #CC816C",
"U  c #D0685F",
"Y  c #D15951",
"T  c #CC4D4A",
"R  c #D05E65",
"E  c #DD3853",
"W  c #C33A44",
"Q  c #503415",
"!  c #494B38",
"~  c #B7A886",
"^  c #C6B995",
"/  c #DBC499",
"(  c #E6C999",
")  c #E2B991",
"_  c #CFA16E",
"`  c #524139",
"'  c #A79073",
"]  c #CC6968",
"[  c #D47F72",
"{  c #CA9D6B",
"}  c #8D5619",
"|  c #423D33",
" . c #78693F",
".. c #B08042",
"X. c #C49960",
"o. c #D6B179",
"O. c #3C3831",
"+. c #575544",
"@. c #E8C7A6",
"#. c #EED1AE",
"$. c #D4B687",
"%. c #B8A379",
"&. c #8E8062",
"*. c #948D73",
"=. c #C9C2A1",
"-. c #F7EEC6",
";. c #EBDFB6",
":. c #674D2B",
">. c #766A24",
",. c #867733",
"<. c #A1914A",
"1. c #AA8E52",
"2. c #C3AF8A",
"3. c #AFA183",
"4. c #39452B",
"5. c #1A2E1A",
"6. c #2D8122",
"7. c #3B8423",
"8. c #529429",
"9. c #527130",
"0. c #63502B",
"q. c #917045",
"w. c #8A6F43",
"e. c #4F593C",
"r. c #37532E",
"t. c #1D6423",
"y. c #126425",
"u. c #27A820",
"i. c #1DB41C",
"p. c #29B31E",
"a. c #36A923",
"s. c #379423",
"d. c #2B5D20",
"f. c #292F18",
"g. c #536320",
"h. c #535C1F",
"j. c #4F4A18",
"k. c #35571C",
"l. c #2B5C1E",
"z. c #22811D",
"x. c #12AA1B",
"c. c #3AAB24",
"v. c #25C519",
"b. c #1CDC11",
"n. c #25CF17",
"m. c #36A422",
"M. c #2F7C23",
"N. c #356B21",
"B. c #30BA1E",
"V. c #24D515",
"C. c #19D513",
"Z. c #13E20F",
"A. c #245821",
"S. c #26651F",
"D. c #24551F",
"F. c #2C6D22",
"G. c #2EA61F",
"H. c #178B1D",
"J. c #1A561D",
"K. c #1BAC1C",
"L. c #16691E",
"P. c #23721F",
"I. c #185E23",
"U. c #465D16",
"Y. c #11CD12",
"T. c #13ED0B",
"R. c #0FAD17",
"E. c #1A721C",
"W. c #456217",
"Q. c #235B1D",
"!. c #0A1E1C",
"~. c #6B6B10",
"^. c #9F970A",
"/. c #5E6A12",
"(. c #0F8F19",
"). c #958C0B",
"_. c #384317",
"`. c #736715",
"'. c #CAA305",
"]. c #A37A08",
"[. c #C79805",
"{. c #A58F0A",
"}. c #463918",
"|. c #0E0F1B",
" X c #695112",
".X c #8D6409",
"XX c #815C0E",
"oX c #376346",
"OX c #307250",
"+X c #744F10",
"@X c #295247",
"#X c #428C70",
"$X c #429677",
"%X c #387863",
"&X c #3E4F35",
"*X c #3F5E41",
"=X c #3E896F",
"-X c #47A080",
";X c #48A382",
":X c #479F80",
">X c #98E078",
",X c #68C878",
"<X c #C0E870",
/* pixels */
"    . . X o O O O O O O O O O O O O O O O O O O O O O O O O O O O O O O O O O O O O O O O O O O O O O O O O O O O O O O O O O O ",
"    o X . o O O O O O O O O O O + + O O O O O O O O O + O O O O O O O + O O O O O O O O O O O O O O O + O O O O O O O O O O O O ",
"      @ o . O O O O O O O O O O + + O O O O O + O O O O O O O O O O O O O O O O O O O O o O O O O O O O O O O O O O O O o O O O ",
"    O . O O O O O O O O O O O O O O # + + # O O O O O O O O O O O O O O O O O O O O O o o O O O O O O O O O O O O O O o o O O O ",
"      o . O O O O O O O O O O O O O + $ $ + O O O O O O O + + O O O O O O + + O O O O O O O o O O O O O O + + O O O O O O O o O ",
". . O O . O O O O O O O O O O O O O + $ $ + O O O O O O O + + O O O O O O + + O O O O O O O O O O O O O O + + O O O O O O O O O ",
"O O . . O O O O O O O O O O O O O O # + + # O O # # O O O O O O # # O O O O O O O o O O O O O O # # O O O O O O O o O O O O O O ",
"O O O O O O O O O O O O O O O O + O O O O O O O # # O O O O O O # # O O O O O O O O O O O O O O # # O O O O O O O O O O O O O O ",
"O O O O O O O O O O O O O O O O O O O O O O O O O O O O O O % O O O O O O O O O O O O O O O O O O O O O O O O O O O O O O O O O ",
"O O O O O O O O o O O o O O O O O O O O O O % O O O O & & O O O O o O O O O O O O O O O O O % O O o O O O O O O O O O O O O % O ",
"O O O O O O O O O o O o O o O O O O O O O O O O O O & * * & O O O O O O O O O O O O O O O O O O O O O O O O O O O O O O O O O O ",
"O O O O O O O O O o o O O o O O O O & & O O O O O O & * * & O O O O O O O O o O O O & & O O O O O O O O O O o O O O & & O O O O ",
"O O O O O O O O O O o O O O O o O O & & O O O O O O O & & O O O O O O o o O O O O O & & O O O O O O O o o O O O O O & & O O O O ",
"O O O O O O O O O O O O O O o O O O O O O O O O O O O O O O O % O O O O o O O O O O O O O O O O O O O O o O O O O O O O O O O O ",
"O O O O O O O O O O O O O O o O O O O O O O O O & & O O O O O O O O O O O O O O O O O O O O O O O O O O O O O O O O O O O O O O ",
"O O O O O O O O O O O O O O O O O O O O % O O O & & O O O O O O O O O O O O O O O O O O % O O O O O O O O O O O O O O O % O O O ",
"& & O O O O O O O O O O O O O O O O O O O O O O O O O O O = - ; : O O O O O O O O O O O O O O O O O O O O O O O O % O O O O O O ",
"& & O O O O O O O O O O O O O O O O O O O O O O O o O O > , < 1 2 3 4 O O O O O O O O O O O O O O O O O O O O O O O O & & O O O ",
"O O O O O O O % O O O O o O O O O O O O O O O O O O O O 3 5 6 1 1 3 4 O o O O O O O O O O O O O O O O O o O O O O O & * * & O O ",
"O O O & & O O O O O O o o O O O O O O O O O O O O O O O 2 7 8 9 ; > 0 o o O O O O O O O O O O O O O O o o O O O O O & * * & O O ",
"O O & * * & O O O O O O O O o O O O O O O O O O O O O q 6 6 w e 0 r t O O O o O O O O O O O O O O O O O O O o O O O O & & O O O ",
"O O & * * & O O O O O O O O O O O O O O O O O O O O y u i p 8 a 4 r s O O O O O O O O O O O O O O O O O O O O O % O O O O O O O ",
"O O O & & O O O O o O O O O O O O O O O O O O O O 3 , 1 d d i 7 q : 0 O O O f g O O O O O O O O O o O O O O O O O O O O O O & & ",
"O O O O O O % O O O O O O O O O O O O O O O O O o - 2 i d h d d j 1 < q - k l z O O O O O O O O O O O O O O O O O O O O O O & & ",
"O O O O O O O O O O O O O O O O O O O O O O O O 0 > 5 d h h h h d d i 1 q x c l O O O O O O O O O O O O O O O O O O O O O O O O ",
"O O O O O O O O O O O O O O % O O O O O O O O O 4 - 5 d h h h h h h d p j v b n O O O O O O O O O O O O O O O O O O O O O O O O ",
"O O O O o O O O O O O O O O O O O O O O O O O O - , 1 d h h h h h h h d d 1 m y O O O O O O O O O O O O O O O O O O O O o O O O ",
"O O O o o O O O O O & & O O O O O O O O O O O O , 2 6 d h h h h h h h h d 6 M , O O O O O O O O O O O O O O O O O O O o o O O O ",
"O O O O O O o O O O & & O O O O O O O O O O O O N , 1 j i d h h d d h h p 5 w 9 O O O O O O O O O O O O O O O O O O O O O O o O ",
"O O O O O O O O O O O O O O O O O O O O O O O B V C Z A S D D F G H d p 6 b e s O O O O O O O O O O O O O O O O O O O O O O O O ",
"O o O O O O O O O O O O O O O O O O O O O O J K L P I U Y T Z x R E S S W C V Q O O O O O O O O O O O O O O O O O o O O O O O O ",
"O O O O O O O O O O O O % O O O O O O O O ! L ~ ^ / ( ( ) _ J ` ' ] W W [ { g } O O O O O O O O O O O O O O O O O O O O O O O O ",
"O O O O O O O O O O O O O O O O O O O O O O | !  ...X.o.( ( L O.+.' ) @.#.$.g } O O O O O O O O O O O O O O O O O O O O O O O O ",
"O O O O O O O O O O O O O O O O O O O + O O O O O g g ..X.o.%.&.*.=.-.-.;.%.:.Q O O O O O O O O O O O O O O % O O O O O O O % O ",
"O O O O o O O O O O O O O O O O O O O O O O O O O >.>.>.,.<.1.' 2./ / ^ 3.K 4.5.O O O O o O O O O O O O O O O O O O O O O O O O ",
"O O O o o O O O O O O O O O O O O O O O O O O O O 6.6.7.8.8.9.0.q.f w.e.! r.t.y.O O O o o O O O O O & & O O O O O O & & O O O O ",
"O O O O O O o O O O O O O O O O O O O O O + + O O u.i.p.a.s.d.f.g.h.j.k.l.z.x.i.O O O O O O o O O O & & O O O O O O & & O O O O ",
"O O O O O O O O O O O O O O O O O O O O O + + O c.v.b.n.m.M.d.l.7.N.k.N.7.B.b.V.B.O O O O O O O O O O O O O O O O O O O O O O O ",
"O o O O O O O O O O O O O O O O # # O O O O O c.B.C.Z.v.6.A.S.s.m.m.M.D.F.G.C.Z.v.a.O O O O O O O O O O O O O O O O O O O O O O ",
"O O O O O O O O O O O O O O O O # # O O O O O O u.x.x.H.A.J.H.n.V.V.K.L.D.P.x.x.K.m.O O O O O O O O O O % O O O O O O O % O O O ",
"+ O O O O O O O O O O O O O O O O O O O O O O O O y.I.k.U.l.H.Y.T.Z.R.E.W.W.Q.y.O O O O O O O O O O O O O O O O O O O O O O % O ",
"O O # + + # O O O O O O O O O O O % O O O O O O O !.5.~.^./.Q.(.Y.R.E.U.).)._.!.O O O O O O % O O O O O O O O O O O O & & O O O ",
"O O + $ $ + O O O O O O O O O O O O O O O O O O O O f.`.'.].j.J.(.L._.`.[.{.}.|.O O O O O O O O O O O O O O O O O O & * * & O O ",
"O O + $ $ + O O O O O O O O O O O O O O & & O O O O O  X.XXXV oXOXOX! +X.X`.e.@XO O & & O O O O O O O O O O O O O O & * * & O O ",
"O O # + + # O O O O O O O O O O O O O O & & O O O O O O }.4.oX#X$X$X%X&X4.*X%XO O O & & O O O O O O O O O O O O O O O & & O O O ",
"+ + O O O O O + O O O O O O O O O O O O O O O O O O O O O %X=X-X-X-X$X%X%X%XO O O O O O O O O O O O O O O O O O O O O O O O O % ",
"+ + O O O O O O O O O O O O O O O O O O O O O O # # O O O -X-X;X;X;X-X:X$XO O O O O O O O O O O O O O O O O O O & & O O O O O O ",
"O O O O O O O O O O O O O O O O O O O % O O O O # # O O O O O O O O O O O O O O O O O O % O O O O O O O O O O O & & O O O O O O ",
"O O O O O O O O O O O O O O O O O O O O O O O O O O O O O O O O O O O O O O O O O O O O O O O O O O O O O O O O O O O O O O O O ",
"O O O O O O O O O O O O O O O O O O O O O O O O >X>XO O O O O O O O O O O O O O O O O O O O O O O O O O O O O O O O O O O O O O ",
"O O O O O O O O O O O O O O O O O O O O O O O O >X>XO O O O O >XO O O O O O O O O O O O O O O O O O O O O O O O O O O O O O O O ",
"O O O O O O O O O O O O O O O O O O O O O O O O O O ,X>X>X,XO O O O O O O O O O O O O O O O O O O O O O O O O O O O O O O O O O ",
"O O O O O O O O O O O O O O O O O O O O O O O O O O >X<X<X>XO O O O O O O O O O O O O O O O O O O O O O O O O O O O O O O O O O ",
"O O O O O O O O O O O O O O O O O O O O O O O O O O >X<X<X>XO O O O O O O O O O O O O O O O O O O O O O O O O O O O O O O O O O ",
"O O O O O O O O O O O O O O O O O O O O O O O O O O ,X>X>X,XO O O O O O O O O O O O O O O O O O O O O O O O O O O O O O O O O O ",
"O O O O O O O O O O O O O O O O O O O O O O O O >XO O O O O O O O O O O O O O O O O O O O O O O O O O O O O O O O O O O O O O O ",
"# # O O O O O O O O O O O O O O O O O O O O O O O O O O O O O O O O O O O O O O O O o O O O O O O O o O O O O O O O O O O O O O ",
"# # O O O O O O O O O O O O O O O O O + O O O O O O O O O O O O O O O O O O O O O o O O O O O O O o O O O O O O O O O O O O O O ",
"O O O O O + + O O O O O O O O O O O O O O O O O O O O O O O O O O O O O O O O O O o O O O O O O O o O O O O O O O O O O O O O O ",
"O O O O O + + O O O O O O O O O O O O O O O O O O O O O O O O O O O O O O O O O O O O O O O O O O O O O O O O O O O O O O O O O ",
"O O O O O O O O O O O O O O O O O O O O O + + O O O O O O O O O O O O O O O O O O O O O o O o O O O O O o O o O O O O O O O O O ",
"O O O O O O O O O O O O O O O O O O O O O + + O O O O O O O O O O O O O O O O O O O o O o o O O O O o O o o O O O O O O O O O O ",
"O O O + O O O O O O O O O O O O # # O O O O O O O O O O O O O O O O O O O O O O O O o O o o O O O O o O o o O O O O O O O O O O ",
"O O O O O O O O O O O O O O O O # # O O O O O O O O O O O X X O O O O O O O O O O O O O o O O O O O O O o O O O O O O O O O O O "
};
