/* XPM */
static char *monster_low[] = {
/* columns rows colors chars-per-pixel */
"64 64 225 2 ",
"   c #010204",
".  c #0B0B0C",
"X  c #0A0606",
"o  c #160A01",
"O  c #1A1508",
"+  c #0B0C13",
"@  c #171618",
"#  c #111012",
"$  c #250C01",
"%  c #281905",
"&  c #351B00",
"*  c #281A16",
"=  c #341011",
"-  c #1E241C",
";  c #2A2105",
":  c #362607",
">  c #272518",
",  c #352916",
"<  c #3B3518",
"1  c #383105",
"2  c #1B1923",
"3  c #251C27",
"4  c #3E1A2E",
"5  c #1C232D",
"6  c #272627",
"7  c #36292A",
"8  c #3C3528",
"9  c #2B2B36",
"0  c #362B37",
"q  c #363438",
"w  c #2D3137",
"e  c #462C03",
"r  c #473506",
"t  c #583E02",
"y  c #463519",
"u  c #4D3016",
"i  c #473A2C",
"p  c #433737",
"a  c #54392C",
"s  c #38413B",
"d  c #594507",
"f  c #58461B",
"g  c #6B5606",
"h  c #745706",
"j  c #685517",
"k  c #6B4C0E",
"l  c #796309",
"z  c #79651C",
"x  c #6D671C",
"c  c #584928",
"v  c #5B5325",
"b  c #494538",
"n  c #584C37",
"m  c #585536",
"M  c #6A5826",
"N  c #725A26",
"B  c #6B5D37",
"V  c #6C522D",
"C  c #796A28",
"Z  c #6A6637",
"A  c #766737",
"S  c #736A2F",
"D  c #3A3948",
"F  c #363148",
"G  c #433B49",
"H  c #453A53",
"J  c #3A4543",
"K  c #3B5052",
"L  c #494749",
"P  c #574B45",
"I  c #5A544A",
"U  c #494856",
"Y  c #524C55",
"T  c #525353",
"R  c #57575A",
"E  c #4E544E",
"W  c #665849",
"Q  c #695A50",
"!  c #596551",
"~  c #6C6546",
"^  c #786744",
"/  c #746D4E",
"(  c #5A5763",
")  c #4E4960",
"_  c #665B6C",
"`  c #56786A",
"'  c #566D62",
"]  c #686566",
"[  c #6F6A78",
"{  c #7A7775",
"}  c #74706B",
"|  c #866C07",
" . c #876618",
".. c #8C7418",
"X. c #957918",
"o. c #90760B",
"O. c #866A26",
"+. c #8A7729",
"@. c #967826",
"#. c #887737",
"$. c #917533",
"%. c #A07A2C",
"&. c #A17D1D",
"*. c #86774A",
"=. c #8A7956",
"-. c #8F774D",
";. c #877B77",
":. c #308070",
">. c #70857A",
",. c #6B946F",
"<. c #68C878",
"1. c #94831C",
"2. c #AD921A",
"3. c #9B8528",
"4. c #9A8737",
"5. c #A8872B",
"6. c #AA932A",
"7. c #B9992A",
"8. c #A88837",
"9. c #B79938",
"0. c #B08F33",
"q. c #BAA32B",
"w. c #B9A234",
"e. c #B4A019",
"r. c #C6A829",
"t. c #D6B728",
"y. c #C6A837",
"u. c #D5B73B",
"i. c #CAB72D",
"p. c #D4B228",
"a. c #DAC438",
"s. c #D7CD2F",
"d. c #EAC627",
"f. c #EAD637",
"g. c #F0D233",
"h. c #EAE738",
"j. c #F6E835",
"k. c #978847",
"l. c #8B8354",
"z. c #958A56",
"x. c #999858",
"c. c #968B4A",
"v. c #A68A46",
"b. c #A79446",
"n. c #A89857",
"m. c #B99A56",
"M. c #B1904B",
"N. c #B9A757",
"B. c #B0A450",
"V. c #939271",
"C. c #A79A68",
"Z. c #B39C67",
"A. c #B19875",
"S. c #B5AA66",
"D. c #BAB67C",
"F. c #B0AE6D",
"G. c #91B176",
"H. c #CBAF4A",
"J. c #98E078",
"K. c #D9C543",
"L. c #CFC04D",
"P. c #EBD14B",
"I. c #F8E842",
"U. c #E9EB40",
"Y. c #D2C770",
"T. c #C0E870",
"R. c #E2CD72",
"E. c #7A7D82",
"W. c #847987",
"Q. c #8C7C96",
"!. c #38B0B8",
"~. c #5A9183",
"^. c #639A84",
"/. c #7A918C",
"(. c #40A888",
"). c #58B491",
"_. c #68A88D",
"`. c #6AB997",
"'. c #71B195",
"]. c #7DBAA2",
"[. c #50C090",
"{. c #5AC294",
"}. c #65C498",
"|. c #77C69A",
" X c #48D0A8",
".X c #78D0A0",
"XX c #7AC9A9",
"oX c #68E0B8",
"OX c #60E0C8",
"+X c #898A89",
"@X c #91918D",
"#X c #938D96",
"$X c #959294",
"%X c #9B9699",
"&X c #879291",
"*X c #8DB08E",
"=X c #B4AE8C",
"-X c #9293A3",
";X c #A298A1",
":X c #84BAA6",
">X c #8EB2A8",
",X c #BAB5B6",
"<X c #BEADA6",
"1X c #C9B598",
"2X c #89C69A",
"3X c #AEC892",
"4X c #98D8B8",
"5X c #92C9AB",
"6X c #AACBB3",
"7X c #80F0A0",
"8X c #CEC49A",
"9X c #C1B7C0",
"0X c #BACAC1",
"qX c #80F8C8",
"wX c #DBD5D7",
"eX c #CACCC6",
"rX c #E2DCDE",
"tX c #EBD8C7",
"yX c #D8F0D8",
"uX c #E5E3DA",
"iX c #FFEEC5",
"pX c #E5DCE2",
"aX c #EAE4E5",
"sX c #F4EBEB",
"dX c #F8F0F4",
/* pixels */
"OXOX7X7X:.(.[.[.[.[.[.[.[.[.[.[.[.[.[.[.[.[.[.[.[.[.[.[.[.[.[.[.[.[.[.[.[.[.[.[.[.[.[.[.[.[.[.[.[.[.[.[.[.[.[.[.[.[.[.[.[.[.[.[.",
"OXOX(.:.7X(.[.[.[.[.[.[.[.[.[.[.oXoX[.[.[.[.[.[.[.[.[.oX[.[.[.[.[.[.[.oX[.[.[.[.[.[.[.[.[.[.[.[.[.[.[.oX[.[.[.[.[.[.[.[.[.[.[.[.",
"OXOXOX!.(.7X[.[.[.[.[.[.[.[.[.[.oXoX{.{.[.[.[.oX[.[.[.[.[.[.[.[.[.[.[.[.[.[.[.[.[.[.[.[.(.[.[.[.[.[.[.[.[.[.[.[.[.[.[.[.(.[.[.[.",
"OXOX[.7X[.[.[.[.[.[.[.[.[.[.[.[.[.[. XoXoX X[.[.[.[.[.[.[.[.[.[.[.[.[.[.[.[.[.[.[.[.[.(.(.[.[.[.[.[.[.[.[.[.[.[.[.[.[.(.(.[.[.[.",
"OXOXOX(.7X[.[.[.[.[.[.[.[.[.[.[.[.[.oXqXOXoX[.[.[.[.[.[.[.oXoX[.[.[.[.[.[.oXoX[.[.[.[.[.[.[.(.[.[.[.[.[.[.oXoX[.[.[.[.[.[.[.(.[.",
"7X7X[.[.7X[.[.[.[.[.[.[.[.[.[.[.[.[.oXOXqXoX[.[.[.[.[.[.[.oXoX[.[.[.[.[.[.oXoX[.[.[.[.[.[.[.[.[.[.[.[.[.[.oXoX[.[.[.[.[.[.[.[.[.",
"[.[.7X7X[.[.[.[.[.[.[.[.[.[.[.[.[.[. XoXoX X[.[. X X[.[.[.[.[.[. X X[.[.[.[.[.[.[.(.[.[.[.[.[.[. X X[.[.[.[.[.[.[.(.[.[.[.[.[.[.",
"[.[.[.[.[.[.[.[.[.[.[.[.[.[.[.[.oX[.[.[.{.}.[.[. X X[.[.[.[.[.[. X X[.[.[.[.[.[.[.[.[.[.[.[.[.[. X X[.[.[.[.[.[.[.[.[.[.[.[.[.[.",
"[.[.[.[.[.[.[.[.[.[.[.[.[.[.[.[.[.[.[.[.[.[.[.[.[.[.[.[.[.[..X[.[.[.[.[.[.[.[.[.[.[.[.[.[.[.[.[.[.[.[.[.[.[.[.[.[.[.[.[.[.[.[.[.",
"[.[.[.[.[.[.[.[.(.[.[.(.[.[.[.[.[.[.[.[.[.[..X[.[.[.[.4X4X[.[.[.[.<.[.[.[.[.[.[.[.[.[.[.[.[.}.[.[.(.[.[.[.[.[.[.[.[.[.[.[.[..X[.",
"[.[.[.[.[.[.[.[.[.(.[.(.[.(.[.[.[.[.[.[.[.[.[.[.[.[.4XyXyX4X[.[.[.[.[.[.[.[.[.[.[.[.[.[.[.[.[.[.[.[.[.[.[.[.[.[.[.[.[.[.[.[.[.[.",
"[.[.[.[.[.[.[.[.[.(.(.[.[.(.[.[.[.[.4X4X[.[.[.[.[.[.4XyXyX4X[.[.[.[.[.[.[.[.(.).[.[.4X4X[.[.[.[.[.[.[.[.[.[.(.[.[.[.4X4X[.[.[.[.",
"[.[.[.[.[.[.[.[.[.[.(.[.[.[.[.(.[.[.4X4X[.[.[.[.[.[.[.4X4X[.[.).[.[.}.+XV.( _ :X[.[.4X4X[.[.[.[.[.[.[.(.(.[.[.[.[.[.4X4X[.[.[.[.",
"[.[.[.[.[.[.[.[.[.[.[.[.[.[.(.[.[.[.[.[.[.[.[.{.|.`.].>X[.`.}.4X]._.@X{ { E.Q.#X[ /.{.[.[.[.[.<.}.3X[.[.(.[.[.[.[.[.[.[.[.[.[.[.",
"[.[.[.[.[.[.[.[.[.[.[.[.[.[.(.[.[.[.[.[.[.[.{.>.s q 3 p =Xz.b.c.W L ] +X;X;X#X+X[ ( /.[.[.[.{.|.3XD.[.[.[.[.[.[.[.[.[.[.[.[.[.[.",
"[.[.[.[.[.[.[.[.[.[.[.[.[.[.).[.[.[.[.[..X[./.I ! Q I a Z.0.H.#.n { @X%X#X;X%X$X#X[ ` {..X[.3XR.L.F.[.[.[.[.[.[.[.[.[.[..X[.[.[.",
"4X4X[.[.[.[.[.[.[.[.[.[.[.[.[.[.[.[.[.[.[.].( n *.z.-. .5.7.9.x Q @X#X#X%X@X$X#X@X;.W D.x.B.K.K.F.{.[.[.[.[.[.[.[..X[.[.[.[.[.[.",
"4X4X[.[.[.[.[.[.[.[.[.[.[.[.[.[.[.[.[.[.[.&XY W B $.9.r.r.u.3.d m { $X-X@X+X%X;XV./ C m.H.s.K.y.x.[.[.[.[.[.[.[.[.[.[.4X4X[.[.[.",
"[.[.[.[.[.[.[..X[.[.[.[.(.[.[.[.[.[.[.[.[./.Y Y W O.X.K.f.P.C 1 A V.;.#X@X@X-XW.} Z.O.H.P.P.7.4.|.[.[.[.(.[.[.[.[.[.4XyXyX4X[.[.",
"[.[.[.4X4X[.[.[.[.[.[.(.(.[.[.[.[.[.[.[.[.>XU ] n A H.r.e.H.S f #./ Q ( [ [ _ H i & 8.1.i.q.@.G.).[.[.<.(.[.[.[.[.[.4XyXyX4X[.[.",
"[.[.4XyXyX4X[.[.[.[.[.[.[.[.(.[.[.[.[.[.[.:XJ R I #.N.h  .+.x M =.$ 7 G ) ( H 3 $ $ -. .X.X.z.[.[.[.[.[.[.[.(.[.[.[.[.4X4X[.[.[.",
"[.[.4XyXyX4X[.[.[.[.[.[.[.[.[.[.[.[.[.[.{.'.F s Z S.v.& e v.C r ~ $ = 4 H F 3 4 , $ V e ..4.~ [.[.D.m `.[.[.[.[..X[.[.[.[.[.[.[.",
"[.[.[.4X4X[.[.[.[.(.[.[.[.[.[.[.{.[.[.}.T F F s c A.O.$ e v.C ; V = a 4 4 0 7 * : -.B & 3.b.1 ! {.C.c.Z ,.[.[.[.[.[.[.[.[.[.4X4X",
"[.[.[.[.[.[..X[.[.[.[.[.[.[.[.*X*.C.*XV.p L D w < / p % k 8.j % ^ =Xu = 0 P q * j A.A k b.x.< L 2Xm 4.1.! [.[.[.[.[.[.[.[.[.4X4X",
"[.[.[.[.[.[.[.[.[.[.[.[.[.[.[./ k.b...d u n G 6 @ 5 . ; +.B.x O a } C.v 7 w @ 7 D.x l w.x.Z q F 6 o #.n.} [.[.[.[.[.[.[.[.[.[.[.",
"[.[.[.[.[.[.[.[.[.[.[.[.[.[..X*XD.b.y.X.z f i 9 - @ # , #.N.C o * i D.A 8 T 8 : F.1.6.Y.l.s U D 7 , #.l.] [.[.[.[.[.[.[.[.[.[.[.",
"[.[.[.[.(.[.[.[.[.[.[.[.[.[.[.[.|.8.7.K.0.j a G @ . 2 8 *.C.V $ o p =.v 6 q ; : 6.N.Y.x.f b U L ; Z V.n R %X[.[.[.[.[.[.(.[.[.[.",
"[.[.[.(.(.[.[.[.[.[.4X4X[.[.[.}.6X8XR.u.2.h i 7 i I q E m A *.= $ % r % O 1 c.k.N.4.v c s E 8 ; Z x.! E J ( /.).[.[.[.(.(.[.[.[.",
"[.[.[.[.[.[.(.[.[.[.4X4X).[.6X0XuXiXR.y.7.h u : c eX{ D I m ^ =.& : : r 1 x Y.N.z.P 8 Y Y b j j l./ L U R ( D |.[.[.[.[.[.[.(.[.",
"[.[.[.[.[.[.[.[.[.[.[.[.|.4X0XaXsXtX8X0.y. .e B A =X] L R I G *.=.l.m.S.Y.F.c.v i P E 6 O : Z.1Xl.n p P I n n <X[.[.[.[.[.[.[.[.",
"[.(.[.[.[.[.[.[.[.[.[.XX6XuXdXuXsXtXC.z 0.0.k V / A.>.Y T R R R ] } Q Q W W P P I I b l.l.C.=.~ A f M M N N N V 1X(.[.[.[.[.[.[.",
"[.[.[.[.[.[.[.[.[.[.|.0XwXuXdXaXtX9XW Z %.&.A.%X6X4X{.E.L E ( R T R Y Y _ W.Q.E.! 8 v F.F.c.#.M x 3.3.3.6.9.9.0.+.S.{.[.[.[.[.[.",
"[.[.[.[.[.[.[.[.[.).6XrXuXdXsXuX9X{ E *Xc.A *X[.[.[.[./.w I ( ( T R ( ] { /.#X{ 7 y C.S Z S l 1.i.a.s.h.U.U.f.d.i.1.n.{.[.[.[.[.",
"[.[.[.[.[.[.[.[.}.5XrXaXsXuXuXwXW.K ,.4X|.}.[.[.[.[.[.[.'.q R T T I R ( [ { [ _ p e C.C j z w.a.I.I.j.j.h.j.j.g.j.t.w.B.[.[..X[.",
"[.[.[.[.(.[.[.|.5XpXdXdXsXwX<X+X{ }.[.[.[.[.[.[.[.[.[.[.).].6 q L L G w F K H D 3 e H.| | i.P.h.h.h.h.a.a.a.t.d.d.j.d.1.5X[.[.[.",
"[.[.[.(.(.[.{.5XpXdXdXsXrX0X{ '.[.[.[.[.[.[.[.[.[.[.4X4X[.}.6 + @ @ 3 J F F 5 2 # 7 %.o.e.f.I.h.s.i.w.6.o.6.t.p.d.g.f.6.x.{.[.[.",
"[.[.[.[.[.[.).aXdXdXaXpX9X+X' [.[.[.[.[.[.oXoX[.[.[.4X4X[.` 6   # 3 F H ) ) ) ) G , t 1.g.j.d.d.H.g % : : r g | u.a.g.u.z 3X).[.",
"[.[.[.[.). XuXdXsXpXwX9X#X,.).).[.[.[.[.[.oXoX[.[.[.[.[._.# @ X 4 4 p 7 F D F F F , t 6.P.d.d.2.l r : > , f M l | r.t.P.X.1X[.[.",
"[.(.[.[.[.[.wXrXrXeX9X/.).[.[.[. X X[.[.[.[.[.[.[.[.[.`.3 +   . $ a A A 6 5 w 9 9 , k 7.P.d.7.| g C c % f c.b.B.t X.i.K.4.F.[.[.",
"[.[.[.[.[.).{.5X,X%X_.).[.[.[.[. X X[.[.[.[.[.[.[.[.{.' @     O * n z.l.7 5 9 9 3 , @.P.u.p.h $.B.B.^ ; t -.f k.e t q.K.3.C.[.[.",
"oX[.{.{.[.[.[.[.[.).[.[.[.[.[.[.[.[.[.[.[.[.[.[.[.[.,.L D + +   X * O > 8 7 0 3 @ : ..K.p.q.t *.A M z.& d C.: , * : 6.H.&.A..X{.",
"[.[. XoXoX X[.[.[.[.[.[.[.[.[.[.[..X[.[.[.[.[.[.[.^.F L U F @ . X .   O @ O @ 2 3 & g a.a.6.r , y M z.e r C.y % 3 = X.y.m.3X[.[.",
"[.[.oXqXqXoX[.[.[.[.[.[.[.[.[.[.[.[.[.[.[.[.[.[.[.^.0 D G D 9 #       X X   + + X o d r.a.o.% 6 O < C.r 1 B Z y * & ..6.Z.4X[.[.",
"[.[.oXOXqXoX[.[.[.[.[.[.[.[.[.[.[.[.[.[.4X4X[.[.[.~.F D D D 3 .   E `.`._.'.)./.  o k 9.u.z ; * < Z m = % : Z c.f N 9.3.A.4X[.[.",
"[.[. XoXoX X[.[.[.[.[.[.[.[.[.[.[.[.[.[.4X4X[.[.[._.9 F q w 5 #   ^.[.(.(.[.[.`.# * u %.H.X.& = M Z , * * , t h O.b.8.b.6X[.[.[.",
"oXoX[.[.[.[.[.oX[.[.[.[.[.[.[.[.[.[.[.[.[.[.[.[.[.^.5 9 2 2 5 # . _.[.[.(.[.[.{.w > * j 0.H.O.k 4.M c 8 = -.m.X...N.b.*X[.[.[..X",
"oXoX[.[.[.[.[.[.[.[.[.[.[.[.[.[.[.[.[.[.[.[.[.[. X~.q w 2 2 5 + ` [.[.[.[.[.[.[.{.> > < j m.H.%.h v.=.y $ u  .%.%.Z.F.[.[.[.[.[.",
"[.[.[.[.[.[.[.[.[.[.[.[.[.[.[.[.[.[.[..X[.[.[.[.`.K U D w 2 # 5 ).[.[.[.[.[.[.[.[.'.@ > u O.m.H.%.@.k d O.$.M.M.O.V.[.[.[.[.[.[.",
"[.[.[.[.[.[.[.[.[.[.[.[.[.[.[.[.[.[.[.[.[.[.[.[.K # - - - . @ ^.[.[.[.[.[.[.[.[.[.[.'.@ 3 a j %.%.7.9.y.0.b.$.b.2X[.[.[.[.[.[.[.",
"[.[.[.[.[.[.[.[.[.[.[.[.[.[.[.[.[.[.[.[.[.[.[.[.G.,.>.:.` ' ^.[.[.[.[.[.[.[.).[.[.[.{.w 3 * : r k  .X...O.$.x.'.[.[.[.[.[.[.[.[.",
"[.[.[.[.[.[.[.[.[.[.[.[.[.[.[.[.[.[.[.[.[.[.[.[.J.J.[.[.[.[.[.J.[.[.[.[.[.[.[.[.[.[.[.}.- > > 1 , u ^ :X[.[.[.[.[.[.[.[.[.[.[.[.",
"[.[.[.[.[.[.[.[.[.[.[.[.[.[.[.[.[.[.[.[.[.[.[.[.[.[.<.J.J.<.[.[.[.[.[.[.[.[.[.[.[.[.[.[.# O - w 6 O ' ).[.[.[.[.[.[.[.[.).[.[.[.",
"[.[.[.[.[.[.[.[.[.[.[.[.[.[.[.[.[.[.[.[.[.[.[.[.[.[.J.T.T.J.[.[.[.[.[.[.[.[.[.[.[.[.[.[.s w 5 s q s ^.[.[.[.[.[.[.[.[.[.[.[.[.[.",
"[.[.[.[.[.[.[.[.[.[.[.[.[.[.[.[.[.[.[.[.[.[.[.[.[.[.J.T.T.J.[.[.[.[.[.[.[.[.[.[.[.[.[.[.[.[.[.[.[.).[.[.[.[.[.[.[.[.[.[.[.[.[.[.",
"[.[.[.[.[.[.[.[.[.[.[.[.[.[.[.[.[.[.[.[.[.[.[.[.[.[.<.J.J.<.[.[.[.[.[.[.[.[.[.[.[.[.[.[.[.[.[.[.[.[.[.[.[.[.[.[.[.[.[.[.[.[.[.[.",
"[.[.[.[.[.[.[.[.[.[.[.[.[.[.[.[.[.[.[.[.[.[.[.[.J.[.[.[.[.[.[.[.[.[.[.[.[.[.[.[.[.[.[.[.[.[.[.[.[.[.[.[.[.[.[.[.[.[.[.[.[.[.[.[.",
" X X[.[.[.[.[.[.[.[.[.[.[.[.[.[.[.[.[.[.[.[.[.[.[.[.[.[.[.[.[.[.[.[.[.[.[.[.[.[.[.[.(.[.[.[.[.[.[.[.(.[.[.[.[.[.[.[.[.[.[.[.[.[.",
" X X[.[.[.[.[.[.[.[.[.[.[.[.[.[.[.[.[.oX[.[.[.[.[.[.[.[.[.[.[.[.[.[.[.[.[.[.[.[.[.(.[.[.[.[.[.[.[.(.[.[.[.[.[.[.[.[.[.[.[.[.[.[.",
"[.[.[.[.[.oXoX[.[.[.[.[.[.[.[.[.[.[.[.[.[.[.[.[.[.[.[.[.[.[.[.[.[.[.[.[.[.[.[.[.[.(.[.[.[.[.[.[.[.(.[.[.[.[.[.[.[.[.[.[.[.[.[.[.",
"[.[.[.[.[.oXoX[.[.[.[.[.[.[.[.[.[.[.[.[.[.[.[.[.[.[.[.[.[.[.[.[.[.[.[.[.[.[.[.[.[.[.[.[.[.[.[.[.[.[.[.[.[.[.[.[.[.[.[.[.[.[.[.[.",
"[.[.[.[.[.[.[.[.[.[.[.[.[.[.[.[.[.[.[.[.[.oXoX[.[.[.[.[.[.[.[.[.[.[.[.[.[.[.[.[.[.[.[.[.(.[.(.[.[.[.[.[.(.[.(.[.[.[.[.[.[.[.[.[.",
"[.[.[.[.[.[.[.[.[.[.[.[.[.[.[.[.[.[.[.[.[.oXoX[.[.[.[.[.[.[.[.[.[.[.[.[.[.[.[.[.[.[.(.[.(.(.[.[.[.[.(.[.(.(.[.[.[.[.[.[.[.[.[.[.",
"[.[.[.oX[.[.[.[.[.[.[.[.[.[.[.[. X X[.[.[.[.[.[.[.[.[.[.[.[.[.[.[.[.[.[.[.[.[.[.[.[.(.[.(.(.[.[.[.[.(.[.(.(.[.[.[.[.[.[.[.[.[.[.",
"[.[.[.[.[.[.[.[.[.[.[.[.[.[.[.[. X X[.[.[.[.[.[.[.[.[.[.[.:.:.[.[.[.[.[.[.[.[.[.[.[.[.[.(.[.[.[.[.[.[.[.(.[.[.[.[.[.[.[.[.[.[.[."
};
