/* XPM */
static char *monster_high[] = {
/* columns rows colors chars-per-pixel */
"64 64 224 2 ",
"   c #0A0B0D",
".  c #040506",
"X  c #1C1709",
"o  c #0D0D15",
"O  c #13131B",
"+  c #171718",
"@  c #100E0F",
"#  c #221A15",
"$  c #29170F",
"%  c #352916",
"&  c #39341B",
"*  c #2C260D",
"=  c #1D1B25",
"-  c #1B1B2A",
";  c #161625",
":  c #221D25",
">  c #201F31",
",  c #1B3329",
"<  c #272327",
"1  c #322B24",
"2  c #372A28",
"3  c #393328",
"4  c #242433",
"5  c #2B2A38",
"6  c #332C38",
"7  c #2A3638",
"8  c #353439",
"9  c #233B2F",
"0  c #17251F",
"q  c #473A1C",
"w  c #523C16",
"e  c #4A2915",
"r  c #401D2B",
"t  c #463B23",
"y  c #543D2A",
"u  c #413833",
"i  c #27483B",
"p  c #384939",
"a  c #5B4709",
"s  c #57471C",
"d  c #544C1A",
"f  c #654B0C",
"g  c #79580C",
"h  c #695818",
"j  c #755A17",
"k  c #6B4A0F",
"l  c #7A641A",
"z  c #746210",
"x  c #53492D",
"c  c #675626",
"v  c #6D5832",
"b  c #55663F",
"n  c #726C2E",
"m  c #3C3A4C",
"M  c #373547",
"N  c #3D3C53",
"B  c #2E3141",
"V  c #433E48",
"C  c #403F5A",
"Z  c #37474A",
"A  c #305449",
"S  c #2E674E",
"D  c #366C56",
"F  c #346E56",
"G  c #3C7C64",
"H  c #2E7963",
"J  c #464548",
"K  c #44445C",
"L  c #4C4B5C",
"P  c #454655",
"I  c #524E58",
"U  c #455355",
"Y  c #56545B",
"T  c #585047",
"R  c #635C57",
"E  c #645749",
"W  c #44705B",
"Q  c #6D6847",
"!  c #6C675A",
"~  c #72734F",
"^  c #4B4A62",
"/  c #514E63",
"(  c #535364",
")  c #5B5A64",
"_  c #55546B",
"`  c #5C5B6B",
"'  c #595668",
"]  c #59586E",
"[  c #615E6A",
"{  c #605F74",
"}  c #497B6A",
"|  c #4E6B6A",
" . c #696468",
".. c #757668",
"X. c #666775",
"o. c #7A7477",
"O. c #736D6F",
"+. c #8F1922",
"@. c #8A660B",
"#. c #946D0C",
"$. c #98760E",
"%. c #866B19",
"&. c #897416",
"*. c #967917",
"=. c #956F14",
"-. c #A67C0A",
";. c #A47F12",
":. c #867928",
">. c #866D2F",
",. c #87764B",
"<. c #857664",
"1. c #72813C",
"2. c #3C8769",
"3. c #318270",
"4. c #5D8E5C",
"5. c #6A884D",
"6. c #638B57",
"7. c #64935D",
"8. c #43896D",
"9. c #4C8B77",
"0. c #459877",
"q. c #53997F",
"w. c #4E946B",
"e. c #6A8E73",
"r. c #58A978",
"t. c #48A37D",
"y. c #6EB576",
"u. c #68C878",
"i. c #9C8417",
"p. c #968F1C",
"a. c #A8860E",
"s. c #B48B0C",
"d. c #BA940B",
"f. c #AB8A14",
"g. c #A68516",
"h. c #B58C13",
"j. c #B79414",
"k. c #BCA91F",
"l. c #9D8826",
"z. c #958E30",
"x. c #A79626",
"c. c #AB982D",
"v. c #B9A327",
"b. c #AFA72F",
"n. c #C6990C",
"m. c #C59D12",
"M. c #CAA30B",
"N. c #C7A80C",
"B. c #D2A90B",
"V. c #D9B80B",
"C. c #C6A611",
"Z. c #D0B918",
"A. c #C5BB25",
"S. c #D6AD22",
"D. c #C09F2E",
"F. c #DDC20B",
"G. c #DDCB0E",
"H. c #D9C413",
"J. c #E3C90B",
"K. c #E8D70B",
"L. c #E5D015",
"P. c #EDE20B",
"I. c #F3E80D",
"U. c #F8F40B",
"Y. c #F3E911",
"T. c #D1CC29",
"R. c #E2DA23",
"E. c #878659",
"W. c #968D4C",
"Q. c #868B71",
"!. c #A4A147",
"~. c #98E078",
"^. c #C0E870",
"/. c #7A7683",
"(. c #837D89",
"). c #38B0B8",
"_. c #729B88",
"`. c #4CAB83",
"'. c #40A888",
"]. c #4CA584",
"[. c #52AA86",
"{. c #4EB88B",
"}. c #54B48B",
"|. c #52BD8E",
" X c #57B486",
".X c #52BF90",
"XX c #5EBE94",
"oX c #69B18B",
"OX c #439882",
"+X c #50C090",
"@X c #55C08F",
"#X c #48D0A8",
"$X c #78D0A0",
"%X c #68E0B8",
"&X c #79C697",
"*X c #60E0C8",
"=X c #8A848A",
"-X c #948C95",
";X c #988E95",
":X c #908792",
">X c #9A9198",
",X c #999096",
"<X c #92898E",
"1X c #A89897",
"2X c #8CA79B",
"3X c #B2A19B",
"4X c #B5AEAC",
"5X c #C8B9B8",
"6X c #C5AC86",
"7X c #8AC396",
"8X c #98D8B8",
"9X c #96D4B4",
"0X c #96CEAD",
"qX c #80F0A0",
"wX c #DCCEBF",
"eX c #80F8C8",
"rX c #BBC3C0",
"tX c #D5D1CC",
"yX c #E2D3CF",
"uX c #E3D8D7",
"iX c #D8F0D8",
"pX c #ECE8E8",
"aX c #F0EAEA",
"sX c #F4F4F3",
/* pixels */
"*X*XqXqX0.'.+X+X+X+X+X+X+X+X+X+X+X+X+X+X+X+X+X+X+X+X+X+X+X+X+X+X+X+X+X+X+X+X+X+X+X+X+X+X+X+X+X+X+X+X+X+X+X+X+X+X+X+X+X+X+X+X+X+X",
"*X*X'.3.$Xr.+X+X+X+X+X+X+X+X+X+X%X%X+X+X+X+X+X+X+X+X+X%X+X+X+X+X+X+X+X%X+X+X+X+X+X+X+X+X+X+X+X+X+X+X+X%X+X+X+X+X+X+X+X+X+X+X+X+X",
"*X*X*X).t.%X+X+X+X+X+X+X+X+X+X+X%X%X+X+X+X+X+X%X+X+X+X+X+X+X+X+X+X+X+X+X+X+X+X+X+X+X+X+X'.+X+X+X+X+X+X+X+X+X+X+X+X+X+X+X'.+X+X+X",
"*X*X@X$X+X+X+X+X+X+X+X+X+X+X+X+X+X+X#X%X%X#X+X+X+X+X+X+X+X+X+X+X+X+X+X+X+X+X+X+X+X+X+X'.'.+X+X+X+X+X+X+X+X+X+X+X+X+X+X'.'.+X+X+X",
"*X*X*X{.%X@X+X+X+X+X+X+X+X+X+X+X+X+X%XeX*X%X+X+X+X+X+X+X+X%X%X+X+X+X+X+X+X%X%X+X+X+X+X+X+X+X'.+X+X+X+X+X+X%X%X+X+X+X+X+X+X+X'.+X",
"qXqX+X+XqX@X+X+X+X+X+X+X+X+X+X+X+X+X%XeXeX%X+X+X+X+X+X+X+X%X%X+X+X+X+X+X+X%X%X+X+X+X+X+X+X+X+X+X+X+X+X+X+X%X%X+X+X+X+X+X+X+X+X+X",
"+X+XqXqX@X+X+X+X+X+X+X+X+X+X+X+X+X+X#X%X%X#X+X+X#X#X+X+X+X+X+X+X#X#X+X+X+X+X+X+X+X'.+X+X+X+X+X+X#X#X+X+X+X+X+X+X+X'.+X+X+X+X+X+X",
"+X+X+X+X+X+X+X+X+X+X+X+X+X+X+X+X%X+X@X@X@X@X+X+X#X#X+X+X+X+X+X+X#X#X+X+X+X+X+X+X+X+X+X+X+X+X+X+X#X#X+X+X+X+X+X+X+X+X+X+X+X+X+X+X",
"+X+X+X+X+X+X.X.X+X+X|.|.+X+X+X+X+X+X+X+X+X+X+X+X+X+X+X+X+X+X$X+X+X+X+X+X+X+X+X+X+X+X+X+X+X+X+X+X+X+X+X+X+X+X+X+X+X+X+X+X+X+X+X+X",
"+X+X+X+X+X+X|..Xq.u.oX`.+X+X+X+X+X+X+X+X+X+X$X+X+X+X+X8X8X+X+X+X+X'.+X+X+X+X+X+X+X+X+X+X+X+X$X+X+X'.+X+X+X+X+X+X+X+X+X+X+X+X$X+X",
"+X+X+X+X+X+X+X|...,X<X_.@X'.+X+X+X+X+X+X+X+X+X+X+X+X8XiXiX8X+X+X+X+X+X+X+X+X+X+X+X+X+X+X+X+X+X+X+X+X+X+X+X+X+X+X+X+X+X+X+X+X+X+X",
"+X+X+X+X+X+X+X}.O.5XyXrX4X2X.X+X+X+X8X8X+X+X+X+X+X+X8XiXiX8X+X+X+X+X+X+X+X+X'.+X+X+X8X8X+X+X+X+X+X+X+X+X+X+X'.+X+X+X8X8X+X+X+X+X",
"+X+X+X+X.X.X.X[.<.4XyXuXuXtXoX'..X.X8X8X+X+X+X|.t.`.`.9X8X+X+X+X+X+X.XOXOX].'.}.+X+X8X8X.X.X+X+X+X+X+X'.'.+X+X+X+X+X8X8X+X+X+X+X",
"+X+X+X+X.X.X+X}.(.4XyXuXaXpXrX&X.X.X.X+X+X+X|.q.Z 7 7 G .X X X7X X|.}.| ^ _ _ | }.[.{..X.X.X+X+X+X+X+X+X'.+X+X+X+X+X+X+X+X+X+X+X",
"+X+X+X+X.X.XXX[.<.1X5XuXaXsXpXrXXXXX+X+X+X{.9.L `  .P M 8.7.%.l.>.U X.=X-X:X-X:XX.U ].|.+X+X+X+X@Xy.@X+X+X+X+X+X+X+X+X+X+X+X+X+X",
"+X+X+X+X.X.X.X[._.{ >X5XuXaXsXuX1X}.+X+X$X9.L ) O.c.*.E ~ x.m.;.T  .=X-X>X>X>X-X:X[ U ].$X+X|. Xy.z.y.+X+X+X+X+X+X+X+X+X$X+X+X+X",
"8X8X+X+X+X+X+X+X`.A T 1X5XyXsXsXtXo.}.+X+X9.K ` R @.Z.k.f.s.s.%.L (.>X>X;X>X>X>X>X(.L r.@X@Xy.v.R.c. X@X+X+X+X+X+X$X+X+X+X+X+X+X",
"8X8X+X+X+X+X+X+X+Xt.i R 3X5XyXsXuX4XXX+X+X} L [ ( v i.F.G.V.i.x [ /.-X>X>X;X;X>X:Xo.X.E.z.c.A.H.x. X@X@X+X+X+X+X+X+X+X8X8X+X+X+X",
"+X+X+X+X+X+X+X$X+X+Xt.7  .3X5XtXpXuX_.|.|.D P X.{ ! ;.V.J.Y.p.B O.W.Q.>X>X;X>X:XQ.!...b.G.G.K.N.l  X+X+X'.+X+X+X+X+X8XiXiX8X+X+X",
"+X+X+X8X8X+X+X+X+X+X+X2.7  .3XtXpXaX4X_.} p V { X.>.m.#.$.N.1.x ,.b.O.(.:X(.(.O...z.W.c.G.G.d.:.7.+X+X'.'.+X+X+X+X+X8XiXiX8X+X+X",
"+X+X8XiXiX8X+X+X+X+X+X{.2.p ..5XuXaXyX1Xx k v I ! s.s.% e k q c i.# P J _ X._ C V @ =.#.a.s.%.6.+X+X+X+X+X+X'.+X+X+X+X8X8X+X+X+X",
"+X+X8XiXiX8X+X+X+X+X+X+X{.F J =X5XyXaXyX>.n.-.x E m.#.X 0 *.j w l @ # 6 / / C 6 $   j k @.#.b @X+X+X+X+X+X+X+X+X$X+X+X+X+X+X+X+X",
"+X+X+X8X8X+X+X+X+X'.+X+X+X+XF Y ;X5XuXyXD.L.-.e c h.3   f d.j : T $ +.2 B B 4 r +.$ Y u l i.A `.+Xu.6.2.+X+X+X+X+X+X+X+X+X+X8X8X",
"+X+X+X+X+X+X$X+X+X+X+X+X+X|. Xp E 3X6XD.L.F.#.y u x @ : i.d.a :  .;.e : V / V # e b.<.M i.v.8 Z @X!.$.b 8.+X+X+X+X+X+X+X+X+X8X8X",
"+X+X+X+X+X+X+X+X+X+X+X+X+X Xn k =.D.S.M.V.$.v [ K 5   6 l.n.w : O.W.p.1 M m 4 & p.W.! >.C.l.m Z r.1.f.i.9 {.+X+X+X+X+X+X+X+X+X+X",
"+X+X+X+X+X+X+X+X+X+X+X+X+X Xl g.n.B.B.s.@.x I _ V = ; K c.n.k o V ! R.x N K 5 3 T.! >.T.v.T N m 9 X 1.b.A .X+X+X+X+X+X+X+X+X+X+X",
"+X+X+X+X'.+X+X+X+X+X+X+X+X+Xr.d a a k e y m B 7 Z i 5 ' :.m.k . $ E c.t m L B 3 Z.c.Z.A.Q ^ _ L 6 @ l b.W .X.X.X+X+X+X+X'.+X+X+X",
"+X+X+X'.'.+X+X+X+X+X8X8X+X+X|.H S S A p 4 5 x % G ].8 ` [ W.l X o V w # ; 9 d h C.A.b.Q ^ _ ] ) = z b.! U }..X.X+X+X+X'.'.+X+X+X",
"+X+X+X+X+X+X'.+X+X+X8X8X+X+X+X+X|.+X+X0.9 * g.g w.t.B { ` Y n %.X X $ X X z R.T.k.T Z K / Y 8 9 n z.E.] Z | [..X+X+X+X+X+X+X'.+X",
"+X+X+X+X+X+X+X+X+X+X+X+X+X+X+X+X+X+X+X+Xr.n c l r.t.7 ) ) ( [ W.j.j.d.A.T.Z.x.T Y U _ ^ J p d h b.E.] ( Y ' | ].+X+X+X+X+X+X+X+X",
"+X'.+X+X+X+X+X+X+X+X+X+X+X+X+X+X+X+X+X+X+X|. X X8X0X8.P ( ) ` ! ,.,.E Q ~ Q J Z _ ) J & X q A.T.E.{ ( Y ) [ K [.+X'.+X+X+X+X+X+X",
"+X+X+X+X+X+X+X+X+X+X+X+X$X+X+X+X+X+X+X+X+X+X+X+X8X8X`.7 Y ` ) ) _ ] ^ ^ /./././.) 1 1.T.T.A...X.{ ( _ X.) ) Y } t.+X+X+X+X+X+X+X",
"+X+X+X+X+X+X+X+X+X+X+X+X+X+X+X+X+X+X+X+X+X+X+X+X+X+X{.S U _ [ Y ) ) ` O.:X>X>Xo.8 h z.W.E.<.[ [ R T <.<.E E R ' | [.+X+X+X+X+X+X",
"+X+X+X+X+X+X+X+X+X+X+X+X+X+X+X+X+X+X+X%X+X+X+X+X+X+X+X+XD J I ( ` Y Y X./.=X/.` + =.W.[  .v j %.*.;.a.-.@.@.v R V 8.@X@X+X+X$X+X",
"+X+X+X+X'.+X+X+X+X+X+X+X+X+X+X+X+X+X+X+X+X+X+X+X+X+X+X+X|.A : m P m M m L / / P # *.z.v >.f.V.K.K.K.K.P.P.V.d.@.s } @X@X+X+X+X+X",
"+X+X+X'.'.+X+X+X+X+X+X+X+X+X+X+X+X+X+X+X+X+X+X+X+X+X8X9X{.Z O   O 4 N K M 4 4 O O %.;.a.M.J.I.U.U.U.U.U.U.I.P.F.-.~ 0X9X+X+X+X+X",
"+X+X+X+X+X+X'.+X+X+X+X+X+X+X+X+X+X+X+X+X+X%X%X+X+X+X8X9XG 4 o O 6 M Z ] _ _ _ ^ M x #.F.U.U.K.K.K.K.K.J.J.V.K.I.G.j.E.9X+X+X+X+X",
"+X+X+X+X+X+X+X+X+X+X+X+X+X+X+X+X+X+X+X+X+X%X%X+X+X+X+XH @     # w s 8 M m Z K C V g B.I.I.P.J.s.&.=.%.%.M.V.J.P.U.N.n |.+X+X+X+X",
"+X'.+X+X+X+X+X+X+X+X+X+X+X+X+X+X#X#X+X+X+X+X+X+X+X+X0.P 6 .   ; y m.x.3 > B M B 3 @.K.I.J.M.j.h = = - < j z M.J.P.G.p.5. X+X+X+X",
"+X+X+X+X+X+X+X+X+X+X+X+X+X+X+X+X#X#X+X+X+X+X+X+X+X8.Z L L 4 O ; r c c e 2 6 6 6 k M.P.F.N.j % 2 < = = 1 s s l d.V.L.N.h &X+X+X+X",
"%X+X@X@X@X@X+X+X+X+X+X+X+X+X+X+X+X+X+X+X+X+X+X+X+XG 5 N Z N > O o o ; 2 3 2 4 % @.L.J.B.j h ;.a.j = < &.h.s.s j M.F.F.l {..X$X.X",
"+X+X#X%X%X#X+X+X+X+X+X+X+X+X+X+X+X$X+X+X+X+X+X+X+XG 5 N N C 5 o . . O O O O O # z P.F.d.t l &.%.$.: 1 g.s &.s s a.J.Z.>.0X.X.X.X",
"+X+X%XeXeX%X+X+X+X+X+X+X+X+X+X+X+X+X+X+X+X+X+X+X.XG > > > > - o .           . X g F.V.@.1 t 3 h g.< 1 j.q 1 = = j V.n.>.tX8X+X+X",
"+X+X%X*XeX%X+X+X+X+X+X+X+X+X+X+X+X+X+X+X8X8X+X+X}.Z P 5 - ; O   , 8.0.0.t.S . < g B.B.y - - ; s f.< 1 h.q ; - - h V.n.>.tX8X+X+X",
"+X+X#X%X%X#X+X+X+X+X+X+X+X+X+X+X+X+X+X+X8X8X+X{.i Z Y V m = o 9 t.+X+X'.'.w.i % j B.B.q - - 2 h l < : h l 3 - - h M.l.7XqX+X+X+X",
"%X%X+X+X+X+X+X%X+X+X+X+X+X+X+X+X+X+X+X+X+X+X+X`.0 0 = + = O i 2.+X+X+X+X'.+Xt.< v a.n.s - < j %.= - - - j %.q q g.m.:.|..X+X+X$X",
"%X%X+X+X+X+X+X+X+X+X+X+X+X+X+X+X+X+X+X+X+X+X+X{.2.H F S S S 2.+X+X+X+X+X+X+X{.G 6 g d.d.d l :.u 1 - - t s *.l *.C.l.4.+X+X+X+X+X",
"+X+X+X+X+X+X+X+X+X+X+X+X+X+X+X+X+X+X+X$X+X+X+X+X#X#X+X+X+X+X+X+X+X+X+X+X+X+X+X2.+ % @.M.j.l l j.&.: : *.m.l i.M.i.Q..X+X+X+X+X+X",
"+X+X+X+X+X+X+X+X+X+X+X+X+X+X+X+X+X+X+X+X+X+X+X+X+X+X+X+X+X+X+X+X+X+X+X+X+X+X+X+XG + x =.n.s.-.$.t < < 3 &.d.M.f.6.@X+X+X+X+X+X+X",
"+X+X+X+X+X+X+X+X+X+X+X+X+X+X+X+X+X+X+X+X+X+X+X+X~.~.+X+X+X+X+X+X+X+X+X+X+X+X+X+X2.@ 1 & @.-.s.s.*.f.f.f.d.*.g 5.@X+X+X+X+X+X+X+X",
"+X+X+X+X+X+X+X+X+X+X+X+X+X+X+X+X+X+X+X+X+X+X+X+X~.~.+X+X+X+X+X~.+X+X+X+X+X+X+X+X0.i i i b b 1.a.a.a.-.#.@.5.r. X+X+X+X+X+X+X+X+X",
"+X+X+X+X+X+X+X+X+X+X+X+X+X+X+X+X+X+X+X+X+X+X+X+X+X+Xu.~.~.u.+X+X+X+X+X+X+X+X+X+X+X+X+X|.|.|.r.b b ~ 6.6.4.r.+X+X+X+X+X+X+X+X+X+X",
"+X+X+X+X+X+X+X+X+X+X+X+X+X+X+X+X+X+X+X+X+X+X+X+X+X+X~.^.^.~.+X+X+X+X+X+X+X+X+X+X+X+X+X+X+X+X+X+X+X+X+X+X+X+X+X+X+X+X+X+X+X+X+X+X",
"+X+X+X+X+X+X+X+X+X+X+X+X+X+X+X+X+X+X+X+X+X+X+X+X+X+X~.^.^.~.+X+X+X+X+X+X+X+X+X+X+X+X+X+X+X+X+X+X+X+X+X+X+X+X+X+X+X+X+X+X+X+X+X+X",
"+X+X+X+X+X+X+X+X+X+X+X+X+X+X+X+X+X+X+X+X+X+X+X+X+X+Xu.~.~.u.+X+X+X+X+X+X+X+X+X+X+X+X+X+X+X+X+X+X+X+X+X+X+X+X+X+X+X+X+X+X+X+X+X+X",
"+X+X+X+X+X+X+X+X+X+X+X+X+X+X+X+X+X+X+X+X+X+X+X+X~.+X+X+X+X+X+X+X+X+X+X+X+X+X+X+X+X+X+X+X+X+X+X+X+X+X+X+X+X+X+X+X+X+X+X+X+X+X+X+X",
"#X#X+X+X+X+X+X+X+X+X+X+X+X+X+X+X+X+X+X+X+X+X+X+X+X+X+X+X+X+X+X+X+X+X+X+X+X+X+X+X+X+X'.+X+X+X+X+X+X+X'.+X+X+X+X+X+X+X+X+X+X+X+X+X",
"#X#X+X+X+X+X+X+X+X+X+X+X+X+X+X+X+X+X+X%X+X+X+X+X+X+X+X+X+X+X+X+X+X+X+X+X+X+X+X+X+X'.+X+X+X+X+X+X+X'.+X+X+X+X+X+X+X+X+X+X+X+X+X+X",
"+X+X+X+X+X%X%X+X+X+X+X+X+X+X+X+X+X+X+X+X+X+X+X+X+X+X+X+X+X+X+X+X+X+X+X+X+X+X+X+X+X'.+X+X+X+X+X+X+X'.+X+X+X+X+X+X+X+X+X+X+X+X+X+X",
"+X+X+X+X+X%X%X+X+X+X+X+X+X+X+X+X+X+X+X+X+X+X+X+X+X+X+X+X+X+X+X+X+X+X+X+X+X+X+X+X+X+X+X+X+X+X+X+X+X+X+X+X+X+X+X+X+X+X+X+X+X+X+X+X",
"+X+X+X+X+X+X+X+X+X+X+X+X+X+X+X+X+X+X+X+X+X%X%X+X+X+X+X+X+X+X+X+X+X+X+X+X+X+X+X+X+X+X+X+X'.+X'.+X+X+X+X+X'.+X'.+X+X+X+X+X+X+X+X+X",
"+X+X+X+X+X+X+X+X+X+X+X+X+X+X+X+X+X+X+X+X+X%X%X+X+X+X+X+X+X+X+X+X+X+X+X+X+X+X+X+X+X+X'.+X'.'.+X+X+X+X'.+X'.'.+X+X+X+X+X+X+X+X+X+X",
"+X+X+X%X+X+X+X+X+X+X+X+X+X+X+X+X#X#X+X+X+X+X+X+X+X+X+X+X+X+X+X+X+X+X+X+X+X+X+X+X+X+X'.+X'.'.+X+X+X+X'.+X'.'.+X+X+X+X+X+X+X+X+X+X",
"+X+X+X+X+X+X+X+X+X+X+X+X+X+X+X+X#X#X+X+X+X+X+X+X+X+X+X+X{.3.3.+X+X+X+X+X+X+X+X+X+X+X+X+X'.+X+X+X+X+X+X+X'.+X+X+X+X+X+X+X+X+X+X+X"
};
