/* XPM */
static char *wall_1_[] = {
/* columns rows colors chars-per-pixel */
"64 64 232 2 ",
"   c #33253D",
".  c #32293E",
"X  c #37253D",
"o  c #2E283E",
"O  c #2E2C45",
"+  c #342642",
"@  c #392543",
"#  c #342A44",
"$  c #3A2A44",
"%  c #342C4A",
"&  c #392D4B",
"*  c #3A2649",
"=  c #2F3349",
"-  c #343244",
";  c #3B3346",
":  c #34324C",
">  c #3B344C",
",  c #363B4D",
"<  c #3A3B4C",
"1  c #3D3946",
"2  c #342E52",
"3  c #392B54",
"4  c #2E395A",
"5  c #343354",
"6  c #393354",
"7  c #343955",
"8  c #393B53",
"9  c #34365A",
"0  c #3A3559",
"q  c #343B5C",
"w  c #393A5B",
"e  c #353D63",
"r  c #393B63",
"t  c #343E6A",
"y  c #393C67",
"u  c #333E6A",
"i  c #4A394A",
"p  c #4C354A",
"a  c #39434D",
"s  c #3B4B54",
"d  c #33415E",
"f  c #39435A",
"g  c #3A4857",
"h  c #39555D",
"j  c #2D475F",
"k  c #2F4464",
"l  c #2E466B",
"z  c #344364",
"x  c #394364",
"c  c #344B65",
"v  c #35446B",
"b  c #39456B",
"n  c #344A6C",
"m  c #394A6C",
"M  c #2F5169",
"N  c #3B536C",
"B  c #3A5767",
"V  c #2F4C72",
"C  c #354672",
"Z  c #3A4672",
"A  c #344C74",
"S  c #394B74",
"D  c #354E7A",
"F  c #394C79",
"G  c #2E5677",
"H  c #345375",
"J  c #3A5375",
"K  c #345A76",
"L  c #3B5A76",
"P  c #34537B",
"I  c #3A547B",
"U  c #355C7C",
"Y  c #3A5B7C",
"T  c #35637D",
"R  c #3A627D",
"E  c #356B7C",
"W  c #396C7C",
"Q  c #3A6474",
"!  c #35737E",
"~  c #37777C",
"^  c #3B6567",
"/  c #424B54",
"(  c #494555",
")  c #45595C",
"_  c #58575B",
"`  c #5A474E",
"'  c #4F625F",
"]  c #4F5664",
"[  c #575C69",
"{  c #415979",
"}  c #414363",
"|  c #466667",
" . c #526565",
".. c #4B796E",
"X. c #44736D",
"o. c #56736B",
"O. c #426B78",
"+. c #55697B",
"@. c #467876",
"#. c #5D7B71",
"$. c #308070",
"%. c #37867D",
"&. c #328F7E",
"*. c #468272",
"=. c #4A8372",
"-. c #498C7C",
";. c #468779",
":. c #528875",
">. c #4B927B",
",. c #4C9A7E",
"<. c #54937B",
"1. c #355481",
"2. c #365C82",
"3. c #395C83",
"4. c #3B5C88",
"5. c #395985",
"6. c #3A4D84",
"7. c #356383",
"8. c #396384",
"9. c #356B85",
"0. c #3B6B84",
"q. c #36648A",
"w. c #3A648A",
"e. c #366C89",
"r. c #3B6B89",
"t. c #357484",
"y. c #3B7384",
"u. c #347C84",
"i. c #3A7B85",
"p. c #377389",
"a. c #3C758A",
"s. c #357C89",
"d. c #3B7C8A",
"f. c #3E7892",
"g. c #2F6583",
"h. c #426B84",
"j. c #437988",
"k. c #4E758F",
"l. c #358484",
"z. c #3A8485",
"x. c #358B85",
"c. c #3A8B85",
"v. c #36848A",
"b. c #3B838B",
"n. c #368D89",
"m. c #3B8C8A",
"M. c #369284",
"N. c #3C9485",
"B. c #3D9A85",
"V. c #3B958A",
"C. c #3D9A8B",
"Z. c #34928A",
"A. c #3E8692",
"S. c #348D89",
"D. c #38B0B8",
"F. c #42838C",
"G. c #448B8C",
"H. c #458A83",
"J. c #429285",
"K. c #4A9682",
"L. c #439B85",
"P. c #4B9C82",
"I. c #43948C",
"U. c #4A968D",
"Y. c #449C8C",
"T. c #4B9B8C",
"R. c #418B91",
"E. c #449492",
"W. c #459C93",
"Q. c #4A9C94",
"!. c #529A80",
"~. c #659192",
"^. c #43A587",
"/. c #4BA483",
"(. c #4DAB86",
"). c #44A48C",
"_. c #4AA48C",
"`. c #41A889",
"'. c #4BAC8C",
"]. c #50AD8C",
"[. c #51A588",
"{. c #4EB38B",
"}. c #4FBA8E",
"|. c #47B18B",
" X c #51B38C",
".X c #50BC8E",
"XX c #45A491",
"oX c #4BA492",
"OX c #45AA91",
"+X c #4DAC92",
"@X c #49A999",
"#X c #52AD92",
"$X c #52A797",
"%X c #4EB392",
"&X c #4FBB91",
"*X c #49B297",
"=X c #52B394",
"-X c #59B494",
";X c #50BE90",
":X c #55BD9B",
">X c #5CBD9B",
",X c #58B897",
"<X c #6FB19B",
"1X c #46BCA1",
"2X c #7CB5A7",
"3X c #50C090",
"4X c #5AC395",
"5X c #5CC49C",
"6X c #5DCB9D",
"7X c #5AC699",
"8X c #62C69D",
"9X c #62CB9D",
"0X c #61CB96",
"qX c #61D09C",
"wX c #5EC6A1",
"eX c #48D0A8",
"rX c #48CFA8",
"tX c #62C6A2",
"yX c #62CCA2",
"uX c #78D0A0",
"iX c #67DAB5",
"pX c #68E0B8",
"aX c #60E0C8",
"sX c #839E9B",
"dX c #86BDA8",
"fX c #8EA8A8",
"gX c #A1BBB8",
"hX c #8CC5AE",
"jX c #97D6B7",
"kX c #80F0A0",
"lX c #B9CFC1",
"zX c #CEE6D1",
/* pixels */
"aXaXkXkX$.|.3X3X3X3X3X3X3X3X3X3X3X3X3X3X&X3X3X3X%Xj.V.n.e.E j.-Xf.8.n.x.7.r.'.&X;X;X&X*X;X;X3X3X3X3X3X3X3X3X3X3X3X3X3X3X3X3X3X3X",
"aXaX`.$.uX3X3X3X3X3X3X3X3X3X3X3XpXpX3X&X*X*X%X%XY.a.n.XXR.G.$X7XV.m.b.l.Y R t.E.OXW.E.Q.Q.=X3X3X3X3X3XpX3X3X3X3X3X3X3X3X3X3X3X3X",
"aXaXaXD.3XqX3X3X3X3X3X3X3X3X3X3XpXiX+X^.XX_.B.b.i.! n.'._.^.>XyX+XE.m.i.i.T.T.i.a.F._.W.d.Q.:X3X3X3X3X3X3X3X3X3X3X3X3X3X`.3X3X3X",
"aXaX7XuX3X3X3X3X3X3X3X3X3X3X3X3X3X&XC.&X*X=XoXm.z.c.Z.`.'. X7X9X*X`.).M.J._._.V.I.#X#XV.R.j.%X3X3X3X3X3X3X3X3X3X3X3X3X`.`.3X3X3X",
"aXaXaX|.qX0X3X3X3X3X3X3X3X3X3X3X3X}.V.+X5X8X4X+XY.).V.M. X8XyX9X XB._.'.'.N.@X5X4X,XT.i.I.y.V.}.3X3X3X3X3XpXpX3X3X3X3X3X}.3X`.3X",
"kXuX3XqXuX3X3X3X3X3X3X3X3X3X3X3X*XM.n.V.oX=X4X5X>X#XoXL.#XtXyX7X+XI.I.N.'.'.#X*X*X).%.R b.9.i.U.&X3X3X3X3XpXpX3X3X3X3X3X3X3X3X3X",
"0X3XuXuX3X3X3X3X3X3X3X3X3X}.3X|.C.Z.t.b./.C.|.,X=X'.+X{.5XyXyX%X+X_.N.V.+X+X+X'.).Z.x.T q.e.i.j.1XrX&X&X3X3X3X3X3X`.3X3X3X3X3X3X",
"3X3X0X3X3X3X3X3X3X3X3X3X&X).c.$.m.T.c.d.E.b._.#X'.=X=X6XqXyX9X X'.'.`.+X].'.+X].Y.I.).%.r.v.v.W @X1X}.}.3X3X3X3X3X3X3X3X3X3X3X3X",
"3X3X3X3X3X3X;X;X3X3X3X3X*Xf.q.w.z.).).N.R.d.'.|.%X7X8X9X9X9X8X=X+X%X#X'.#XC.'.oX+X'.'.C.n.c.b.U O.R 0.U.}.3X3X3X3X3X3X3X3X3X3X3X",
"3X3X3X3X3X3X.X;X`.3X3X`.+Xt.y.0.u.U.Y.'.=X>X4X=X5XyX%X X9XyXyX|.B.`.+X'.+XOXB.B.'.[.'.'.OXC.C.J.Y.).F.Q '.3X3X3X3X3X3X3X3X3XuX3X",
"3X3X3X3X3X3X;X;X}.).%XV.V.^.].-X>XtX8X>X9X8X=X+X X#X=X7X9X6XwX'.B.oX=X=X'.+XoX'.+X}.'.'.$XwX:X#X].'.^.^ P.&X}.{.}.}.3X3X3X3X3X3X",
"3X3X3X3X3X3X;XY.b.A.W.E.Z.N.+X=X=X>X X;X4X%XOX%X{.'.,XtX9X;X>X'.V.W.'.'.#X%X+X+XOXOXOXC./.{.'.'.XXk.J.B j.T.j.y.c.{.jXjX3X3X3X3X",
"3X3X3X3X3X3X{.a.w.q.t.S.Z.Z.#X).Y.%X`.%X'._.C.).'.%X5XtX%X'.+XN.M.B.'.#XoX+X+X+X{.oXC.Z.J._.N.V.Y.j.z.9.I { 8.U B (.jXjX3X3X3X3X",
"3X3X3X3X3X3X'.7.5.w.9.x.M.G.T.N.c.Y.V.+XoXI.N.C.*X5XwX#X+X].'.N.M.N.'.+X'.B.B.XX#X(.'.Y.m.V.u.9.l.x.n.p.A Y 2.m f /.3X3X3X3X3X3X",
"3X;X3X3X3X.X'.R A 5.9.u.x.m.m.x.t.t.F.Q.m.N.Y.OXOXoXL.B.=XwX+XL.oXB.'.#XoX&.V.B.'.'.>X:X#XL.t.K T l.u.E d z n w s (.3X3X3X3X3X3X",
"3X;X;X&X=X;X'.{ c b U R ~ t.v.c.i.q.t.d.z.'.>X'.Y.N.V.+X5XtX*X'.oXY.).'.=XoXV.V.OXB.#X=X7X4X_.Y I w.8.2.A v q 6 s /.3X3XuX3X3X3X",
"jXjX%XG.G.'.T.Y y.j A K t.Q u.9.0.t.m.XX,X4X7X+X_.N.C.5X9X5X*X=X+X).#X X7X'.V.V.).c.oX+XwX9X,Xc.8.4.4.H A y 5 v f [.'.{.}.&X.X3X",
"jXjX'.R I 8.Y I ~ x A F K c d.t.n._.4X4X=X=X#X+XC._.*X9X0X X#X`.B.'.=X8XwX X).C.n.i.Y.J.oX X'.oXm.0.D D A t # = z c B | ~.(.3X3X",
"3X3X%Xd.1.5.U J J F D D I m ! c.W.V.#X XoXoXG.L.C.'.7XtX9X'.'.oXV.).%X7XyXyX-XoXG.q.%.W ! oXV._.).%.U V A n e q c u.u.n +.dX3X3X",
"3X3X.X2XT U 4.U G P F j.W.oXoXV.N.N.OX_.F.I.W t.c.{.7X%X-X+XoXV.m.V.%X4X;XwX8X'.z.7.p.U Y b.t.Y.i.u.w.2.S A C A Q t.U y [ dX;X3X",
"#X].dXgX~.~.5.S %.I.-X-X,X%X_._.Y.x.x.l.0.8.w.0._.=XyXwXoX_.i.v.p.z./.#XOX5X9X5XN.T 9.6.4.T w.d.r.d.8.K b A D 5.5.H t * [ (.&X3X",
"h.h.h.k.sX~.J b a.j.W.Y.%XOXI.V.R.! e.9.8.8.9.r.oX:X8X=X[.L.W i.w.! m.[.E.=X6XwX_.c.8.5.P A q.7.7.d.7.V z v C 1.Y m 5 < ) (.3X3X",
"Z U R Y L P n v U r.l.i.Y.m.M.c.n.l.9.q.u.t.b.V.>X-X4X_.y.z.I Y P 9.t.Q.a.'.wX>X=X).p.8.g.P 2.2.K 2.5.z e k f v v 9 6 @.Q K.hXhX",
"z R s.i.U A y q A U 9.Y i.7.l.v.i.M.z.p.l.p.c._.,XR./.T.w.q.P D 5.0.i.t.r.Q.'.Y.+X/.c.8.7.7.8.T P P I m v u y n 5 % % g m H +.+.",
"q c Y Y m b z c v P U I U K u.i.K.OXV.x.n.n.N._.W.y.j.y.9.4.5.2.8.v.n.v.9.d.G.j.Y.J.I.p.8.0.z.l.T J A A D C Z v q 5 : v J E H : ",
"N z S P A H T a.Y T 9.P A S R U.#X+XXXM.n.l.c.m.i.E r.9.u.e.9.T 9.l.c.n.v.i.y.9.v.i.U.r.E z.m.Z.s.I C b C D C v v 4 9 A P U z X ",
"/.j.H.Q U l.J.B.c.c.u.U P F R $X:X).G.m.z.9.e.l.d.e.v.! n.v.0.9.b.n.z.! v.E 9.9.q.q.z.r.z.%.m.n.x.9.Y z A F A A Z Z x r : 7 : > ",
".X[.O.f m r.F.Q %.b.r.8.4.y.[.3X+XC.c.E i.w.7.9.9.e.A.v.%.t.y.9.v.x.9.w.b.9.z.v.r.w.i.9.l.n.t.x.Z.v.T n S t z A V k 5 6 % , g ,.",
";X XJ.g 4 A U m T u.P 2.p.oX=XL.N.n.%.m Y w.7.8.c.%.c.V.%.I 4.1.9.u.r.8.x.n.c.m.b.r.9.q.z.v.H b.n.m.b.U A b t A z q O O 8 ;.@.&X",
"_.K.O.z e z v 6 F I v 7.i.).C.b.z.Q u.m 1.P F y.#XOXoXM.%.K 1.P 5.q.q.! x.M.V.).V.z.U K J 2.c y.E n.v.q.D z Z S C C 9 : 8 ;._.&X",
"N m c v e e q 6 1.A z T T %.u.t.t.A I c D A J c.7X:XoXM.x.0.I F I 1.7.~ m.V.).{./.n.9.n e v v U U t.U 3.I A b S v 6 2 t b J O.P.",
": m K I F A k z v x T g.4.{ J D D k Z S D n K _.7X=XN.Z.n.s.T z S P 8.v.v.V._.'.'.V.s.c r t b z c K S F P V v e e q q A A v m g ",
"% d A 1.5.K M A D L z.l.w.4.U D A D F S A A h.'.5XoX&.b.q.u.K y y A 2.9.Y m.V._.'.oXb.A d z Z t A A S D 2.U V z q 5 r k r % : > ",
"# & 5 6 z 7 F 8.R T.`.c.p.2.2.F D V Z D 2.U b.:X+XJ.! u.U K z v b S P I b t.! U.B.`.J.Y z n S C A A F U 2.q.2.5.z r 0 & % , / >.",
"< $ : ; r 9 I v.K.'.'.n.u.8.J A D U F w.U U I.:XI.z.U K c A v A Z F A F v T B d.m.).T.0.A D D D C v A P 2.4.2.2.c C r > a @.;.;X",
",.] =.h - 5 K z._.oXN.8.P 2.z S 4.T I U 2.r.)./.W t.D b r A C A A D A A A A v K U H.T.b.G D A C v k Z S I A 2.P 1.z < @.;.(.;X;X",
"}.L.|.,.) r V T i.Q f.U z m q H 8.l.u.g.w.0.U.b.I H A C z Z P P U D F A A F v D I t.Q u.I P w.U n v w t z 5 n Z I z % } H.'.}.3X",
"3X3X3X}.-.< 2 t J v U M : 8 l i.M.M.v.9.w.Y K P A P D D n F 3.2.2.D S A A A D 1.P D P U A U K 4.I D 5 9 q & e 5 n z = q d ] P.3X",
";X`.{.K.B , z C t q z q & 6 W Y.Y.F.9.7.2.8.8.P K U U D A P U 2.2.A A D D F 2.q.2.D A D F q.R 2.8.K z 5 * # % % q e q b z w ^ {.",
".X[.O.N P m A Z x e e d t N b.).N.0.q.2.U z.i.K r.w.T D F 2.T w.w.I A A A Y 8.U 2.P J P 6.Y Y 1.2.4.A 4 + # * 5 5 e : v C r B (.",
"iXO.m I u.Y A r e v z e n l.N.I.r.T F 5.I L.T.R w.q.T 2.D 2.P 0.i.7.P A x A 2.P 2.4.I 5.D m I n 2.2.U x % # 0 9 % = . , q 7  .}.",
"(.{ L y.8.H v 5 e S A v P l.l.8.c U z b 0.).'.b.8.4.8.x e Y 5.b.n.E F C t A Y P U 8.R q.V t 5 w m A 2.A q % % q % # - ^ f h ,.&X",
"(.g 7 d v Z q = z b e v P i.Q S r k : : ;._.L.r.2.P K - & V Q M.Y.0.5.H t t n n n z.v.9.A z + $ - q F A l q & 6 O = f sXfXdX}.&X",
"(.s , : q v 2 % 7 % 6 A P U C z y 9 O , K._.y.R Y e z * % n s.n.Y.9.U M C e 5 x c b.v.s.Y x * 5 % & 9 v b v q 3 : h +.lXzXjX3X3X",
"(...J./ 8 q $ @ . @ n q.8.J Z t r 7 9 c V.b.A U K q * * 9 Y i.p.z.7.A H c 2 o % d u.t.l.E c 5 7 7 4 4 r A l n q $ 8 @.hXjX3X3X3X",
"iXiX'.>.-.B X X . 2 2.s.U I D v z x e d ! Q v A x 7 5 5 7 A E u.z.q.I z 9 # $ 6 x K m i.v.T t q O % t y t 3 z q 5 - ^  X3X3X3XuX",
"pXpX3X}.}.>.a - % L 7.y.J z v 9 z 4 3 r z z e y q t q 4 9 u H %.E P P e 5 % 6 4 z q 5 T s.R e 0 % & 7 q 4 * + * - [ ,..X3X3X3X3X",
"3X3X3X3X3X/.B .., ~ H b 5 % 5 # & * v v A v q q e y z z q z L i.U 2.F e 7 7 e e 9 q 6 m 7.z q q w 7 # + + # # > _ <X.X3X3X3X3X3X",
"3X3X3X3X3X{.=.,.7 K 5 r % . # # # w A C n e q 9 q v C C v e v K J A z r d q e r & q q y I z & 9 q 7 + * . O s ;.>.|.3X3X3X3X3X3X",
"3X3X3X3X3X}.{./.g l 8 % # $ % 7 = z P F S w 9 2 5 v C C c 9 5 v v v 9 e z q e 6 % 7 % q z q % 5 : & @ + . - >.}.{..X3X3X3X3X3X3X",
"3X3X3X3X3X3X3X%XX.c @.a g X.q q 9 n I C e 2 9 & % A 5.m q O % r 2 5 % w A z 9 % X # # O 5 5 # O = h < - . a ,.}.3X3X3X3X3X3X3X3X",
"3X3X3X3X3X3X3X3X(.K. X>./.P.s 5 2 q n r 9 % : # # z I e % . # 5 O # # 0 C v 9 + + + . # $ % # # + , *.*.>.*.}.3X3X3X3X3X3X3X3X3X",
"3X3X3X3X3X3X3X3X3X}.3X X.X(.X.X.> % 7 % # . . . + 5 A e X X % % O     % e C 2 . + . + + . $ : $ ; a ,.}.}.}.3X3X3X3X3X3X3X3X3X3X",
"3X3X3X3X3X3X3X3X3X3X3X3X}..X{./.a # # + + + # X @ # e q # . # % *   + # 4 v # O + + + + X X # < =.=.{.3X3X3X3X3X3X3X3X3X3X3X3X3X",
"3X3X3X3X3X3X3X3X3X3X3X3X3X3X3X/./ $ - > & + X * * X % 8 # + $ X # X + + # 7 * * +   + + X ; X s /.}.3X3X3X3X3X3X3X3X3X3X3X3X3X3X",
"3X3X3X3X3X3X3X3X3X3X3X3X3X3X3X Xo. .>.P...a . X . + @ ( > $ p $ + + @ X + # # O . . + + . ( X ' (.3X3X3X3X3X3X3X3X3X3X3X3X3X3X3X",
"eXeX3X3X3X3X3X3X3X3X3X3X3X3X3X X<.,..X3X X=.1 ; i p ; :.=.( i X + + + X + @ + + O . . ; .._ / <.3X3X`.3X3X3X3X3X3X3X3X3X3X3X3X3X",
"eXeX3X3X3X3X3X3X3X3X3X3X3X3X3X3X.X.X3XpX(.:.` ` ` ( < ,.(.) 1 X + X   .   + @ . . . 1 a ,.:.,. X3X`.3X3X3X3X3X3X3X3X3X3X3X3X3X3X",
"3X3X3X3X3XpXpX3X3X3X3X3X3X3X3X3X3X3X3X3X,.o._ ` _ ..a ,.}.>./ ( ; . + # + o - - . s *.$.{..X.X3X3X&.3X3X3X3X3X3X3X3X3X3X3X3X3X3X",
"3X3X3X3X3XpXpX3X3X3X3X3X3X3X3X3X3X3X3X3X3X,.:.#.<.,.) ,..X/.' o.=.< # + # > .. .X.,.3X3X.X3X.X3X3X3X3X3X3X3X3X3X3X3X3X3X3X3X3X3X",
"3X3X3X3X3X3X3X3X3X3X3X3X3X3X3X3X3X3X3X3X3XiXiX X3X.X<. X3X(...<.(.X.s s h | (. X|.3X3X3X`.3X`.3X3X3X3X3X`.3X`.3X3X3X3X3X3X3X3X3X",
"3X3X3X3X3X3X3X3X3X3X3X3X3X3X3X3X3X3X3X3X3XpXpX3X3X3X.X3X3X.X(..X.X X/.(./.(.3X3X3X3X`.3X,.`.3X3X3X3X|.3X`.`.3X3X3X3X3X3X3X3X3X3X",
"3X3X3XpX3X3X3X3X3X3X3X3X3X3X3X3XeXeX3X3X3X3X3X3X3X3X3X3X3X3X3X3X3X3X3X3X3X3X3X3X3X3X`.3X`.`.3X3X3X3X`.3X`.`.3X3X3X3X3X3X3X3X3X3X",
"3X3X3X3X3X3X3X3X3X3X3X3X3X3X3X3XeXeX3X3X3X3X3X3X3X3X3X3X3X$.$.3X3X3X3X3X3X3X3X3X3X3X3X3X`.3X3X3X3X3X3X3X,.3X3X3X3X3X3X3X3X3X3X3X"
};
