/* XPM */
static char *collectible[] = {
/* columns rows colors chars-per-pixel */
"64 64 169 2 ",
"   c #0B0A06",
".  c #07110D",
"X  c #18140C",
"o  c #030E10",
"O  c #0E1412",
"+  c #0C1C15",
"@  c #10261C",
"#  c #252214",
"$  c #282018",
"%  c #322D1C",
"&  c #31301E",
"*  c #1F2F27",
"=  c #302925",
"-  c #52391E",
";  c #573A1C",
":  c #5A3E21",
">  c #22513C",
",  c #5A4B3A",
"<  c #285841",
"1  c #2F6249",
"2  c #30654A",
"3  c #2C6D55",
"4  c #2F7054",
"5  c #337B5D",
"6  c #23526F",
"7  c #534E50",
"8  c #495252",
"9  c #4A4D5A",
"0  c #605443",
"q  c #4A5F75",
"w  c #4A5266",
"e  c #4D7164",
"r  c #4E6F7D",
"t  c #3B8D6A",
"y  c #398A67",
"u  c #308070",
"i  c #3E9670",
"p  c #429D76",
"a  c #45A57B",
"s  c #47A97F",
"d  c #68C878",
"f  c #98E078",
"g  c #C0E870",
"h  c #172F8F",
"j  c #193995",
"k  c #183896",
"l  c #18508F",
"z  c #295C8F",
"x  c #29469C",
"c  c #2E539D",
"v  c #2C648F",
"b  c #387B99",
"n  c #1C51AF",
"m  c #1E5CBC",
"M  c #215AB5",
"N  c #2A54A8",
"B  c #1F62BA",
"V  c #296BAE",
"C  c #2E74A1",
"Z  c #2567B8",
"A  c #2979BC",
"S  c #2471BF",
"D  c #446A9D",
"F  c #4870B4",
"G  c #1F68C6",
"H  c #1F6AC9",
"J  c #216AC4",
"K  c #246ECA",
"L  c #2975C5",
"P  c #227DD3",
"I  c #37808F",
"U  c #3F988B",
"Y  c #3CA08F",
"T  c #2E88A2",
"R  c #3D9DA6",
"E  c #3996AA",
"W  c #2F84B6",
"Q  c #3187B3",
"!  c #3589B7",
"~  c #3EA1AA",
"^  c #38B0B8",
"/  c #40978F",
"(  c #429B9A",
")  c #40A888",
"_  c #48AD82",
"`  c #4CB689",
"'  c #4FBE8F",
"]  c #4BB386",
"[  c #45AD9C",
"{  c #44A392",
"}  c #4CB692",
"|  c #4EBC92",
" . c #48B299",
".. c #47B09F",
"X. c #50BF90",
"o. c #4198B7",
"O. c #41A5A2",
"+. c #50C090",
"@. c #48D0A8",
"#. c #78D0A0",
"$. c #68E0B8",
"%. c #2E8FC1",
"&. c #2B85CD",
"*. c #388CC9",
"=. c #329EC8",
"-. c #2384DB",
";. c #3B83D1",
":. c #2E95DD",
">. c #369BD7",
",. c #2A94CB",
"<. c #35A4D6",
"1. c #258FE4",
"2. c #269EEF",
"3. c #2999E8",
"4. c #3D9BE4",
"5. c #2AA2ED",
"6. c #36AAE9",
"7. c #3EB8EC",
"8. c #28A2F1",
"9. c #3FACF1",
"0. c #36B6F3",
"q. c #37B8F3",
"w. c #4B90C1",
"e. c #5195CC",
"r. c #4187D3",
"t. c #41ADD7",
"y. c #60A6DA",
"u. c #47BDED",
"i. c #54B8F2",
"p. c #45B3F2",
"a. c #72BAE6",
"s. c #3FC3F5",
"d. c #60E0C8",
"f. c #41C3F2",
"g. c #46CEF7",
"h. c #4ACFF7",
"j. c #47CFF8",
"k. c #48CFF8",
"l. c #4AD0F7",
"z. c #4AD0F8",
"x. c #47D0F9",
"c. c #53D2F7",
"v. c #54D3F8",
"b. c #5BD3F7",
"n. c #69C5F3",
"m. c #70CEF4",
"M. c #6DD9F8",
"N. c #74DAF7",
"B. c #77DBF8",
"V. c #7ADAF7",
"C. c #77C0E6",
"Z. c #98D8B8",
"A. c #92D0B7",
"S. c #80F0A0",
"D. c #81B6DC",
"F. c #84BFE0",
"G. c #80F8C8",
"H. c #84C3E6",
"J. c #83DEF7",
"K. c #84DEF8",
"L. c #9ADCF3",
"P. c #92DAF1",
"I. c #93E3F7",
"U. c #9DE6F9",
"Y. c #92E3F9",
"T. c #A3E5F7",
"R. c #A9E8F8",
"E. c #A4E8F8",
"W. c #D8F0D8",
/* pixels */
"d.d.S.S.u ) +.+.+.+.+.+.+.+.+.+.+.+.+.+.+.+.+.+.+.+.+.+.+.+.+.+.+.+.+.+.+.+.+.+.+.+.+.+.+.+.+.+.+.+.+.+.+.+.+.+.+.+.+.+.+.+.+.+.",
"d.d.) u S.) +.+.+.+.+.+.+.+.+.+.$.$.+.+.+.+.+.+.+.+.+.$.+.+.+.+.+.+.+.$.+.+.+.+.+.+.+.+.+.+.+.+.+.+.+.$.+.+.+.+.+.+.+.+.+.+.+.+.",
"d.d.d.^ ) S.+.+.+.+.+.+.+.+.+.+.$.$.+.+.+.+.+.$.+.+.+.+.+.+.+.+.+.+.+.+.+.+.+.+.+.+.+.+.) +.+.+.+.+.+.+.+.+.+.+.+.+.+.+.) +.+.+.",
"d.d.+.S.+.+.+.+.+.+.+.+.+.+.+.+.+.+.@.$.$.@.+.+.+.+.+.+.+.+.+.+.+.+.+.+.+.+.+.+.+.+.+.) ) +.+.+.+.+.+.+.+.+.+.+.+.+.+.) ) +.+.+.",
"d.d.d.) S.+.+.+.+.+.+.+.+.+.+.+.+.+.$.G.d.$.+.+.+.+.+.+.+.$.$.+.+.+.+.+.+.$.$.+.+.+.+.+.+.+.) +.+.+.+.+.+.$.$.+.+.+.+.+.+.+.) +.",
"S.S.+.+.S.+.+.+.+.+.+.+.+.+.+.+.+.+.$.G.G.$.+.+.+.+.+.+.+.$.$.+.+.+.+.+.+.$.$.+.+.+.+.+.+.+.+.+.+.+.+.+.+.$.$.+.+.+.+.+.+.+.+.+.",
"+.+.S.S.+.+.+.+.+.+.+.+.+.+.+.+.+.+.@.$.$.@.+.+.@.@.+.+.+.+.+.+.@.@.+.+.+.+.+.+.+.) +.+.+.+.+.+.@.@.+.+.+.+.+.+.+.) +.+.+.+.+.+.",
"+.+.+.+.+.+.+.+.+.+.+.+.+.+.+.+.$.+.+.+.+.+.+.+.@.@.+.+.+.+.+.+.@.@.+.+.+.+.+.+.+.+.+.+.+.+.+.+.@.@.+.+.+.+.+.+.+.+.+.+.+.+.+.+.",
"+.+.+.+.+.+.+.+.+.+.+.+.+.+.+.+.+.+.+.+.+.+.+.+.+.+.+.+.+.+.#.+.+.+.+.+.+.+.+.+.+.+.+.+.+.+.+.+.+.+.+.+.+.+.+.+.+.+.+.+.+.+.+.+.",
"+.+.+.+.+.+.+.+.) +.+.) +.+.+.+.+.+.+.+.+.+.#.+.+.+.+.Z.Z.+.+.+.+.] +.+.+.+.+.+.+.+.+.+.+.+.#.+.+.) +.+.+.+.+.+.+.+.+.+.+.+.#.+.",
"+.+.+.+.+.+.+.+.+.) +.) +.) +.+.+.+.+.+.+.+.+.+.+.+.Z.W.W.Z.+.+.+.+.+.+.+.+.+.+.+.+.+.+.+.+.+.+.+.+.+.+.+.+.+.+.+.+.+.+.+.+.+.+.",
"+.+.+.+.+.+.+.+.+.) ) +.+.) +.+.+.+.Z.Z.+.+.+.+.+.+.Z.W.W.Z.+.+.+.+.+.+.+.+.) +.+.+.Z.Z.+.+.+.+.+.+.+.+.+.+.) +.+.+.Z.Z.+.+.+.+.",
"+.+.+.+.+.+.+.+.+.+.) +.+.+.+.) +.+.Z.Z.+.+.+.+.+.+.+.Z.Z.+.+.+.+.+.+.) ) +.+.+.+.+.Z.Z.+.+.+.+.+.+.+.) ) +.+.+.+.+.Z.Z.+.+.+.+.",
"+.+.+.+.+.+.+.+.+.+.+.+.+.+.) +.+.+.+.+.+.+.+.+.+.+.+.+.+.+.+.#.+.+.+.+.) +.+.+.+.+.+.+.+.+.+.+.+.+.+.+.) +.+.+.+.+.+.+.+.+.+.+.",
"+.+.+.+.+.+.+.+.+.+.+.+.+.+.) +.+.+.+.+.+.+.+.+.Z.Z.+.+.+.+.+.+.+.+.+.+.+.+.+.+.+.+.+.+.+.+.+.+.+.+.+.+.+.+.+.+.+.+.+.+.+.+.+.+.",
"+.+.+.+.+.+.+.+.+.+.+.+.+.+.+.+.+.+.+.+.#.+.+.+.Z.Z.+.+.+.+.+.+.+.+.+.+.+.+.+.+.+.+.+.+.#.+.+.+.+.+.+.+.+.+.+.+.+.+.+.+.#.+.+.+.",
"Z.Z.+.+.+.+.+.+.+.+.+.+.+.+.+.+.+.+.+.+.+.+.+.+.+.+.+.+.+.+.+.+.+.+.+.+.+.+.+.+.+.+.+.+.+.+.+.+.+.+.+.+.+.+.+.+.+.#.+.+.+.+.+.+.",
"Z.Z.+.+.+.+.+.+.+.+.+.+.+.+.+.+.+.+.+.+.+.+.+.+.+.Y +.+.+.+.+.+.+.+.+.+.+.+.+.+.+.+.+.+.+.+.+.+.+.+.+.+.+.+.+.+.+.+.+.Z.Z.+.+.+.",
"+.+.+.+.+.+.+.#.+.+.+.+.) +.+.+.+.+.+.+.+.+.+.+.+.+.+.+.+.+.+.+.+.+.+.+.) +.+.+.+.+.+.+.+.+.+.+.+.+.+.+.) +.+.+.+.+.Z.W.W.Z.+.+.",
"+.+.+.Z.Z.+.+.+.+.+.+.) ) +.+.+.+.+.+.+.+.+.+.+.+.+.+.+.+.+.+.+.+.+.+.) ) +.+.+.+.+.+.+.+.+.+.+.+.+.+.) ) +.+.+.+.+.Z.W.W.Z.+.+.",
"+.+.Z.W.W.Z.+.+.+.+.+.+.+.+.) +.+.+.+.+.+.+.+.+.+.+.+.+.+.+.+.+.+.+.+.+.+.+.) +.+.+.+.+.+.+.+.+.+.+.+.+.+.+.) +.+.+.+.Z.Z.+.+.+.",
"+.+.Z.W.W.Z.+.+.+.+.+.+.+.+.+.+.+.+.+.+.+.| | | +.+.+.+.+.+.+._ +.X.| | | X.X.+.+.+.+.+.+.+.+.+.+.+.+.+.+.+.+.+.#.+.+.+.+.+.+.+.",
"+.+.+.Z.Z.+.+.+.+.) +.+.+.+.+.+.+.+.+.+.| R Q =.<.! Q ~ +.+.Y Y +.Y ! W Q Q  .+.+.+.+.+.+.+.+.+.+.) +.+.+.+.+.+.+.+.+.+.+.+.Z.Z.",
"+.+.+.+.+.+.#.+.+.+.+.+.+.+.+.+.+.+.+.+.| Q H 1.8.-.H E | +.} } +. .L K K L O.| +.+.+.+.+.+.+.+.+.+.+.+.+.+.+.+.+.+.+.+.+.+.Z.Z.",
"+.+.+.+.+.+.+.+.+.+.+.+.+.+.+.+.+.+.+.+.| Q K 6.s.6.1.&.A Q ! *.<.t.a.H.H.a.e.w. .+.+.+.+.+.+.+.+.+.+.+.+.+.+.+.+.+.+.+.+.+.+.+.",
"+.+.+.+.+.+.+.+.+.+.+.+.+.+.#.+.+.+.+.+.| W H 6.l.q.8.-.J J K P 8.9.U.R.R.U.r.L [ | +.+.+.+.+.+.+.+.+.+.+.+.+.+.+.+.+.+.+.+.+.+.",
"+.+.+.+.) +.+.+.+.+.+.+.+.+.+.+.+.+.+.+.| C n :.q.q.0.3.-.-.-.4.n.n.N.B.B.N.a.y.o.E [ +.+.+.+.+.+.+.+.+.+.+.+.+.+.+.+.+.) +.+.+.",
"+.+.+.) ) +.+.+.+.+.Z.Z.+.+.+.+.+.+.+.+.` v j P 5.q.g.q.2.2.5.i.T.I.c.x.h.z.P.L.;.J R +.+.+.+.+.+.+.+.+.+.+.+.+.+.+.+.) ) +.+.+.",
"+.+.+.+.+.+.) +.+.+.Z.Z.+.+.+.+.+.+.+.+.| U b V B >.j.0.8.9.n.m.M.M.h.c.B.V.U.L.;.G R +.+.+.+.+.+.+.+.+.+.+.+.+.+.+.+.+.+.+.) +.",
"+.+.+.+.+.+.+.+.+.+.+.+.+.+.+.+.+.+.+.+.+.+.} z h A x.q.2.i.E.K.x.k.k.b.T.R.R.L.;.G R +.+.+.+.+.+.+.+.+.+.+.+.+.+.+.+.+.+.+.+.+.",
"+.) +.+.+.+.+.+.+.+.+.+.+.+.+.+.+.+.+.+.+.+.| I D b T ,.2.9.V.M.x.x.k.c.J.K.T.L.;.G R +.+.+.+.+.+.+.+.+.+.+.+.+.+.) +.+.+.+.+.+.",
"+.+.+.+.+.+.+.+.+.+.+.+.#.+.+.+.+.+.+.+.+.+.+.| A.e o l 8.0.h.l.k.h.k.k.k.c.Y.L.;.K R +.+.+.+.+.+.+.+.+.+.+.+.+.+.+.+.+.+.+.+.+.",
"+.+.+.+.+.+.+.+.+.+.+.+.+.+.+.+.+.+.+.+.+.+.+.s p > X 6 *.<.u.g.j.x.b.b.v.b.H.H.*.A O.X.+.+.+.+.+.+.+.+.+.+.+.+.+.+.+.+.+.+.+.+.",
"+.+.+.+.+.+.+.+.+.+.+.+.+.+.+.+.+.+.+.$.+.+.` > + % ; , 0 D 5.q.x.b.Y.U.U.P.F c ( } } X.+.+.+.+.+.+.+.+.+.+.#.+.+.+.+.+.+.+.#.+.",
"+.+.+.+.) +.+.+.+.+.+.+.+.+.+.+.+.+.+.+.+.+.` > @ % ; ; ; 8 ! >.7.u.F.H.H.D.N l { +.+.+.) +.+.+.+.+.+.+.+.+.+.+.+.+.+.+.+.+.+.+.",
"+.+.+.) ) +.+.+.+.+.+.+.+.+.+.+.+.+.+.+.+.+.' ] s <       # , r K K x x x x M S  .+.+.Y ) +.+.+.+.+.Z.Z.+.+.+.+.+.+.Z.Z.+.+.+.+.",
"+.+.+.+.+.+.) +.+.+.+.+.+.+.+.+.+.+.+.+.+.$.$.+.+.2 O O . # ; 9 Z M k k j k m K [ +.+.+.+.+.Y +.+.+.Z.Z.+.+.+.+.+.+.Z.Z.+.+.+.+.",
"+.+.+.+.+.+.+.+.+.+.+.+.+.+.+.+.+.+.+.+.+.$.$.+.+.s t t t 2 X = 7 w n J >.t.L L [ +.+.+.+.+.+.+.+.+.+.+.+.+.+.+.+.+.+.+.+.+.+.+.",
"+.) +.+.+.+.+.+.+.+.+.+.+.+.+.+.@.@.+.+.+.+.+.+.+.+.+.+.+.y + # ; , V &.u.u.&.A  .) +.+.+.+.+.+.+.+.+.+.+.+.+.+.+.+.+.+.+.+.+.+.",
"+.+.+.+.+.+.+.+.+.+.+.+.+.+.+.+.@.@.+.+.+.+.+.+.+.+.+.+.#.] i 1 X * U ~ &.&.R [ +.+.+.+.+.+.+.+.+.+.+.+.#.+.+.+.+.+.+.+.#.+.+.+.",
"$.+.+.+.+.+.+.+.+.+.+.+.+.+.+.+.+.+.+.+.+.+.+.+.+.+.+.+.+.+.X.5   @ _ O.S J [ +.+.+.+.+.+.+.+.+.+.+.+.+.+.+.+.+.+.+.+.+.+.+.#.+.",
"+.+.@.$.$.@.+.+.+.+.+.+.+.+.+.+.+.#.+.+.+.+.+.+.+.+.+.$.+.+.' a 4 3 ` | ~ R } +.+.+.+.+.+.+.#.+.+.+.+.+.+.+.+.+.+.+.+.Z.Z.+.+.+.",
"+.+.$.G.G.$.+.+.+.+.+.+.+.+.+.+.+.+.+.+.+.+.+.+.+.+.+.+.+.+.+.+.+.+.+.+.+.+.+.+.+.+.+.+.+.+.+.+.+.+.+.+.+.+.+.+.+.+.Z.W.W.Z.+.+.",
"+.+.$.G.G.$.+.+.+.+.+.+.+.+.+.+.+.+.+.+.Z.Z.+.+.+.+.+.+.+.+.+.+.+.+.+.+.+.+.) +.+.+.Z.Z.+.+.+.+.+.+.+.+.+.+.+.+.+.+.Z.W.W.Z.+.+.",
"+.+.@.$.$.@.+.+.+.+.+.+.+.+.+.+.+.+.+.+.Z.Z.+.+.+.+.+.+.+.$.$.+.+.+.+.) ) +.+.+.+.+.Z.Z.+.+.+.+.+.+.+.+.+.+.+.+.+.+.+.Z.Z.+.+.+.",
"$.$.+.+.+.+.+.$.+.+.+.+.+.+.+.+.+.+.+.+.+.+.+.+.+.+.+.+.+.$.$.+.+.+.+.+.) +.+.+.+.+.+.+.+.+.+.+.+.+.+.+.+.+.+.+.+.+.+.+.+.+.+.#.",
"$.$.+.+.+.+.+.+.+.+.+.+.+.+.+.+.+.+.+.+.+.+.+.+.@.@.+.+.+.+.+.+.+.+.+.+.+.+.+.+.+.+.+.+.+.+.+.+.+.+.+.+.+.+.+.+.Z.Z.+.+.+.+.+.+.",
"+.+.+.+.+.+.+.+.+.+.+.+.+.+.+.+.+.+.+.#.+.+.+.+.@.@.+.+.+.+.+.+.+.+.+.+.+.+.+.+.+.+.+.+.#.+.+.+.+.+.+.+.+.+.+.+.Z.Z.+.+.+.+.+.+.",
"+.+.+.+.+.+.+.+.+.+.+.+.+.+.+.+.+.+.+.+.+.+.+.+.+.+.+.+.+.+.+.+.+.+.+.+.+.+.+.+.+.+.+.+.+.+.+.+.+.+.+.+.+.+.+.+.+.+.+.+.+.+.+.+.",
"+.+.+.+.+.+.+.+.+.+.+.+.+.+.+.+.+.+.+.+.+.+.+.+.f f +.+.+.+.+.+.+.+.+.+.+.+.+.+.+.+.+.+.+.+.+.+.+.+.+.+.+.+.+.+.+.+.+.+.+.+.+.+.",
"+.+.+.+.+.+.+.+.+.+.+.+.+.+.+.+.+.+.+.+.+.+.+.+.f f +.+.+.+.+.f +.+.+.+.+.+.+.+.+.+.+.+.+.+.+.+.+.+.+.+.+.+.+.+.+.+.+.+.+.+.+.+.",
"+.+.+.+.+.+.+.+.+.+.+.+.+.+.+.+.+.+.+.+.+.+.+.+.+.+.d f f d +.+.+.+.+.+.+.+.+.+.+.+.+.+.+.+.+.+.+.+.+.+.+.+.+.+.+.+.+.+.+.+.+.+.",
"+.+.+.+.+.+.+.+.+.+.+.+.+.+.+.+.+.+.+.+.+.+.+.+.+.+.f g g f +.+.+.+.+.+.+.+.+.+.+.+.+.+.+.+.+.+.+.+.+.+.+.+.+.+.+.+.+.+.+.+.+.+.",
"+.+.+.+.+.+.+.+.+.+.+.+.+.+.+.+.+.+.+.+.+.+.+.+.+.+.f g g f +.+.+.+.+.+.+.+.+.+.+.+.+.+.+.+.+.+.+.+.+.+.+.+.+.+.+.+.+.+.+.+.+.+.",
"+.+.+.+.+.+.+.+.+.+.+.+.+.+.+.+.+.+.+.+.+.+.+.+.+.+.d f f d +.+.+.+.+.+.+.+.+.+.+.+.+.+.+.+.+.+.+.+.+.+.+.+.+.+.+.+.+.+.+.+.+.+.",
"+.+.+.+.+.+.+.+.+.+.+.+.+.+.+.+.+.+.+.+.+.+.+.+.f +.+.+.+.+.+.+.+.+.+.+.+.+.+.+.+.+.+.+.+.+.+.+.+.+.+.+.+.+.+.+.+.+.+.+.+.+.+.+.",
"@.@.+.+.+.+.+.+.+.+.+.+.+.+.+.+.+.+.+.+.+.+.+.+.+.+.+.+.+.+.+.+.+.+.+.+.+.+.+.+.+.+.) +.+.+.+.+.+.+.) +.+.+.+.+.+.+.+.+.+.+.+.+.",
"@.@.+.+.+.+.+.+.+.+.+.+.+.+.+.+.+.+.+.$.+.+.+.+.+.+.+.+.+.+.+.+.+.+.+.+.+.+.+.+.+.) +.+.+.+.+.+.+.) +.+.+.+.+.+.+.+.+.+.+.+.+.+.",
"+.+.+.+.+.$.$.+.+.+.+.+.+.+.+.+.+.+.+.+.+.+.+.+.+.+.+.+.+.+.+.+.+.+.+.+.+.+.+.+.+.) +.+.+.+.+.+.+.) +.+.+.+.+.+.+.+.+.+.+.+.+.+.",
"+.+.+.+.+.$.$.+.+.+.+.+.+.+.+.+.+.+.+.+.+.+.+.+.+.+.+.+.+.+.+.+.+.+.+.+.+.+.+.+.+.+.+.+.+.+.+.+.+.+.+.+.+.+.+.+.+.+.+.+.+.+.+.+.",
"+.+.+.+.+.+.+.+.+.+.+.+.+.+.+.+.+.+.+.+.+.$.$.+.+.+.+.+.+.+.+.+.+.+.+.+.+.+.+.+.+.+.+.+.) +.) +.+.+.+.+.) +.) +.+.+.+.+.+.+.+.+.",
"+.+.+.+.+.+.+.+.+.+.+.+.+.+.+.+.+.+.+.+.+.$.$.+.+.+.+.+.+.+.+.+.+.+.+.+.+.+.+.+.+.+.) +.) ) +.+.+.+.) +.) ) +.+.+.+.+.+.+.+.+.+.",
"+.+.+.$.+.+.+.+.+.+.+.+.+.+.+.+.@.@.+.+.+.+.+.+.+.+.+.+.+.+.+.+.+.+.+.+.+.+.+.+.+.+.) +.) ) +.+.+.+.) +.) ) +.+.+.+.+.+.+.+.+.+.",
"+.+.+.+.+.+.+.+.+.+.+.+.+.+.+.+.@.@.+.+.+.+.+.+.+.+.+.+.+.u u +.+.+.+.+.+.+.+.+.+.+.+.+.) +.+.+.+.+.+.+.) +.+.+.+.+.+.+.+.+.+.+."
};
