/* XPM */
static char *collectible_right[] = {
/* columns rows colors chars-per-pixel */
"64 64 170 2 ",
"   c #0D0A05",
".  c #040A07",
"X  c #08120E",
"o  c #18140C",
"O  c #030E10",
"+  c #0B1914",
"@  c #10261C",
"#  c #262217",
"$  c #322D1C",
"%  c #31301E",
"&  c #1F2F27",
"*  c #302925",
"=  c #52391E",
"-  c #573A1C",
";  c #5A3E21",
":  c #22513C",
">  c #5A4B3A",
",  c #285841",
"<  c #2F6249",
"1  c #2B6A54",
"2  c #2F7054",
"3  c #38785E",
"4  c #23526F",
"5  c #534E50",
"6  c #495252",
"7  c #4A4D5A",
"8  c #605443",
"9  c #4A5F75",
"0  c #4A5266",
"q  c #4E6F7D",
"w  c #3A8C69",
"e  c #308070",
"r  c #3C9876",
"t  c #429D76",
"y  c #45A57B",
"u  c #47A97F",
"i  c #68C878",
"p  c #98E078",
"a  c #C0E870",
"s  c #172F8F",
"d  c #193995",
"f  c #183896",
"g  c #18508F",
"h  c #295C8F",
"j  c #29469C",
"k  c #2E539D",
"l  c #2C638F",
"z  c #357D92",
"x  c #2D7598",
"c  c #1C51AF",
"v  c #1E5CBC",
"b  c #215AB5",
"n  c #2A54A8",
"m  c #1F62BA",
"M  c #266CAD",
"N  c #2E74A1",
"B  c #2969B7",
"V  c #2979BC",
"C  c #2878B6",
"Z  c #4870B4",
"A  c #1F68C7",
"S  c #1F6AC9",
"D  c #216AC4",
"F  c #246ECA",
"G  c #2B74C5",
"H  c #2877C6",
"J  c #227DD3",
"K  c #37808F",
"L  c #3C9F80",
"P  c #3EA38D",
"I  c #3FA787",
"U  c #3AA39B",
"Y  c #2E88A2",
"T  c #3D9DA6",
"R  c #3996AA",
"E  c #2E83B6",
"W  c #3187B3",
"Q  c #338AB5",
"!  c #3FA2A9",
"~  c #38B0B8",
"^  c #40978F",
"/  c #429B9A",
"(  c #40A888",
")  c #4AA984",
"_  c #4CB789",
"`  c #46AD9C",
"'  c #44A392",
"]  c #4CB692",
"[  c #4EBC92",
"{  c #48B299",
"}  c #47B09F",
"|  c #50BF90",
" . c #41A5A2",
".. c #54A9B4",
"X. c #67ABBF",
"o. c #7EBFBB",
"O. c #50C090",
"+. c #48D0A8",
"@. c #78D0A0",
"#. c #68E0B8",
"$. c #2B85CE",
"%. c #2F8FC2",
"&. c #388CC9",
"*. c #329BC5",
"=. c #2384DB",
"-. c #3B83D1",
";. c #348BD2",
":. c #2E95DD",
">. c #369BD7",
",. c #2A94CB",
"<. c #35A4D6",
"1. c #258FE4",
"2. c #269EEF",
"3. c #2999E8",
"4. c #3D9BE4",
"5. c #2AA2ED",
"6. c #36AAE9",
"7. c #3EB8EC",
"8. c #28A2F1",
"9. c #3FACF1",
"0. c #36B6F3",
"q. c #37B8F3",
"w. c #4190C4",
"e. c #4187D3",
"r. c #4388C3",
"t. c #5DA1C7",
"y. c #41ADD7",
"u. c #68A9DE",
"i. c #47BDED",
"p. c #54B8F2",
"a. c #45B3F2",
"s. c #72BAE6",
"d. c #3FC3F5",
"f. c #60E0C8",
"g. c #41C3F2",
"h. c #46CEF7",
"j. c #4ACFF7",
"k. c #47CFF8",
"l. c #48CFF8",
"z. c #4AD0F7",
"x. c #4AD0F8",
"c. c #47D0F9",
"v. c #53D2F7",
"b. c #54D3F8",
"n. c #5AD3F8",
"m. c #5CD2F6",
"M. c #69C5F3",
"N. c #70CEF4",
"B. c #6DD9F8",
"V. c #74DAF7",
"C. c #77DBF8",
"Z. c #7ADAF7",
"A. c #77C0E6",
"S. c #98D8B8",
"D. c #80F0A0",
"F. c #81B6DC",
"G. c #84BFE0",
"H. c #80F8C8",
"J. c #84C3E6",
"K. c #83DEF7",
"L. c #84DEF8",
"P. c #9ADCF3",
"I. c #92DAF1",
"U. c #93E3F7",
"Y. c #9DE6F9",
"T. c #92E3F9",
"R. c #A3E5F7",
"E. c #A9E8F8",
"W. c #A4E8F8",
"Q. c #D8F0D8",
/* pixels */
"f.f.D.D.e ( O.O.O.O.O.O.O.O.O.O.O.O.O.O.O.O.O.O.O.O.O.O.O.O.O.O.O.O.O.O.O.O.O.O.O.O.O.O.O.O.O.O.O.O.O.O.O.O.O.O.O.O.O.O.O.O.O.O.",
"f.f.( e D.( O.O.O.O.O.O.O.O.O.O.#.#.O.O.O.O.O.O.O.O.O.#.O.O.O.O.O.O.O.#.O.O.O.O.O.O.O.O.O.O.O.O.O.O.O.#.O.O.O.O.O.O.O.O.O.O.O.O.",
"f.f.f.~ ( D.O.O.O.O.O.O.O.O.O.O.#.#.O.O.O.O.O.#.O.O.O.O.O.O.O.O.O.O.O.O.O.O.O.O.O.O.O.O.( O.O.O.O.O.O.O.O.O.O.O.O.O.O.O.( O.O.O.",
"f.f.O.D.O.O.O.O.O.O.O.O.O.O.O.O.O.O.+.#.#.+.O.O.O.O.O.O.O.O.O.O.O.O.O.O.O.O.O.O.O.O.O.( ( O.O.O.O.O.O.O.O.O.O.O.O.O.O.( ( O.O.O.",
"f.f.f.( D.O.O.O.O.O.O.O.O.O.O.O.O.O.#.H.H.#.O.O.O.O.O.O.O.#.#.O.O.O.O.O.O.#.#.O.O.O.O.O.O.O.( O.O.O.O.O.O.#.#.O.O.O.O.O.O.O.( O.",
"D.D.O.O.D.O.O.O.O.O.O.O.O.O.O.O.O.O.#.H.H.#.O.O.O.O.O.O.O.#.#.O.O.O.O.O.O.#.#.O.O.O.O.O.O.O.O.O.O.O.O.O.O.#.#.O.O.O.O.O.O.O.O.O.",
"O.O.D.D.O.O.O.O.O.O.O.O.O.O.O.O.O.O.+.#.#.+.O.O.+.+.O.O.O.O.O.O.+.+.O.O.O.O.O.O.O.( O.O.O.O.O.O.+.+.O.O.O.O.O.O.O.( O.O.O.O.O.O.",
"O.O.O.O.O.O.O.O.O.O.O.O.O.O.O.O.#.O.O.O.O.O.O.O.+.+.O.O.O.O.O.O.+.+.O.O.O.O.O.O.O.O.O.O.O.O.O.O.+.+.O.O.O.O.O.O.O.O.O.O.O.O.O.O.",
"O.O.O.O.O.O.O.O.O.O.O.O.O.O.O.O.O.O.O.O.O.O.O.O.O.O.O.O.O.O.@.O.O.O.O.O.O.O.O.O.O.O.O.O.O.O.O.O.O.O.O.O.O.O.O.O.O.O.O.O.O.O.O.O.",
"O.O.O.O.O.O.O.O.( O.O.( O.O.O.O.O.O.O.O.O.O.@.O.O.O.O.S.S.O.O.O.O.( O.O.O.O.O.O.O.O.O.O.O.O.@.O.O.( O.O.O.O.O.O.O.O.O.O.O.O.@.O.",
"O.O.O.O.O.O.O.O.O.( O.( O.( O.O.O.O.O.O.O.O.O.O.O.O.S.Q.Q.S.O.O.O.O.O.O.O.O.O.O.O.O.O.O.O.O.O.O.O.O.O.O.O.O.O.O.O.O.O.O.O.O.O.O.",
"O.O.O.O.O.O.O.O.O.( ( O.O.( O.O.O.O.S.S.O.O.O.O.O.O.S.Q.Q.S.O.O.O.O.O.O.O.O.( O.O.O.S.S.O.O.O.O.O.O.O.O.O.O.( O.O.O.S.S.O.O.O.O.",
"O.O.O.O.O.O.O.O.O.O.( O.O.O.O.( O.O.S.S.O.O.O.O.O.O.O.S.S.O.O.O.O.O.O.( ( O.O.O.O.O.S.S.O.O.O.O.O.O.O.( ( O.O.O.O.O.S.S.O.O.O.O.",
"O.O.O.O.O.O.O.O.O.O.O.O.O.O.( O.O.O.O.O.O.O.O.O.O.O.O.O.O.O.O.@.O.O.O.O.( O.O.O.O.O.O.O.O.O.O.O.O.O.O.O.( O.O.O.O.O.O.O.O.O.O.O.",
"O.O.O.O.O.O.O.O.O.O.O.O.O.O.( O.O.O.O.O.O.O.O.O.S.S.O.O.O.O.O.O.O.O.O.O.O.O.O.O.O.O.O.O.O.O.O.O.O.O.O.O.O.O.O.O.O.O.O.O.O.O.O.O.",
"O.O.O.O.O.O.O.O.O.O.O.O.O.O.O.O.O.O.O.O.@.O.O.O.S.S.O.O.O.O.O.O.O.O.O.O.O.O.O.O.O.O.O.O.@.O.O.O.O.O.O.O.O.O.O.O.O.O.O.O.@.O.O.O.",
"S.S.O.O.O.O.O.O.O.O.O.O.O.O.O.O.O.O.O.O.O.O.O.O.O.O.O.O.O.O.O.O.O.O.O.O.O.O.O.O.O.O.O.O.O.O.O.O.O.O.O.O.O.O.O.O.O.@.O.O.O.O.O.O.",
"S.S.O.O.O.O.O.O.O.O.O.O.O.O.O.O.O.O.O.O.O.O.O.O.O.( O.O.O.O.O.O.O.O.O.O.O.O.O.O.O.O.O.O.O.O.O.O.O.O.O.O.O.O.O.O.O.O.O.S.S.O.O.O.",
"O.O.O.O.O.O.O.@.O.O.O.O.( O.O.O.O.O.O.O.O.O.O.O.O.O.O.O.O.O.O.O.O.O.O.O.I O.O.O.O.O.O.O.O.O.O.O.O.O.O.O.( O.O.O.O.O.S.Q.Q.S.O.O.",
"O.O.O.S.S.O.O.O.O.O.O.( ( O.O.O.O.O.O.O.O.O.O.O.O.O.O.O.O.O.O.O.O.O.O.I I O.O.O.O.O.O.O.O.O.O.O.O.O.O.( ( O.O.O.O.O.S.Q.Q.S.O.O.",
"O.O.S.Q.Q.S.O.O.O.O.O.O.O.O.( O.O.O.O.O.O.O.O.O.O.O.O.O.O.O.O.O.O.O.O.O.O.O.I O.O.O.O.O.O.O.O.O.O.O.O.O.O.O.( O.O.O.O.S.S.O.O.O.",
"O.O.S.Q.Q.S.O.O.O.O.O.O.O.O.O.O.O.O.O.O.O.O.O.O.O.O.O.O.O.[ [ P O.O.O.O.O.O.O.O.[ O.O.[ [ [ O.O.O.O.O.O.O.O.O.O.@.O.O.O.O.O.O.O.",
"O.O.O.S.S.O.O.O.O.( O.O.O.O.O.O.O.O.O.O.O.O.O.O.O.( | | { Q C E W U O.O.O.O.O.! W *.<.*.E T [ O.O.( O.O.O.O.O.O.O.O.O.O.O.O.S.S.",
"O.O.O.O.O.O.@.O.O.O.O.O.O.O.O.O.O.O.O.O.O.O.O.O.( ( [ [ ` H F F H } [ [ [ O.O.R S =.8.1.S W [ O.O.O.O.O.O.O.O.O.O.O.O.O.O.O.S.S.",
"O.O.O.O.O.O.O.O.O.O.O.O.O.O.O.O.O.O.O.O.O.O.O.O.O.O.{ W w.A.J.J.A.<.<.%.E E r.;.1.6.d.6.D Q [ [ O.O.O.O.O.O.O.O.O.O.O.O.O.O.O.O.",
"O.O.O.O.O.O.O.O.O.O.O.O.O.O.@.O.O.O.O.O.O.O.O.O.O.| ` G e.P.E.E.Y.a.2.J A A A =.5.q.c.6.D E [ | O.O.O.O.O.O.O.O.O.O.O.O.O.O.O.O.",
"O.O.O.O.( O.O.O.O.O.O.O.O.O.O.O.O.O.O.O.O.O.O.O.` R t.u.s.N.C.C.V.M.M.4.=.=.=.3.0.q.0.:.c N [ | O.O.O.O.O.O.O.O.O.O.O.O.( O.O.O.",
"O.O.O.( ( O.O.O.O.O.S.S.O.O.O.O.O.O.O.O.O.O.O.O.T A -.P.U.z.k.k.v.U.R.p.2.2.2.0.k.0.2.J d l | | O.O.O.O.O.O.O.O.O.O.O.( ( O.O.O.",
"O.O.O.O.O.O.( O.O.O.S.S.O.O.O.O.O.O.O.O.O.O.O.O.T A -.P.Y.Z.C.v.z.B.V.N.M.9.2.0.k.>.m M z ^ [ O.O.O.O.O.O.O.O.O.O.O.O.O.O.O.( O.",
"O.O.O.O.O.O.O.O.O.O.O.O.O.O.O.O.O.O.O.O.O.O.O.O.T A -.P.E.E.R.n.k.k.z.L.R.p.2.0.c.H s h ] O.O.O.O.O.O.O.O.O.O.O.O.O.O.O.O.O.O.O.",
"O.( O.O.O.O.O.O.O.O.O.O.O.O.O.O.O.O.O.O.O.O.O.O.X.D -.P.R.L.K.b.k.k.z.B.Z.7.2.,.Y x l z | | O.O.O.O.O.O.O.O.O.O.O.( O.O.O.O.O.O.",
"O.O.O.O.O.O.O.O.O.O.O.O.@.O.O.O.O.O.O.O.O.O.O.O.X.D -.P.U.v.l.k.k.k.j.j.j.0.5.g O < | | O.| O.O.O.O.O.O.O.O.O.O.O.O.O.O.O.O.O.O.",
"O.O.O.O.O.O.O.O.O.O.O.O.O.O.O.O.O.O.O.O.O.O.O.O. .V r.s.J.m.m.m.b.z.h.g.d.<.&.4   : t u O.O.O.O.O.O.O.O.O.O.O.O.O.O.O.O.O.O.O.O.",
"O.O.O.O.O.O.O.O.O.O.O.O.O.O.O.O.O.O.O.#.O.O.O.O.] ] / k Z I.Y.R.T.n.h.0.5.q 8 > > $ + : u O.O.O.O.O.O.O.O.O.@.O.O.O.O.O.O.O.@.O.",
"O.O.O.O.( O.O.O.O.O.O.O.O.O.O.O.O.O.O.O.O.O.O.O.O.O.' j n G.J.J.J.i.i.>.Q 6 = = = % @ , y O.O.O.O.O.O.O.O.O.O.O.O.O.O.O.O.O.O.O.",
"O.O.O.( ( O.O.O.O.O.O.O.O.O.O.O.O.O.O.O.O.O.O.O.O.O.o.G b j j j j D F q > #       , ( r ( O.O.O.O.O.S.S.O.O.O.O.O.O.S.S.O.O.O.O.",
"O.O.O.O.O.O.) O.O.O.O.O.O.O.O.O.O.O.O.O.O.#.#.O.O.O.@.F v f f s d b b 7 ; # + X X 2 O.O.O.O.( O.O.O.S.S.O.O.O.O.O.O.S.S.O.O.O.O.",
"O.O.O.O.O.O.| O.O.O.O.O.O.O.O.O.O.O.O.O.O.#.#.O.O.O. .F F <.<.F n 0 5 * o 3 ) w w u O.O.O.O.O.O.O.O.O.O.O.O.O.O.O.O.O.O.O.O.O.O.",
"O.( O.O.O.O.O.O.O.O.O.O.O.O.O.O.+.+.O.O.O.O.O.O.| | } V $.g.7.$.M 8 - # + w | | O.( O.O.O.O.O.O.O.O.O.O.O.O.O.O.O.O.O.O.O.O.O.O.",
"O.O.O.O.O.O.O.O.O.O.O.O.O.O.O.O.+.+.O.O.O.O.O.O.| | [ } ..$.$.! U & o < t _ | | O.O.O.O.O.O.O.O.O.O.O.O.@.O.O.O.O.O.O.O.@.O.O.O.",
"#.O.O.O.O.O.O.O.O.O.O.O.O.O.O.O.O.O.| | | O.O.O.O.O.O.O.` V V ` u & . 2 O.O.O.O.O.O.O.O.O.O.O.O.O.O.O.O.O.O.O.O.O.O.O.O.O.O.@.O.",
"O.O.+.#.#.+.O.O.O.O.O.O.O.O.O.O.] D.| | | O.O.O.O.O.O.#.{ T T ] _ 1 1 y O.O.O.O.O.O.O.O.O.O.@.O.O.O.O.O.O.O.O.O.O.O.O.S.S.O.O.O.",
"O.O.#.H.H.#.O.O.O.O.O.O.O.O.O.O.] | | | O.O.O.O.O.O.O.O.| O.O.O.O.O.O.O.O.O.O.O.O.O.O.O.O.O.O.O.O.O.O.O.O.O.O.O.O.O.S.Q.Q.S.O.O.",
"O.O.#.H.H.#.O.O.O.O.O.O.O.O.O.O.| | | | S.S.O.O.O.O.O.O.| O.O.O.O.O.O.O.O.O.( O.O.O.S.S.O.O.O.O.O.O.O.O.O.O.O.O.O.O.S.Q.Q.S.O.O.",
"O.O.+.#.#.+.O.O.O.O.O.O.O.O.O.O.| | | | S.S.O.O.O.O.O.O.O.#.#.O.O.O.O.I I O.O.O.O.O.S.S.O.O.O.O.O.O.O.O.O.O.O.O.O.O.O.S.S.O.O.O.",
"#.#.O.O.O.O.O.#.O.O.O.O.O.O.O.O.| | | | O.O.O.O.O.O.O.O.O.#.#.O.O.O.O.O.( O.O.O.O.O.O.O.O.O.O.O.O.O.O.O.O.O.O.O.O.O.O.O.O.O.O.@.",
"#.#.O.O.O.O.O.O.O.O.O.O.O.O.O.O.| | ] | O.O.O.O.+.+.O.O.O.O.O.O.O.O.O.O.O.O.O.O.O.O.O.O.O.O.O.O.O.O.O.O.O.O.O.O.S.S.O.O.O.O.O.O.",
"O.O.O.O.O.O.O.O.O.O.O.O.O.O.O.O.O.| ] D.O.O.O.O.+.+.O.O.O.O.O.O.O.O.O.O.O.O.O.O.O.O.O.O.@.O.O.O.O.O.O.O.O.O.O.O.S.S.O.O.O.O.O.O.",
"O.O.O.O.O.O.O.O.O.O.O.O.O.O.O.O.O.O.O.O.O.O.O.O.O.O.O.O.O.O.O.O.O.O.O.O.O.O.O.O.O.O.O.O.O.O.O.O.O.O.O.O.O.O.O.O.O.O.O.O.O.O.O.O.",
"O.O.O.O.O.O.O.O.O.O.O.O.O.O.O.O.O.O.O.O.O.O.O.O.p p O.O.O.O.O.O.O.O.O.O.O.O.O.O.O.O.O.O.O.O.O.O.O.O.O.O.O.O.O.O.O.O.O.O.O.O.O.O.",
"O.O.O.O.O.O.O.O.O.O.O.O.O.O.O.O.O.O.O.O.O.O.O.O.p p O.O.O.O.O.p O.O.O.O.O.O.O.O.O.O.O.O.O.O.O.O.O.O.O.O.O.O.O.O.O.O.O.O.O.O.O.O.",
"O.O.O.O.O.O.O.O.O.O.O.O.O.O.O.O.O.O.O.O.O.O.O.O.O.O.i p p i O.O.O.O.O.O.O.O.O.O.O.O.O.O.O.O.O.O.O.O.O.O.O.O.O.O.O.O.O.O.O.O.O.O.",
"O.O.O.O.O.O.O.O.O.O.O.O.O.O.O.O.O.O.O.O.O.O.O.O.O.O.p a a p O.O.O.O.O.O.O.O.O.O.O.O.O.O.O.O.O.O.O.O.O.O.O.O.O.O.O.O.O.O.O.O.O.O.",
"O.O.O.O.O.O.O.O.O.O.O.O.O.O.O.O.O.O.O.O.O.O.O.O.O.O.p a a p O.O.O.O.O.O.O.O.O.O.O.O.O.O.O.O.O.O.O.O.O.O.O.O.O.O.O.O.O.O.O.O.O.O.",
"O.O.O.O.O.O.O.O.O.O.O.O.O.O.O.O.O.O.O.O.O.O.O.O.O.O.i p p i O.O.O.O.O.O.O.O.O.O.O.O.O.O.O.O.O.O.O.O.O.O.O.O.O.O.O.O.O.O.O.O.O.O.",
"O.O.O.O.O.O.O.O.O.O.O.O.O.O.O.O.O.O.O.O.O.O.O.O.p O.O.O.O.O.O.O.O.O.O.O.O.O.O.O.O.O.O.O.O.O.O.O.O.O.O.O.O.O.O.O.O.O.O.O.O.O.O.O.",
"+.+.O.O.O.O.O.O.O.O.O.O.O.O.O.O.O.O.O.O.O.O.O.O.O.O.O.O.O.O.O.O.O.O.O.O.O.O.O.O.O.O.( O.O.O.O.O.O.O.( O.O.O.O.O.O.O.O.O.O.O.O.O.",
"+.+.O.O.O.O.O.O.O.O.O.O.O.O.O.O.O.O.O.#.O.O.O.O.O.O.O.O.O.O.O.O.O.O.O.O.O.O.O.O.O.( O.O.O.O.O.O.O.( O.O.O.O.O.O.O.O.O.O.O.O.O.O.",
"O.O.O.O.O.#.#.O.O.O.O.O.O.O.O.O.O.O.O.O.O.O.O.O.O.O.O.O.O.O.O.O.O.O.O.O.O.O.O.O.O.( O.O.O.O.O.O.O.( O.O.O.O.O.O.O.O.O.O.O.O.O.O.",
"O.O.O.O.O.#.#.O.O.O.O.O.O.O.O.O.O.O.O.O.O.O.O.O.O.O.O.O.O.O.O.O.O.O.O.O.O.O.O.O.O.O.O.O.O.O.O.O.O.O.O.O.O.O.O.O.O.O.O.O.O.O.O.O.",
"O.O.O.O.O.O.O.O.O.O.O.O.O.O.O.O.O.O.O.O.O.#.#.O.O.O.O.O.O.O.O.O.O.O.O.O.O.O.O.O.O.O.O.O.( O.( O.O.O.O.O.( O.( O.O.O.O.O.O.O.O.O.",
"O.O.O.O.O.O.O.O.O.O.O.O.O.O.O.O.O.O.O.O.O.#.#.O.O.O.O.O.O.O.O.O.O.O.O.O.O.O.O.O.O.O.( O.( ( O.O.O.O.( O.( ( O.O.O.O.O.O.O.O.O.O.",
"O.O.O.#.O.O.O.O.O.O.O.O.O.O.O.O.+.+.O.O.O.O.O.O.O.O.O.O.O.O.O.O.O.O.O.O.O.O.O.O.O.O.( O.( ( O.O.O.O.( O.( ( O.O.O.O.O.O.O.O.O.O.",
"O.O.O.O.O.O.O.O.O.O.O.O.O.O.O.O.+.+.O.O.O.O.O.O.O.O.O.O.O.e e O.O.O.O.O.O.O.O.O.O.O.O.O.( O.O.O.O.O.O.O.( O.O.O.O.O.O.O.O.O.O.O."
};
