/* XPM */
static char *collectible_right2[] = {
/* columns rows colors chars-per-pixel */
"64 64 173 2 ",
"   c #0D0A05",
".  c #040A07",
"X  c #07110D",
"o  c #08140F",
"O  c #18140C",
"+  c #030E10",
"@  c #0C1C15",
"#  c #10261C",
"$  c #252214",
"%  c #282018",
"&  c #322D1C",
"*  c #31301E",
"=  c #202D24",
"-  c #302925",
";  c #52391E",
":  c #573A1C",
">  c #5A3E21",
",  c #22513C",
"<  c #5A4B3A",
"1  c #285841",
"2  c #2F6249",
"3  c #30654A",
"4  c #2B6951",
"5  c #2F7054",
"6  c #347C5E",
"7  c #23526F",
"8  c #2E7962",
"9  c #534E50",
"0  c #495252",
"q  c #4A4D5A",
"w  c #605443",
"e  c #4A5F75",
"r  c #4A5266",
"t  c #4E6F7D",
"y  c #3B8D6A",
"u  c #308070",
"i  c #3E9670",
"p  c #429D76",
"a  c #45A57B",
"s  c #47A97F",
"d  c #68C878",
"f  c #98E078",
"g  c #C0E870",
"h  c #172F8F",
"j  c #193995",
"k  c #183896",
"l  c #18508F",
"z  c #295C8F",
"x  c #29469C",
"c  c #2E539D",
"v  c #2C638F",
"b  c #357D92",
"n  c #2D7598",
"m  c #1C51AF",
"M  c #1E5CBC",
"N  c #215AB5",
"B  c #2A54A8",
"V  c #1F62BA",
"C  c #296BAE",
"Z  c #2E74A1",
"A  c #2567B8",
"S  c #2979BC",
"D  c #2471BF",
"F  c #4870B4",
"G  c #1F68C6",
"H  c #1F6AC9",
"J  c #226AC4",
"K  c #246ECA",
"L  c #2471C1",
"P  c #2A78C7",
"I  c #227DD3",
"U  c #37808F",
"Y  c #3F988B",
"T  c #2D84A9",
"R  c #338EA2",
"E  c #3D9DA7",
"W  c #3895AC",
"Q  c #2E83B6",
"!  c #3187B3",
"~  c #348AB7",
"^  c #3FA2A9",
"/  c #39ADB8",
"(  c #40978F",
")  c #40A888",
"_  c #48AD82",
"`  c #4CB689",
"'  c #4FBE8F",
"]  c #4BB386",
"[  c #45AD9C",
"{  c #44A392",
"}  c #4CB693",
"|  c #4EBC92",
" . c #49B299",
".. c #47B09F",
"X. c #50BF90",
"o. c #4198B7",
"O. c #41A5A2",
"+. c #5CA0BF",
"@. c #5CA6A4",
"#. c #67ABBE",
"$. c #50C090",
"%. c #48D0A8",
"&. c #78D0A0",
"*. c #6AC0A6",
"=. c #68E0B8",
"-. c #2A85CD",
";. c #388CC9",
":. c #329BC5",
">. c #2384DB",
",. c #2B87D0",
"<. c #3B83D1",
"1. c #2E95DD",
"2. c #369BD7",
"3. c #2A94CB",
"4. c #36A4D7",
"5. c #258FE4",
"6. c #269EEF",
"7. c #2999E8",
"8. c #3D9BE4",
"9. c #2AA2ED",
"0. c #36AAE9",
"q. c #3EB8EC",
"w. c #28A2F1",
"e. c #3FACF1",
"r. c #36B6F3",
"t. c #37B8F3",
"y. c #4293C9",
"u. c #4187D3",
"i. c #44AEDB",
"p. c #60A6DA",
"a. c #47BDED",
"s. c #54B8F2",
"d. c #45B3F2",
"f. c #72BAE6",
"g. c #3FC3F5",
"h. c #60E0C8",
"j. c #41C3F2",
"k. c #46CEF7",
"l. c #4ACFF7",
"z. c #47CFF8",
"x. c #48CFF8",
"c. c #4AD0F7",
"v. c #4AD0F8",
"b. c #47D0F9",
"n. c #53D2F7",
"m. c #54D3F8",
"M. c #5BD3F7",
"N. c #69C5F3",
"B. c #70CEF4",
"V. c #6DD9F8",
"C. c #74DAF7",
"Z. c #77DBF8",
"A. c #7ADAF7",
"S. c #77C0E6",
"D. c #98D8B8",
"F. c #97D8B8",
"G. c #80F0A0",
"H. c #88B8D7",
"J. c #84BFE0",
"K. c #B2D4D5",
"L. c #80F8C8",
"P. c #84C3E6",
"I. c #83DEF7",
"U. c #84DEF8",
"Y. c #9ADCF3",
"T. c #92DAF1",
"R. c #93E3F7",
"E. c #9DE6F9",
"W. c #92E3F9",
"Q. c #A3E5F7",
"!. c #A9E8F8",
"~. c #A4E8F8",
"^. c #D8F0D8",
/* pixels */
"h.h.G.G.u ) $.$.$.$.$.$.$.$.$.$.$.$.$.$.$.$.$.$.$.$.$.$.$.$.$.$.$.$.$.$.$.$.$.$.$.$.$.$.$.$.$.$.$.$.$.$.$.$.$.$.$.$.$.$.$.$.$.$.",
"h.h.) u G.) $.$.$.$.$.$.$.$.$.$.=.=.$.$.$.$.$.$.$.$.$.=.$.$.$.$.$.$.$.=.$.$.$.$.$.$.$.$.$.$.$.$.$.$.$.=.$.$.$.$.$.$.$.$.$.$.$.$.",
"h.h.h./ ) G.$.$.$.$.$.$.$.$.$.$.=.=.$.$.$.$.$.=.$.$.$.$.$.$.$.$.$.$.$.$.$.$.$.$.$.$.$.$.) $.$.$.$.$.$.$.$.$.$.$.$.$.$.$.) $.$.$.",
"h.h.$.G.$.$.$.$.$.$.$.$.$.$.$.$.$.$.%.=.=.%.$.$.$.$.$.$.$.$.$.$.$.$.$.$.$.$.$.$.$.$.$.) ) $.$.$.$.$.$.$.$.$.$.$.$.$.$.) ) $.$.$.",
"h.h.h.) G.$.$.$.$.$.$.$.$.$.$.$.$.$.=.L.L.=.$.$.$.$.$.$.$.=.=.$.$.$.$.$.$.=.=.$.$.$.$.$.$.$.) $.$.$.$.$.$.=.=.$.$.$.$.$.$.$.) $.",
"G.G.$.$.G.$.$.$.$.$.$.$.$.$.$.$.$.$.=.L.L.=.$.$.$.$.$.$.$.=.=.$.$.$.$.$.$.=.=.$.$.$.$.$.$.$.$.$.$.$.$.$.$.=.=.$.$.$.$.$.$.$.$.$.",
"$.$.G.G.$.$.$.$.$.$.$.$.$.$.$.$.$.$.%.=.=.%.$.$.%.%.$.$.$.$.$.$.%.%.$.$.$.$.$.$.$.) $.$.$.$.$.$.%.%.$.$.$.$.$.$.$.) $.$.$.$.$.$.",
"$.$.$.$.$.$.$.$.$.$.$.$.$.$.$.$.=.$.$.$.$.$.$.$.%.%.$.$.$.$.$.$.%.%.$.$.$.$.$.$.$.$.$.$.$.$.$.$.%.%.$.$.$.$.$.$.$.$.$.$.$.$.$.$.",
"$.$.$.$.$.$.$.$.$.$.$.$.$.$.$.$.$.$.$.$.$.$.$.$.$.$.$.$.$.$.&.$.$.$.$.$.$.$.$.$.$.$.$.$.$.$.$.$.$.$.$.$.$.$.$.$.$.$.$.$.$.$.$.$.",
"$.$.$.$.$.$.$.$.) $.$.) $.$.$.$.$.$.$.$.$.$.&.$.$.$.$.D.D.$.$.$.$.) $.$.$.$.$.$.$.$.$.$.$.$.&.$.$.) $.$.$.$.$.$.$.$.$.$.$.$.&.$.",
"$.$.$.$.$.$.$.$.$.) $.) $.) $.$.$.$.$.$.$.$.$.$.$.$.D.^.^.D.$.$.$.$.$.$.$.$.$.$.$.$.$.$.$.$.$.$.$.$.$.$.$.$.$.$.$.$.$.$.$.$.$.$.",
"$.$.$.$.$.$.$.$.$.) ) $.$.) $.$.$.$.D.D.$.$.$.$.$.$.D.^.^.D.$.$.$.$.$.$.$.$.) $.$.$.D.D.$.$.$.$.$.$.$.$.$.$.) $.$.$.D.D.$.$.$.$.",
"$.$.$.$.$.$.$.$.$.$.) $.$.$.$.) $.$.D.D.$.$.$.$.$.$.$.D.D.$.$.$.$.$.$.) ) $.$.$.$.$.D.D.$.$.$.$.$.$.$.) ) $.$.$.$.$.D.D.$.$.$.$.",
"$.$.$.$.$.$.$.$.$.$.$.$.$.$.) $.$.$.$.$.$.$.$.$.$.$.$.$.$.$.$.&.$.$.$.$.) $.$.$.$.$.$.$.$.$.$.$.$.$.$.$.) $.$.$.$.$.$.$.$.$.$.$.",
"$.$.$.$.$.$.$.$.$.$.$.$.$.$.) $.$.$.$.$.$.$.$.$.D.D.$.$.$.$.$.$.$.$.$.$.$.$.$.$.$.$.$.$.$.$.$.$.$.$.$.$.$.$.$.$.$.$.$.$.$.$.$.$.",
"$.$.$.$.$.$.$.$.$.$.$.$.$.$.$.$.$.$.$.$.&.$.$.$.D.D.$.$.$.$.$.$.$.$.$.$.$.$.$.$.$.$.$.$.&.$.$.$.$.$.$.$.$.$.$.$.$.$.$.$.&.$.$.$.",
"D.D.$.$.$.$.$.$.$.$.$.$.$.$.$.$.$.$.$.$.$.$.$.$.$.$.$.$.$.$.$.$.$.$.$.$.$.$.$.$.$.$.$.$.$.$.$.$.$.$.$.$.$.$.$.$.$.&.$.$.$.$.$.$.",
"D.D.$.$.$.$.$.$.$.$.$.$.$.$.$.$.$.$.$.$.$.$.$.$.$.) $.$.$.$.$.$.$.$.$.$.$.$.$.$.$.$.$.$.$.$.$.$.$.$.$.$.$.$.$.$.$.$.$.D.D.$.$.$.",
"$.$.$.$.$.$.$.&.$.$.$.$.) $.$.$.$.$.$.$.$.$.$.$.$.$.$.$.$.$.$.$.$.$.$.$.) $.$.$.$.$.$.$.$.$.$.$.$.$.$.$.) $.$.$.$.$.D.^.^.D.$.$.",
"$.$.$.D.D.$.$.$.$.$.$.) ) $.$.$.$.$.$.$.$.$.$.$.$.$.$.$.$.$.$.$.$.$.$.) ) $.$.$.$.$.$.$.$.$.$.$.$.$.$.) ) $.$.$.$.$.D.^.^.D.$.$.",
"$.$.D.^.^.D.$.$.$.$.$.$.$.$.) $.$.$.$.$.$.$.$.$.$.$.$.$.$.$.X.X.$.$.$.$.$.$.) $.$.$.$.$.$.$.$.$.$.$.$.$.$.$.) $.$.$.$.D.D.$.$.$.",
"$.$.D.^.^.D.$.$.$.$.$.$.$.$.$.$.$.$.$.$.$.$.$.$.$.$.$.$.$.$.$.) $.| | | $.$.$.$.$.$.$.$.$.$.$.| | | $.$.$.$.$.$.&.$.$.$.$.$.$.$.",
"$.$.$.D.D.$.$.$.$.) $.$.$.$.$.$.$.$.$.$.$.$.$.$.$.) $.$.$.$.) )  .Q Q Q R  .$.$.$.$.$.^ ! :.4.:.! R | $.$.$.$.$.$.$.$.$.$.$.D.D.",
"$.$.$.$.$.$.&.$.$.$.$.$.$.$.$.$.$.$.$.$.$.$.$.$.) ) $.$.$.$.X.' [ P K L -.^ | | | | | W H >.w.1.H ! | $.$.$.$.$.$.$.$.$.$.$.D.D.",
"$.$.$.$.$.$.$.$.$.$.$.$.$.$.$.$.$.$.$.$.$.$.$.$.$.$.$.$.$.$.*.! ;.f.P.P.S.4.a.y.S Q Q -.5.0.j.0.K ! | $.$.$.$.$.$.$.$.$.$.$.$.$.",
"$.$.$.$.$.$.$.$.$.$.$.$.$.$.&.$.$.$.$.$.$.$.$.$.$.$.$.D.D.' [ D u.Q.!.!.Y.e.6.I G G G >.w.t.c.0.K ! | $.$.$.$.$.$.$.$.$.$.$.$.$.",
"$.$.$.$.) $.$.$.$.$.$.$.$.$.$.$.$.$.$.$.$.$.$.$.$.$.D.^.K.+.o.p.f.C.Z.Z.A.N.N.8.>.>.>.7.r.t.t.1.m Z } $.$.$.$.$.$.$.$.$.) $.$.$.",
"$.$.$.) ) $.$.$.$.$.D.D.$.$.$.$.$.$.$.$.$.$.$.$.$.$.D.^.H.J <.Y.T.c.l.k.m.R.Q.s.w.9.7.r.k.r.6.I j v } $.$.$.$.$.$.$.$.) ) $.$.$.",
"$.$.$.$.$.$.) $.$.$.D.D.$.$.$.$.$.$.$.$.$.$.$.$.$.$.$.D.#.J <.Y.E.I.Z.m.c.V.C.B.N.e.6.r.k.2.V C b Y | $.$.$.$.$.$.$.$.$.$.$.) $.",
"$.$.$.$.$.$.$.$.$.$.$.$.$.$.$.$.$.$.$.$.$.$.$.$.$.$.$.$.E G <.Y.~.!.Q.M.x.x.v.I.E.s.6.r.c.P h z } $.$.$.$.$.$.$.$.$.$.$.$.$.$.$.",
"$.) $.$.$.$.$.$.$.$.$.$.$.$.$.$.$.$.$.$.$.$.$.$.D.D.$.$.E G <.Y.Q.U.A.m.v.z.v.V.A.d.9.3.R n v b ' $.$.$.$.$.$.$.$.) $.$.$.$.$.$.",
"$.$.$.$.$.$.$.$.$.$.$.$.&.$.$.$.$.$.$.$.$.$.$.$.D.D.$.$.E G <.Y.W.m.k.x.x.z.k.c.k.r.6.l + 4 ' | | $.$.$.$.$.$.$.$.$.$.$.$.$.$.$.",
"$.$.$.$.$.$.$.$.$.$.$.$.$.$.$.$.$.$.$.$.$.$.$.$.$.$.X.X.O.S ~ f.P.M.M.M.n.c.l.k.j.4.;.7 O , i _ | $.$.$.$.$.$.$.$.$.$.$.$.$.$.$.",
"$.$.$.$.$.$.$.$.$.$.$.$.$.$.$.$.$.$.$.=.$.$.$.$.$.$.$.X.X. .@.c F R.E.Q.W.n.x.r.9.t w < > & @ , ] $.$.$.$.$.&.$.$.$.$.$.$.$.&.$.",
"$.$.$.$.) $.$.$.$.$.$.$.$.$.$.$.$.$.$.$.$.$.$.$.$.$.X.X.X.X.{ x B J.P.P.J.a.q.2.~ 0 ; : > * # 1 ` $.$.$.$.$.$.$.$.$.$.$.$.$.$.$.",
"$.$.$.) ) $.$.$.$.$.$.$.$.$.$.$.$.$.$.$.$.$.$.$.$.$.D.D.X.X.[ D N x x x c K K e < $       1 s _ ' $.F.F.$.$.$.$.$.$.D.D.$.$.$.$.",
"$.$.$.$.$.$.) $.$.$.$.$.$.$.$.$.$.$.$.$.$.=.=.$.$.$.D.D.$.$.[ L M k k h k N A q < $   . o 4 ) $.$.$.D.D.$.$.$.$.$.$.D.D.$.$.$.$.",
"$.$.$.$.$.$.$.$.$.$.$.$.$.$.$.$.$.$.$.$.$.=.=.$.$.$.$.$.$.$.[ L I 4.2.J m r 9 - O 3 y y y s $.$.$.$.$.$.$.$.$.$.$.$.$.$.$.$.$.$.",
"$.) $.$.$.$.$.$.$.$.$.$.$.$.$.$.%.%.$.$.$.$.$.$.$.$.$.$.$.$. .S ,.a.a.-.C < : % @ 8 $.$.$.$.$.$.$.$.$.$.$.$.$.$.$.$.$.$.$.$.$.$.",
"$.$.$.$.$.$.$.$.$.$.$.$.$.$.$.$.%.%.$.$.$.$.$.$.$.$.$.$.&.$.| [ / ,.-.O.( = O 3 i ] $.$.$.$.$.$.$.$.$.$.&.$.$.$.$.$.$.$.&.$.$.$.",
"=.$.$.$.$.$.$.$.$.$.$.$.$.$.$.$.$.$.$.$.$.$.$.$.$.$.$.$.$.$.$.$.[ J D  ._ # . 6 | $.$.$.$.$.$.$.$.$.$.$.$.$.$.$.$.$.$.$.$.$.&.$.",
"$.$.%.=.=.%.$.$.$.$.$.$.$.$.$.$.$.&.$.$.$.$.$.$.$.$.$.=.$.$.$.$. .R O.} ` 6 5 a $.$.$.$.$.$.&.$.$.$.$.$.$.$.$.$.$.$.$.D.D.$.$.$.",
"$.$.=.L.L.=.$.$.$.$.$.$.$.$.$.$.$.$.$.$.$.$.$.$.$.$.$.$.$.$.$.$.$.$.X.X.$.$.$.$.$.$.$.$.$.$.$.$.$.$.$.$.$.$.$.$.$.$.D.^.^.D.$.$.",
"$.$.=.L.L.=.$.$.$.$.$.$.$.$.$.$.$.$.$.$.D.D.$.$.$.$.$.$.$.$.$.$.$.X.X.X.$.$.) $.$.$.D.D.$.$.$.$.$.$.$.$.$.$.$.$.$.$.D.^.^.D.$.$.",
"$.$.%.=.=.%.$.$.$.$.$.$.$.$.$.$.$.$.$.$.D.D.$.$.$.$.$.$.$.=.=.$.$.$.$.) ) $.$.$.$.$.D.D.$.$.$.$.$.$.$.$.$.$.$.$.$.$.$.D.D.$.$.$.",
"=.=.$.$.$.$.$.=.$.$.$.$.$.$.$.$.$.$.$.$.$.$.$.$.$.$.$.$.$.=.=.$.$.$.$.$.) $.$.$.$.$.$.$.$.$.$.$.$.$.$.$.$.$.$.$.$.$.$.$.$.$.$.&.",
"=.=.$.$.$.$.$.$.$.$.$.$.$.$.$.$.$.$.$.$.$.$.$.$.%.%.$.$.$.$.$.$.$.$.$.$.$.$.$.$.$.$.$.$.$.$.$.$.$.$.$.$.$.$.$.$.D.D.$.$.$.$.$.$.",
"$.$.$.$.$.$.$.$.$.$.$.$.$.$.$.$.$.$.$.&.$.$.$.$.%.%.$.$.$.$.$.$.$.$.$.$.$.$.$.$.$.$.$.$.&.$.$.$.$.$.$.$.$.$.$.$.D.D.$.$.$.$.$.$.",
"$.$.$.$.$.$.$.$.$.$.$.$.$.$.$.$.$.$.$.$.$.$.$.$.$.$.$.$.$.$.$.$.$.$.$.$.$.$.$.$.$.$.$.$.$.$.$.$.$.$.$.$.$.$.$.$.$.$.$.$.$.$.$.$.",
"$.$.$.$.$.$.$.$.$.$.$.$.$.$.$.$.$.$.$.$.$.$.$.$.f f $.$.$.$.$.$.$.$.$.$.$.$.$.$.$.$.$.$.$.$.$.$.$.$.$.$.$.$.$.$.$.$.$.$.$.$.$.$.",
"$.$.$.$.$.$.$.$.$.$.$.$.$.$.$.$.$.$.$.$.$.$.$.$.f f $.$.$.$.$.f $.$.$.$.$.$.$.$.$.$.$.$.$.$.$.$.$.$.$.$.$.$.$.$.$.$.$.$.$.$.$.$.",
"$.$.$.$.$.$.$.$.$.$.$.$.$.$.$.$.$.$.$.$.$.$.$.$.$.$.d f f d $.$.$.$.$.$.$.$.$.$.$.$.$.$.$.$.$.$.$.$.$.$.$.$.$.$.$.$.$.$.$.$.$.$.",
"$.$.$.$.$.$.$.$.$.$.$.$.$.$.$.$.$.$.$.$.$.$.$.$.$.$.f g g f $.$.$.$.$.$.$.$.$.$.$.$.$.$.$.$.$.$.$.$.$.$.$.$.$.$.$.$.$.$.$.$.$.$.",
"$.$.$.$.$.$.$.$.$.$.$.$.$.$.$.$.$.$.$.$.$.$.$.$.$.$.f g g f $.$.$.$.$.$.$.$.$.$.$.$.$.$.$.$.$.$.$.$.$.$.$.$.$.$.$.$.$.$.$.$.$.$.",
"$.$.$.$.$.$.$.$.$.$.$.$.$.$.$.$.$.$.$.$.$.$.$.$.$.$.d f f d $.$.$.$.$.$.$.$.$.$.$.$.$.$.$.$.$.$.$.$.$.$.$.$.$.$.$.$.$.$.$.$.$.$.",
"$.$.$.$.$.$.$.$.$.$.$.$.$.$.$.$.$.$.$.$.$.$.$.$.f $.$.$.$.$.$.$.$.$.$.$.$.$.$.$.$.$.$.$.$.$.$.$.$.$.$.$.$.$.$.$.$.$.$.$.$.$.$.$.",
"%.%.$.$.$.$.$.$.$.$.$.$.$.$.$.$.$.$.$.$.$.$.$.$.$.$.$.$.$.$.$.$.$.$.$.$.$.$.$.$.$.$.) $.$.$.$.$.$.$.) $.$.$.$.$.$.$.$.$.$.$.$.$.",
"%.%.$.$.$.$.$.$.$.$.$.$.$.$.$.$.$.$.$.=.$.$.$.$.$.$.$.$.$.$.$.$.$.$.$.$.$.$.$.$.$.) $.$.$.$.$.$.$.) $.$.$.$.$.$.$.$.$.$.$.$.$.$.",
"$.$.$.$.$.=.=.$.$.$.$.$.$.$.$.$.$.$.$.$.$.$.$.$.$.$.$.$.$.$.$.$.$.$.$.$.$.$.$.$.$.) $.$.$.$.$.$.$.) $.$.$.$.$.$.$.$.$.$.$.$.$.$.",
"$.$.$.$.$.=.=.$.$.$.$.$.$.$.$.$.$.$.$.$.$.$.$.$.$.$.$.$.$.$.$.$.$.$.$.$.$.$.$.$.$.$.$.$.$.$.$.$.$.$.$.$.$.$.$.$.$.$.$.$.$.$.$.$.",
"$.$.$.$.$.$.$.$.$.$.$.$.$.$.$.$.$.$.$.$.$.=.=.$.$.$.$.$.$.$.$.$.$.$.$.$.$.$.$.$.$.$.$.$.) $.) $.$.$.$.$.) $.) $.$.$.$.$.$.$.$.$.",
"$.$.$.$.$.$.$.$.$.$.$.$.$.$.$.$.$.$.$.$.$.=.=.$.$.$.$.$.$.$.$.$.$.$.$.$.$.$.$.$.$.$.) $.) ) $.$.$.$.) $.) ) $.$.$.$.$.$.$.$.$.$.",
"$.$.$.=.$.$.$.$.$.$.$.$.$.$.$.$.%.%.$.$.$.$.$.$.$.$.$.$.$.$.$.$.$.$.$.$.$.$.$.$.$.$.) $.) ) $.$.$.$.) $.) ) $.$.$.$.$.$.$.$.$.$.",
"$.$.$.$.$.$.$.$.$.$.$.$.$.$.$.$.%.%.$.$.$.$.$.$.$.$.$.$.$.u u $.$.$.$.$.$.$.$.$.$.$.$.$.) $.$.$.$.$.$.$.) $.$.$.$.$.$.$.$.$.$.$."
};
