/* XPM */
static char *collectible_left[] = {
/* columns rows colors chars-per-pixel */
"64 64 173 2 ",
"   c #0D0A05",
".  c #040A07",
"X  c #07110D",
"o  c #08140F",
"O  c #18140C",
"+  c #030E10",
"@  c #0C1C15",
"#  c #10261C",
"$  c #272216",
"%  c #282018",
"&  c #322D1C",
"*  c #31301E",
"=  c #202D24",
"-  c #302925",
";  c #52391E",
":  c #573A1C",
">  c #5A3E21",
",  c #22513C",
"<  c #5A4B3A",
"1  c #285841",
"2  c #30654A",
"3  c #2F7054",
"4  c #347C5E",
"5  c #296551",
"6  c #23526F",
"7  c #3A7E67",
"8  c #534E50",
"9  c #495252",
"0  c #4A4D5A",
"q  c #605443",
"w  c #436A50",
"e  c #4A5F75",
"r  c #4A5266",
"t  c #4E6F7D",
"y  c #3B8D6A",
"u  c #398A67",
"i  c #308070",
"p  c #3E9670",
"a  c #429D76",
"s  c #45A67C",
"d  c #68C878",
"f  c #98E078",
"g  c #C0E870",
"h  c #172F8F",
"j  c #193995",
"k  c #183896",
"l  c #18508F",
"z  c #295C8F",
"x  c #29469C",
"c  c #2E539D",
"v  c #2C638F",
"b  c #357D92",
"n  c #2D7598",
"m  c #1C51AF",
"M  c #1E5CBC",
"N  c #215AB5",
"B  c #2A54A8",
"V  c #1F62BA",
"C  c #296BAE",
"Z  c #2E74A1",
"A  c #2567B8",
"S  c #2979BC",
"D  c #2777B9",
"F  c #4870B4",
"G  c #1F68C6",
"H  c #1F6AC9",
"J  c #216AC4",
"K  c #246ECA",
"L  c #2471C1",
"P  c #2A78C7",
"I  c #227DD3",
"U  c #37808F",
"Y  c #3F988B",
"T  c #3EA38C",
"R  c #2E85A8",
"E  c #328CA4",
"W  c #3D9CA7",
"Q  c #3997AA",
"!  c #2E83B6",
"~  c #3187B3",
"^  c #3489B8",
"/  c #3DA0AB",
"(  c #39AEB8",
")  c #40978F",
"_  c #429B9A",
"`  c #40A888",
"'  c #48AD82",
"]  c #4CB689",
"[  c #4FBE8F",
"{  c #4AB285",
"}  c #46AD9C",
"|  c #44A392",
" . c #4CB692",
".. c #4EBC92",
"X. c #48B299",
"o. c #47B09F",
"O. c #50BF90",
"+. c #4198B7",
"@. c #41A5A2",
"#. c #50C090",
"$. c #5BC3A0",
"%. c #48D0A8",
"&. c #58C6BB",
"*. c #62D3AD",
"=. c #78D0A0",
"-. c #68E0B8",
";. c #2B86CE",
":. c #2F8FC2",
">. c #388CC9",
",. c #329BC5",
"<. c #2384DB",
"1. c #3B83D1",
"2. c #2E95DD",
"3. c #369BD7",
"4. c #2A94CB",
"5. c #35A4D6",
"6. c #258FE4",
"7. c #269EEF",
"8. c #2999E8",
"9. c #3D9BE4",
"0. c #2AA2ED",
"q. c #36AAE9",
"w. c #28A2F1",
"e. c #3FACF1",
"r. c #36B6F3",
"t. c #37B8F3",
"y. c #3EB8EC",
"u. c #4190C4",
"i. c #4187D3",
"p. c #4AB1DB",
"a. c #60A6DA",
"s. c #47BDED",
"d. c #54B8F2",
"f. c #45B3F2",
"g. c #72BAE6",
"h. c #3FC3F5",
"j. c #60E0C8",
"k. c #41C3F2",
"l. c #46CEF7",
"z. c #4ACFF7",
"x. c #47CFF8",
"c. c #48CFF8",
"v. c #4AD0F7",
"b. c #4AD0F8",
"n. c #47D0F9",
"m. c #53D2F7",
"M. c #54D3F8",
"N. c #5BD3F7",
"B. c #69C5F3",
"V. c #70CEF4",
"C. c #6DD9F8",
"Z. c #74DAF7",
"A. c #77DBF8",
"S. c #7ADAF7",
"D. c #77C0E6",
"F. c #98D8B8",
"G. c #97D8B8",
"H. c #80F0A0",
"J. c #81B6DC",
"K. c #84BFE0",
"L. c #80F8C8",
"P. c #84C3E6",
"I. c #83DEF7",
"U. c #84DEF8",
"Y. c #9ADCF3",
"T. c #92DAF1",
"R. c #93E3F7",
"E. c #9DE6F9",
"W. c #92E3F9",
"Q. c #A3E5F7",
"!. c #A9E8F8",
"~. c #A4E8F8",
"^. c #D8F0D8",
/* pixels */
"j.j.H.H.u T #.#.#.#.#.#.#.#.#.#.#.#.#.#.#.#.#.#.#.#.#.#.#.#.#.#.#.#.#.#.#.#.#.#.#.#.#.#.#.#.#.#.#.#.#.#.#.#.#.#.#.#.#.#.#.#.#.#.",
"j.j.` i H.{ #.#.#.#.#.#.#.#.#.#.-.-.#.#.#.#.#.#.#.#.#.-.#.#.#.#.#.#.#.-.#.#.#.#.#.#.#.#.#.#.#.#.#.#.#.-.#.#.#.#.#.#.#.#.#.#.#.#.",
"j.j.j.( s H.#.#.#.#.#.#.#.#.#.#.-.-.#.#.#.#.#.-.#.#.#.#.#.#.#.#.#.#.#.#.#.#.#.#.#.#.#.#.` #.#.#.#.#.#.#.#.#.#.#.#.#.#.#.` #.#.#.",
"j.j.#.=.#.#.#.#.#.#.#.#.#.#.#.#.#.#.%.-.-.%.#.#.#.#.#.#.#.#.#.#.#.#.#.#.#.#.#.#.#.#.#.` ` #.#.#.#.#.#.#.#.#.#.#.#.#.#.` ` #.#.#.",
"j.j.j.] -.#.#.#.#.#.#.#.#.#.#.#.#.#.-.L.L.-.#.#.#.#.#.#.#.-.-.#.#.#.#.#.#.-.-.#.#.#.#.#.#.#.` #.#.#.#.#.#.-.-.#.#.#.#.#.#.#.` #.",
"H.H.#.#.H.#.#.#.#.#.#.#.#.#.#.#.#.#.-.L.L.-.#.#.#.#.#.#.#.-.-.#.#.#.#.#.#.-.-.#.#.#.#.#.#.#.#.#.#.#.#.#.#.-.-.#.#.#.#.#.#.#.#.#.",
"#.#.H.H.#.#.#.#.#.#.#.#.#.#.#.#.#.#.%.-.-.%.#.#.%.%.#.#.#.#.#.#.%.%.#.#.#.#.#.#.#.` #.#.#.#.#.#.%.%.#.#.#.#.#.#.#.` #.#.#.#.#.#.",
"#.#.#.#.#.#.#.#.#.#.#.#.#.#.#.#.-.#.#.#.#.#.#.#.%.%.#.#.#.#.#.#.%.%.#.#.#.#.#.#.#.#.#.#.#.#.#.#.%.%.#.#.#.#.#.#.#.#.#.#.#.#.#.#.",
"#.#.#.#.#.#.#.#.#.#.#.#.#.#.#.#.#.#.#.#.#.#.#.#.#.#.#.#.#.#.=.#.#.#.#.#.#.#.#.#.#.#.#.#.#.#.#.#.#.#.#.#.#.#.#.#.#.#.#.#.#.#.#.#.",
"#.#.#.#.#.#.#.#.T #.#.T #.#.#.#.#.#.#.#.#.#.=.#.#.#.#.F.F.#.#.#.#.` #.#.#.#.#.#.#.#.#.#.#.#.=.#.#.` #.#.#.#.#.#.#.#.#.#.#.#.=.#.",
"#.#.#.#.#.#.#.#.#.T #.T #.T #.#.#.#.#.#.#.#.#.#.#.#.F.^.^.F.#.#.#.#.#.#.#.#.#.#.#.#.#.#.#.#.#.#.#.#.#.#.#.#.#.#.#.#.#.#.#.#.#.#.",
"#.#.#.#.#.#.#.#.#.' T #.#.s #.#.#.#.F.F.#.#.#.#.#.#.F.^.^.F.#.#.#.#.#.#.#.#.` #.#.#.F.F.#.#.#.#.#.#.#.#.#.#.` #.#.#.F.F.#.#.#.#.",
"#.#.#.#.#.#.#.#.#.#.T #.#.#.#.T #.#.F.F.#.#.#.#.#.#.#.F.F.#.#.#.#.#.#.` ` #.#.#.#.#.F.F.#.#.#.#.#.#.#.` ` #.#.#.#.#.F.F.#.#.#.#.",
"#.#.#.#.#.#.#.#.#.#.#.#.#.#.#.#.#.#.#.#.#.#.#.#.#.#.#.#.#.#.#.=.#.#.#.#.` #.#.#.#.#.#.#.#.#.#.#.#.#.#.#.` #.#.#.#.#.#.#.#.#.#.#.",
"#.#.#.#.#.#.#.#.#.#.#.#.#.#.s #.#.#.#.#.#.#.#.#.F.F.#.#.#.#.#.#.#.#.#.#.#.#.#.#.#.#.#.#.#.#.#.#.#.#.#.#.#.#.#.#.#.#.#.#.#.#.#.#.",
"#.#.#.#.#.#.#.#.#.#.#.#.#.#.#.#.#.#.#.#.=.#.#.#.F.F.#.#.#.#.#.#.#.#.#.#.#.#.#.#.#.#.#.#.=.#.#.#.#.#.#.#.#.#.#.#.#.#.#.#.=.#.#.#.",
"G.G.#.#.#.#.#.#.#.#.#.#.#.#.#.#.#.#.#.#.#.#.#.#.#.#.#.#.#.#.#.#.#.#.#.#.#.#.#.#.#.#.#.#.#.#.#.#.#.#.#.#.#.#.#.#.#.=.#.#.#.#.#.#.",
"F.F.#.#.#.#.#.#.#.#.#.#.#.#.#.#.#.#.#.#.#.#.#.#.#.` #.#.#.#.#.#.#.#.#.#.#.#.#.#.#.#.#.#.#.#.#.#.#.#.#.#.#.#.#.#.#.#.#.F.F.#.#.#.",
"#.#.#.#.#.#.#.=.#.#.#.#.` #.#.#.#.#.#.#.#.#.#.#.#.#.#.#.#.#.#.#.#.#.#.#.` #.#.#.#.#.#.#.#.#.#.#.#.#.#.#.` #.#.#.#.#.F.^.^.F.#.#.",
"#.#.#.F.F.#.#.#.#.#.#.` ` #.#.#.#.#.#.#.#.#.#.#.#.#.#.#.#.#.#.#.#.#.#.` ` #.#.#.#.#.#.#.#.#.#.#.#.#.#.` ` #.#.#.#.#.F.^.^.F.#.#.",
"#.#.G.^.^.F.#.#.#.#.#.#.#.#.` #.#.#.#.#.#.#.#.#.#.#.#.#.#.#.#.#.#.#.#.#.#.#.T #.#.#.#.#.#.#.#.#.#.#.#.#.#.#.` #.#.#.#.F.F.#.#.#.",
"#.#.G.^.^.G.#.#.#.#.#.#.#.#.#.#.#.#.#...#.#.#.#.#.#.#.#.#.#.#.T #.[ ..#.#.#.#.#.#.#.#.#.#.#.#.#.#.#.#.#.#.#.#.#.=.#.#.#.#.#.#.#.",
"#.#.#.F.F.#.#.#.#.` #.#.#.#.#.#.#...W ^ ,.5.4.^ / ` #.#.#.#.Y ~ ~ D ~ X.#.#.#.#.#.#.#.#.#.#.#.#.#.` #.#.#.#.#.#.#.#.#.#.#.#.F.F.",
"#.#.#.#.#.#.=.#.#.#.#.#.#.#.#.#.#...~ H 6.w.6.H E T ........X.P K K P @...#.#.#.#.#.#.#.#.#.#.#.#.#.#.#.#.#.#.#.#.#.#.#.#.#.F.F.",
"#.#.#.#.#.#.#.#.#.#.#.#.#.#.#.#.#...! H q.h.q.6.;.! ! D :.5.p.D.P.P.g.u.~ X.F.F.#.#.#.#.#.#.#.#.#.#.#.#.#.#.#.#.#.#.#.#.#.#.#.#.",
"#.#.#.#.#.#.#.#.#.#.#.#.#.#.=.#.#...~ K q.l.t.0.<.G G G I 7.e.R.!.!.E.1.D } F.F.#.#.#.#.#.#.#.#.#.#.#.#.#.#.#.#.#.#.#.#.#.#.#.#.",
"#.#.#.#.{ #.#.#.#.#.#.#.#.#.#.#.#...Z m 2.t.t.t.8.<.<.<.9.B.B.Z.A.A.Z.g.a.+.Q } #.#.#.#.#.#.#.#.#.#.#.#.#.#.#.#.#.#.#.#.` #.#.#.",
"#.#.#.s T #.#.#.#.#.F.H.#.#.#.#.#...v k I 0.r.l.r.w.0.0.d.Q.R.m.b.v.v.R.Q.P J W #.#.#.#.#.#.#.#.#.#.#.#.#.#.#.#.#.#.#.` ` #.#.#.",
"#.#.#.#.#.#.T #.#.#.F.F.#.#.#.#.#.[ Y b C V 3.l.r.7.e.B.V.Z.C.v.M.A.U.E.Y.i.K +.#.#.#.#.#.#.#.#.#.#.#.#.#.#.#.#.#.#.#.#.#.#.` #.",
"#.#.#.#.#.#.#.#.#.#.#.#.#.#.#.#.#.....] z h P n.r.7.d.Q.I.z.n.l.N.E.!.!.Y.P J _ #.#.#.#.#.#.#.#.#.#.#.#.#.#.#.#.#.#.#.#.#.#.#.#.",
"#.T #.#.#.#.#.#.#.#.#.#.#.#.#.#.#.#.#.[ U v n R 4.0.y.S.C.v.l.n.M.S.U.Q.Y.1.J Q #.#.#.#.#.#.#.#.#.#.#.#.#.#.#.#.#.` #.#.#.#.#.#.",
"#.#.#.#.#.#.#.#.#.#.#.#.=.#.#.#.#.#.#.#.....5 + l w.r.l.v.z.n.l.b.b.M.W.Y.1.J W #.#.#.#.#.#.#.#.#.#.#.#.#.#.#.#.#.#.#.#.#.#.#.#.",
"#.#.#.#.#.#.#.#.#.#.#.#.#.#.#.#.O.O.O.[ ' a 1   6 >.3.k.l.v.n.M.N.M.C.D.P.u.S @.#.#.#.#.#.#.#.#.#.#.#.#.#.#.#.#.#.#.#.#.#.#.#.#.",
"#.#.#.#.#.#.#.#.#.#.#.#.#.#.#.#.#.O.O.*., @ & > < q t 0.r.n.M.W.E.E.Y.F c _ X. .#.#.#.#.#.#.#.#.#.#.#.#.#.#.=.#.#.#.#.#.#.#.=.#.",
"#.#.#.#.` #.#.#.#.#.#.#.#.#.#.#.#.#.O.] 1 # & > ; ; 9 ^ 3.y.s.P.P.P.J.B x | O.O.#.#.#.#.` #.#.#.#.#.#.#.#.#.#.#.#.#.#.#.#.#.#.#.",
"#.#.#.` ` #.#.#.#.#.#.#.#.#.#.#.#.#.O.O.' s 1       % < t K L x x x x N V } O.O.#.#.#.` ` #.#.#.#.#.F.F.#.#.#.#.#.#.F.F.#.#.#.#.",
"#.#.#.#.#.#.` #.#.#.#.#.#.#.#.#.#.#.#.#.#.-.7 X X X $ : 0 A N k k k k M L &.-.#.#.#.#.#.#.#.` #.#.#.F.F.#.#.#.#.#.#.F.F.#.#.#.#.",
"#.#.#.#.#.#.#.#.#.#.#.#.#.#.#.#.#.#.#.#.#.-.#.a u y 2 O - 8 r B J 3.5.P L &.-.#.#.#.#.#.#.#.#.#.#.#.#.#.#.#.#.#.#.#.#.#.#.#.#.#.",
"#.` #.#.#.#.#.#.#.#.#.#.#.#.#.#.%.%.#.#.#.#.#.#.#.#.y @ $ > < C ;.s.k.;.S } #.#.#.` #.#.#.#.#.#.#.#.#.#.#.#.#.#.#.#.#.#.#.#.#.#.",
"#.#.#.#.#.#.#.#.#.#.#.#.#.#.#.#.%.%.#.#.#.#.#.#.#.[ { a w O = Y ( ;.;./ } ..#.#.#.#.#.#.#.#.#.#.#.#.#.#.=.#.#.#.#.#.#.#.=.#.#.#.",
"-.#.#.#.#.#.#.#.#.#.#.#.#.#.#.#.#.#.#.#.#.#.#.#.#.#.#.#.u . @ s } S J } #.#.#.#.#.#.#.#.#.#.#.#.#.#.#.#.#.#.#.#.#.#.#.#.#.#.=.#.",
"#.#.%.-.-.%.#.#.#.#.#.#.#.#.#.#.#.=.#.#.#.#.#.#.#.#.#.-.s 3 u ] X.E W  .#.#.#.#.#.#.#.#.#.#.=.#.#.#.#.#.#.#.#.#.#.#.#.F.F.#.#.#.",
"#.#.-.L.L.-.#.#.#.#.#.#.#.#.#.#.#.#.#.#.#.#.#.#.#.#.#.#.] #.#.#.#.#.#.#.#.#.#.#.#.#.#.#.#.#.#.#.#.#.#.#.#.#.#.#.#.#.F.^.^.F.#.#.",
"#.#.-.L.L.-.#.#.#.#.#.#.#.#.#.#.#.#.#.#.F.F.#.#.#.#.#.#.#.#.#.#.#.#.#.#.#.#.` #.#.#.F.F.#.#.#.#.#.#.#.#.#.#.#.#.#.#.F.^.^.F.#.#.",
"#.#.%.-.-.%.#.#.#.#.#.#.#.#.#.#.#.#.#.#.F.F.#.#.#.#.#.#.#.-.-.#.#.#.#.T T #.#.#.#.#.F.F.#.#.#.#.#.#.#.#.#.#.#.#.#.#.#.F.F.#.#.#.",
"-.-.#.#.#.#.#.-.#.#.#.#.#.#.#.#.#.#.#.#.#.#.#.#.#.#.#.#.#.-.-.#.#.#.#.#.` #.#.#.#.#.#.#.#.#.#.#.#.#.#.#.#.#.#.#.#.#.#.#.#.#.#.=.",
"-.-.#.#.#.#.#.#.#.#.#.#.#.#.#.#.#.#.#.#.#.#.#.#.%.%.#.#.#.#.#.#.#.#.#.#.#.#.#.#.#.#.#.#.#.#.#.#.#.#.#.#.#.#.#.#.F.F.#.#.#.#.#.#.",
"#.#.#.#.#.#.#.#.#.#.#.#.#.#.#.#.#.#.#.=.#.#.#.#.%.%.#.#.#.#.#.#.#.#.#.#.#.#.#.#.#.#.#.#.=.#.#.#.#.#.#.#.#.#.#.#.F.F.#.#.#.#.#.#.",
"#.#.#.#.#.#.#.#.#.#.#.#.#.#.#.#.#.#.#.#.#.#.#.#.#.#.#.#.#.#.#.#.#.#.#.#.#.#.#.#.#.#.#.#.#.#.#.#.#.#.#.#.#.#.#.#.#.#.#.#.#.#.#.#.",
"#.#.#.#.#.#.#.#.#.#.#.#.#.#.#.#.#.#.#.#.#.#.#.#.f f #.#.#.#.#.#.#.#.#.#.#.#.#.#.#.#.#.#.#.#.#.#.#.#.#.#.#.#.#.#.#.#.#.#.#.#.#.#.",
"#.#.#.#.#.#.#.#.#.#.#.#.#.#.#.#.#.#.#.#.#.#.#.#.f f #.#.#.#.#.f #.#.#.#.#.#.#.#.#.#.#.#.#.#.#.#.#.#.#.#.#.#.#.#.#.#.#.#.#.#.#.#.",
"#.#.#.#.#.#.#.#.#.#.#.#.#.#.#.#.#.#.#.#.#.#.#.#.#.#.d f f d #.#.#.#.#.#.#.#.#.#.#.#.#.#.#.#.#.#.#.#.#.#.#.#.#.#.#.#.#.#.#.#.#.#.",
"#.#.#.#.#.#.#.#.#.#.#.#.#.#.#.#.#.#.#.#.#.#.#.#.#.#.f g g f #.#.#.#.#.#.#.#.#.#.#.#.#.#.#.#.#.#.#.#.#.#.#.#.#.#.#.#.#.#.#.#.#.#.",
"#.#.#.#.#.#.#.#.#.#.#.#.#.#.#.#.#.#.#.#.#.#.#.#.#.#.f g g f #.#.#.#.#.#.#.#.#.#.#.#.#.#.#.#.#.#.#.#.#.#.#.#.#.#.#.#.#.#.#.#.#.#.",
"#.#.#.#.#.#.#.#.#.#.#.#.#.#.#.#.#.#.#.#.#.#.#.#.#.#.d f f d #.#.#.#.#.#.#.#.#.#.#.#.#.#.#.#.#.#.#.#.#.#.#.#.#.#.#.#.#.#.#.#.#.#.",
"#.#.#.#.#.#.#.#.#.#.#.#.#.#.#.#.#.#.#.#.#.#.#.#.f #.#.#.#.#.#.#.#.#.#.#.#.#.#.#.#.#.#.#.#.#.#.#.#.#.#.#.#.#.#.#.#.#.#.#.#.#.#.#.",
"%.%.#.#.#.#.#.#.#.#.#.#.#.#.#.#.#.#.#.#.#.#.#.#.#.#.#.#.#.#.#.#.#.#.#.#.#.#.#.#.#.#.` #.#.#.#.#.#.#.` #.#.#.#.#.#.#.#.#.#.#.#.#.",
"%.%.#.#.#.#.#.#.#.#.#.#.#.#.#.#.#.#.#.-.#.#.#.#.#.#.#.#.#.#.#.#.#.#.#.#.#.#.#.#.#.` #.#.#.#.#.#.#.` #.#.#.#.#.#.#.#.#.#.#.#.#.#.",
"#.#.#.#.#.-.-.#.#.#.#.#.#.#.#.#.#.#.#.#.#.#.#.#.#.#.#.#.#.#.#.#.#.#.#.#.#.#.#.#.#.` #.#.#.#.#.#.#.` #.#.#.#.#.#.#.#.#.#.#.#.#.#.",
"#.#.#.#.#.-.-.#.#.#.#.#.#.#.#.#.#.#.#.#.#.#.#.#.#.#.#.#.#.#.#.#.#.#.#.#.#.#.#.#.#.#.#.#.#.#.#.#.#.#.#.#.#.#.#.#.#.#.#.#.#.#.#.#.",
"#.#.#.#.#.#.#.#.#.#.#.#.#.#.#.#.#.#.#.#.#.-.-.#.#.#.#.#.#.#.#.#.#.#.#.#.#.#.#.#.#.#.#.#.` #.` #.#.#.#.#.` #.` #.#.#.#.#.#.#.#.#.",
"#.#.#.#.#.#.#.#.#.#.#.#.#.#.#.#.#.#.#.#.#.-.-.#.#.#.#.#.#.#.#.#.#.#.#.#.#.#.#.#.#.#.` #.` ` #.#.#.#.` #.` ` #.#.#.#.#.#.#.#.#.#.",
"#.#.#.-.#.#.#.#.#.#.#.#.#.#.#.#.%.%.#.#.#.#.#.#.#.#.#.#.#.#.#.#.#.#.#.#.#.#.#.#.#.#.` #.` ` #.#.#.#.` #.` ` #.#.#.#.#.#.#.#.#.#.",
"#.#.#.#.#.#.#.#.#.#.#.#.#.#.#.#.%.%.#.#.#.#.#.#.#.#.#.#.#.i i #.#.#.#.#.#.#.#.#.#.#.#.#.` #.#.#.#.#.#.#.` #.#.#.#.#.#.#.#.#.#.#."
};
