/* XPM */
static char *terrain[] = {
/* columns rows colors chars-per-pixel */
"64 64 15 1 ",
"  c #60E0C8",
". c #80F0A0",
"X c #308070",
"o c #40A888",
"O c #50C090",
"+ c #68E0B8",
"@ c #38B0B8",
"# c #48D0A8",
"$ c #80F8C8",
"% c #78D0A0",
"& c #98D8B8",
"* c #D8F0D8",
"= c #98E078",
"- c #68C878",
"; c #C0E870",
/* pixels */
"  ..XoOOOOOOOOOOOOOOOOOOOOOOOOOOOOOOOOOOOOOOOOOOOOOOOOOOOOOOOOOO",
"  oX.oOOOOOOOOOO++OOOOOOOOO+OOOOOOO+OOOOOOOOOOOOOOO+OOOOOOOOOOOO",
"   @o.OOOOOOOOOO++OOOOO+OOOOOOOOOOOOOOOOOOOOoOOOOOOOOOOOOOOOoOOO",
"  O.OOOOOOOOOOOOOO#++#OOOOOOOOOOOOOOOOOOOOOooOOOOOOOOOOOOOOooOOO",
"   o.OOOOOOOOOOOOO+$$+OOOOOOO++OOOOOO++OOOOOOOoOOOOOO++OOOOOOOoO",
"..OO.OOOOOOOOOOOOO+$$+OOOOOOO++OOOOOO++OOOOOOOOOOOOOO++OOOOOOOOO",
"OO..OOOOOOOOOOOOOO#++#OO##OOOOOO##OOOOOOOoOOOOOO##OOOOOOOoOOOOOO",
"OOOOOOOOOOOOOOOO+OOOOOOO##OOOOOO##OOOOOOOOOOOOOO##OOOOOOOOOOOOOO",
"OOOOOOOOOOOOOOOOOOOOOOOOOOOOOO%OOOOOOOOOOOOOOOOOOOOOOOOOOOOOOOOO",
"OOOOOOOOoOOoOOOOOOOOOO%OOOO&&OOOOoOOOOOOOOOOOO%OOoOOOOOOOOOOOO%O",
"OOOOOOOOOoOoOoOOOOOOOOOOOO&**&OOOOOOOOOOOOOOOOOOOOOOOOOOOOOOOOOO",
"OOOOOOOOOooOOoOOOO&&OOOOOO&**&OOOOOOOOoOOO&&OOOOOOOOOOoOOO&&OOOO",
"OOOOOOOOOOoOOOOoOO&&OOOOOOO&&OOOOOOooOOOOO&&OOOOOOOooOOOOO&&OOOO",
"OOOOOOOOOOOOOOoOOOOOOOOOOOOOOOO%OOOOoOOOOOOOOOOOOOOOoOOOOOOOOOOO",
"OOOOOOOOOOOOOOoOOOOOOOOO&&OOOOOOOOOOOOOOOOOOOOOOOOOOOOOOOOOOOOOO",
"OOOOOOOOOOOOOOOOOOOO%OOO&&OOOOOOOOOOOOOOOOOO%OOOOOOOOOOOOOOO%OOO",
"&&OOOOOOOOOOOOOOOOOOOOOOOOOOOOOOOOOOOOOOOOOOOOOOOOOOOOOOO%OOOOOO",
"&&OOOOOOOOOOOOOOOOOOOOOOOoOOOOOOOOOOOOOOOOOOOOOOOOOOOOOOOOO&&OOO",
"OOOOOOO%OOOOoOOOOOOOOOOOOOOOOOOOOOOOoOOOOOOOOOOOOOOOoOOOOO&**&OO",
"OOO&&OOOOOOooOOOOOOOOOOOOOOOOOOOOOOooOOOOOOOOOOOOOOooOOOOO&**&OO",
"OO&**&OOOOOOOOoOOOOOOOOOOOOOOOOOOOOOOOoOOOOOOOOOOOOOOOoOOOO&&OOO",
"OO&**&OOOOOOOOOOOOOOOOOOOOOOOOOoOOOOOOOOOOOOOOOOOOOOOOOO%OOOOOOO",
"OOO&&OOOOoOOOOOOOOOOOOOOOoOOOOooOoOOOOOOOOOOOOOOOoOOOOOOOOOOOO&&",
"OOOOOO%OOOOOOOOOOOOOOOOOooOOOOOOOOOOOOOOOOOOOOOOOOOOOOOOOOOOOO&&",
"OOOOOOOOOOOOOOOOOOOOOOOOOOOOOO%OOOOOOO&&OOOOOOOOOOOOOOOOOOOOOOOO",
"OOOOOOOOOOOOOO%OOOOOOOOOOOO&&OOOOOOOOO&&OOOOOOOOOOOOOOOOOOOOOOOO",
"OOOOoOOOOOOOOOOOOOOOOOOOOO&**&OO%OOOOOOOOOOOOOOOOOOOOOOOOOOOoOOO",
"OOOooOOOOO&&OOOOOOOOOOOOOO&**&OOOOO&&OOOOOOOOOOOOOOOOOOOOOOooOOO",
"OOOOOOoOOO&&OOOOOOOOOOOOOOO&&OOOOO&**&OOOOOOOOOOOOOOOOOOOOOOOOoO",
"OOOOOOOOOOOOOOOOOOOOOOOOOOOOOOO%OO&**&OOOOOOOOOOOOOOOOOOOOOOOOOO",
"OoOOOOOOOOOOOOOOOOOOOOOO&&OOOOOOOOO&&OOOOOOOOOOOOOOOOOOOOoOOOOOO",
"OOOOOOOOOOOO%OOOOOOOOOOO&&OOOOOOO%OOOOOOOOOOOOOOOOOOOOOOOOOOOOOO",
"OOOOOOOOOOOOOOOOOOOOOOOOOOOOOOOOOOOOOOOOOOOOOOOOOOOOOOOOOOOOOOOO",
"OOOOOOOOOOOOOOOOOOO+OOOOOOOOOO%OOOO+OOOOOOOOOOOOOOOOOO%OOOOOOO%O",
"OOOOoOOOOOOOOOOOOOOOOOOOOOOOOOOOOOOOOOOOOOOOoOOOOOOOOOOOOOOOOOOO",
"OOOooOOOOOOOOOOOOOOOOOOOOO&&OOOOOOOOOOOOOOOooOOOOO&&OOOOOO&&OOOO",
"OOOOOOoOOOOOOOOOOOOOO++OOO&&OOOOOOOOO++OOOOOOOoOOO&&OOOOOO&&OOOO",
"OOOOOOOOOOOOOOOOOOOOO++OOOOOOOOOOOOOO++OOOOOOOOOOOOOOOOOOOOOOOOO",
"OoOOOOOOOOOOOOOO##OOOOOOOOOOOOOO##OOOOOOOoOOOOOOOOOOOOOOOOOOOOOO",
"OOOOOOOOOOOOOOOO##OOOOOOOOOO%OOO##OOOOOOOOOOOOOOOOOO%OOOOOOO%OOO",
"+OOOOOOOOOOOOOOOOOOOOOOOOOOOOOOOOOOOOOOOOOOOOOOOOOOOOOOOOOOOOO%O",
"OO#++#OOOOOOOOOOO%OOOOOOOOO+OOOOOoOOOOOOOOOOOO%OOOOOOOOOOOO&&OOO",
"OO+$$+OOOOOOOOOOOOOOOOOOOOOOOOOOOOOOOOOOOOOOOOOOOOOOOOOOOO&**&OO",
"OO+$$+OOOOOOOOOOOOOO&&OOOOOOOOOOOOOOOOoOOO&&OOOOOOOOOOOOOO&**&OO",
"OO#++#OOOOOOOOOOOOOO&&OOOOOOO++OOOOooOOOOO&&OOOOOOOOOOOOOOO&&OOO",
"++OOOOO+OOOOOOOOOOOOOOOOOOOOO++OOOOOoOOOOOOOOOOOOOOOOOOOOOOOOOO%",
"++OOOOOOOOOOOOOOOOOOOOOO##OOOOOOOOOOOOOOOOOOOOOOOOOOOOOO&&OOOOOO",
"OOOOOOOOOOOOOOOOOOO%OOOO##OOOOOOOOOOOOOOOOOO%OOOOOOOOOOO&&OOOOOO",
"OOOOOOOOOOOOOOOOOOOOOOOOOOOOOOOOOOOOOOOOOOOOOOOOOOOOOOOOOOOOOOOO",
"OOOOOOOOOOOOOOOOOOOOOOOO==OOOOOOOOOOOOOOOOOOOOOOOOOOOOOOOOOOOOOO",
"OOOOOOOOOOOOOOOOOOOOOOOO==OOOOO=OOOOOOOOOOOOOOOOOOOOOOOOOOOOOOOO",
"OOOOOOOOOOOOOOOOOOOOOOOOOO-==-OOOOOOOOOOOOOOOOOOOOOOOOOOOOOOOOOO",
"OOOOOOOOOOOOOOOOOOOOOOOOOO=;;=OOOOOOOOOOOOOOOOOOOOOOOOOOOOOOOOOO",
"OOOOOOOOOOOOOOOOOOOOOOOOOO=;;=OOOOOOOOOOOOOOOOOOOOOOOOOOOOOOOOOO",
"OOOOOOOOOOOOOOOOOOOOOOOOOO-==-OOOOOOOOOOOOOOOOOOOOOOOOOOOOOOOOOO",
"OOOOOOOOOOOOOOOOOOOOOOOO=OOOOOOOOOOOOOOOOOOOOOOOOOOOOOOOOOOOOOOO",
"##OOOOOOOOOOOOOOOOOOOOOOOOOOOOOOOOOOOOOOOOoOOOOOOOoOOOOOOOOOOOOO",
"##OOOOOOOOOOOOOOOOO+OOOOOOOOOOOOOOOOOOOOOoOOOOOOOoOOOOOOOOOOOOOO",
"OOOOO++OOOOOOOOOOOOOOOOOOOOOOOOOOOOOOOOOOoOOOOOOOoOOOOOOOOOOOOOO",
"OOOOO++OOOOOOOOOOOOOOOOOOOOOOOOOOOOOOOOOOOOOOOOOOOOOOOOOOOOOOOOO",
"OOOOOOOOOOOOOOOOOOOOO++OOOOOOOOOOOOOOOOOOOOOoOoOOOOOoOoOOOOOOOOO",
"OOOOOOOOOOOOOOOOOOOOO++OOOOOOOOOOOOOOOOOOOoOooOOOOoOooOOOOOOOOOO",
"OOO+OOOOOOOOOOOO##OOOOOOOOOOOOOOOOOOOOOOOOoOooOOOOoOooOOOOOOOOOO",
"OOOOOOOOOOOOOOOO##OOOOOOOOOOOXXOOOOOOOOOOOOOoOOOOOOOoOOOOOOOOOOO"
};
