/* XPM */
static char *minish_exit_right[] = {
/* columns rows colors chars-per-pixel */
"64 64 230 2 ",
"   c #0B191C",
".  c #283020",
"X  c #4A1010",
"o  c #7A0307",
"O  c #690910",
"+  c #4B3716",
"@  c #423D33",
"#  c #1A561D",
"$  c #275A1E",
"%  c #364F1A",
"&  c #186E1D",
"*  c #256C1F",
"=  c #285A21",
"-  c #3A4A2E",
";  c #156425",
":  c #317222",
">  c #185E23",
",  c #4C5519",
"<  c #4D6515",
"1  c #716814",
"2  c #514C34",
"3  c #776A2B",
"4  c #625821",
"5  c #312140",
"6  c #382742",
"7  c #312C46",
"8  c #3D2B43",
"9  c #36394B",
"0  c #313F50",
"q  c #422E44",
"w  c #453245",
"e  c #4B3545",
"r  c #493849",
"t  c #533C47",
"y  c #533E4A",
"u  c #503E53",
"i  c #334854",
"p  c #305C5E",
"a  c #33535A",
"s  c #374C49",
"d  c #35684F",
"f  c #345E60",
"g  c #316362",
"h  c #386A64",
"j  c #31736A",
"k  c #317C6E",
"l  c #397767",
"z  c #54424B",
"x  c #594249",
"c  c #5E4A4C",
"v  c #534B4F",
"b  c #574854",
"n  c #465758",
"m  c #585955",
"M  c #494A4E",
"N  c #614C4C",
"B  c #6B594F",
"V  c #66544D",
"C  c #6D5B52",
"Z  c #685759",
"A  c #725D5B",
"S  c #624C52",
"D  c #58665C",
"F  c #4A655E",
"G  c #746454",
"H  c #7B6B5B",
"J  c #76655A",
"K  c #6F6A57",
"L  c #6C5A61",
"P  c #5A6E62",
"I  c #457668",
"U  c #547566",
"Y  c #476762",
"T  c #796766",
"R  c #697465",
"E  c #8B020C",
"W  c #960412",
"Q  c #940A13",
"!  c #A70117",
"~  c #B4001E",
"^  c #9B0625",
"/  c #B80225",
"(  c #A01522",
")  c #B12D37",
"_  c #C8012B",
"`  c #CB0831",
"'  c #D90337",
"]  c #C31630",
"[  c #E8003F",
"{  c #E4003D",
"}  c #895815",
"|  c #A57436",
" . c #94621E",
".. c #E90040",
"X. c #E80A42",
"o. c #E71147",
"O. c #CA3A48",
"+. c #DD0840",
"@. c #AC784D",
"#. c #837364",
"$. c #8B7A6B",
"%. c #87756A",
"&. c #897877",
"*. c #87746D",
"=. c #966645",
"-. c #D0635F",
";. c #148D1B",
":. c #15AB1B",
">. c #16B11A",
",. c #2EB51E",
"<. c #358723",
"1. c #37A723",
"2. c #27A820",
"3. c #22811D",
"4. c #529429",
"5. c #17D512",
"6. c #25CE17",
"7. c #13E50E",
"8. c #318271",
"9. c #348975",
"0. c #378B77",
"q. c #3A957C",
"w. c #3B987D",
"e. c #3E896F",
"r. c #568771",
"t. c #44987A",
"y. c #59997A",
"u. c #4D866E",
"i. c #638D6F",
"p. c #55A57D",
"a. c #67A47B",
"s. c #98900B",
"d. c #A58F0A",
"f. c #C99E05",
"g. c #AB8848",
"h. c #95856C",
"j. c #948474",
"k. c #9D8C7D",
"l. c #988876",
"z. c #898F75",
"x. c #A69076",
"c. c #A98F77",
"v. c #B8A379",
"b. c #C7956A",
"n. c #D4AC75",
"m. c #91DB79",
"M. c #9CE177",
"N. c #A9E67A",
"B. c #B6E977",
"V. c #C0E870",
"C. c #3C9B80",
"Z. c #3EA285",
"A. c #459D80",
"S. c #44A382",
"D. c #43AC89",
"F. c #49A783",
"G. c #4AB58C",
"H. c #4DBB8E",
"J. c #47B18B",
"K. c #57B98A",
"L. c #4FBF90",
"P. c #53BF90",
"I. c #56AE86",
"U. c #64AB85",
"Y. c #75BF87",
"T. c #58C38D",
"R. c #4EC496",
"E. c #50C090",
"W. c #5CCC94",
"Q. c #58C798",
"!. c #6ACB85",
"~. c #77D184",
"^. c #64CD95",
"/. c #63D396",
"(. c #67D798",
"). c #6BDB99",
"_. c #6BD596",
"`. c #75DC98",
"'. c #76CF8E",
"]. c #73E39C",
"[. c #7BE59B",
"{. c #7BEB9E",
"}. c #7DE093",
"|. c #4ECFA5",
" X c #61D6AC",
".X c #7FEFA0",
"XX c #68E0B8",
"oX c #9B8B86",
"OX c #A49483",
"+X c #AB9A8A",
"@X c #A79486",
"#X c #B19E8B",
"$X c #A89386",
"%X c #B4A28C",
"&X c #BAA692",
"*X c #BDAA95",
"=X c #B7A592",
"-X c #AFA183",
";X c #C2AE99",
":X c #C2AD97",
">X c #C6B19C",
",X c #C9B59D",
"<X c #CCB389",
"1X c #CCB6A0",
"2X c #CEBBA4",
"3X c #C7B6A0",
"4X c #D3BCA5",
"5X c #E2B991",
"6X c #9BED8C",
"7X c #96ED8F",
"8X c #8EEE96",
"9X c #86EF9C",
"0X c #89EF99",
"qX c #93ED91",
"wX c #83F09E",
"eX c #A5EB84",
"rX c #80F0A0",
"tX c #D9C395",
"yX c #E6C999",
"uX c #DEC9AF",
"iX c #D8C3AA",
"pX c #D4C9A9",
"aX c #E1CDB2",
"sX c #E4D2B6",
"dX c #EDDCBD",
"fX c #E8D7B8",
"gX c #EBCCAA",
"hX c #F0E0C0",
"jX c #F7EEC6",
"kX c #F0DFC0",
/* pixels */
"E.E.E.L.E.E.E.E.E.E.E.E.H.R.E.E.E.E.E.E.E.E.E.E.E.E.E.E.E.E.E.E.E.E.E.!.N.V.V.M.~.E.E.E.E.E.E.E.E.E.E.E.E.E.E.E.E.E.E.E.E.E.E.E.",
"E.E.E.E.E.H.E.E.E.E.E.E.E.E.E.H.E.E.E.E.E.E.E.E.E.E.E.E.H.E W ! W L.H.!.M.B.V.N.~.E.E.H.E.E.E.E.E.E.E.H.E.E.E.E.E.E.E.E.E.E.E.E.",
"E.E.E.E.E.E.E.E.E.E.E.E.E.E.E.E.E.E.E.E.E.E.E.E.H.E.E.E.E ! _ ` / ! o !.m.N.N.m.!.H.E.E.E.E.E.E.E.E.E.E.E.E.E.E.E.E.E.E.H.E.E.E.",
"E.E.L.E.E.E.E.E.E.E.E.E.E.E.E.E.E.E.E.E.E.H.E.E.E.E.E.E.W _ ' ` _ ! o T.a.~.~.!.T.L.E.E.E.E.E.E.E.E.E.E.E.E.E.E.E.H.E.E.E.E.E.E.",
"E.H.R.E.R.R.E.E.E.E.E.E.E.E.E.E.E.E.E.E.E.E.H.E.E.E.E.E./ _ / ^ ! E O E.T.T.E.E.E.E.E.E.L.R.E.E.E.E.H.E.E.E.E.E.H.E.E.E.E.E.E.E.",
"E.E.E.R.|.|.R.H.E.E.E.E.E.E.E.E.E.E.E.H.E.E.E.E.E.E.E.~ ' ' ^ X o O X H.H.H.E.E.E.L.E.L.L.E.E.E.E.E.E.E.E.E.E.J.Z.E.E.E.E.E.E.E.",
"E.E.E.R.|.|.R.R.E.E.E.E.H.E.E.E.E.E.E.E.E.E.E.E.E.R.W ~ ' { / O o O X R.L.L.E.E.E.E.E.E.E.L.E.E.E.E.E.E.E.E.D.G.R.E.E.E.E.E.E.H.",
"E.E.E.R.R.R.R.R.E.R. X XR.E.E.E.E.E.E.E.E.E.E.E.E.W ! _ [ [ ' ` ! E o E.E.L.@.s.E.E.L.E.E.E.E.E.E.E.E.E.E.H.Z.E.E.E.E.E.E.E.E.H.",
"E.E.E.E.E.E.E.E.E.Q.XXXXQ.R.E.E.E.E.E.E.E.E.E.E.T.W ~ { [ [ [ [ ' _ _ ~ W =.b.<XE.E.E.E.E.H.E.E.E.E.E.E.E.E.Z.E.E.E.E.E.E.E.E.E.",
"E.H.H.L.E.E.E.E.E.Q. X XR.R.E.E.E.E.E.E.E.E.E.E.o W _ [ [ [ [ [ [ [ { _ ~ ) -.b.E.E.E.E.E.E.E.E.E.E.E.E.E.R.R.E.E.E.E.R.E.E.E.E.",
"H.J.H.E.E.E.E.E.E.E.E.E.E.E.E.E.E.E.E.E.E.E.E.E.o W _ [ [ [ [ [ [ [ { { ' ] ( Q E.E.E.E.E.E.E.E.E.E.E.E.E.E.E.E.E.G.Z.R.Z.J.E.E.",
"Z.H.H.E.E.L.E.T.E.E.E.E.E.H.E.E.E.E.E.E.E.E.E.E.W ! ' [ [ [ [ [ [ [ [ [ [ ` ! W E.E.E.E.L.E.E.L.E.E.E.E.E.E.E.G.G.H.Z.Z.E.E.E.E.",
"D.H.L.L.E.E.E.|.Q.E.E.E.E.E.E.E.E.E.E.E.E.E.R.R.! ~ ' [ [ [ [ [ [ [ ....[ ' / ~ E.E.E.E.E.E.L.E.E.E.E.E.E.E.E.Z.G.E.Z.Z.E.E.E.E.",
"G.L.H.R.E.E.E.Q.Q.E.E.E.E.E.E.E.E.E.E.E.E.R.R.R.W ~ _ ' ' [ [ [ [ [ ....{ _ ^ W w.F.E.E.E.E.L.L.E.E.E.E.E.E.E.H.E.E.Z.J.E.E.E.E.",
"H.L.E.E.E.E.E.E.R.R.E.E.E.E.E.E./.E.E.R.E./.T.. 4 ) ) ] _ ' ' ' o.X...X.' ^ X X q.w.D.E.I.U.K.R.E./.W.E.E.E.E.E.E.G.J.E.E.E.E.E.",
"E.E.E.E.E.E.H.E.E.E.E.E.E.E.R.T..XW.T.T./.].G H h.b.b.-.-.-.) ) -.O.' ` O. .2 + Z.w.9.p.z.OXz.K.R.)./.W.E.E.E.E.E.E.E.E.E.E.E.T.",
"E.E.E.E.E.E.E.E.H.E.E.E.E.E.E.R..XW.)..X].2 h.-X<XyXyXyXtXn.G 2 x.-.O.O.-.b.| } 8.9.t.v 3XaX@XZ .XW.)..X].E.E.L.E.E.E.E.E.E.!.M.",
"E.E.E.E.E.E.E.H.R.W.].E.E.(.[.].W.].{.wX.X{.- 2 G | b.n.yXyXh.2 M x.5XuXdX5X| } _.`._.9 %XiXOXm H.q.q.T.].E.L.)./.E.E.E.E.E.!.M.",
"E.E.E.E.E.E.E././.W..X`.).[..X.X).{..X.XwX9X.XU.U | | g.b.n.v.i.z.tXjXjXhXv.4 + U U R L k.$X$.v 0.q.q.t.K.].].{.).W.(.E.E.E.T.!.",
"E.E.E.E.E.E.E./.(.)..XrXqX8X.X.X.X.XwX.X`.y.y.n Z 3 3 3  .g.g.x.*XtXtXtX-XH - . u w e Z *.%.R i.8.q.w.q.t.7XwXrX]./.(.E.E.E.E.E.",
"E.E.E.E.E.E.E.T.).rXrXrXeXqXrXrX.X9XwX`.a.q b T ;X<.: <.4.4.< 4 =.g.=.d 2 - ; ; j.b 6 5 Z b R ].t.w.t.t.p.eX9XrX.X].W.E.E.E.E.E.",
"E.E.E.E.E.E.R.].wXwXwXrX.X9X{.[.[.[.9Xy.q H aXhXkX2.>.,.1.1.= . < < , % = 3.>.>.2Xj.y 6 5 5 Y {.[.{..X.XrXrXrXwXwXwX{.E.E.E.E.E.",
"E.E.E./.].E.].{.6XB.B.9X.X/.t.N 9 9 i z T sXdXaX1.6.7.6.1.: $ $ <.: % : <.,.5.6.,.iX&.c 6 5 6 i s t.)..XrX{.wXeXB.eX.X{.W.(.).E.",
"E.E.E.E./.].{..X6XV.B.9X(.y.R &.*.T r Z :XhXsX1.,.5.7.,.<.= $ 1.1.1.: $ : 1.5.7.6.1.4X#Xu z T Z e s u.K.(.(.{.N.V.eX.X.X].).!.~.",
"E.E.H.T.)..X.XwX8XeX6XwXa.D J @X+XT r *.sXkXuX#X2.:.:.;.# # ;.6.6.6.>.& # & >.:.>.1.kXsXL u J *.J z i j S.G..XqXeX7XrXrXrX/.T.!.",
"E.E.W.(.]..X.X0X0XwX.XwXP c #.OXOXr y oXdXfXiXc.$.; > % < * ;.5.7.7.>.& < , # ; *X,XfXkX&.e u %.T C r i 9.S.]..XrXrXrXrXrX]./.W.",
"E.E.(.)./..X.XeX6XwX9XwXF y J $.$.r L *XfX4X4Xj.l.  . 1 d.1 # ;.5.>.& , s.s.%   *X4XiXdX#XS r C v x 8 i 8.9.`.9XwXwXrXrXwXwX.X].",
"E.E.R./..XrXrXwX9X8XB.9Xn w x c G 8 oXdXsX#X4X&.k.>X. 1 f. ., # ;.& % 1 f.d.+   %X,X%XdXdX*.8 v k v 8 i 8.8.K.M.6XwXrXrXN.7X].E.",
"E.E.(.].wX.XrXrXwXwX8XwXP w 9 h 9 6 oXhXfX+X2X#X=X>Xk.4 } } 4 s d d 2 1 } 1 v s %X:X$.fXdX&.6 7 9 f m F 9.S.H.`.wX.XrXrX8XwX{.).",
").T.)..X.XwXrXrX.XwX.XwXa.h a i 5 5 oXkXsX+X2X3XpX>XL #.+ % d t.w.u.l - % - 8.l.$X%X#.gXdX&.5 5 5 j l u.w.D./.{.qXeXeXrXwXwXwX[.",
").(.(.]..X.X.XrX.XrXrXwX/.F.j 0 5 5 oXkXsX*X;XiX,Xk.t b b l u.t.t.p.t.l e.l %X#.k.:X&.dXdX&.5 5 8 h 9.w.H.W.{.rXeXB.B.wXwX.X{.).",
"R.).(.(..XwXrXrX.XrX.X`.'.I.e.g 5 5 oXfXdXiX#XiX+XZ A $.c.t.S.S.J.w.t.t.t.1Xh.#.$X3X*XkXkXT 5 6 t h 9.t.K.rXrXrX6XB.N.wX0X{.]./.",
"E.E.).rXrXrXrXrXwX{.[.V x q 5 5 5 5 T 3XhXdX=X3X*X=X4X+Xl.T v 6 v #.x.*X2X+Xj.oX*XiXiXdXuXT 5 5 5 5 5 q R {.wXrXrXrXrXrXB.6XrX].",
"E.)..XrXrXrXrXrX.X'.Z x T $.&.T t 6 L *XhXdX4X&X*X>X%X+XiXuXoXr &X,X,X:X#X@X@X*X4XuXdXhX#XZ 5 6 e S S t w P }..XrXrXrXrXwX9XrX.X",
").(.].rXrXrXrXrX!.R #.oXk.#X&Xl.V 8 z &.2XhXfX4X2X4X>X>X>X>X&.w h.%X,X4X>X>X>X4XuXdXhXhXT 9 5 6 x B H J x x R '.rXrXrXrXrXrXrX{.",
").T.).rXrXrXrXrXa.Z k.4X;X1X;Xl.G 8 8 Z +XfXdXfXuX4X*X=XOXOX&.y l.%X1X4X;X;XiXuXdXhXdX,Xb 8 6 6 x B #.%.H N e p.]..XrXrXrXrXrX].",
"R.W.].9X8XrXrXrXa.D k.>X3X>X#X#.C 8 5 r $.>XsXdXfX4X&XOXl.j.%.C :X>X,X;X=X*XiXdXdXsX2X*.w w w 6 y B #.$.%.V 6 l P.]..X.XrXrXrX{.",
"Q.].{.7XN.wXrXrXY.I C OXOXl.#.B x 6 5 5 w &.;XaXdXkXdXuX@X%.J H l.l.OX;XuXkXdXdXuX*XT c 8 w e 6 y B #.$.#.y 6 f q.T.rX.XrXrXrXrX",
"]..X.XwXwXwX.XwX^.t.C H H C c x x 6 5 5 6 6 S *.=XaXkXdXfXsXuX4XsXsXfXfXdXdXuX+X$.B 8 5 5 w w 5 6 t x c x x y h 8.F.wXwXrXrXrXrX",
".XwX.X.XrX.XeXqX^.y.#.G U P e 8 6 5 5 6 e e q r S %.l.*X4XfXdXdXhXhXsX,X+Xj.L b r 8 5 5 5 6 5 5 5 t t t 9 Y B l k p.0XeX0XrXrXrX",
").{..X.X.X.X6X8X(.F.i.i.U n 8 7 a 7 5 8 x N e w q e z Z T &.&.&.&.oX&.L b r 6 5 5 5 q 5 5 5 5 5 5 8 n n 9 8.I l 9.J.9X6X9XrXrXrX",
"E.(.{..XwX7X7XwX`.P.C.J.P e 8 i p 7 6 e c C N t e 6 5 6 8 q 6 5 5 6 6 6 5 5 5 5 5 6 t 8 8 6 5 5 i 6 h h 9 k 8.8.q.E.rXrXrXrXrX{.",
"E.E.]..X8XV.V.6XrX`.Q.G.i.A F j 5 5 r c N C x t t t 6 t y t e 5 5 t x w 5 5 5 5 5 q t t z w 5 9 k 0 p h n 8.8.8.w.E.rXrX.X.XrX{.",
"E.]..X.X8XV.V.7XrXrXrXrX9X`._.q.7 e J #.B x t q q e 5 t x q 6 5 5 t y e 5 5 5 e q q y x B N w 7 k k k 8.k 8.8.w.J./.rXrX.X.X.X9X",
"E.]..X.XwX8XqXwXqXeXeX0XrX/.t.n &.#X;X%Xj.#.N e w 6 6 y x 8 5 5 5 e q 5 5 5 5 e t t C H $.%.Z r 9 j k 8.9.Z.D.H./.{..X.X.XrXrXrX",
"E.W.]..XwXeXwXwXeXV.V.8XrXU.P T 4X4X>X&X:Xk.#.S e w w q 8 5 5 5 5 8 5 5 5 5 5 8 x C #.k.k.k.j.A w i g 9.S.(.).).].rX.X.XrXrX.X.X",
"E./.).].wXeX0XwX8XeXeXwX].i.L =XsX1X:X:X:X$X%.V x t w 5 5 5 5 5 5 5 5 5 7 a 8 5 y H j.@X+X+Xk.*.N 6 p w./..XrXrX.X.X.X.X.X.X[.).",
"W.).(.).wX.XwX.XrXrXrXrXW.r.T $X1X$X&X&XOXk.C N t q 5 5 7 7 5 7 5 5 5 7 9 t.P 8 y G $.OX+XOXl.#.B 8 p J.[.rXrXrXrX.X.X.X.X.X(./.",
"{./.)..X.X.X.X.X.X.X.X.X/.H.y.j.@XH h.k.*.G x x w 5 5 5 g a i j 5 5 p p 6 x I.P x c G $.k.k.#.B x 6 p 0.R..X.X.X.X.X.X.X.X(./.{.",
"T.E.).].W..X/.]..X8XB.wXW.u.U U.j.H G C c x x q 5 5 5 5 g n n k j j j k f 7 t.D U r.c G H G B x 6 5 p 8.p..X.XN.7X.X{.W.]././.].",
"E.E.W./.)./.).[..XwXqXwX^.t.h Y a.D U P z 6 8 i g i 5 a j l l 8.k q.C.0.j g 9.i f I c y.D N c v p 7 p 8.w..X.XqX0X.X.X]./.W.R.W.",
"E.E.W.(.(.E.(.[.].]..X.X`.G.k h J.M n h n 5 i a g j a 9.w.F.F.q.w.R.^.E.I.K.A.l h e.I I F n s s 8.a j 9.p..X.X.X{.].{.).E.E.W./.",
"E.E.(.(.E.W./.)./.W.rX.X.X/.G.D.Z.g i a j i j a p 8.9.D.T.].].E.W.{..X.XwXqX~.T.F.w.C.i j 8.g i 8.8.0.t.W..X.X.X(.W.].W.W.W.W.).",
"E.E.E.L.W.{.{./.E./.{..X.X.X].E.J.Z.w.8.8.8.8.9.9.q.G.R.].wXrXrXwX.X.X.XqXV.B.7X).H.S.8.8.9.8.8.9.Z.E.)..X.X.X.X(.E.W.{..X/.E.E.",
"E.R.H.E.E.T.E.E./.].Q.{./.).rX.X{.{.W.E.J.w.w.H.W.].{.{.N.6XwXrXrX.XwX.X8XV.V.qX.X).H.Z.w.E.E.T.[.{.{.{.].W.{./.(.).E.E.E.E.E.E.",
"E.^.Q.E.L.E.E.E.E.W.E.W.).[.rXrX.X.X{.].].).).].{.{..X.X8XwXwX.XrX.X).).wXqXqXwXrX.X].).).).].]..X.X.X.X.X].W.R.W.W.E.E.E.E.E.E.",
"L.W.Q.E.E.E.E.E.E.E.E.L./.(.(.)..X).]..X{.(.{.).]..X.X.X.X.X].)..XrX].(.)..X.X].].].).{.).]..X{./.{.]./.(./.E.E.E.E.E.E.E.E.E.E.",
"E.H.E.E.E.E.E.E.E.R.E.E.H.E.E.E.).E./.].).E.(.W./.]..X].{.].).(..XrX.X).W..X].W.W.W.W.).W./.).(.E.).W.E.E.E.E.E.E.E.E.E.E.E.R.Z.",
"L.E.E.E.E.E.E.E.E.E.E.E.E.E.E.E.E.E.E.E.E.E.E.E.E.W.].R.]./.W.].{.[.{.(.T.{.E.E.E.E.E.E.E.E.E.E.E.E.E.E.E.E.E.E.E.E.E.E.E.E.E.E.",
"E.E.H.E.E.E.E.E.E.E.E.L.E.E.E.E.E.E.E.E.E.E.E.E.E.E.E.E.E.E.E.E.R.E.E.E.E.E.E.E.E.E.E.E.E.E.E.E.E.E.E.E.E.E.E.E.E.E.E.E.E.E.E.E.",
"E.E.E.E.E.E.E.E.E.E.E.E.E.E.E.E.E.H.E.E.E.E.E.E.E.E.E.E.E.E.E.E.E.E.E.E.E.E.E.E.E.E.E.E.E.E.E.E.E.E.E.E.E.E.E.E.E.E.E.E.E.E.E.E.",
"E.L.E.E.H.E.E.E.E.E.E.E.E.E.E.E.E.E.E.E.E.E.E.E.E.E.E.E.E.E.E.E.E.E.E.E.E.E.E.E.E.E.E.E.E.E.E.E.E.E.E.E.E.E.E.E.E.E.E.E.E.E.E.E.",
"L.E.L.E.E.E.E.E.E.E.E.E.E.E.E.E.E.E.E.E.E.E.E.E.E.E.E.E.E.E.E.E.E.E.E.E.E.E.E.E.E.E.E.E.E.E.E.E.E.E.E.E.E.E.E.E.E.E.E.E.E.E.E.E.",
"E.E.E.E.E.E.E.E.E.E.H.E.E.E.E.E.E.E.E.E.E.E.E.E.E.E.E.E.E.E.E.E.E.E.E.E.E.E.E.E.E.E.E.E.E.E.E.E.E.E.E.E.T.T.E.E.E.E.E.E.E.E.E.E."
};
