/* XPM */
static char *minish_exit_left[] = {
/* columns rows colors chars-per-pixel */
"64 64 229 2 ",
"   c #19191A",
".  c #333717",
"X  c #35372B",
"o  c #241D17",
"O  c #7A0207",
"+  c #640709",
"@  c #4B362A",
"#  c #540E13",
"$  c #184F1C",
"%  c #294D1E",
"&  c #2E571C",
"*  c #17681E",
"=  c #195321",
"-  c #2D552A",
";  c #126925",
":  c #307122",
">  c #4F481A",
",  c #704D13",
"<  c #506114",
"1  c #504A33",
"2  c #796723",
"3  c #636125",
"4  c #312140",
"5  c #382742",
"6  c #312C46",
"7  c #3D2B43",
"8  c #35394C",
"9  c #313F50",
"0  c #422E44",
"q  c #453245",
"w  c #4B3545",
"e  c #493849",
"r  c #533C47",
"t  c #533E4A",
"y  c #503E53",
"u  c #334854",
"i  c #305C5E",
"p  c #33535A",
"a  c #3A484A",
"s  c #306950",
"d  c #345E60",
"f  c #316362",
"g  c #386A64",
"h  c #31736A",
"j  c #317C6E",
"k  c #397867",
"l  c #54424B",
"z  c #594249",
"x  c #5E4A4C",
"c  c #524C4F",
"v  c #574854",
"b  c #465758",
"n  c #585955",
"m  c #454750",
"M  c #614C4C",
"N  c #6B594F",
"B  c #66544D",
"V  c #6D5B52",
"C  c #685759",
"Z  c #725D5A",
"A  c #624C52",
"S  c #57665D",
"D  c #4A655E",
"F  c #746454",
"G  c #7B6B5B",
"H  c #76655A",
"J  c #6C6855",
"K  c #6B5A62",
"L  c #5A6E62",
"P  c #457668",
"I  c #547566",
"U  c #476762",
"Y  c #796866",
"T  c #6C7565",
"R  c #94000E",
"E  c #8C040F",
"W  c #A70018",
"Q  c #B4021D",
"!  c #BA0124",
"~  c #AC0632",
"^  c #9D3031",
"/  c #B92E3D",
"(  c #B32C2D",
")  c #970B25",
"_  c #C5002A",
"`  c #CA032C",
"'  c #DA0137",
"]  c #D0032F",
"[  c #E4013D",
"{  c #EA003F",
"}  c #9D6D08",
"|  c #8F693B",
" . c #AA7437",
".. c #9E6318",
"X. c #E90040",
"o. c #E70843",
"O. c #D7384A",
"+. c #A77A42",
"@. c #837364",
"#. c #8B7A6B",
"$. c #87756A",
"%. c #897877",
"&. c #89766E",
"*. c #A65B42",
"=. c #D05E5D",
"-. c #128F1C",
";. c #13AF1A",
":. c #2EB71E",
">. c #388A24",
",. c #39A625",
"<. c #28AB21",
"1. c #22861C",
"2. c #4D9A2A",
"3. c #23D914",
"4. c #26C719",
"5. c #16E60E",
"6. c #14D111",
"7. c #318271",
"8. c #368A76",
"9. c #3A957C",
"0. c #3B987D",
"q. c #568771",
"w. c #45987A",
"e. c #59997A",
"r. c #4F846E",
"t. c #638D6F",
"y. c #55A57D",
"u. c #67A47B",
"i. c #A59C0A",
"p. c #DBAF03",
"a. c #93836C",
"s. c #948474",
"d. c #9D8C7D",
"f. c #988877",
"g. c #899179",
"h. c #A59076",
"j. c #B9A379",
"k. c #A59652",
"l. c #C6975C",
"z. c #CE866F",
"x. c #D1AB75",
"c. c #94DC79",
"v. c #9CE177",
"b. c #A9E67A",
"n. c #B6E977",
"m. c #C0E870",
"M. c #3C9B80",
"N. c #3EA285",
"B. c #42A483",
"V. c #4AA483",
"C. c #43AC89",
"Z. c #48A984",
"A. c #4AB58C",
"S. c #4DBB8E",
"D. c #47B18B",
"F. c #57B98A",
"G. c #4FBF90",
"H. c #53BF90",
"J. c #56AE86",
"K. c #64AB85",
"L. c #6EBD88",
"P. c #469C80",
"I. c #59C38D",
"U. c #4EC497",
"Y. c #50C090",
"T. c #5CCC94",
"R. c #58C798",
"E. c #58D49F",
"W. c #6BCC86",
"Q. c #77D184",
"!. c #62CD95",
"~. c #63D396",
"^. c #67D798",
"/. c #6BDB99",
"(. c #69D396",
"). c #76DD98",
"_. c #76CF8E",
"`. c #73E39C",
"'. c #7BE59B",
"]. c #7BEB9E",
"[. c #7DE093",
"{. c #48D0A8",
"}. c #51CDA1",
"|. c #61D6AC",
" X c #7FEFA0",
".X c #68E0B8",
"XX c #9B8B86",
"oX c #A49483",
"OX c #AB9A8A",
"+X c #A79586",
"@X c #B19E8B",
"#X c #A89386",
"$X c #B5A28C",
"%X c #BAA692",
"&X c #BDAA95",
"*X c #B8A693",
"=X c #C2AE99",
"-X c #C2AD97",
";X c #C6B19C",
":X c #CAB49E",
">X c #C9BA98",
",X c #D4BA8B",
"<X c #CCB6A0",
"1X c #CEBBA4",
"2X c #C7B7A0",
"3X c #D3BCA5",
"4X c #9BED8C",
"5X c #96ED8F",
"6X c #8EEE96",
"7X c #86EF9C",
"8X c #89EF99",
"9X c #93ED91",
"0X c #83F09E",
"qX c #A4EB85",
"wX c #A8EB82",
"eX c #80F0A0",
"rX c #E5C792",
"tX c #DEC9AF",
"yX c #D8C3AA",
"uX c #D4CAA9",
"iX c #E1CDB2",
"pX c #E4D2B6",
"aX c #EDDCBD",
"sX c #E8D6B8",
"dX c #EAD0AA",
"fX c #ECDBAE",
"gX c #F0E0C0",
"hX c #FAF6CE",
"jX c #F0DFC0",
/* pixels */
"Y.Y.Y.G.Y.Y.Y.G.Y.Y.Y.Y.G.Y.Y.Y.Y.Y.Y.Y.S.Y.Y.Y.Y.Y.Y.Y.Y.Y.H.Y.Y.S.H.W.b.m.n.b.Q.Y.Y.Y.Y.Y.Y.Y.Y.Y.Y.Y.Y.Y.Y.Y.Y.Y.Y.Y.Y.Y.Y.Y.",
"Y.Y.Y.Y.G.Y.Y.Y.Y.Y.Y.Y.Y.Y.Y.H.Y.Y.Y.Y.Y.Y.Y.Y.Y.Y.S.Y.Y.Y.Y.Y.E W R O v.m.m.v.Q.Y.Y.Y.S.Y.Y.Y.Y.Y.Y.Y.Y.Y.Y.Y.Y.Y.Y.Y.Y.Y.Y.Y.",
"Y.Y.Y.Y.G.Y.Y.Y.Y.Y.Y.Y.Y.Y.Y.Y.Y.Y.Y.Y.Y.Y.Y.Y.Y.Y.Y.Y.H.Y.O R _ ` _ W E v.n.c.W.S.Y.Y.Y.Y.Y.Y.Y.Y.Y.Y.Y.Y.Y.Y.Y.Y.Y.Y.Y.Y.Y.Y.",
"Y.Y.G.Y.G.U.Y.Y.G.Y.Y.G.Y.Y.S.Y.Y.Y.Y.Y.Y.Y.Y.Y.Y.Y.Y.Y.G.H.O W ` _ ' ` R Q.Q.W.Y.Y.Y.Y.Y.Y.Y.Y.Y.Y.Y.S.Y.Y.Y.Y.Y.Y.Y.Y.Y.Y.Y.Y.",
"S.Y.Y.U.U.U.Y.Y.Y.Y.Y.Y.Y.Y.Y.Y.Y.Y.Y.Y.Y.Y.Y.Y.Y.Y.Y.Y.Y.Y.O E W E ! ] Q F.Y.Y.Y.Y.Y.Y.Y.Y.Y.Y.Y.Y.Y.Y.Y.S.Y.Y.S.Y.Y.Y.Y.Y.Y.Y.",
"Y.Y.Y.U.{.{.Y.Y.S.Y.Y.Y.Y.Y.Y.Y.S.Y.Y.Y.Y.Y.Y.Y.Y.Y.Y.Y.Y.Y.# + O # ) [ ] W Y.Y.Y.Y.Y.Y.Y.Y.Y.Y.Y.Y.Y.Y.Y.Y.U.N.N.Y.Y.Y.Y.Y.Y.Y.",
"Y.Y.Y.U.{.{.U.Y.Y.Y.S.Y.Y.Y.Y.Y.Y.Y.Y.Y.Y.Y.Y.Y.Y.Y.Y.|.R.Y.o + E + ~ [ [ Q R Y.Y.Y.Y.Y.Y.Y.Y.Y.Y.Y.Y.Y.Y.Y.N.Y.U.Y.Y.Y.Y.Y.Y.A.",
"Y.Y.Y.U.U.U.G.G.Y.Y.|.|.R.Y.Y.Y.Y.Y.Y.Y.Y.Y.Y.Y.Y.Y. .U.U.Y.O R ! ] ' [ [ ` W Y.Y.Y.Y.S.Y.Y.Y.Y.Y.Y.Y.Y.Y.S.N.Y.Y.Y.Y.Y.Y.Y.Y.S.",
"Y.Y.Y.Y.G.Y.G.G.Y.R..X.XR.Y.Y.Y.Y.Y.Y.Y.Y.Y.Y.Y.Y.Y.x.*.G.Q _ ` ' X.X.X.{ ' ! E Y.Y.Y.Y.Y.Y.Y.Y.Y.Y.Y.Y.U.Y.N.Y.Y.Y.Y.Y.Y.Y.Y.Y.",
"G.S.G.Y.Y.Y.Y.G.Y.R.|.|.R.U.Y.Y.Y.Y.Y.Y.Y.Y.Y.Y.Y.Y.z.( W _ [ { X.X.X.X.{ { ` E Y.Y.Y.Y.S.Y.Y.Y.Y.Y.Y.Y.Y.Y.U.Y.Y.Y.Y.U.Y.Y.Y.Y.",
"G.Z.A.Y.Y.Y.G.G.Y.Y.Y.Y.Y.Y.Y.Y.Y.Y.Y.Y.Y.Y.Y.Y.Y.Y.) ` ' X.{ { X.X.X.X.{ { _ R Y.Y.Y.Y.Y.Y.Y.Y.Y.Y.Y.Y.Y.Y.U.Y.Y.A.N.U.0.D.Y.Y.",
"C.S.G.G.Y.Y.U.G.Y.Y.Y.Y.Y.Y.Y.Y.Y.Y.Y.Y.Y.Y.Y.Y.Y.Y.W ] X.X.o.{ X.X.X.X.{ { ` Q Y.Y.Y.Y.Y.Y.Y.Y.Y.Y.Y.Y.Y.Y.T.N.A.S.N.N.Y.Y.Y.Y.",
"N.S.U.S.Y.Y.Y.E.E.Y.Y.Y.Y.Y.Y.Y.Y.Y.Y.Y.Y.Y.Y.U.U.U.Q ] { { { { X.X.o.o.X.X.] Q Y.Y.Y.Y.Y.Y.Y.Y.Y.Y.Y.Y.Y.Y.Y.A.A.Y.N.N.Y.Y.Y.Y.",
"A.G.Y.Y.Y.Y.Y.R.R.Y.Y.Y.Y.Y.Y.Y.Y.Y.Y.Y.Y.Y.Y.{.{.{.) ` [ [ o.{ X.X.o.o.[ ' ` Q 0.w.Y.Y.Y.Y.Y.Y.Y.Y.Y.Y.Y.Y.Y.N.Y.Y.N.A.Y.Y.Y.Y.",
"S.Y.Y.Y.Y.Y.S.Y.Y.Y.Y.Y.Y.Y.Y.Y.T.Y.Y.Y.Y.~.Y.U.}.E.# ) ] [ o.o.o.o.o.' ! ` ( ^ @     Y.K.K.F.U.Y.T.I.Y.Y.Y.Y.Y.Y.Y.D.Y.Y.Y.Y.Y.",
"Y.Y.Y.Y.Y.Y.Y.Y.U.S.Y.Y.Y.Y.Y.Y. XT.U.T.!.`.T.T.^.^., *.O.` ' O.=.^ / O.=.=.z.h.a.a.J 1 g.h.g.F.Y.`.~.T.Y.Y.Y.Y.Y.Y.Y.Y.Y.Y.Y.I.",
"Y.Y.Y.Y.Y.Y.S.Y.S.Y.Y.Y.Y.Y.Y.U. XT./. X`.U.].0X^.T. .x.z./ / =.OXX 2 x.rXdXdXdXuX=Xh.1   iXoXJ  XT./. X`.Y.Y.Y.Y.Y.Y.Y.Y.Y.W.v.",
"Y.Y.Y.Y.Y.Y.Y.Y.U.T.`.Y.Y.^.'.`.T.`.]. X X`. X X].L. .,XaXdXyXh.1 X s.fXrXx.l.k.3 1 1 X @X3X#Xn Y.0.9.I.`.Y.Y./.~.Y.Y.Y.Y.Y.W.c.",
"Y.Y.Y.Y.Y.Y.Y.~.!.T.eX/./.'. X X/. X X0X X X Xu.I S 3 $XgXhXhXuXs.a.j.x.l. . .b P I T K XXOX#.v 8.0.0.w.F./.`.]./.I./.Y.Y.Y.I.W.",
"Y.Y.Y.Y.Y.Y.Y.~././.eXeX9X6X X X X X X X[.e.e.n C %.X @.-X,XrXrX>Xj.k.k.| 2 2 K y 0 w C $.@.T q.7.9.0.9.w.5X0XeX`.^.^.Y.Y.Y.Y.Y.",
"Y.Y.Y.Y.Y.Y.Y.R./.eXeXeXqX5X X7XeXeXeX).u.7 v Y -XaX; % @ 1 | +.| 1 : 2.2.>.: :X%.v 5 4 C A T `.0.w.w.M.u.wX0X0X X`.T.Y.Y.Y.Y.Y.",
"Y.Y.Y.Y.Y.Y.Y./.7X7X0XeXeX].].'.'.'.0Xe.7 G iXgXaX<.;.1.: & @ < < . - 2.,.:.;.,.3Xd.t 5 4 4 U ].].]. X XeXeXeX0X0X X].I.Y.Y.Y.Y.",
"Y.Y.Y.~.`.Y.`. X5Xn.n.7XeX~.e.n 8 e 8 c @.iXaXpX:.3.5.:.>.: % : >.* - >.,.3.5.4.,.3X%.A 5 4 6 a a P./. XeX X XqXn.b. X].T.^./.Y.",
"Y.Y.Y.I.~./. X X4Xm.n.8X^.e.L %.Y Y e C -XaXiX:.4.5.5.:.& % : ,.,.>.% % >.4.5.6.:.<X3X@Xy v K C @ u r.A.~.^.].b.n.b. X X`./.(.Q.",
"Y.Y.Y.Y./. X X X6XqX4X0Xu.S Y OXOXK l Y sXjXyX@X;.;.-.* $ * ;.5.3.3.-.= % -.;.;.<.&XjXpXK l H &.Z c a h B.S.].5XqX5XeXeXeX^.T.W.",
"Y.Y.T.^.]. X X8X8X X X0XL M @.h.oXy y oXaXsXyXoX$.* - < < * ;.5.5.6.-.& < & = ; &X:XsXgX%.e y @.@.V e u 7.N.'.0X X0XeXeXeX`.~.T.",
"Y.Y.^./.~. X XqX4X0X8X Xb z H &.a.e K &XaX3X3Xs.d.:X. i.i.% * ;.6.-.$ < i.2 o &X&X3XyXaX@Xv w V l l 7 u 7.8./.0X0X0X XeX8X0X].`.",
"Y.Y.Y.~. XeX X0X0X6Xn.8Xb q z A J 7 XXgXpX@X3X%.h.:X. i.p., . * -.$ > } p., o OX@X:X$XaXaX%.0 c j c 7 u 7.7.F.v.4X0X X Xb.4X/.Y.",
"Y.Y.~.]. X X X0X0X0X6X0XL @ 8 g 7 5 XXgXsXOX1XOX$X=X- ..} , - s s - > } i., <XoX@X-X#.sXaX%.4 5 8 d n D 8.N.S.).8X0X X0X8X7X X/.",
"^.T./. X X X X X0X X X0XK.g p u 4 4 XXgXpXOX1X2X3X;X7.a X - k w.0.r.s X % h.<Xf.+X$X@.dXjX%.4 4 4 h k r.M.C.^.].9XqX4X0X0X X X].",
"/.^.^.`.0X X0X0X X X X0XT.Z.h 9 4 4 XXgXpX*X=XyX3XXXr P k k w.B.B.V.r.g #.OX%X@.XX-Xs.sXjX%.4 4 7 g 7.M.S.I.].eXqXn.n.0X X X]./.",
"Y./.^.^. X X X X X0X X)._.J.8.f 4 4 XXsXaXtX@XuXOXC Z #.V.V.y.B.V.V.V.V.3X:Xf.@.#X2X*XjXjXY 4 5 r g 8.M.I. X0X0X4Xn.b.0X8X0X`.T.",
"Y.Y./.eXeXeXeXeXeX0X7XB t q 4 4 4 4 Y 2XjXjX*X:X&X*X3XOXs.@.v 5 t @.d.-X:X+Xs.oX-X3XyXjXtXY 4 4 4 4 4 0 L 0X0X X0X XeXeXn.4X0X'.",
"Y./. XeXeXeXeX XeX_.n r H &.%.Y r 5 K &XjXaX3X%X&X;X$XOX3XtXXXe %X:X<X=X@XOXoX&X3XtXjXjX@XC 4 5 e v A t e S [.0X X XeXeX0X0X X].",
"/.^.`. XeXeX X XL.T @.XXoX@X%Xf.B 7 l %.1XjXsX3X1X3X=X;X2X=X%.q s.@X<X3X;X:X;X3XiXsXjXjXY 0 4 5 z B G H x z T _.eXeXeXeX X X X].",
"^.T./.eXeXeX0X Xu.C d.3X;X<X=Xf.F 0 7 C OXpXaXsXtX3X=X*XoXoX&.t f.%X<X<X=X=X3XtXsXjXaX<Xv 5 7 5 z V @.$.H M e e.`. XeXeX X X X].",
"Y.T.`.8X8X X X Xu.C XX;X<X:X@X@.V 7 X y %.;XpXaXsX3X*XoXs.s.&.V -X=X:X=X*X&XyXaXaXpX1X$.e q q 5 z N @.#.#.B 5 j I.`.eXeX XeXeX].",
"U.`. X9Xn. X X0XL.P H d.oXf.@.B t 5 4 4 q &.=XiXaXjXjXyX#X&.H G f.f.oX&XtXjXaXaXiX%X$.t 5 q w 5 z B @.#.@.r 5 f 0.Y.eXeX XeX X X",
"]. X X0X0X0X X0X~.w.J F G V M t r 5 4 4 4 0 x &.*XiXjXjXsXsX3X3XpXsXsXaXjXjXtX@X&.C 5 4 4 q q 4 5 t x M z z t g 7.Z.eXeXeXeX0X X",
"]. X X0X0X XqX9X!.e.@.F I L w 7 5 4 4 4 w q 0 e C $.f.%X3XaXjXjXgXgXsX:X+X#.K v e 0 4 4 4 5 4 4 4 w r w e g B P 7.y.8XwX8X XeX X",
"^.]. X X X X4X8X^.V.t.t.I b 7 6 u 6 4 0 r M w q q w y K Y %.%.%.%.%.%.Y v e 4 4 4 5 0 4 4 4 4 4 4 0 D a 8 7.P k 8.D.0XqX0XeXeXeX",
"Y.^.].0X0X5X9X8X).H.9.D.L r 7 9 d 6 5 q M V M r w 5 4 0 0 5 5 4 4 7 7 5 4 4 4 4 4 5 r 0 5 X 4 4 9 6 g g 8 j 7.7.9.Y.eXeXeXeXeX X",
"Y.I./. X8Xm.m.4XeX`.R.A.t.J D h 4 4 y A M N r r r w 5 r r r w 4 4 r t e 4 4 4 4 4 0 r r z e 6 6 j 9 i U b 7.7.7.0.Y.0XeXeXeXeX'.",
"Y.`. X X8Xm.m.5XeXeXeXeX7X).(.M.6 e Z @.N M r 0 0 w 5 r t q 4 4 4 r t q 4 4 4 q 0 0 z t B M q 6 7.j j 7.j 7.7.0.D.T.0XeXeX X X X",
"U.`.eX X0X8X9X0X9XwXwX8XeX!.P.b %.@X-X@X#.@.A r q X 4 r l 7 4 4 4 w 0 4 4 4 4 e r t V @.#.@.Z e 8 h j j 8.N.D.A.~.].eXeXeXeXeXeX",
"Y.~.'. X8XwX8X0XqXm.m.8XeXK.L Y 3X3X:X-X-Xd.@.A r q q 0 0 4 4 4 4 7 4 4 4 4 4 7 t V @.d.XXd.s.V q u f 8.B.~././.`.eXeXeXeXeX X].",
"Y.T.^.`.8XqX8XeX9XqXqXeX`.t.Z @XpX<X-X%X-X#X$.A t r 0 4 4 4 4 4 4 4 4 4 6 p 7 4 t G s.+XOX+Xd.#.M 5 i N.~. XeXeX X X X X X X]./.",
"T./.^./.eXeXeXeXeXeXeXeXR.q.Y +X<X+X%X-XoXf.Z M r q 4 4 6 6 4 6 4 4 4 6 8 w.S q t F #.d.+X+Xd.@.N 7 i Z.].eXeXeXeX X X X X]./.!.",
"].T.^. X0X X X0X X0X X XT.S.e.s.+XG s.d.$.V M r q 4 4 4 f p u h X 4 i i 5 c J.S z x F #.d.f.@.B z 4 d M.Y. X X X X X]. X X~.~.`.",
"T.Y./.`.T. XT.`. X6Xn.0XT.q.I K.a.H J F x x y 0 5 4 4 4 f b b j f h j j d 5 M.S I q.x F G F N l X 4 i j y.eX XqX5X X].T.].~.~.].",
"Y.Y.T.^./.~./.]. X0X9X0X!.w.g U K.C I L r 5 5 u i u 4 p h k k j j M.0.8.h f 8.u d P x e.S M x l i 6 i j w.eX X9X8X]. X`.~.T.Y.T.",
"Y.Y.T.^.^.Y.~.].].`. X X/.A.j g A.c p g b X 9 p f h p 8.0.Z.V.9.M.S.!.H.F.J.P.k g 7.P P D D m a j p h 7.Z. X X X].`.]./.Y.Y.T.~.",
"Y.Y.~.^.Y.T.T./.~.T. X0X7X~.A.C.N.d u p h a h i i 7.8.N.R.`.`.G.R. X X X0X9XQ.I.y.0.0.u h 7.f u j M.8.B.R.eX X X^.T.`.T.T.T.T./.",
"Y.Y.Y.Y.T.].].~.Y.!.]. X X X'.Y.D.D.9.7.7.7.7.7.7.M.N.S.'. XeXeXeXeXeX X9Xm.n.5X/.Y.C.7.7.8.7.8.7.N.A.T. X X X X^.Y.T.]. X~.Y.Y.",
"Y.Y.Y.Y.Y.R.Y.Y.~.`.R.].~./. X].].].T.S.D.N.N.A.T. X X XqX4X0XeX X XeXeX6Xm.m.5X].`.S.N.0.S.Y.I. X X X X'.R.].~.^./.Y.Y.Y.Y.Y.Y.",
"Y.!.I.U.Y.Y.Y.Y.U.T.G.T./.].eXeX0X X`.`.`.^./.`. X X X X6X0XeXeX X7X).|.0X9X9X0X X].`./././.`.`. X X X X X/.!.U.T.T.Y.Y.Y.Y.Y.Y.",
"G.T.Y.Y.S.Y.Y.Y.Y.Y.Y.Y.T./.^./. X/.`. X].^.]./.`. X X X X X`./. X X`.^./. X X`.`.`.^. X/.]. X].^.].`.^.~.~.Y.Y.Y.Y.Y.Y.Y.Y.Y.S.",
"Y.Y.Y.Y.Y.Y.Y.Y.Y.Y.Y.Y.Y.Y.Y.Y./.Y.~.`.^.Y./.T.~.`. X`.].]./.^. X X X/.T. X`.T.T.~.I./.U.~././.Y.^.T.Y.Y.Y.Y.Y.Y.Y.Y.Y.Y.Y.Y.S.",
"G.Y.Y.Y.Y.Y.Y.Y.Y.Y.Y.Y.Y.Y.Y.Y.Y.Y.Y.Y.Y.Y.Y.Y.Y.T.].Y./.~.T.`.].'.'.^.T.`.U.Y.Y.Y.Y.Y.Y.Y.Y.Y.Y.Y.Y.Y.Y.Y.Y.Y.Y.Y.Y.Y.Y.Y.Y.Y.",
"Y.Y.Y.Y.Y.Y.Y.Y.Y.Y.Y.Y.Y.Y.Y.Y.Y.Y.Y.S.Y.Y.Y.Y.Y.Y.Y.Y.Y.Y.Y.Y.Y.Y.Y.Y.Y.Y.Y.Y.Y.Y.Y.Y.Y.Y.Y.Y.Y.Y.Y.Y.Y.Y.Y.Y.Y.Y.Y.Y.Y.Y.Y.Y.",
"Y.Y.Y.Y.Y.Y.Y.Y.Y.Y.Y.Y.Y.Y.Y.Y.Y.Y.Y.Y.Y.S.Y.Y.Y.Y.Y.Y.Y.Y.Y.Y.Y.Y.Y.Y.Y.Y.Y.Y.Y.S.Y.Y.Y.Y.Y.Y.Y.Y.Y.Y.Y.Y.Y.Y.Y.Y.Y.Y.Y.Y.Y.Y.",
"Y.G.G.Y.Y.Y.Y.Y.Y.Y.Y.Y.Y.Y.Y.Y.Y.Y.Y.Y.Y.Y.Y.Y.Y.Y.Y.Y.Y.Y.Y.Y.Y.Y.Y.Y.Y.Y.Y.Y.Y.Y.Y.Y.Y.Y.Y.Y.Y.Y.Y.Y.Y.Y.Y.Y.Y.Y.Y.Y.Y.Y.Y.Y.",
"Y.G.Y.Y.Y.Y.Y.Y.Y.Y.Y.Y.Y.Y.Y.Y.Y.Y.Y.Y.Y.Y.Y.Y.Y.Y.Y.Y.Y.Y.Y.Y.Y.Y.Y.Y.Y.Y.Y.Y.Y.Y.Y.Y.Y.Y.Y.Y.Y.Y.Y.Y.Y.Y.Y.Y.Y.Y.S.Y.Y.Y.Y.Y.",
"Y.Y.Y.Y.Y.Y.S.Y.Y.Y.Y.Y.Y.S.Y.Y.Y.Y.Y.Y.Y.Y.Y.Y.Y.Y.Y.Y.S.Y.Y.Y.Y.Y.Y.Y.Y.Y.Y.Y.Y.Y.Y.Y.Y.S.Y.Y.Y.Y.Y.Y.Y.I.Y.Y.Y.Y.Y.Y.Y.Y.Y.Y."
};
