/* XPM */
static char *minish_down_left[] = {
/* columns rows colors chars-per-pixel */
"64 64 200 2 ",
"   c #60E0C8",
".  c #80F0A0",
"X  c #308070",
"o  c #40A888",
"O  c #50C090",
"+  c #68E0B8",
"@  c #38B0B8",
"#  c #48D0A8",
"$  c #80F8C8",
"%  c #78D0A0",
"&  c #98D8B8",
"*  c #D8F0D8",
"=  c #85010A",
"-  c #A90017",
";  c #94000E",
":  c #7B0105",
">  c #A30115",
",  c #C5002A",
"<  c #CC012D",
"1  c #AB001A",
"2  c #DA0034",
"3  c #980010",
"4  c #77040A",
"5  c #8B0311",
"6  c #B90125",
"7  c #D60033",
"8  c #450E0E",
"9  c #640709",
"0  c #970B25",
"q  c #DD003A",
"w  c #A3011B",
"e  c #38100D",
"r  c #6F0C20",
"t  c #AC0632",
"y  c #E4013D",
"u  c #B3001D",
"i  c #A77236",
"p  c #CA0233",
"a  c #E90040",
"s  c #C8A275",
"d  c #A65B42",
"f  c #EA003F",
"g  c #BD0022",
"h  c #C7836C",
"j  c #B42D3B",
"k  c #9A171C",
"l  c #C5082A",
"z  c #D2032E",
"x  c #B6051E",
"c  c #580E10",
"v  c #E80B44",
"b  c #E40240",
"n  c #DA0939",
"m  c #B32C2D",
"M  c #9C3F23",
"N  c #523120",
"B  c #19191A",
"V  c #1F1E22",
"C  c #624819",
"Z  c #A05638",
"A  c #CE3841",
"S  c #E03754",
"D  c #DC5B6F",
"F  c #9E203E",
"G  c #CC4F4A",
"H  c #D0564E",
"J  c #CF655E",
"K  c #B09171",
"L  c #938567",
"P  c #7F7761",
"I  c #6E634D",
"U  c #5C513E",
"Y  c #CCA36D",
"T  c #DB8D75",
"R  c #BE2F3E",
"E  c #C8736C",
"W  c #AA9C86",
"Q  c #433A33",
"!  c #7C6144",
"~  c #D0A773",
"^  c #E5C089",
"/  c #EAD3A4",
"(  c #E7D3A9",
")  c #CEC7A5",
"_  c #CBBA92",
"`  c #A7946F",
"'  c #534935",
"]  c #D4BA8B",
"[  c #F3DDB9",
"{  c #EAC3A7",
"}  c #474437",
"|  c #2A2925",
" . c #8E866E",
".. c #E5CA96",
"X. c #D9B57B",
"o. c #C6975C",
"O. c #A77A42",
"+. c #6D583A",
"@. c #3C3A31",
"#. c #674E30",
"$. c #B8A788",
"%. c #FAECBD",
"&. c #FCF9D0",
"*. c #F7F3CB",
"=. c #928B74",
"-. c #B9A379",
";. c #B47D3D",
":. c #2F3F28",
">. c #7F7759",
",. c #C5BC9B",
"<. c #DECA9E",
"1. c #AB9A5E",
"2. c #9F9245",
"3. c #897133",
"4. c #796723",
"5. c #156527",
"6. c #294D1E",
"7. c #92653F",
"8. c #476D2D",
"9. c #509A2B",
"0. c #398725",
"q. c #287C23",
"w. c #2BB120",
"e. c #14B218",
"r. c #22861C",
"t. c #2E6221",
"y. c #365F1B",
"u. c #45401A",
"i. c #55561F",
"p. c #536921",
"a. c #242C19",
"s. c #295A20",
"d. c #479A28",
"f. c #3CA426",
"g. c #29B51C",
"h. c #1EB91A",
"j. c #37A324",
"k. c #32B91F",
"l. c #24D715",
"z. c #18E210",
"x. c #336B22",
"c. c #27571E",
"v. c #367F24",
"b. c #21DB13",
"n. c #26C719",
"m. c #37AB23",
"M. c #15E60E",
"N. c #359622",
"B. c #1FCB15",
"V. c #14D711",
"C. c #13A91C",
"Z. c #0FA81C",
"A. c #14951C",
"S. c #17681E",
"D. c #154E1D",
"F. c #165822",
"G. c #1E4A20",
"H. c #13881C",
"J. c #24A421",
"K. c #486116",
"L. c #0DB017",
"P. c #12F10A",
"I. c #0FD110",
"U. c #0C891D",
"Y. c #586013",
"T. c #0F6C23",
"R. c #373A17",
"E. c #99970B",
"W. c #354717",
"Q. c #1D521B",
"!. c #B5AB07",
"~. c #716915",
"^. c #192C1A",
"/. c #AD9709",
"(. c #D4A603",
"). c #7E520D",
"_. c #524214",
"`. c #A87506",
"'. c #E2B802",
"]. c #72600F",
"[. c #201B14",
"{. c #314F34",
"}. c #9C6905",
"|. c #404D2F",
" X c #247145",
".X c #5F4D20",
"XX c #915D09",
"oX c #9D700A",
"OX c #397A63",
"+X c #395941",
"@X c #343728",
"#X c #439979",
"$X c #439275",
"%X c #3A604B",
"&X c #49A483",
"*X c #3D8970",
"=X c #316C5C",
"-X c #98E078",
";X c #68C878",
":X c #C0E870",
/* pixels */
"    . . X o O O O O O O O O O O O O O O O O O O O O O O O O O O O O O O O O O O O O O O O O O O O O O O O O O O O O O O O O O O ",
"    o X . o O O O O O O O O O O + + O O O O O O O O O + O O O O O O O + O O O O O O O O O O O O O O O + O O O O O O O O O O O O ",
"      @ o . O O O O O O O O O O + + O O O O O + O O O O O O O O O O O O O O O O O O O O o O O O O O O O O O O O O O O O o O O O ",
"    O . O O O O O O O O O O O O O O # + + # O O O O O O O O O O O O O O O O O O O O O o o O O O O O O O O O O O O O O o o O O O ",
"      o . O O O O O O O O O O O O O + $ $ + O O O O O O O + + O O O O O O + + O O O O O O O o O O O O O O + + O O O O O O O o O ",
". . O O . O O O O O O O O O O O O O + $ $ + O O O O O O O + + O O O O O O + + O O O O O O O O O O O O O O + + O O O O O O O O O ",
"O O . . O O O O O O O O O O O O O O # + + # O O # # O O O O O O # # O O O O O O O o O O O O O O # # O O O O O O O o O O O O O O ",
"O O O O O O O O O O O O O O O O + O O O O O O O # # O O O O O O # # O O O O O O O O O O O O O O # # O O O O O O O O O O O O O O ",
"O O O O O O O O O O O O O O O O O O O O O O O O O O O O O O % O O O O O O O O O O O O O O O O O O O O O O O O O O O O O O O O O ",
"O O O O O O O O o O O o O O O O O O O O O O % O O O O & & O O O O o O O O O O O O O O O O O % O O o O O O O O O O O O O O O % O ",
"O O O O O O O O O o O o O o O O O O O O O O O O O O & * * & O O O O O O O O O O O O O O O O O O O O O O O O O O O O O O O O O O ",
"O O O O O O O O O o o O O o O O O O & & O O O O O O & * * & O O O O O O O O o O O O & & O O O O O O O O O O o O O O & & O O O O ",
"O O O O O O O O O O o O O O O o O O & & O O O O O O O & & O O O O O O o o O O O O O & & O O O O O O O o o O O O O O & & O O O O ",
"O O O O O O O O O O O O O O o O O O O O O O O O O O O O O O O % O O O O o O O O O O O O O O O O O O O O o O O O O O O O O O O O ",
"O O O O O O O O O O O O O O o O O O O O O O O O & & O O O O O O O O O O O O O O O O O O O O O O O O O O O O O O O O O O O O O O ",
"O O O O O O O O O O O O O O O O O O O O % O O O & & O O O O O O O O O O O O O O O O O O % O O O O O O O O O O O O O O O % O O O ",
"& & O O O O O O O O O O O O O O O O O O O O O O O O O O O O O = - ; : O O O O O O O O O O O O O O O O O O O O O O % O O O O O O ",
"& & O O O O O O O O O O O O O O O O O O O O O O O o O O O : > , < , 1 = O O O O O O O O O O O O O O O O O O O O O O O & & O O O ",
"O O O O O O O % O O O O o O O O O O O O O O O O O O O O O : > < , 2 < 3 o O O O O O O O O O O O O O O O o O O O O O & * * & O O ",
"O O O & & O O O O O O o o O O O O O O O O O O O O O O O O 4 ; 1 5 6 7 6 o O O O O O O O O O O O O O O o o O O O O O & * * & O O ",
"O O & * * & O O O O O O O O o O O O O O O O O O O O O O O 8 9 : 8 0 q 7 w O o O O O O O O O O O O O O O O O o O O O O & & O O O ",
"O O & * * & O O O O O O O O O O O O O O O O O O O O O O O e 9 = r t y y u ; O O O O O O O O O O O O O O O O O O % O O O O O O O ",
"O O O & & O O O O o O O O O O O O O O O O O O O O i O O O 4 5 u p q y a , - O O O O O O O O O O O o O O O O O O O O O O O O & & ",
"O O O O O O % O O O O O O O O O O O O O O O O O o s d O u , < 2 f a a f q g ; O O O O O O O O O O O O O O O O O O O O O O O & & ",
"O O O O O O O O O O O O O O O O O O O O O O O O O h j 1 , y a a a a a a a , = & O O O O O O O O O O O O O O O O O O O O O O O O ",
"O O O O O O O O O O O O O O % O O O O O O O O O O k l q y a a a a a a a a , ; & O O O O O O O O O O O O O O O O O O O O O O O O ",
"O O O O o O O O O O O O O O O O O O O O O O O O O > z a a a a a a a a a a < - O O O O O O O O O O O O O O O O O O O O O o O O O ",
"O O O o o O O O O O & & O O O O O O O O O O O O O x 7 a a a a a a a a a a 7 6 O O O O O O O O O O O O O O O O O O O O o o O O O ",
"O O O O O O o O O O & & O O O O O O O O O O O O O w < y a a f f a a y y q < x O O O O O O O O O O O O O O O O O O O O O O O o O ",
"O O O O O O O O O O O O O O O O O O O O O O O O O c 0 z y y v v b y n l l m M N B V O O O O O O O O O O O O O O O O O O O O O O ",
"O o O O O O O O O O O O O O O O O O O O O O O O & C Z A < z S D F j G H J h K L P I U O O O O O O O O O O O O O O o O O O O O O ",
"O O O O O O O O O O O O % O O O O O O O O O O O & i Y T R R E W Q ! ~ ^ / ( ( ) _ ` ' B O O O O O O O O O O O O O O O O O O O O ",
"O O O O O O O O O O O O O O O O O O O O O O O O O i ] [ { { ` } |  .( ..X.o.O.+.} @.@.O O O O O O O O O O O O O O O O O O O O O ",
"O O O O O O O O O O O O O O O O O O O + O O O O O #.$.%.&.*.) =.L -.X.o.;.i O O O O O O O O O O O O O O O O % O O O O O O O % O ",
"O O O O o O O O O O O O O O O O O O O O O O O O O :.>.$.,.<..._ -.1.2.3.4.4.O O O O O O o O O O O O O O O O O O O O O O O O O O ",
"O O O o o O O O O O O O O O O O O O O O O O O O O 5.6.@.' 7.O.7.' 8.9.9.0.q.O O O O O o o O O O O O & & O O O O O O & & O O O O ",
"O O O O O O o O O O O O O O O O O O O O O + + O w.e.r.t.y.u.i.p.a.s.d.f.g.h.j.O O O O O O O o O O O & & O O O O O O & & O O O O ",
"O O O O O O O O O O O O O O O O O O O O O + + k.l.z.k.0.x.6.x.0.c.s.v.f.b.z.n.m.O O O O O O O O O O O O O O O O O O O O O O O O ",
"O o O O O O O O O O O O O O O O # # O O O O m.n.M.z.g.x.6.q.j.f.N.c.6.0.B.M.V.k.O o O O O O O O O O O O O O O O O O O O O O O O ",
"O O O O O O O O O O O O O O O O # # O O O O O C.Z.A.S.D.S.h.b.l.l.A.F.G.H.Z.Z.J.O O O O O O O O O O O O % O O O O O O O % O O O ",
"+ O O O O O O O O O O O O O O O O O O O O O O O 5.s.K.K.S.L.M.P.I.U.c.Y.y.F.T.O O O O O O O O O O O O O O O O O O O O O O O % O ",
"O O # + + # O O O O O O O O O O O % O O O O O O O R.E.E.W.S.L.I.H.Q.Y.!.~.^.O O O O O O O O % O O O O O O O O O O O O & & O O O ",
"O O + $ $ + O O O O O O O O O O O O O O O O O O O R./.(.).R.T.A.D._.`.'.].[.O O O O O O O O O O O O O O O O O O O O & * * & O O ",
"O O + $ $ + O O O O O O O O O O O O O O & & O O O {.4.}.).|. X X{..XXXoXC O o O O O & & O O O O O O O O O O O O O O & * * & O O ",
"O O # + + # O O O O O O O O O O O O O O & & O O O OX+X@X{.OX#X#X$X%X@XR.o O O O O O & & O O O O O O O O O O O O O O O & & O O O ",
"+ + O O O O O + O O O O O O O O O O O O O O O O O O OXOXOX#X&X&X&X*X=XO o O O O O O O O O O O O O O O O O O O O O O O O O O O % ",
"+ + O O O O O O O O O O O O O O O O O O O O O O # # O &X&X&X&X&X&X&X&XO O O O O O O O O O O O O O O O O O O O O & & O O O O O O ",
"O O O O O O O O O O O O O O O O O O O % O O O O # # O O O O O O O O O O O O O O O O O O % O O O O O O O O O O O & & O O O O O O ",
"O O O O O O O O O O O O O O O O O O O O O O O O O O O O O O O O O O O O O O O O O O O O O O O O O O O O O O O O O O O O O O O O ",
"O O O O O O O O O O O O O O O O O O O O O O O O -X-XO O O O O O O O O O O O O O O O O O O O O O O O O O O O O O O O O O O O O O ",
"O O O O O O O O O O O O O O O O O O O O O O O O -X-XO O O O O -XO O O O O O O O O O O O O O O O O O O O O O O O O O O O O O O O ",
"O O O O O O O O O O O O O O O O O O O O O O O O O O ;X-X-X;XO O O O O O O O O O O O O O O O O O O O O O O O O O O O O O O O O O ",
"O O O O O O O O O O O O O O O O O O O O O O O O O O -X:X:X-XO O O O O O O O O O O O O O O O O O O O O O O O O O O O O O O O O O ",
"O O O O O O O O O O O O O O O O O O O O O O O O O O -X:X:X-XO O O O O O O O O O O O O O O O O O O O O O O O O O O O O O O O O O ",
"O O O O O O O O O O O O O O O O O O O O O O O O O O ;X-X-X;XO O O O O O O O O O O O O O O O O O O O O O O O O O O O O O O O O O ",
"O O O O O O O O O O O O O O O O O O O O O O O O -XO O O O O O O O O O O O O O O O O O O O O O O O O O O O O O O O O O O O O O O ",
"# # O O O O O O O O O O O O O O O O O O O O O O O O O O O O O O O O O O O O O O O O o O O O O O O O o O O O O O O O O O O O O O ",
"# # O O O O O O O O O O O O O O O O O + O O O O O O O O O O O O O O O O O O O O O o O O O O O O O o O O O O O O O O O O O O O O ",
"O O O O O + + O O O O O O O O O O O O O O O O O O O O O O O O O O O O O O O O O O o O O O O O O O o O O O O O O O O O O O O O O ",
"O O O O O + + O O O O O O O O O O O O O O O O O O O O O O O O O O O O O O O O O O O O O O O O O O O O O O O O O O O O O O O O O ",
"O O O O O O O O O O O O O O O O O O O O O + + O O O O O O O O O O O O O O O O O O O O O o O o O O O O O o O o O O O O O O O O O ",
"O O O O O O O O O O O O O O O O O O O O O + + O O O O O O O O O O O O O O O O O O O o O o o O O O O o O o o O O O O O O O O O O ",
"O O O + O O O O O O O O O O O O # # O O O O O O O O O O O O O O O O O O O O O O O O o O o o O O O O o O o o O O O O O O O O O O ",
"O O O O O O O O O O O O O O O O # # O O O O O O O O O O O X X O O O O O O O O O O O O O o O O O O O O O o O O O O O O O O O O O "
};
