/* XPM */
static char *minish_left_left[] = {
/* columns rows colors chars-per-pixel */
"64 64 196 2 ",
"   c #60E0C8",
".  c #80F0A0",
"X  c #308070",
"o  c #40A888",
"O  c #50C090",
"+  c #68E0B8",
"@  c #38B0B8",
"#  c #48D0A8",
"$  c #80F8C8",
"%  c #78D0A0",
"&  c #98D8B8",
"*  c #D8F0D8",
"=  c #760101",
"-  c #93000C",
";  c #A50013",
":  c #7B0002",
">  c #AA001A",
",  c #C6002B",
"<  c #D0002D",
"1  c #B50022",
"2  c #C30024",
"3  c #C90234",
"4  c #B70536",
"5  c #E5003E",
"6  c #9E0113",
"7  c #6B0B19",
"8  c #4A111F",
"9  c #D3023B",
"0  c #CA002C",
"q  c #9B000F",
"w  c #3A1114",
"e  c #420E0D",
"r  c #77050E",
"t  c #DA0139",
"y  c #5E0B13",
"u  c #80071A",
"i  c #BC0023",
"p  c #E90041",
"a  c #870006",
"s  c #D60034",
"d  c #D90036",
"f  c #B3011B",
"g  c #880009",
"h  c #AC6C38",
"j  c #D38162",
"k  c #D26D53",
"l  c #DA3645",
"z  c #E9003D",
"x  c #AF0222",
"c  c #4B0E13",
"v  c #AA722F",
"b  c #C19557",
"n  c #ECD9A4",
"m  c #D9C295",
"M  c #D87962",
"N  c #E24052",
"B  c #EF5C73",
"V  c #B02245",
"C  c #B21A38",
"Z  c #C54C44",
"A  c #BB3C31",
"S  c #8D1F15",
"D  c #231A16",
"F  c #0A0E11",
"G  c #AC7D50",
"H  c #CBA269",
"J  c #F3E6BB",
"K  c #FBF1C7",
"L  c #E3C995",
"P  c #D4AE74",
"I  c #CEC8A7",
"U  c #494741",
"Y  c #614D34",
"T  c #D9AD6F",
"R  c #E8C993",
"E  c #EAD19D",
"W  c #90692B",
"Q  c #473F31",
"!  c #34312B",
"~  c #342F28",
"^  c #262219",
"/  c #675943",
"(  c #F6E9BD",
")  c #C9BB97",
"_  c #474830",
"`  c #1B1818",
"'  c #77725E",
"]  c #F6EBC0",
"[  c #E4D6B4",
"{  c #DAD2AF",
"}  c #917E5D",
"|  c #A6875C",
" . c #EAE6C2",
".. c #A5A28B",
"X. c #9F9C85",
"o. c #E3C58D",
"O. c #716E5E",
"+. c #6F6958",
"@. c #5C513E",
"#. c #141418",
"$. c #513913",
"%. c #8B7251",
"&. c #BBAF92",
"*. c #A79A7F",
"=. c #8E6E46",
"-. c #746327",
";. c #524717",
":. c #0C080E",
">. c #1A241B",
",. c #3C3618",
"<. c #574627",
"1. c #1B2B1C",
"2. c #176823",
"3. c #1B8726",
"4. c #0F6525",
"5. c #277726",
"6. c #338625",
"7. c #468B25",
"8. c #337E24",
"9. c #18C616",
"0. c #25D516",
"q. c #399A29",
"w. c #167B27",
"e. c #13241D",
"r. c #2AB81F",
"t. c #118327",
"y. c #339427",
"u. c #268B28",
"i. c #14DC10",
"p. c #18F20B",
"a. c #099F1C",
"s. c #5B9650",
"d. c #863C0B",
"f. c #F80045",
"g. c #3B9C1C",
"h. c #2FAA22",
"j. c #33C21E",
"k. c #2FB021",
"l. c #13B819",
"z. c #1CE210",
"x. c #0A8919",
"c. c #587944",
"v. c #D9B67D",
"b. c #C49B63",
"n. c #A24546",
"m. c #B90F2B",
"M. c #970420",
"N. c #0B1618",
"B. c #4A2E12",
"V. c #B17303",
"C. c #2ECD11",
"Z. c #0D3C1C",
"A. c #BD9359",
"S. c #E4E6E4",
"D. c #E2CFD3",
"F. c #DA3461",
"G. c #830109",
"H. c #1B811D",
"J. c #176B1B",
"K. c #132D1C",
"L. c #227B1A",
"P. c #1FD713",
"I. c #20341C",
"U. c #403527",
"Y. c #4C4C4D",
"T. c #48202C",
"R. c #481120",
"E. c #285749",
"W. c #184629",
"Q. c #0F2317",
"!. c #312311",
"~. c #87620B",
"^. c #854F0B",
"/. c #276C1F",
"(. c #10AC15",
"). c #134A13",
"_. c #160B16",
"`. c #459A7B",
"'. c #2C4F43",
"]. c #1C2F2E",
"[. c #BC8C07",
"{. c #673A0B",
"}. c #1C7239",
"|. c #215136",
" X c #243430",
".X c #489E7F",
"XX c #3A7B64",
"oX c #273327",
"OX c #429374",
"+X c #49A382",
"@X c #377864",
"#X c #3E8269",
"$X c #4BA987",
"%X c #98E078",
"&X c #68C878",
"*X c #C0E870",
/* pixels */
"    . . X o O O O O O O O O O O O O O O O O O O O O O O O O O O O O O O O O O O O O O O O O O O O O O O O O O O O O O O O O O O ",
"    o X . o O O O O O O O O O O + + O O O O O O O O O + O O O O O O O + O O O O O O O O O O O O O O O + O O O O O O O O O O O O ",
"      @ o . O O O O O O O O O O + + O O O O O + O O O O O O O O O O O O O O O O O O O O o O O O O O O O O O O O O O O O o O O O ",
"    O . O O O O O O O O O O O O O O # + + # O O O O O O O O O O O O O O O O O O O O O o o O O O O O O O O O O O O O O o o O O O ",
"      o . O O O O O O O O O O O O O + $ $ + O O O O O O O + + O O O O O O + + O O O O O O O o O O O O O O + + O O O O O O O o O ",
". . O O . O O O O O O O O O O O O O + $ $ + O O O O O O O + + O O O O O O + + O O O O O O O O O O O O O O + + O O O O O O O O O ",
"O O . . O O O O O O O O O O O O O O # + + # O O # # O O O O O O # # O O O O O O O o O O O O O O # # O O O O O O O o O O O O O O ",
"O O O O O O O O O O O O O O O O + O O O O O O O # # O O O O O O # # O O O O O O O O O O O O O O # # O O O O O O O O O O O O O O ",
"O O O O O O O O O O O O O O O O O O O O O O O O O O O O O O % O O O O O O O O O O O O O O O O O O O O O O O O O O O O O O O O O ",
"O O O O O O O O o O O o O O O O O O O O O O % O O O O & & O O O O o O O O O O O O O O O O O % O O o O O O O O O O O O O O O % O ",
"O O O O O O O O O o O o O o O O O O O O O O O O O O & * * & O O O O O O O O O O O O O O O O O O O O O O O O O O O O O O O O O O ",
"O O O O O O O O O o o O O o O O O O & & O O O O O O & * * & O O O O O O O O o O O O & & O O O O O O O O O O o O O O & & O O O O ",
"O O O O O O O O O O o O O O O o O O & & O O O O O O O & & O O O O O O o o O O O O O & & O O O O O O O o o O O O O O & & O O O O ",
"O O O O O O O O O O O O O O o O O O O O O O O O O O O O O O O % O O O O o O O O O O O O O O O O O O O O o O O O O O O O O O O O ",
"O O O O O O O O O O O O O O o O O O O O O O O O & & O O O O O O O O O O O O O O O O O O O O O O O O O O O O O O O O O O O O O O ",
"O O O O O O O O O O O O O O O O O O O O % O O O & & O O O O O O O O O O O O O O O O O O % O O O O O O O O O O O O O O O % O O O ",
"& & O O O O O O O O O O O O O O O O O O O O O O O O O O O O O O O O O O O O O O O O O O O O O O O O O O O O O O O % O O O O O O ",
"& & O O O O O O O O O O O O O O O O O O O O O O O = - ; : O O O O O O O O O O O O O O O O O O O O O O O O O O O O O O & & O O O ",
"O O O O O O O % O O O O o O O O O O O O O O O O : > , < 1 - O O O O O O o O O O O O O O O O O O O O O O o O O O O O & * * & O O ",
"O O O & & O O O O O O o o O O O O O O O O O O O : 2 3 4 5 > : O O O O o o O O O O O O O O O O O O O O o o O O O O O & * * & O O ",
"O O & * * & O O O O O O O O o O O O O O O O O O : 6 7 8 9 0 q : O O O O O O o O O O O O O O O O O O O O O O o O O O O & & O O O ",
"O O & * * & O O O O O O O O O O O O O O O O O O O w e r t 5 1 = O O O O O O O O O O O O O O O O O O O O O O O O % O O O O O O O ",
"O O O & & O O O O o O O O O O O O O O O O O O O O y u i 5 p , - O o O O O O O O O O O O O O O O O o O O O O O O O O O O O O & & ",
"O O O O O O % O O O O O O O O O O O O O O O O O a > s p p p d i O O O O O O O O O O O O O O O O O O O O O O O O O O O O O O & & ",
"O O O O O O O O O O O O O O O O O O O O O : - f f s p p p p p s g O O O O O & & O O O O O O O O O O O O O O O O O O O O O O O O ",
"O O O O O O O O O O O O O O % O O O O O : - i d d 5 p p p p p d g O O O O O & & O O O O O O O O O O O O O O O O O O O O O O O O ",
"O O O O o O O O O O O O O O O O O O O O - i t p p p p p p p p d g O O O O O O O O O O O O O O O O O O O O O O O O O O O o O O O ",
"O O O o o O O O O O & & O O O O O O O O f d p p p p p p p p p d g O O & & O O O O O O O O O O O O O O O O O O O O O O o o O O O ",
"O O O O O O o O O O & & O O O O O O O O f d p p p p p p 5 5 p s g O & * * & O O O O O O O O O O O O O O O O O O O O O O O O o O ",
"O O O O O O O O O O O O O O O O O O O h j k l z z p p 5 2 2 2 x c O & * * & O O O O O O O O O O O O O O O O O O O O O O O O O O ",
"O o O O O O O O O O O O O O O O O O v b n m M N B V C l Z Z A S D F O & & O O O O O O O O O O O O O O O O O O O O o O O O O O O ",
"O O O O O O O O O O O O % O O O O O G H J K L P I U Y T R E P W Q ! ~ O O O O O O O O O O O O O O O O O O O O O O O O O O O O O ",
"O O O O O O O O O O O O O O O O O O ^ / L ( K ) _ ` ' ( ] ] J [ { m } ` O O O O O O O O O O O O O O O O O O O O O O O O O O O O ",
"O O O O O O O O O O O O O O O O O O O ! / | E  ...X.I K o.H | O.O.+.@.+ O O O O O O O O O O O O O O O O O O % O O O O O O O % O ",
"O O O O o O O O O O O O O O O O O O O O #.$.%.&.m L ) *.=.-.;.:.:.F O O O O O O O O O O o O O O O O O O O O O O O O O O O O O O ",
"O O O o o O O O O O O O O O O O O O O O O >.>.,.W W <.>.1.2.3.O O O O O O O O O O O O o o O O O O O & & O O O O O O & & O O O O ",
"O O O O O O o O O O O O O O O O O O O O O 4.5.6.5.7.8.2.6.9.0.q.w.O O O O + + O O O O O O O o O O O & & O O O O O O & & O O O O ",
"O O O O O O O O O O O O O O O O O O O #.e.5.r.9.t.y.q.u.u.i.p.0.9.a.s.o.H v d.= 6 0 p p f.i O O O O O O O O O O O O O O O O O O ",
"O o O O O O O O O O O O O O O O # # #.D $.g.0.9.t.h.j.k.3.l.i.z.i.x.c.v.T b.G n.m.d 5 0 4 M.= O O O O O O O O O O O O O O O O O ",
"O O O O O O O O O O O O O O O O # # N.B.V.C.9.y.w.9.p.z.h.3.u.y.w.Z.<.A.v.[ S.D.F.t 3 G.w ` O O O O O O % O O O O O O O % O O O ",
"+ O O O O O O O O O O O O O O O O O O O ,.H.J.1.K.Z.L.j.P.J.1.I.1.O O U.Q U Y.Y.T.R.8 O O O O O O O O O O O O O O O O O O O % O ",
"O O # + + # O O O O O O O O O O O % O O E.W.Q.!.~.^.;./.(.)._._.O o O O F O O O O N.O O O O % O O O O O O O O O O O O & & O O O ",
"O O + $ $ + O O O O O O O O O O O O O O `.'.]._ [.V.{.e.}.|. XO O O O O O O O O O O O O O O O O O O O O O O O O O O & * * & O O ",
"O O + $ $ + O O O O O O O O O O O O O O .X`.`.XXoX^ D  XOX`.OXO O O O O O O o O O O & & O O O O O O O O O O O O O O & * * & O O ",
"O O # + + # O O O O O O O O O O O O O O & +X+X`.XX@X@X#X.X+X+ O O O O o o O O O O O & & O O O O O O O O O O O O O O O & & O O O ",
"+ + O O O O O + O O O O O O O O O O O O O O +X+X$X$X$X+X+X+ + O O O O O o O O O O O O O O O O O O O O O O O O O O O O O O O O % ",
"+ + O O O O O O O O O O O O O O O O O O O O O O # # O O O O O O O O O O O O O O O O O O O O O O O O O O O O O O & & O O O O O O ",
"O O O O O O O O O O O O O O O O O O O % O O O O # # O O O O O O O O O O O O O O O O O O % O O O O O O O O O O O & & O O O O O O ",
"O O O O O O O O O O O O O O O O O O O O O O O O O O O O O O O O O O O O O O O O O O O O O O O O O O O O O O O O O O O O O O O O ",
"O O O O O O O O O O O O O O O O O O O O O O O O %X%XO O O O O O O O O O O O O O O O O O O O O O O O O O O O O O O O O O O O O O ",
"O O O O O O O O O O O O O O O O O O O O O O O O %X%XO O O O O %XO O O O O O O O O O O O O O O O O O O O O O O O O O O O O O O O ",
"O O O O O O O O O O O O O O O O O O O O O O O O O O &X%X%X&XO O O O O O O O O O O O O O O O O O O O O O O O O O O O O O O O O O ",
"O O O O O O O O O O O O O O O O O O O O O O O O O O %X*X*X%XO O O O O O O O O O O O O O O O O O O O O O O O O O O O O O O O O O ",
"O O O O O O O O O O O O O O O O O O O O O O O O O O %X*X*X%XO O O O O O O O O O O O O O O O O O O O O O O O O O O O O O O O O O ",
"O O O O O O O O O O O O O O O O O O O O O O O O O O &X%X%X&XO O O O O O O O O O O O O O O O O O O O O O O O O O O O O O O O O O ",
"O O O O O O O O O O O O O O O O O O O O O O O O %XO O O O O O O O O O O O O O O O O O O O O O O O O O O O O O O O O O O O O O O ",
"# # O O O O O O O O O O O O O O O O O O O O O O O O O O O O O O O O O O O O O O O O o O O O O O O O o O O O O O O O O O O O O O ",
"# # O O O O O O O O O O O O O O O O O + O O O O O O O O O O O O O O O O O O O O O o O O O O O O O o O O O O O O O O O O O O O O ",
"O O O O O + + O O O O O O O O O O O O O O O O O O O O O O O O O O O O O O O O O O o O O O O O O O o O O O O O O O O O O O O O O ",
"O O O O O + + O O O O O O O O O O O O O O O O O O O O O O O O O O O O O O O O O O O O O O O O O O O O O O O O O O O O O O O O O ",
"O O O O O O O O O O O O O O O O O O O O O + + O O O O O O O O O O O O O O O O O O O O O o O o O O O O O o O o O O O O O O O O O ",
"O O O O O O O O O O O O O O O O O O O O O + + O O O O O O O O O O O O O O O O O O O o O o o O O O O o O o o O O O O O O O O O O ",
"O O O + O O O O O O O O O O O O # # O O O O O O O O O O O O O O O O O O O O O O O O o O o o O O O O o O o o O O O O O O O O O O ",
"O O O O O O O O O O O O O O O O # # O O O O O O O O O O O X X O O O O O O O O O O O O O o O O O O O O O o O O O O O O O O O O O "
};
