/* XPM */
static char *minish_left[] = {
/* columns rows colors chars-per-pixel */
"64 64 200 2 ",
"   c #60E0C8",
".  c #80F0A0",
"X  c #308070",
"o  c #40A888",
"O  c #50C090",
"+  c #68E0B8",
"@  c #38B0B8",
"#  c #48D0A8",
"$  c #80F8C8",
"%  c #78D0A0",
"&  c #98D8B8",
"*  c #D8F0D8",
"=  c #760101",
"-  c #93000D",
";  c #A40013",
":  c #7C0002",
">  c #830004",
",  c #AB0019",
"<  c #C40029",
"1  c #D1002B",
"2  c #B50022",
"3  c #8B000B",
"4  c #630709",
"5  c #BC0024",
"6  c #CB0235",
"7  c #B70536",
"8  c #E30140",
"9  c #261817",
"0  c #850719",
"q  c #700A19",
"w  c #4A1120",
"e  c #D5013A",
"r  c #E90041",
"t  c #371217",
"y  c #5A0C14",
"u  c #9A0218",
"i  c #DD003A",
"p  c #CC002D",
"a  c #8E0720",
"s  c #D40031",
"d  c #E6003E",
"f  c #B2001B",
"g  c #DA0036",
"h  c #840108",
"j  c #9D000F",
"k  c #801C0C",
"l  c #9E131A",
"z  c #79040D",
"x  c #C19254",
"c  c #B6704E",
"v  c #BA0928",
"b  c #D09D5A",
"n  c #E2C58C",
"m  c #E8CCA3",
"M  c #DD9886",
"N  c #C6263B",
"B  c #E9003E",
"V  c #C60023",
"C  c #AA0423",
"Z  c #82643D",
"A  c #C3AC80",
"S  c #FFF4C6",
"D  c #FAEEC3",
"F  c #CC8E6C",
"G  c #E55766",
"H  c #DF4E69",
"J  c #A11237",
"K  c #E24250",
"L  c #EC5A71",
"P  c #C94646",
"I  c #B02E21",
"U  c #8D1F15",
"Y  c #171515",
"T  c #7D6D51",
"R  c #DBC394",
"E  c #F4E9BE",
"W  c #F8F0C7",
"Q  c #EFE7C1",
"!  c #AAA48A",
"~  c #2B2A26",
"^  c #937A56",
"/  c #E1BA7E",
"(  c #EAD5A6",
")  c #F6ECC2",
"_  c #DFC08B",
"`  c #976B36",
"'  c #433829",
"]  c #252421",
"[  c #665944",
"{  c #E3C996",
"}  c #AB9A7A",
"|  c #B4AB8B",
" . c #EBE2BB",
".. c #CEB585",
"X. c #0C0D11",
"o. c #332F28",
"O. c #AD8C5A",
"+. c #B09061",
"@. c #9B8A69",
"#. c #EDD39E",
"$. c #CAA065",
"%. c #6D6A5D",
"&. c #6C604B",
"*. c #494133",
"=. c #513913",
"-. c #8B6840",
";. c #B2AA90",
":. c #6D471F",
">. c #253319",
",. c #0C2216",
"<. c #0B090F",
"1. c #1C251B",
"2. c #20291D",
"3. c #1C2A1C",
"4. c #156823",
"5. c #178526",
"6. c #0F6525",
"7. c #297A25",
"8. c #338926",
"9. c #18C616",
"0. c #21D016",
"q. c #389828",
"w. c #167B27",
"e. c #141418",
"r. c #13241D",
"t. c #2AB81F",
"y. c #268B28",
"u. c #14DC10",
"i. c #18F20B",
"p. c #099F1C",
"a. c #5B9650",
"s. c #A9732E",
"d. c #863C0B",
"f. c #F80045",
"g. c #3B9C1C",
"h. c #28D917",
"j. c #2FAA22",
"k. c #33C21E",
"l. c #2FB021",
"z. c #13B819",
"x. c #1CE210",
"c. c #0A8919",
"v. c #587944",
"b. c #D9B67D",
"n. c #D9AD6F",
"m. c #A24546",
"M. c #970420",
"N. c #0B1618",
"B. c #4A2E12",
"V. c #B17303",
"C. c #2ECD11",
"Z. c #13EF09",
"A. c #0D3C1C",
"S. c #51412C",
"D. c #BD9359",
"F. c #E0D1B9",
"G. c #E4E6E4",
"H. c #E2CFD3",
"J. c #DA3461",
"K. c #1F171A",
"L. c #3F3411",
"P. c #1B811D",
"I. c #176B1B",
"U. c #132D1C",
"Y. c #227B1A",
"T. c #1EDF11",
"R. c #463E31",
"E. c #4B4A49",
"W. c #48202C",
"Q. c #4A111F",
"!. c #285749",
"~. c #184629",
"^. c #312311",
"/. c #87620B",
"(. c #854F0B",
"). c #594916",
"_. c #276C1F",
"`. c #10AC15",
"'. c #134A13",
"]. c #160B16",
"[. c #459A7B",
"{. c #2C4F43",
"}. c #1C2F2E",
"|. c #494D26",
" X c #BC8C07",
".X c #673A0B",
"XX c #1C7239",
"oX c #215136",
"OX c #243430",
"+X c #49A382",
"@X c #3A7B64",
"#X c #282419",
"$X c #429374",
"%X c #377864",
"&X c #3E8269",
"*X c #489E7F",
"=X c #4BA987",
"-X c #98E078",
";X c #68C878",
":X c #C0E870",
/* pixels */
"    . . X o O O O O O O O O O O O O O O O O O O O O O O O O O O O O O O O O O O O O O O O O O O O O O O O O O O O O O O O O O O ",
"    o X . o O O O O O O O O O O + + O O O O O O O O O + O O O O O O O + O O O O O O O O O O O O O O O + O O O O O O O O O O O O ",
"      @ o . O O O O O O O O O O + + O O O O O + O O O O O O O O O O O O O O O O O O O O o O O O O O O O O O O O O O O O o O O O ",
"    O . O O O O O O O O O O O O O O # + + # O O O O O O O O O O O O O O O O O O O O O o o O O O O O O O O O O O O O O o o O O O ",
"      o . O O O O O O O O O O O O O + $ $ + O O O O O O O + + O O O O O O + + O O O O O O O o O O O O O O + + O O O O O O O o O ",
". . O O . O O O O O O O O O O O O O + $ $ + O O O O O O O + + O O O O O O + + O O O O O O O O O O O O O O + + O O O O O O O O O ",
"O O . . O O O O O O O O O O O O O O # + + # O O # # O O O O O O # # O O O O O O O o O O O O O O # # O O O O O O O o O O O O O O ",
"O O O O O O O O O O O O O O O O + O O O O O O O # # O O O O O O # # O O O O O O O O O O O O O O # # O O O O O O O O O O O O O O ",
"O O O O O O O O O O O O O O O O O O O O O O O O O O O O O O % O O O O O O O O O O O O O O O O O O O O O O O O O O O O O O O O O ",
"O O O O O O O O o O O o O O O O O O O O O O % O O O O & & O O O O o O O O O O O O O O O O O % O O o O O O O O O O O O O O O % O ",
"O O O O O O O O O o O o O o O O O O O O O O O O O O & * * & O O O O O O O O O O O O O O O O O O O O O O O O O O O O O O O O O O ",
"O O O O O O O O O o o O O o O O O O & & O O O O O O & * * & O O O O O O O O o O O O & & O O O O O O O O O O o O O O & & O O O O ",
"O O O O O O O O O O o O O O O o O O & & O O O O O O O & & O O O O O O o o O O O O O & & O O O O O O O o o O O O O O & & O O O O ",
"O O O O O O O O O O O O O O o O O O O O O O O O O O O O O O O % O O O O o O O O O O O O O O O O O O O O o O O O O O O O O O O O ",
"O O O O O O O O O O O O O O o O O O O O O O O O & & O O O O O O O O O O O O O O O O O O O O O O O O O O O O O O O O O O O O O O ",
"O O O O O O O O O O O O O O O O O O O O % O O O & & O O O O O O O O O O O O O O O O O O % O O O O O O O O O O O O O O O % O O O ",
"& & O O O O O O O O O O O O O O O O O O O O O O O O O O O O O O O O O O O O O O O O O O O O O O O O O O O O O O O % O O O O O O ",
"& & O O O O O O O O O O O O O O O O O O O O O O O = - ; : O O O O O O O O O O O O O O O O O O O O O O O O O O O O O O & & O O O ",
"O O O O O O O % O O O O o O O O O O O O O O O O > , < 1 2 3 O O O O O O o O O O O O O O O O O O O O O O o O O O O O & * * & O O ",
"O O O & & O O O O O O o o O O O O O O O O O O O 4 5 6 7 8 2 3 O O O O o o O O O O O O O O O O O O O O o o O O O O O & * * & O O ",
"O O & * * & O O O O O O O O o O O O O O O O O O 9 0 q w e r 5 : O O O O O O o O O O O O O O O O O O O O O O o O O O O & & O O O ",
"O O & * * & O O O O O O O O O O O O O O O O O O O t y u i r p ; O O O O O O O O O O O O O O O O O O O O O O O O % O O O O O O O ",
"O O O & & O O O O o O O O O O O O O O O O O O O O y a s d r s , > o O O O O O O O O O O O O O O O o O O O O O O O O O O O O & & ",
"O O O O O O % O O O O O O O O O O O O O O O O O - f s r r r g f > O O O O O O O O O O O O O O O O O O O O O O O O O O O O O & & ",
"O O O O O O O O O O O O O O O O O O O O O : - 5 i d d r r r r s h O O O O O & & O O O O O O O O O O O O O O O O O O O O O O O O ",
"O O O O O O O O O O O O O O % O O O O O f < s g r r r r r r r g 3 O O O O O & & O O O O O O O O O O O O O O O O O O O O O O O O ",
"O O O O o O O O O O O O O O O O O O O j p d r r r r r r r r r g 3 O O O O O O O O O O O O O O O O O O O O O O O O O O O o O O O ",
"O O O o o O O O O O & & O O O O O O k l g d r r r r r r r r r e z O O & & O O O O O O O O O O O O O O O O O O O O O O o o O O O ",
"O O O O O O o O O O & & O O O O O O x c v g r r r r r r r d r 6 t O & * * & O O O O O O O O O O O O O O O O O O O O O O O O o O ",
"O O O O O O O O O O O O O O O O O b n m M N 1 B r r B B d p V C 9 O & * * & O O O O O O O O O O O O O O O O O O O O O O O O O O ",
"O o O O O O O O O O O O O O O O O Z A S D F G H J N K G L P I U 9 O O & & O O O O O O O O O O O O O O O O O O O O o O O O O O O ",
"O O O O O O O O O O O O % O O O O Y T R E W Q ! ~ ^ / ( ) _ x ` ' % O O O O O O O O O O O O O O O O O O O O O O O O O O O O O O ",
"O O O O O O O O O O O O O O O O O O ] [ { D } ~ ] | D ) W E  .( ..[ X.O O O O O O O O O O O O O O O O O O O O O O O O O O O O O ",
"O O O O O O O O O O O O O O O O O O O o.[ O.+.@.! Q S #.$.^ %.%.&.*.O + O O O O O O O O O O O O O O O O O O % O O O O O O O % O ",
"O O O O o O O O O O O O O O O O O O O O Y =.-.} ;.;.} ^ :.>.,.<.X.O O O O O O O O O O O o O O O O O O O O O O O O O O O O O O O ",
"O O O o o O O O O O O O O O O O O O O O O 1.1.2.1.2.3.1.3.4.5.O O O O O O O O O O O O o o O O O O O & & O O O O O O & & O O O O ",
"O O O O O O o O O O O O O O O O O O O O O 6.7.7.4.7.7.4.8.9.0.q.w.O O O O + + O O O O O O O o O O O & & O O O O O O & & O O O O ",
"O O O O O O O O O O O O O O O O O O O e.r.7.t.9.5.q.q.y.y.u.i.0.9.p.a.n $.s.d.= j p r r f.5 O O O O O O O O O O O O O O O O O O ",
"O o O O O O O O O O O O O O O O # # e.9 =.g.h.9.5.j.k.l.5.z.u.x.u.c.v.b.n.$.c m.v g d p 7 M.= O O O O O O O O O O O O O O O O O ",
"O O O O O O O O O O O O O O O O # # N.B.V.C.0.8.w.9.Z.x.j.5.y.q.w.A.S.D.b.F.G.H.J.i 6 h t K.O O O O O O % O O O O O O O % O O O ",
"+ O O O O O O O O O O O O O O O O O O O L.P.I.3.U.A.Y.k.T.I.3.>.3.O O ' R.E.E.E.W.w Q.O O O O O O O O O O O O O O O O O O O % O ",
"O O # + + # O O O O O O O O O O O % O O !.~.,.^./.(.)._.`.'.].].O o O O X.O O O O N.O O O O % O O O O O O O O O O O O & & O O O ",
"O O + $ $ + O O O O O O O O O O O O O O [.{.}.|. XV..Xr.XXoXOXO O O O O O O O O O O O O O O O O O O O O O O O O O O & * * & O O ",
"O O + $ $ + O O O O O O O O O O O O O O +X[.[.@X~ #X9 OX$X[.$XO O O O O O O o O O O & & O O O O O O O O O O O O O O & * * & O O ",
"O O # + + # O O O O O O O O O O O O O O & +X+X[.@X%X%X&X*X+X+ O O O O o o O O O O O & & O O O O O O O O O O O O O O O & & O O O ",
"+ + O O O O O + O O O O O O O O O O O O O O +X+X=X=X=X+X+X+ + O O O O O o O O O O O O O O O O O O O O O O O O O O O O O O O O % ",
"+ + O O O O O O O O O O O O O O O O O O O O O O # # O O O O O O O O O O O O O O O O O O O O O O O O O O O O O O & & O O O O O O ",
"O O O O O O O O O O O O O O O O O O O % O O O O # # O O O O O O O O O O O O O O O O O O % O O O O O O O O O O O & & O O O O O O ",
"O O O O O O O O O O O O O O O O O O O O O O O O O O O O O O O O O O O O O O O O O O O O O O O O O O O O O O O O O O O O O O O O ",
"O O O O O O O O O O O O O O O O O O O O O O O O -X-XO O O O O O O O O O O O O O O O O O O O O O O O O O O O O O O O O O O O O O ",
"O O O O O O O O O O O O O O O O O O O O O O O O -X-XO O O O O -XO O O O O O O O O O O O O O O O O O O O O O O O O O O O O O O O ",
"O O O O O O O O O O O O O O O O O O O O O O O O O O ;X-X-X;XO O O O O O O O O O O O O O O O O O O O O O O O O O O O O O O O O O ",
"O O O O O O O O O O O O O O O O O O O O O O O O O O -X:X:X-XO O O O O O O O O O O O O O O O O O O O O O O O O O O O O O O O O O ",
"O O O O O O O O O O O O O O O O O O O O O O O O O O -X:X:X-XO O O O O O O O O O O O O O O O O O O O O O O O O O O O O O O O O O ",
"O O O O O O O O O O O O O O O O O O O O O O O O O O ;X-X-X;XO O O O O O O O O O O O O O O O O O O O O O O O O O O O O O O O O O ",
"O O O O O O O O O O O O O O O O O O O O O O O O -XO O O O O O O O O O O O O O O O O O O O O O O O O O O O O O O O O O O O O O O ",
"# # O O O O O O O O O O O O O O O O O O O O O O O O O O O O O O O O O O O O O O O O o O O O O O O O o O O O O O O O O O O O O O ",
"# # O O O O O O O O O O O O O O O O O + O O O O O O O O O O O O O O O O O O O O O o O O O O O O O o O O O O O O O O O O O O O O ",
"O O O O O + + O O O O O O O O O O O O O O O O O O O O O O O O O O O O O O O O O O o O O O O O O O o O O O O O O O O O O O O O O ",
"O O O O O + + O O O O O O O O O O O O O O O O O O O O O O O O O O O O O O O O O O O O O O O O O O O O O O O O O O O O O O O O O ",
"O O O O O O O O O O O O O O O O O O O O O + + O O O O O O O O O O O O O O O O O O O O O o O o O O O O O o O o O O O O O O O O O ",
"O O O O O O O O O O O O O O O O O O O O O + + O O O O O O O O O O O O O O O O O O O o O o o O O O O o O o o O O O O O O O O O O ",
"O O O + O O O O O O O O O O O O # # O O O O O O O O O O O O O O O O O O O O O O O O o O o o O O O O o O o o O O O O O O O O O O ",
"O O O O O O O O O O O O O O O O # # O O O O O O O O O O O X X O O O O O O O O O O O O O o O O O O O O O o O O O O O O O O O O O "
};
