/* XPM */
static char *minish_up[] = {
/* columns rows colors chars-per-pixel */
"64 64 194 2 ",
"   c #60E0C8",
".  c #80F0A0",
"X  c #308070",
"o  c #40A888",
"O  c #50C090",
"+  c #68E0B8",
"@  c #38B0B8",
"#  c #48D0A8",
"$  c #80F8C8",
"%  c #78D0A0",
"&  c #98D8B8",
"*  c #D8F0D8",
"=  c #8B000B",
"-  c #A30015",
";  c #7A0002",
":  c #960213",
">  c #AC001B",
",  c #BC0021",
"<  c #A20018",
"1  c #C3002A",
"2  c #E90040",
"3  c #E3003C",
"4  c #720000",
"5  c #93000B",
"6  c #CB022B",
"7  c #B70520",
"8  c #DC0137",
"9  c #D2002F",
"0  c #B5001E",
"q  c #820004",
"w  c #0B1A17",
"e  c #770D27",
"r  c #B7042E",
"t  c #3E131E",
"y  c #3E0D09",
"u  c #8F0526",
"i  c #DD0039",
"p  c #630A15",
"a  c #AC0015",
"s  c #BB001E",
"d  c #B4472D",
"f  c #C2242E",
"g  c #BD3332",
"h  c #AD4D27",
"j  c #2D2820",
"k  c #53422C",
"l  c #A57940",
"z  c #C9A264",
"x  c #C87253",
"c  c #C01D2F",
"v  c #D20531",
"b  c #C89865",
"n  c #C19858",
"m  c #886439",
"M  c #3E3325",
"N  c #121314",
"B  c #664F31",
"V  c #EAD6A6",
"C  c #EFE5BB",
"Z  c #DA9274",
"A  c #BA1427",
"S  c #C53D3E",
"D  c #E2B486",
"F  c #EFDDB0",
"G  c #DCC698",
"H  c #AB8551",
"J  c #443828",
"K  c #574A37",
"L  c #656152",
"P  c #D8AB6E",
"I  c #D78E6C",
"U  c #DC9983",
"Y  c #E0A390",
"T  c #DFA28F",
"R  c #D8966C",
"E  c #BF975D",
"W  c #887657",
"Q  c #5C5749",
"!  c #332B21",
"~  c #0B0E13",
"^  c #110F0E",
"/  c #703F11",
"(  c #8D5C2A",
")  c #906E44",
"_  c #FAF0BF",
"`  c #E2C58B",
"'  c #AC884F",
"]  c #935920",
"[  c #472A0E",
"{  c #080B0F",
"}  c #0E1415",
"|  c #102D1B",
" . c #2B301B",
".. c #7B5F23",
"X. c #B69760",
"o. c #D9B986",
"O. c #CDB07F",
"+. c #5D4C1C",
"@. c #1A281B",
"#. c #0F7527",
"$. c #166C24",
"%. c #217226",
"&. c #2A4F27",
"*. c #63482B",
"=. c #93652E",
"-. c #157527",
";. c #2E8D29",
":. c #2E9129",
">. c #248B28",
",. c #147C28",
"<. c #437120",
"1. c #5A7D22",
"2. c #336A1F",
"3. c #168229",
"4. c #33BB1F",
"5. c #3BB323",
"6. c #369829",
"7. c #3CA826",
"8. c #248627",
"9. c #40A627",
"0. c #36B421",
"q. c #1CE310",
"w. c #29CD18",
"e. c #348C27",
"r. c #2B9327",
"t. c #17EB0D",
"y. c #1C7B28",
"u. c #339D24",
"i. c #18E40E",
"p. c #129521",
"a. c #13FC09",
"s. c #17A00F",
"d. c #183C1C",
"f. c #16C816",
"g. c #13F509",
"h. c #13A61E",
"j. c #155825",
"k. c #184F13",
"l. c #12D60B",
"z. c #249725",
"x. c #14AB1C",
"c. c #118910",
"v. c #249A1A",
"b. c #20E411",
"n. c #27D216",
"m. c #1D731B",
"M. c #146D11",
"N. c #109A15",
"B. c #244235",
"V. c #2C4943",
"C. c #30722D",
"Z. c #2AB71E",
"A. c #1FD514",
"S. c #265536",
"D. c #1C1921",
"F. c #114221",
"G. c #1F8429",
"H. c #409E29",
"J. c #469B7C",
"K. c #489E80",
"L. c #227E43",
"P. c #318A5B",
"I. c #489F7F",
"U. c #49A281",
"Y. c #51552B",
"T. c #938743",
"R. c #283B22",
"E. c #30735A",
"W. c #213D35",
"Q. c #68584B",
"!. c #D4B89B",
"~. c #806344",
"^. c #41523E",
"/. c #2F6958",
"(. c #1D362D",
"). c #6C6A66",
"_. c #F2E6D8",
"`. c #705A3C",
"'. c #2B2012",
"]. c #EAC8A0",
"[. c #B78E6C",
"{. c #8D4E16",
"}. c #68232E",
"|. c #ED395A",
" X c #F04573",
".X c #E12E52",
"XX c #4F0E22",
"oX c #EB003A",
"OX c #291518",
"+X c #840718",
"@X c #2A151A",
"#X c #98E078",
"$X c #68C878",
"%X c #C0E870",
/* pixels */
"    . . X o O O O O O O O O O O O O O O O O O O O O O O O O O O O O O O O O O O O O O O O O O O O O O O O O O O O O O O O O O O ",
"    o X . o O O O O O O O O O O + + O O O O O O O O O + O O O O O O O + O O O O O O O O O O O O O O O + O O O O O O O O O O O O ",
"      @ o . O O O O O O O O O O + + O O O O O + O O O O O O O O O O O O O O O O O O O O o O O O O O O O O O O O O O O O o O O O ",
"    O . O O O O O O O O O O O O O O # + + # O O O O O O O O O O O O O O O O O O O O O o o O O O O O O O O O O O O O O o o O O O ",
"      o . O O O O O O O O O O O O O + $ $ + O O O O O O O + + O O O O O O + + O O O O O O O o O O O O O O + + O O O O O O O o O ",
". . O O . O O O O O O O O O O O O O + $ $ + O O O O O O O + + O O O O O O + + O O O O O O O O O O O O O O + + O O O O O O O O O ",
"O O . . O O O O O O O O O O O O O O # + + # O O # # O O O O O O # # O O O O O O O o O O O O O O # # O O O O O O O o O O O O O O ",
"O O O O O O O O O O O O O O O O + O O O O O O O # # O O O O O O # # O O O O O O O O O O O O O O # # O O O O O O O O O O O O O O ",
"O O O O O O O O O O O O O O O O O O O O O O O O O O O O O O % O O O O O O O O O O O O O O O O O O O O O O O O O O O O O O O O O ",
"O O O O O O O O o O O o O O O O O O O O O O % O O O O & & O O O O o O O O O O O O O O O O O % O O o O O O O O O O O O O O O % O ",
"O O O O O O O O O o O o O o O O O O O O O O O O O O & * * & O O O O O O O O O O O O O O O O O O O O O O O O O O O O O O O O O O ",
"O O O O O O O O O o o O O o O O O O & & O O O O O O & * * & O O O O O O O O o O O O & & O O O O O O O O O O o O O O & & O O O O ",
"O O O O O O O O O O o O O O O o O O & & O O O O O O O & & O O O O O O o o O O O O O & & O O O O O O O o o O O O O O & & O O O O ",
"O O O O O O O O O O O O O O o O O O O O O O O O O O O O O O O % O O O O o O O O O O O O O O O O O O O O o O O O O O O O O O O O ",
"O O O O O O O O O O O O O O o O O O O O O O O O & & O O O O = - ; O O O O O O O O O O O O O O O O O O O O O O O O O O O O O O O ",
"O O O O O O O O O O O O O O O O O O O O % O O O & & O O O : > , < = O O O O O O O O O O % O O O O O O O O O O O O O O O % O O O ",
"& & O O O O O O O O O O O O O O O O O O O O O O O O O O ; 1 2 3 3 < 4 O O O O O O O O O O O O O O O O O O O O O O % O O O O O O ",
"& & O O O O O O O O O O O O O O O O O O O O O O O o O O ; 1 2 2 2 < 4 O O O O O O O O O O O O O O O O O O O O O O O O & & O O O ",
"O O O O O O O % O O O O o O O O O O O O O O O O O O O ; 5 6 2 2 2 7 5 O o O O O O O O O O O O O O O O O o O O O O O & * * & O O ",
"O O O & & O O O O O O o o O O O O O O O O O O O O O O 5 , 8 2 2 2 9 0 o o O O O O O O O O O O O O O O o o O O O O O & * * & O O ",
"O O & * * & O O O O O O O O o O O O O O O O O O O O O , 3 2 2 2 2 2 1 q O O o O O O O O O O O O O O O O O O o O O O O & & O O O ",
"O O & * * & O O O O O O O O O O O O O O O O O O O w e 3 3 2 2 2 2 2 3 r t O O O O O O O O O O O O O O O O O O O % O O O O O O O ",
"O O O & & O O O O o O O O O O O O O O O O O O O O y u 2 2 2 2 2 2 2 2 i p O O O O O O O O O O O O o O O O O O O O O O O O O & & ",
"O O O O O O % O O O O O O O O O O O O O O O O O o q 0 2 2 2 2 2 2 2 2 i : O O O O O O O O O O O O O O O O O O O O O O O O O & & ",
"O O O O O O O O O O O O O O O O O O O O O O O O O a 1 2 2 2 2 2 2 2 2 3 0 O & & O O O O O O O O O O O O O O O O O O O O O O O O ",
"O O O O O O O O O O O O O O % O O O O O O O O O O a 6 2 2 2 2 2 2 2 2 3 s O & & O O O O O O O O O O O O O O O O O O O O O O O O ",
"O O O O o O O O O O O O O O O O O O O O O O O O O d f 9 3 2 2 2 2 2 3 6 g h O O O O O O O O O O O O O O O O O O O O O O o O O O ",
"O O O o o O O O O O & & O O O O O O O O O O j k l z x c 8 8 8 8 8 i v g b n m M O O O O O O O O O O O O O O O O O O O o o O O O ",
"O O O O O O o O O O & & O O O O O O O O O N B b V C V Z A 0 7 7 7 0 S D F C G H M O O O O O O O O O O O O O O O O O O O O O o O ",
"O O O O O O O O O O O O O O O O O O O O O O J K L H z P I U Y T T Z R P E W Q k ! O O O O O O O O O O O O O O O O O O O O O O O ",
"O o O O O O O O O O O O O O O O O O O O O O O ~ ^ / ( ) z V _ _ _ ` ' m ] [ { } O O O O O O O O O O O O O O O O O o O O O O O O ",
"O O O O O O O O O O O O % O O O O O O O O O O O & & |  ...X.o.o.O.' +.@.O O O O O O O O O O O O O O O O O O O O O O O O O O O O ",
"O O O O O O O O O O O O O O O O O O O O O O O O O #.#.$.%.&.*.=.J &.-.$.#.O O O O O O O O O O O O O O O O O O O O O O O O O O O ",
"O O O O O O O O O O O O O O O O O O O + O O O O O ;.:.>.,.$.<.1.2.$.3.:.;.O O O O O O O O O O O O O O O O O % O O O O O O O % O ",
"O O O O o O O O O O O O O O O O O O O O O O O O O 4.5.6.,.:.5.4.7.8.8.9.0.0.O O O O O O o O O O O O O O O O O O O O O O O O O O ",
"O O O o o O O O O O O O O O O O O O O O O O O O 7.q.w.e.,.r.w.t.0.8.y.u.i.w.7.O O O O o o O O O O O & & O O O O O O & & O O O O ",
"O O O O O O o O O O O O O O O O O O O O O + + p.i.a.s.d.#.f.g.g.t.h.j.k.l.a.f.,.O O O O O O o O O O & & O O O O O O & & O O O O ",
"O O O O O O O O O O O O O O O O O O O O O + ;.z.x.c.k.N d.v.b.g.n.m.| O M.N.x.r.O O O O O O O O O O O O O O O O O O O O O O O O ",
"O o O O O O O O O O O O O O O O # # O O O O O 6.-.B.V.O B.C.Z.A.u.S.V.O D.F.G.H.O o O O O O O O O O O O O O O O O O O O O O O O ",
"O O O O O O O O O O O O O O O O # # O O O O O O O J.J.K.J.L.8.H.y.P.K.I.O O O O O O O O O O O O O O O O % O O O O O O O % O O O ",
"+ O O O O O O O O O O O O O O O O O O O O O O O O U.U.U.J.S.Y.T.R.E.U.U.O O O O O O O O O O O O O O O O O O O O O O O O O O % O ",
"O O # + + # O O O O O O O O O O O % O O O O O O O O U.U.J.W.Q.!.~.^./.O O O O O O O O O O O % O O O O O O O O O O O O & & O O O ",
"O O + $ $ + O O O O O O O O O O O O O O O O O O O O O U.J.(.)._.o.`.'.O O O O O O O O O O O O O O O O O O O O O O O & * * & O O ",
"O O + $ $ + O O O O O O O O O O O O O O & & O O O O O O O } Q.]._.[.{.O O O o O O O & & O O O O O O O O O O O O O O & * * & O O ",
"O O # + + # O O O O O O O O O O O O O O & & O O O O O O O } }.|. X.XA ; o O O O O O & & O O O O O O O O O O O O O O O & & O O O ",
"+ + O O O O O + O O O O O O O O O O O O O O O O O O O O O + XXu 6 oX9 5 o O O O O O O O O O O O O O O O O O O O O O O O O O O % ",
"+ + O O O O O O O O O O O O O O O O O O O O O O # # O O O O O OX+Xr r : O O O O O O O O O O O O O O O O O O O O & & O O O O O O ",
"O O O O O O O O O O O O O O O O O O O % O O O O # # O O O O O O OX@X@XOXO O O O O O O O % O O O O O O O O O O O & & O O O O O O ",
"O O O O O O O O O O O O O O O O O O O O O O O O O O O O O O O O O O O O O O O O O O O O O O O O O O O O O O O O O O O O O O O O ",
"O O O O O O O O O O O O O O O O O O O O O O O O #X#XO O O O O O O O O O O O O O O O O O O O O O O O O O O O O O O O O O O O O O ",
"O O O O O O O O O O O O O O O O O O O O O O O O #X#XO O O O O #XO O O O O O O O O O O O O O O O O O O O O O O O O O O O O O O O ",
"O O O O O O O O O O O O O O O O O O O O O O O O O O $X#X#X$XO O O O O O O O O O O O O O O O O O O O O O O O O O O O O O O O O O ",
"O O O O O O O O O O O O O O O O O O O O O O O O O O #X%X%X#XO O O O O O O O O O O O O O O O O O O O O O O O O O O O O O O O O O ",
"O O O O O O O O O O O O O O O O O O O O O O O O O O #X%X%X#XO O O O O O O O O O O O O O O O O O O O O O O O O O O O O O O O O O ",
"O O O O O O O O O O O O O O O O O O O O O O O O O O $X#X#X$XO O O O O O O O O O O O O O O O O O O O O O O O O O O O O O O O O O ",
"O O O O O O O O O O O O O O O O O O O O O O O O #XO O O O O O O O O O O O O O O O O O O O O O O O O O O O O O O O O O O O O O O ",
"# # O O O O O O O O O O O O O O O O O O O O O O O O O O O O O O O O O O O O O O O O o O O O O O O O o O O O O O O O O O O O O O ",
"# # O O O O O O O O O O O O O O O O O + O O O O O O O O O O O O O O O O O O O O O o O O O O O O O o O O O O O O O O O O O O O O ",
"O O O O O + + O O O O O O O O O O O O O O O O O O O O O O O O O O O O O O O O O O o O O O O O O O o O O O O O O O O O O O O O O ",
"O O O O O + + O O O O O O O O O O O O O O O O O O O O O O O O O O O O O O O O O O O O O O O O O O O O O O O O O O O O O O O O O ",
"O O O O O O O O O O O O O O O O O O O O O + + O O O O O O O O O O O O O O O O O O O O O o O o O O O O O o O o O O O O O O O O O ",
"O O O O O O O O O O O O O O O O O O O O O + + O O O O O O O O O O O O O O O O O O O o O o o O O O O o O o o O O O O O O O O O O ",
"O O O + O O O O O O O O O O O O # # O O O O O O O O O O O O O O O O O O O O O O O O o O o o O O O O o O o o O O O O O O O O O O ",
"O O O O O O O O O O O O O O O O # # O O O O O O O O O O O X X O O O O O O O O O O O O O o O O O O O O O o O O O O O O O O O O O "
};
