/* XPM */
static char *minish_right[] = {
/* columns rows colors chars-per-pixel */
"64 64 242 2 ",
"   c #1B1B1A",
".  c #0E1515",
"X  c #321717",
"o  c #18271A",
"O  c #173619",
"+  c #0F3319",
"@  c #26241B",
"#  c #362E14",
"$  c #3A1E25",
"%  c #1C2D25",
"&  c #262924",
"*  c #312C26",
"=  c #26342B",
"-  c #33332A",
";  c #3A3B38",
":  c #223F35",
">  c #570E19",
",  c #45161A",
"<  c #590E13",
"1  c #790E0D",
"2  c #6E0F16",
"3  c #543913",
"4  c #4C3011",
"5  c #721128",
"6  c #473127",
"7  c #732B24",
"8  c #73332A",
"9  c #72352F",
"0  c #681F20",
"q  c #1B4B1B",
"w  c #304B1B",
"e  c #126F1B",
"r  c #154927",
"t  c #175223",
"y  c #174C2C",
"u  c #214234",
"i  c #294639",
"p  c #36483A",
"a  c #23583D",
"s  c #2A562A",
"d  c #166522",
"f  c #137B24",
"g  c #1A6A32",
"h  c #297623",
"j  c #2C7025",
"k  c #704C0C",
"l  c #6E6E0F",
"z  c #504B35",
"x  c #6A4738",
"c  c #6E4F2E",
"v  c #556437",
"b  c #605226",
"n  c #2A5547",
"m  c #2E5545",
"M  c #2C624D",
"N  c #2E6752",
"B  c #336753",
"V  c #38755B",
"C  c #35624A",
"Z  c #397D64",
"A  c #1F7A42",
"S  c #585945",
"D  c #485946",
"F  c #625A43",
"G  c #735244",
"H  c #5C6A55",
"J  c #5D785A",
"K  c #4B674F",
"L  c #68664C",
"P  c #707052",
"I  c #587964",
"U  c #687D64",
"Y  c #787763",
"T  c #6D7569",
"R  c #950417",
"E  c #861B19",
"W  c #8E0711",
"Q  c #A80119",
"!  c #B7021D",
"~  c #A8121F",
"^  c #9B1928",
"/  c #90092C",
"(  c #BA0525",
")  c #AC0E30",
"_  c #882625",
"`  c #952F35",
"'  c #B5342C",
"]  c #99291A",
"[  c #C4012B",
"{  c #CD012C",
"}  c #C60428",
"|  c #C90435",
" . c #D40134",
".. c #DA0034",
"X. c #DD013B",
"o. c #D5033A",
"O. c #DA002F",
"+. c #E5003D",
"@. c #E9003E",
"#. c #C92138",
"$. c #8A4F0F",
"%. c #B77004",
"&. c #B34F31",
"*. c #AB6D3C",
"=. c #945A2A",
"-. c #A13950",
";. c #E90040",
":. c #E70742",
">. c #F10044",
",. c #CF334A",
"<. c #DE3C67",
"1. c #8A4744",
"2. c #B8415C",
"3. c #A64150",
"4. c #8B7452",
"5. c #8C7665",
"6. c #AA6545",
"7. c #CF5056",
"8. c #EB596D",
"9. c #CB6168",
"0. c #DA5D5B",
"q. c #109317",
"w. c #26901D",
"e. c #15B719",
"r. c #10AB17",
"t. c #188526",
"y. c #1B9429",
"u. c #258A28",
"i. c #2B9626",
"p. c #359A27",
"a. c #2F862D",
"s. c #1CAE2E",
"d. c #37A824",
"f. c #31AF24",
"g. c #2CAB15",
"h. c #40A81E",
"j. c #15CB13",
"k. c #19D614",
"l. c #15DF0F",
"z. c #27C719",
"x. c #27D816",
"c. c #16EA0C",
"v. c #13F509",
"b. c #42CD08",
"n. c #2D8C51",
"m. c #35A84C",
"M. c #3D8D6C",
"N. c #3C8368",
"B. c #3C936B",
"V. c #338270",
"C. c #3D9872",
"Z. c #3CA96F",
"A. c #5B8766",
"S. c #429374",
"D. c #469D7C",
"F. c #449B77",
"G. c #579A74",
"H. c #4D8B6C",
"J. c #669678",
"K. c #6F8D70",
"L. c #46A47D",
"P. c #56A67B",
"I. c #4DAE6E",
"U. c #6AAC7C",
"Y. c #58874A",
"T. c #6CC676",
"R. c #9F8A06",
"E. c #C68C04",
"W. c #AD8B57",
"Q. c #948870",
"!. c #B09667",
"~. c #9AA96F",
"^. c #B7AB79",
"/. c #8C8F51",
"(. c #CA925D",
"). c #CD9470",
"_. c #D4AE73",
"`. c #E3B778",
"'. c #E19B72",
"]. c #98E078",
"[. c #C0E870",
"{. c #9C7984",
"}. c #3AACA0",
"|. c #729780",
" X c #49A583",
".X c #4AAC84",
"XX c #40A888",
"oX c #4CAE89",
"OX c #47A381",
"+X c #54AC81",
"@X c #4BB286",
"#X c #4DB58A",
"$X c #4EBB8D",
"%X c #48B783",
"&X c #51BD8E",
"*X c #55B688",
"=X c #50BF90",
"-X c #4DB794",
";X c #69BA87",
":X c #76A891",
">X c #50C090",
",X c #4AC39E",
"<X c #77C598",
"1X c #48D0A8",
"2X c #78D0A0",
"3X c #69DCB5",
"4X c #68E0B8",
"5X c #7FE8BB",
"6X c #60E0C8",
"7X c #99988B",
"8X c #8DB591",
"9X c #97ADA5",
"0X c #AFAA8A",
"qX c #DBBA88",
"wX c #D3BB92",
"eX c #CCB48D",
"rX c #E3AF8A",
"tX c #E9B4A8",
"yX c #C48F8A",
"uX c #98D8B8",
"iX c #96D3B4",
"pX c #8DC9AB",
"aX c #80F0A0",
"sX c #B3C18B",
"dX c #DDC695",
"fX c #D4C18A",
"gX c #D3CCAA",
"hX c #D3CFAC",
"jX c #E9D8A9",
"kX c #E6D8B6",
"lX c #F2D1AD",
"zX c #F5E7B8",
"xX c #EFE1B3",
"cX c #E4CE99",
"vX c #80F8C8",
"bX c #80EFC1",
"nX c #D8F0D8",
"mX c #D7EDD6",
"MX c #F6ECC3",
"NX c #FBF4C9",
"BX c #EAE4CE",
"VX c #E7E3E2",
/* pixels */
"6X6XaXaXn.%X>X>X>X>X>X>X>X>X>X>X>X>X>X>X>X>X>X>X>X>X>X>X>X>X>X>X>X>X>X>X>X>X>X>X>X>X>X>X>X>X>X>X>X>X>X>X>X>X>X>X>X>X>X>X>X>X>X>X",
"6X6XXXV.5XZ.>X>X>X>X>X>X>X>X>X>X4X4X>X>X>X>X>X>X>X>X>X4X>X>X>X>X>X>X>X4X>X>X>X>X>X>X>X>X>X>X>X>X>X>X>X4X>X>X>X>X>X>X>X>X>X>X>X>X",
"6X6X6X}.%X4X>X>X>X>X>X>X>X>X>X>X4X4X>X>X>X>X>X4X>X>X>X>X>X>X>X>X>X>X>X>X>X>X>X>X>X>X>X>XXX>X>X>X>X>X>X>X>X>X>X>X>X>X>X>XXX>X>X>X",
"6X6X>X5X>X>X>X>X>X>X>X>X>X>X>X>X>X>X1X4X4X1X>X>X>X>X>X>X>X>X>X>X>X>X>X>X>X>X>X>X>X>X>XXXXX>X>X>X>X>X>X>X>X>X>X>X>X>X>XXXXX>X>X>X",
"6X6X4X%X5XT.>X>X>X>X>X>X>X>X>X>X>X>X4XvXvX4X>X>X>X>X>X>X>X4X4X>X>X>X>X>X>X4X4X=X>X>X>X>X>X>XXX>X>X>X>X>X>X4X4X>X>X>X>X>X>X>XXX>X",
"2X5X>X>X4X>X>X>X>X>X>X>X>X>X>X>X>X>X4XvXvX4X>X>X>X>X>X>X>X4X4X>X>X>X$X%X=X3X3X&X$X>X>X>X>X>X>X>X>X>X>X>X>X4X4X>X>X>X>X>X>X>X>X>X",
">X>XaXaXT.>X>X>X>X>X>X>X>X>X>X>X>X>X1X4X4X1X>X>X1X1X>X>X>X>X>X>X1X,XG.A.U U U U G.S.>X>X>X>X>X>X1X1X>X>X>X>X>X>X>XXX>X>X>X>X>X>X",
">X>X>X>X,X%X>X>X>X>X>X>X>X>X>X>X4X>X>X>X>X>X>X>X1X1X>X>X>X>X>X>X1X-XL 7 _ ` _ 7 x A.$X>X>X>X>X>X1X1X>X>X>X>X>X>X>X>X>X>X>X>X>X>X",
">X>X>X>X>X>X>X>X>X>X>X>X>X>X>X>X>X>X>X>X>X>X>X>X>X>X>X=X>X>X2X*XP.J 9 R Q ( Q R E L G.*X&X>X>X>X>X>X>X>X>X>X>X>X>X>X>X>X>X>X>X>X",
">X>X>X>X>X>X>X>XXX>X>XXX>X>X>X>X>X>X>X>X>X>X2X>X>X>X>XuXuX>X>XG.H 8 ^ ( | o...{ ) _ x A.*X>X2X>X>XXX>X>X>X>X>X>X>X>X>X>X>X>X2X>X",
">X>X>X>X>X>X>X>X>XXX>XXX>XXX>X>X>X>X>X>X>X>X>X>X>X>XuXmXnXiX+XA.7 R [ :.X.o.X.X.{ R 2 H *X=X>X>X>X>X>X>X>X>X>X>X>X>X>X>X>X>X>X>X",
">X>X>X>X>X>X>X>X>XXXXX>X>XXX>X>X>X>XuXuX>X>X>X>X>X>XuXmXmX8XL x ^ ( o.X.) / / ( ( 1 6 U @X>X>X>X>X>X>X>X>X>XXX>X>X>XuXuX>X>X>X>X",
">X>X>X>X>X>X>X>X>X>XXX>X>X>X>XXX>X>XuXuX>X>X>X>X>X>X>XuXiXJ 7 R [ +.>.X./ , > R R > - A.-X-X>X>X>X>X>XXXXX>X>X>X>X>XuXuX>X>X>X>X",
">X>X>X>X>X>X>X>X>X>X>X>X>X>XXX>X>X>X>X>X>X>X>X>X>X>X>X>X*XJ E Q  .;.;.X./ > > < 0 ; N C.&X>X>X>X>X>X>X>XXX>X>X>X>X>X>X>X>X>X>X>X",
">X>X>X>X>X>X>X>X>X>X>X>X>X>XXX>X>X>X>X>X>X>X=X=XuXuX>X>X&XY ^ !  .@.;.+.| Q 2 , = K XX&X&X=X>X>X>X>X>X>X>X>X>X>X>X>X>X>X>X>X>X>X",
">X>X>X>X>X>X>X>X>X>X>X>X>X>X>X>X>X>X>X>X2X>X=X=XuXuX&X+XA.G ~ ! ..@.;.@.X.} R > - K G.+X2X&X>X>X>X>X>X>X>X>X>X>X>X>X>X>X2X>X>X>X",
"uXuX>X>X>X>X>X>X>X>X>X>X>X>X>X>X>X>X>X>X>X>X>X>X>X>X*XJ 9 E Q }  .;.;.+.+...( R 1 1 x A.*X>X>X>X>X>X>X>X>X>X>X>X>X2X>X>X>X>X>X>X",
"uXuX>X>X>X>X>X>X>X>X>X>X>X>X>X>X>X>X>X>X>X>X>X>X>XXX+XF 1 W Q } ..;.;.;.;.;.X.} ! R E G J.P.P.P.*X>X>X>X>X>X>X>X>X>X>XuXuX>X>X>X",
">X>X>X>X>X>X>X2X>X>X>X>XXX>X>X>X>X>X>X>X>X>X>X>X>X>X+XF 1 W } ..+.;.;.;.;.;.X...| } ) ` 1.G x H P.>X>X>XXX>X>X>X>X>XuXnXnXuX>X>X",
">X>X>XuXuX>X>X>X>X>X>XXXXX>X>X>X>X>X>X>X>X>X>X>X>X>XP.S 1 Q  .@.;.;.;.;.;.@.;.X.+.@.X.} ! R W 9 A.*X>XXXXX>X>X>X>X>XuXnXnXuX>X>X",
">X>XuXnXnXuX>X>X>X>X>X>X>X>XXX>X>X>X>X>X>X>X>X>X>X>X+XF 1 Q ..>.;.;.+.;.+.;.;.;.;.;.;...[ ( ! ^ 1.Y P.*X>X>XXX>X>X>X>XuXuX>X>X>X",
">X>XuXnXnXuX>X>X>X>X>X>X>X>X>X>X>X>X>X>X>X>X>X>X>X>X+XF 1 Q  .;.;.;.;.;.;.;.;.;.;.;.;.+.+.+...| ( ` U *X>X>X>X>X2X>X>X>X>X>X>X>X",
">X>X>XuXuX>X>X>X>XXX>X>X>X>X>X>X>X>X>X>X>X>X>X>X>XXX+XF 1 Q  .;.;.;.;.;.;.+.;.;.;.@.;.;.;.;.;.X.{ ) 1.A.P.*X>X>X>X>X>X>X>X>XuXuX",
">X>X>X>X>X>X2X>X>X>X>X>X>X>X>X>X>X>X>X>X>X>X>X>XXXXXP.S 1 Q  .>.;.+.;.;.;.;.;.;.+.+.;.;.;.;.;.@.+.| ^ 8 H *X>X>X>X>X>X>X>X>XuXuX",
">X>X>X>X>X>X>X>X>X>X>X>X>X>X>X>X>X>X>X>X>X>X>X>X>X>X@XS 2 R | ;.;.;.;.@.+.;.;.;.;.;.;.;.;.;.@.@.+.O.~ E P P.>X>X>X>X>X>X>X>X>X>X",
">X>X>X>X>X>X>X>X>X>X>X>X>X>X2X>X>X>X>X>X>X>X>X>X>X>X.XJ , 5 | ;.;.;.@.@.;.+.;.;.;.;.;.;.;.;.@.X.} ~ ' *.K.;X>X>X>X>X>X>X>X>X>X>X",
">X>X>X>XXX>X>X>X>X>X>X>X>X>X>X>X>X>X>X>X>X>X>X>X=X=XpXT * 5 [ +.+.+.@.@.@.@.+.;.;.;.;.;.+.+.X...} ' 6._.~.<X>X>X>X>X>X>XXX>X>X>X",
">X>X>XXXXX>X>X>X>X>XuXuX>X>X>X>X>X>X>X>X>X>X>X>X>X-XpXA.* > ) { } { ..+.@.+.@.@.;.>.;.;.+.O.} #.9.'.fXcX_.~.T.P.>X>X>XXXXX>X>X>X",
">X>X>X>X>X>XXX>X>X>XuXuX>X>X>X>X>X>X>X>X>X>X>X>X>X>X.XI & > Q ! ! } ..:.:.+.+.:.:.X.X.:.:.o.[ ,.rXBXMXxXfX!.~.<X>X>X>X>X>X>XXX>X",
">X>X>X>X>X>X>X>X>X>X>X>X>X>X>X>X>X>X>X>X>X>X>X>X>X>X.XM   , E ] ' &.0.8.8.8.<.7.,.) ) 2.8.8.9.).lXNXNXxXeX4.P P.>X>X>X>X>X>X>X>X",
">XXX>X>X>X>X>X>X>X>X>X>X>X>X>X>X>X>X>X>X>X>X>X>XuXuXXXM o 4 $.*.*.(.rXlXtX`.'.(.6.7 6 5.lXlXlXkXMXMXzXqX/.6 m L.>XXX>X>X>X>X>X>X",
">X>X>X>X>X>X>X>X>X>X>X>X2X>X>X>X>X>X>X>X>X>X>X>XiX8XH.B z P 6.(._.qXzXzXzXlXcX`.Q.z & H 0XkXMXNXMXkXwX!.L p N L.>X>X>X>X>X>X>X>X",
">X>X>X>X>X>X>X>X>X>X>X>X>X>X>X>X>X>X>X>X>X>X>X>XL.B m P !.eXdXjXjXzXMXNXNXzXzXxX0Xv   & S 7XkXNXzXfX5.S K M.C.$X>X>X>X>X>X>X>X>X",
">X>X>X>X>X>X>X>X>X>X>X>X>X>X>X>X>X>X>X4X>X>X>X>XL.m ; P ^.eXgXgXgXjXjXlXxXMXNXNXgXY ; & - Y wXjXfX!.S i N @X2X>X>X>X>X>X>X>X2X>X",
">X>X>X>XXX>X>X>X>X>X>X>X>X>X>X>X>X>X>X>X>X>X>X>X@XM.Z K F P P T P Y W.!.qXjXzXNXBXgX0XQ.Q.W.(.W.4.S K V L.%X>X>X>X>X>X>X>X>X>X>X",
">X>X>XXXXX>X>X>X>X>X>X>X>X>X>X>X>X>X>X>X>X>X>X>X>X>X9XI = & & & & * b =.W._.jXkXkXkXhXdX_.!.*.b - i J.pX>X>X>X>X>X>XuXuX>X>X>X>X",
">X>X>X>X>X>XXX>X>X>X>X>X>X>X>X>X>X>X>X>X>X4X4X>X>X>XpX:XN M M a r O # 3 c 4.5.5.Q.Q.Q.Q.5.c b 6 p B :XuX>X>X>X>X>X>XuXuX>X>X>X>X",
">X>X>X>X>X>X>X>X>X>X>X>X>X>X>X>X>X>X>X>X>X3X4X>X>X>X$X@X@X%XL.Z.A d q @ # * - = - - ; - - & @ i H.%X$X>X>X>X>X>X>X>X>X>X>X>X>X>X",
">XXX>X>X>X>X>X>X>X>X>X>X>X>X>X>X1X1X>X>X>X>X>X>X>X>X>XL.I.Z.I.Z.s.y.d q O O + O O O O O O O + a B.>X>X>X>X>X>X>X>X>X>X>X>X>X>X>X",
">X>X>X>X>X>X>X>X>X>X>X>X>X>X>X>X1X1X>X>X>X>X>X>X>X>X>XZ.n.m.m.f.k.j.g.a.h d d h h d d j a.h d A Z.>X>X>X2X>X>X>X>X>X>X>X2X>X>X>X",
"4X>X&X&XP.G.J.J.|.|.|.|.|.|.J.G.G.G.P.U.U.U.>X<X<X%XZ.s.y.y.f.z.c.c.z.p.u.t.u.p.p.a.t.i.f.d.t.u.B.C.F.D..X$X>X>X>X>X>X>X>X>X2X>X",
">X>X1X3XJ.F ` 3.2.2.2.2.2.3.1.` c c c P /.~.^.^.~.I.m.s.j.l.k.c.v.c.e.y.a.i.p.p.p.h t.e.x.z.p.a.a n i m N.@X>X>X>X>X>XuXuX>X>X>X",
">X>X4X5XK.9 / ( o.X.X.:.X. .( Q W _ =.6.W.!.`.`.^.Y.f r.l.c.v.c.c.k.r.t.t.d.h.h.i.t.t.r.c.x.h.w.w @   o N .X>X>X>X>XuXnXnXuX>X>X",
">X>X4XbXpXT x 7 5 R ( | ;.+. .,.9.yXeXwX`.`.`.`.!.v r q.r.j.k.z.j.e.y.a.g.x.x.x.j.q.t.s.z.x.x.h.l k 4 o N .X>X>X>X>XuXnXnXuX>X>X",
">X>X1X4X4X,XH.= X < W ( o.;.X.<.tXVXVXVXxXdX_.).W.z + r f u.p.p.t.f w.d.z.c.v.c.j.y.f u.p.z.c.b.R.%.4 o N .X=X>X>X>X>XuXuX>X>X>X",
"4X4X>X>X=X-XD.N.m z x _ / / / -.{.9X9X9X7X/.4.P c D m y t q j s t t w.z.x.x.k.r.q.e t q j w.e.g.l k b C M.#X=X>X>X>X>X>X>X>X>X2X",
"4X4X>X>X>X>X#X.XOX.XH.D $ X $ $ $ ; ; ; 6 - # - i M.S.C O o o o o q q.l.x.f.w.w + + o o o t f e w - V L.$X=X>X>XuXuX>X>X>X>X>X>X",
">X>X>X>X>X>X>X>X>X>XoXZ n u i : : : u i i u u u N XXoXZ m : : =   + q.j.g.a.w 3 4 3 3 # . + q t y i M.$X>X>X>X>XuXuX>X>X>X>X>X>X",
">X>X>X>X>X>X>X>X>X>X$XL.C.B.C.M.B.M.M.M.M.B.M.B.F.@X$X XS.S.B.V % o d q.e q 3 $.%.E.%.k   . o = M N. X>X>X>X>X>X>X>X>X>X>X>X>X>X",
">X>X>X>X>X>X>X>X>X>X>X>X>X>X>X>X>X>X=X=X>X=X>X>X].].>X>X>X>X=XS.n % g f t o 4 $.%.E.E.l & % % m N. X#X>X>X>X>X>X>X>X>X>X>X>X>X>X",
">X>X>X>X>X>X>X>X>X>X>X>X>X>X>X>X>X>X>X>X>X>X>X>X].].>X>X>X>X=XT.N.V N.V a   X 4 k k k v B B B Z S..X#X>X>X>X>X>X>X>X>X>X>X>X>X>X",
">X>X>X>X>X>X>X>X>X>X>X>X>X>X>X>X>X>X>X>X>X>X>X>X>X>XT.].].T.=X%XOXOXOXS.M =     & o - B S.OXD.OXOX X#X>X>X>X>X>X>X>X>X>X>X>X>X>X",
">X>X>X>X>X>X>X>X>X>X>X>X>X>X>X>X>X>X>X>X>X>X>X>X>X>X].[.[.].>X>X#X@XoXD.I N n n n n n Z D. X X XoXoX$X=X=X>X>X>X>X>X>X>X>X>X>X>X",
">X>X>X>X>X>X>X>X>X>X>X>X>X>X>X>X>X>X>X>X>X>X>X>X>X>X].[.[.].>X>X=X-X XOXD.S.C.C.M.C.OXOXOXOXOX X#X&X=X>X>X>X>X>X>X>X>X>X>X>X>X>X",
">X>X>X>X>X>X>X>X>X>X>X>X>X>X>X>X>X>X>X>X>X>X>X>X>X>XT.].].T.>X>X=X=X#XoX XoXoXoXoXoXXX XoX X X#X&X=X=X>X>X>X>X>X>X>X>X>X>X>X>X>X",
">X>X>X>X>X>X>X>X>X>X>X>X>X>X>X>X>X>X>X>X>X>X>X>X].>X>X>X>X>X>X>X=X=X=X#X$X$X$X$X$X$X-X-X#X$X$X$X&X=X=X=X>X>X>X>X>X>X>X>X>X>X>X>X",
"1X1X>X>X>X>X>X>X>X>X>X>X>X>X>X>X>X>X>X>X>X>X>X>X>X>X>X>X>X>X>X>X=X=X>X>X>X>X>X>X>X>XXX>X>X>X>X>X>X>XXX>X>X>X>X>X>X>X>X>X>X>X>X>X",
"1X1X>X>X>X>X>X>X>X>X>X>X>X>X>X>X>X>X>X4X>X>X>X>X>X>X>X>X>X>X>X>X=X=X>X>X>X>X>X>X>XXX>X>X>X>X>X>X>XXX>X>X>X>X>X>X>X>X>X>X>X>X>X>X",
">X>X>X>X>X4X4X>X>X>X>X>X>X>X>X>X>X>X>X>X>X>X>X>X>X>X>X>X>X>X>X>X>X>X>X>X>X>X>X>X>XXX>X>X>X>X>X>X>XXX>X>X>X>X>X>X>X>X>X>X>X>X>X>X",
">X>X>X>X>X4X4X>X>X>X>X>X>X>X>X>X>X>X>X>X>X>X>X>X>X>X>X>X>X>X>X>X>X>X>X>X>X>X>X>X>X>X>X>X>X>X>X>X>X>X>X>X>X>X>X>X>X>X>X>X>X>X>X>X",
">X>X>X>X>X>X>X>X>X>X>X>X>X>X>X>X>X>X>X>X>X4X4X>X>X>X>X>X>X>X>X>X>X>X>X>X>X>X>X>X>X>X>X>XXX>XXX>X>X>X>X>XXX>XXX>X>X>X>X>X>X>X>X>X",
">X>X>X>X>X>X>X>X>X>X>X>X>X>X>X>X>X>X>X>X>X4X4X>X>X>X>X>X>X>X>X>X>X>X>X>X>X>X>X>X>X>XXX>XXXXX>X>X>X>XXX>XXXXX>X>X>X>X>X>X>X>X>X>X",
">X>X>X4X>X>X>X>X>X>X>X>X>X>X>X>X1X1X>X>X>X>X>X>X>X>X>X>X=X>X>X>X>X>X>X>X>X>X>X>X>X>XXX>XXXXX>X>X>X>XXX>XXXXX>X>X>X>X>X>X>X>X>X>X",
">X>X>X>X>X>X>X>X>X>X>X>X>X>X>X>X1X1X>X>X>X>X>X>X>X>X>X>X,XZ V.>X>X>X>X>X>X>X>X>X>X>X>X>XXX>X>X>X>X>X>X>XXX>X>X>X>X>X>X>X>X>X>X>X"
};
