/* XPM */
static char *minish_left[] = {
/* columns rows colors chars-per-pixel */
"64 64 242 2 ",
"   c #161A18",
".  c #281A17",
"X  c #381E1E",
"o  c #1C231B",
"O  c #1A2B1A",
"+  c #182718",
"@  c #183319",
"#  c #382918",
"$  c #302E17",
"%  c #1C2925",
"&  c #1A3426",
"*  c #272924",
"=  c #2A322E",
"-  c #34342D",
";  c #273C32",
":  c #363D34",
">  c #322F29",
",  c #2A1E21",
"<  c #471618",
"1  c #540F19",
"2  c #77110E",
"3  c #6E1217",
"4  c #4D3414",
"5  c #703615",
"6  c #5C0F22",
"7  c #720D29",
"8  c #4D342C",
"9  c #782A25",
"0  c #703631",
"q  c #164A1D",
"w  c #14551B",
"e  c #265C1D",
"r  c #0F6E19",
"t  c #2E661F",
"y  c #174623",
"u  c #165722",
"i  c #1A4F32",
"p  c #254A23",
"a  c #264839",
"s  c #364738",
"d  c #23553C",
"f  c #235B20",
"g  c #187826",
"h  c #196F30",
"j  c #2A7927",
"k  c #544C11",
"l  c #6A4711",
"z  c #4A463A",
"x  c #535232",
"c  c #684837",
"v  c #6C4E34",
"b  c #6F3E44",
"n  c #295646",
"m  c #365A47",
"M  c #2E6852",
"N  c #336C56",
"B  c #37765C",
"V  c #2F664B",
"C  c #3B7C61",
"Z  c #5B5844",
"A  c #514C44",
"S  c #645C45",
"D  c #714947",
"F  c #5D664D",
"G  c #5E7759",
"H  c #49694E",
"J  c #686D54",
"K  c #776A55",
"L  c #6B6C4F",
"P  c #4B7662",
"I  c #75786B",
"U  c #870817",
"Y  c #9D0014",
"T  c #970317",
"R  c #86191A",
"E  c #910712",
"W  c #A70219",
"Q  c #B6011C",
"!  c #A4171E",
"~  c #9B1526",
"^  c #8E0721",
"/  c #AA0724",
"(  c #B90424",
")  c #B60733",
"_  c #B01632",
"`  c #8D2B2D",
"'  c #AF3232",
"]  c #A82218",
"[  c #CC012C",
"{  c #C30127",
"}  c #C90234",
"|  c #D30133",
" . c #DB0035",
".. c #DD023B",
"X. c #CD072D",
"o. c #E5003D",
"O. c #E9003E",
"+. c #E50036",
"@. c #937B0B",
"#. c #A46A06",
"$. c #844E32",
"%. c #956E3A",
"&. c #A15823",
"*. c #C27E01",
"=. c #B31D43",
"-. c #D21D4D",
";. c #CC1A47",
":. c #E90040",
">. c #E60441",
",. c #F10044",
"<. c #D73446",
"1. c #864442",
"2. c #8F7650",
"3. c #946F70",
"4. c #897267",
"5. c #A6694B",
"6. c #CD5256",
"7. c #C57750",
"8. c #DA4D65",
"9. c #EB526A",
"0. c #DB545D",
"q. c #16861A",
"w. c #129B1A",
"e. c #338919",
"r. c #16A71A",
"t. c #17B719",
"y. c #0EAF17",
"u. c #33BA1E",
"i. c #28B91E",
"p. c #168825",
"a. c #159522",
"s. c #1A8C34",
"d. c #278A28",
"f. c #2A9626",
"g. c #379A27",
"h. c #31872B",
"j. c #18AC2E",
"k. c #2BAA22",
"l. c #37A725",
"z. c #51B809",
"x. c #16D811",
"c. c #17CE12",
"v. c #27C519",
"b. c #25D915",
"n. c #30C21C",
"m. c #16E80D",
"M. c #17EB0C",
"N. c #24C22D",
"B. c #2E9856",
"V. c #31A94E",
"C. c #398665",
"Z. c #338371",
"A. c #3E9672",
"S. c #3CA972",
"D. c #6C8D58",
"F. c #418969",
"G. c #598A68",
"H. c #439C76",
"J. c #459D7A",
"K. c #439476",
"L. c #589973",
"P. c #4F906F",
"I. c #6A8A6D",
"U. c #45A27B",
"Y. c #44A97B",
"T. c #55A87B",
"R. c #4BB579",
"E. c #74A876",
"W. c #4C9F56",
"Q. c #988404",
"!. c #C88B03",
"~. c #B88E56",
"^. c #AF8C52",
"/. c #8C8975",
"(. c #95886C",
"). c #AE966D",
"_. c #92AD74",
"`. c #B4A673",
"'. c #94815F",
"]. c #D5946F",
"[. c #CBAA72",
"{. c #E2B87A",
"}. c #D69B6B",
"|. c #D26482",
" X c #3AA486",
".X c #38B0B8",
"XX c #5D9F85",
"oX c #789186",
"OX c #49A382",
"+X c #4AAB84",
"@X c #40A888",
"#X c #4BAD88",
"$X c #54AC81",
"%X c #55AA83",
"&X c #4BB286",
"*X c #4DB58A",
"=X c #4EBB8D",
"-X c #47B581",
";X c #53B589",
":X c #51BE8E",
">X c #59B68A",
",X c #50BF90",
"<X c #4DB492",
"1X c #72B78A",
"2X c #50C090",
"3X c #4BC494",
"4X c #48D0A8",
"5X c #78D0A0",
"6X c #65D7B0",
"7X c #68E0B8",
"8X c #78C799",
"9X c #60E0C8",
"0X c #8E9982",
"qX c #B5AB91",
"wX c #95AA83",
"eX c #CD9083",
"rX c #DABC8B",
"tX c #D1BA8D",
"yX c #E9B393",
"uX c #E5A9A2",
"iX c #98D8B8",
"pX c #97D3B3",
"aX c #88C3A6",
"sX c #80F0A0",
"dX c #8FC18D",
"fX c #DDC795",
"gX c #C7C088",
"hX c #E6CD98",
"jX c #D5CAAF",
"kX c #EBD9AB",
"lX c #E7DAB4",
"zX c #EECFAE",
"xX c #F5E7B9",
"cX c #EDE3B8",
"vX c #D7BCC4",
"bX c #80F8C8",
"nX c #D0D9CF",
"mX c #D8F0D8",
"MX c #D6EAD2",
"NX c #F5ECC3",
"BX c #FBF6CA",
"VX c #EAE4C0",
/* pixels */
"9X9XsXsXZ.@X,X2X2X2X2X2X2X2X2X2X2X2X2X2X2X2X2X2X2X2X2X2X2X2X2X2X2X2X2X2X2X2X2X2X2X2X2X2X2X2X2X2X2X2X2X2X2X2X2X2X2X2X2X2X2X2X2X2X",
"9X9X XZ.sX@X2X2X2X2X2X2X2X2X2X2X7X7X2X2X2X2X2X2X2X2X2X7X2X2X2X2X2X2X2X7X2X2X2X2X2X2X2X2X2X2X2X2X2X2X2X7X2X2X2X2X2X2X2X2X2X2X2X2X",
"9X9X9X.X@XsX2X2X2X2X2X2X2X2X2X2X7X7X2X2X2X2X2X7X2X2X2X2X2X2X2X2X2X2X2X2X2X2X2X2X2X2X2X2X@X2X2X2X2X2X2X2X2X2X2X2X2X2X2X2X@X2X2X2X",
"9X9X2XsX2X2X2X2X2X2X2X2X2X2X2X2X2X2X4X7X7X4X2X2X2X2X2X2X2X2X2X2X2X2X2X2X2X2X2X2X2X2X2X@X@X2X2X2X2X2X2X2X2X2X2X2X2X2X2X@X@X2X2X2X",
"9X9X9X@XsX2X2X2X2X2X2X2X2X2X2X2X2X2X7XbX9X7X2X2X2X2X2X2X2X7X7X2X2X2X2X2X2X7X7X2X2X2X2X2X2X2X@X2X2X2X2X2X2X7X7X2X2X2X2X2X2X2X@X2X",
"sXsX2X2XsX2X2X2X2X2X2X2X2X2X2X2X2X2X7XbXbX7X2X=X2X2X2X2X2X7X7X2X2X2X2X2X2X7X7X2X2X2X2X2X2X2X2X2X2X2X2X2X2X7X7X2X2X2X2X2X2X2X2X2X",
"2X2XsXsX2X2X2X2X2X2X2X2X2X2X2X2X2X2X4X7X7X>XL.I.XXXXL.L.$X>X2X2X4X4X2X2X2X2X2X2X2X@X2X2X2X2X2X2X4X4X2X2X2X2X2X2X2X@X2X2X2X2X2X2X",
"2X2X2X2X2X2X2X2X2X2X2X2X2X2X2X2X7X2X2X2X$XG v 0 1.1.0 v G.>X2X2X4X4X2X2X2X2X2X2X2X2X2X2X2X2X2X2X4X4X2X2X2X2X2X2X2X2X2X2X2X2X2X2X",
"2X2X2X2X2X2X2X2X2X2X2X2X2X2X2X2X2X2X=X;XL.v U E W W E 3 S L.8X2X2X2X2X2X2X2X2X2X2X2X2X2X2X2X2X2X2X2X2X2X2X2X2X2X2X2X2X2X2X2X2X2X",
"2X2X2X2X2X2X2X2X@X2X2X@X2X2X2X2X2X2XT.G D ` / { X.[ { / ` S G.&X2X X2X2X2X2X2X2X2X2X2X2X2X2X5X2X2X@X2X2X2X2X2X2X2X2X2X2X2X2X5X2X",
"2X2X2X2X2X2X2X2X2X@X2X@X2X@X2X2X=X2XG.c U / | ..+.....} / R c L.2X2X2X2X2X2X2X2X2X2X2X2X2X2X2X2X2X2X2X2X2X2X2X2X2X2X2X2X2X2X2X2X",
"2X2X2X2X2X2X2X2X2X@X@X2X2X@X2X2X3X3X0X8 3 W | } ) ) >.>.{ / ` J G.T.2X2X2X2X@X2X2X2XiXiX2X2X2X2X2X2X2X2X2X2X@X2X2X2XiXiX2X2X2X2X",
"2X2X2X2X2X2X2X2X2X2X@X2X2X2X2X@X2X,XoXA < U / ^ 1 7 ) >.o.} / R v P.:X@X@X2X2X2X2X2XiXiX2X2X2X2X2X2X2X@X@X2X2X2X2X2XiXiX2X2X2X2X",
"2X2X2X2X2X2X2X2X2X2X2X2X2X2X@X2X2X,XH.V > 6 U 3 X 6 / >.,.O.{ Y 9 G :X2X@X2X2X2X2X2X2X2X2X2X2X2X2X2X2X2X@X2X2X2X2X2X2X2X2X2X2X2X",
"2X2X2X2X2X2X2X2X2X2X2X2X2X2X@X2X2X2X&XA.B 8 < 1 3 ^ ) >.,.:.[ Q ` I =X2X2X2X2X2X2X2X2X2X2X2X2X2X2X2X2X2X2X2X2X2X2X2X2X2X2X2X2X2X",
"2X2X2X2X2X2X2X2X2X2X2X2X2X2X2X2X2X,X,X;XXXm X 1 T ( ..>.:.o.| Q ` K T.3X2X2X2X2X2X2X2X2X5X2X2X2X2X2X2X2X2X2X2X2X2X2X2X2X5X2X2X2X",
"iXiX2X2X2X2X2X2X2X2X2X2X2X2X2X2X2X2XT.G.Z 8 3 U ( | o.O.:.o.| Q ! v J P.;X2X2X2X2X2X2X2X2X2X2X2X2X2X2X2X2X2X2X2X2X5X2X2X2X2X2X2X",
"iXiX2X2X2X2X2X2X2X2X2X2X2X2X=X:X2X2XG.c 3 U T ( | o.o.O.:.:.| Q Y U 9 J $X2X2X2X2X2X2X2X2X2X2X2X2X2X2X2X2X2X2X2X2X2X2XiXiX2X2X2X",
"2X2X2X2X2X2X2X5X2X2X2X2X@X>XT.G.G.I.K ` Y Q { | o.:.:.o.:.:. .[ Q E 2 S K.2X2X2X2X2X2X2X2X2X2X2X2X2X2X2X@X2X2X2X2X2XiXmXmXiX2X2X",
"2X2X2XiXiX2X2X2X2X2X2X@X@XT.F 0 ` ` ' ) } |  .o.o.:.:.:.:.o.o...{ Y 2 Z K.2X2X2X2X2X2X2X2X2X2X2X2X2X2X@X@X2X2X2X2X2XiXmXmXiX2X2X",
"2X2XiXmXmXiX2X2X2X2X2X>XT.I.0 U Y Q {  .o.:.:.:.:.:.:.:.O.:.:.:.[ Y 2 S $X2X@X2X2X2X2X2X2X2X2X2X2X2X2X2X2X2X@X2X2X2X2XiXiX2X2X2X",
"2X2XiXmXmXiX2X2X2X2X:XL.K 1._ ( ( [  .o.:.:.:.:.:.o.o.:.o.:.,.:.[ W 2 Z $X2X2X2X2X2X2X2X2X2X2X2X2X2X2X2X2X2X2X2X5X2X2X2X2X2X2X2X",
"2X2X2XiXiX2X2X2X:X@X$XI.` ) X...o.o.o.:.:.:.:.:.:.:.:.:.:.:.,.O.| Y 2 S T.2X2X2X2X2X2X2X2X2X2X2X2X@X2X2X2X2X2X2X2X2X2X2X2X2XiXiX",
"2X2X2X2X2X2X5X2X>XT.G 1._ X.+.>.:.:.:.:.o.o.:.:.:.:.o.:.:.:.O.,.} Y 2 S T.2X2X2X2X2X2X2X2X2X2X2X2X2X2X2X2X2X2X2X2X2X2X2X2X2XiXiX",
"2X2X2X2X2X2X2X2X;XG 9 ~ X...o.o.:.:.:.:.:.O.:.:.O.:.:.:.O.O.O.O.| W 2 Z T.2XiXiX2X2X2X2X2X2X2X2X2X2X2X2X2X2X2X2X2X2X2X2X2X2X2X2X",
"2X2X2X2X2X2X2X2X$XL ` ! X.+.o.o.:.:.:.O.:.:.:.:.:.o.o.:.O.O.,.,.} U 3 F R.,XiXiX2X2X2X2X2X2X2X2X2X2X2X2X2X2X2X2X2X2X2X2X2X2X2X2X",
"2X2X2X2X@X2X2X2XR.(.%.&._ X. .>.:.:.o.:.:.O.:.:.:.o.:.:.O.O.O.O.} 7 X m +X2X2X2X2X2X2X2X2X2X2X2X2X2X2X2X2X2X2X2X2X2X2X2X@X2X2X2X",
"2X2X2X X*X2X2X2X1X_.}.7.' X.X...o.o.O.:.:.:.O.O.:.O.:.o.O.+.O.+.) 6 , P aX2X2X2X2X2X2X2X2X2X2X2X2X2X2X2X2X2X2X2X2X2X2X@X@X2X2X2X",
"2X2X2X2X2X2X&XE._.gXhXrX].0.<.( | +.o.:.,.O.O.O.O.o.O.+. .[ X.[ / 1 % I nXpX3X2X2X2X2X2X2X2X2X2X2X2X2X2X2X2X2X2X2X2X2X2X2X2X@X2X",
"2X2X2X2X2X2XE.(.`.fXcXxXNXuX6.X.[ o.:.>.o.o.O.,.>.>.,.,.X.Q Q X.^ 1 = I nXpX2X2X2X2X2X2X2X2X2X2X2X2X2X2X2X2X2X2X2X2X2X2X2X2X2X2X",
"2X@X2X2X2X2XT.D.2.[.kXBXBXlXeX6.0.9.8.=._ =.<.<.0.9.9.9.6.' ' ] 3 < o P 8X2X2X2X2X2X2X2X2X2X2X2X2X2X2X2X2X2X2X2X2X@X2X2X2X2X2X2X",
"2X2X2X2X2X2XT.m x 2.fXxXBXNXzXzXzXzXeXb 6 $.7.].].yXuXyX].7.&.&.5 4 % M Y.2X2X2X2X2X2X2X2X2X2X2X2X2X2X2X2X2X2X2X2X2X2X2X2X2X2X2X",
"2X2X2X2X,X,XH.V s L ).fXkXNXBXNXcXjX/.: $ S }.fXhXkXNXNXhX{.}.^.5.v x N P.T.=X2X2X2X2X2X2X2X2X2X2X2X2X2X2X2X2X2X2X2X2X2X2X2X2X2X",
"2X2X2X2X2X,X&XH.B H Z 4.tXxXBXNXqXI z o = '.fXkXxXNXBXBXxXkXhXfXtX`.(.J d B Y.2X2X2X2X2X2X2X2X2X2X2X2X2X2X2X5X2X2X2X2X2X2X2X5X2X",
"2X2X2X2X X2X2X2X+XN ; S ).hXcXkX_.A , * z _.cXBXxXNXVXcXcXlXlXlXjXfX`.K : n H.:X2X2X2X2X@X2X2X2X2X2X2X2X2X2X2X2X2X2X2X2X2X2X2X2X",
"2X2X2X@X@X2X2X2X&XA.M H J 2.).[.).K K 4.0XjXBXBXxXkXfX`.`././././.'.4.F V C Y.2X2X2X2X@X@X2X2X2X2X2XiXiX2X2X2X2X2X2XiXiX2X2X2X2X",
"2X2X2X2X2X2X X2X=X=XY.F.s 8 v %.~.[.tXjXlXVXNXlXhX{.~.%.v - > - > > - N J.6X6X2X2X2X2X2X2X2X@X2X2X2XiXiX2X2X2X2X2X2XiXiX2X2X2X2X",
"2X2X2X2X2X2X2X2X2X2X:XA.V s k l %.'.`.qXqXqXqXqX).2.$.l $ @ @ i a a n C.;X7X7X2X2X2X2X2X2X2X2X2X2X2X2X2X2X2X2X2X2X2X2X2X2X2X2X2X",
"2X@X2X2X2X2X2X2X2X2X:X&XU.B s * 4 z 8 A A A z z z 8 # $ q u h B. X XA.+X:X2X2X2X2X@X2X2X2X2X2X2X2X2X2X2X2X2X2X2X2X2X2X2X2X2X2X2X",
"2X2X2X2X2X2X2X2X2X2X2X2X=XY.V @ o O O % O O O O + O O & u q.V.R.3X3XR.=X=X2X2X2X2X2X2X2X2X2X2X2X2X2X2X2X5X2X2X2X2X2X2X2X5X2X2X2X",
"7X2X2X2X2X2X2X2X2X2X2X2X2XY.V w u f f q q u e w w u f j w.t.N.V.V.B.B.Y.2X2X2X2X2X2X2X2X2X2X2X2X,X,X,X,X,X,X,X,X2X2X<X,X,X,X5X,X",
"2X2X4X7X7X4X2X2X,X,X*X=X=XS.B.g d.g.f.g g d.g.h.g g h.g.v.m.b.u.g.s.s.B.*X2X2X2X>X2X2X>X;X;X8X;X>X>X>X<X>X>X>X>X>X;X#XpXiX,X2X2X",
"2X2X7XbXbX7X2X2X=XA.C B C B V d.k.v.i.a.p.h.l.g.h.d.d.f.c.M.M.x.v.t.t.j.V.T.1XdX_._._.D.D.G G J K I 4.3.3.3.3.3.4.L /.jXMXiX2X2X",
"2X2X7XbXbX7X2X2X-XB ; % % p j k.v.x.c.a.g g.g.g.g.f.d.a.c.m.M.M.m.M.x.j.s.W._.gX[.`.^.%.$.5 7 7 _ _ ;.-.-.-.-.-._ R $.qXMXiX2X2X",
"2X2X4X7X7X4X2X2X+XM % . # k e.u.b.b.c.a.p.f.u.u.u.l.d.p.y.c.m.m.m.m.c.w.r H `.{.{.[.}.~.5.5.=.=.( X.o.o.| } ) ) ~ 9 c 0XpX,X,X2X",
"7X7X2X2X2X2X2X7X+XM * 4 $.@.z.b.b.n.f.p.p.t.x.M.M.v.k.f.s.w.k.i.i.j.w.r q x ^.{.{.{.fXzXjXvXuX|.>.+.O. .( T 2 6 8 F G.$X,X,X2X5X",
"7X7X2X2X2X2X2X2X&XB p 4 #.@.z.m.v.f.d.g r y.x.m.m.x.n.l.d.g j e.h.j r q & z 2.^.`.{.fXnXnXnXvX|.;.} | ) ~ 3 < = P aX2X2X2X2X2X2X",
"2X2X2X2X2X2X2X2X=XH.B x l k e.r.w.e q @ q r r r.v.b.b.v.q.q @ p p q y n M H x v S K I I.0XoX3.b 7 7 7 9 A F H M oXaX2X2X2X2X2X2X",
"2X2X2X2X2X2X2X2X2X2X&XC.s * u g w O + o o o @ e e.n.m.c.r @ + o o o & N U.C.s o * * > = = = > * , , , : P &X;X&X*X2X2X2X2X2X2X2X",
"2X2X2X2X2X2X2X2X2X2X=XK.m i i q +   . k l l 5 k k d.t.y.r + o a n n m C.*XU.B n a n a d d a d d n n n M H.2X3X2X2X2X2X2X2X2X2X2X",
"2X2X2X2X2X2X2X2X2X2X2X+XK.N i +     k #.!.*.#.l $ q r q.w + a D.U.U.U.&X=X=XOXU.H.H.J.H.J.H.U.H.U.U.A.@X*X=X2X2X2X2X2X2X2X2X2X2X",
"2X2X2X2X2X2X2X2X2X2X,X=X#XA.M ; = ; k @.!.!.#.5 . % h h i a N OX,X,X2X2X2X2X2X2X2X2X,X,X,X,X2X2X,X2X2X2X2X2X2X2X2X2X2X2X2X2X2X2X",
"2X2X2X2X2X2X2X2X,X,X,X*XOXK.Z.B N B H x l l 4 X . % V C.C.B F.&X2X2X2X2X2X2X2X2X2X2X2X2X2X2X2X2X2X2X2X2X2X2X2X2X2X2X2X2X2X2X2X2X",
"2X2X2X2X2X2X2X2X2X,X,X*X#XOXOXOXOXJ.C ; o o , o o a C J.OXT.+X=X2X2X2X2X2X2X2X2X2X2X2X2X2X2X2X2X2X2X2X2X2X2X2X2X2X2X2X2X2X2X2X2X",
"2X2X2X2X2X2X2X2X2X2X,X:X*X#XOXOXOXOXA.N n n n M m N K.OX>XT.:X2X2X2X2X2X2X2X2X2X2X2X2X2X2X2X2X2X2X2X2X2X2X2X2X2X2X2X2X2X2X2X2X2X",
"2X2X2X2X2X2X2X2X2X2X,X,X:X<XOXOXOXOXK.K.K.K.K.K.A.K.J.OX+X=X2X2X2X2X2X2X2X2X2X2X2X2X2X2X2X2X2X2X2X2X2X2X2X2X2X2X2X2X2X2X2X2X2X2X",
"4X4X2X2X2X2X2X2X2X2X2X2X2X,X*X+X+X+X#X#X#X#X#X#X#X#X#X#X<X,X2X2X2X2X2X2X2X2X2X2X2X2X@X2X2X2X2X2X2X2X@X2X2X2X2X2X2X2X2X2X2X2X2X2X",
"4X4X2X2X2X2X2X2X2X2X2X2X2X,X,X*X*X=X*X6X=X=X=X=X=X=X=X=X=X,X2X2X2X2X2X2X2X2X2X2X2X@X2X2X2X2X2X2X2X@X2X2X2X2X2X2X2X2X2X2X2X2X2X2X",
"2X2X2X2X2X7X7X2X2X2X2X2X,X,X,X,X2X2X2X2X2X2X2X2X2X2X2X2X2X2X2X2X2X2X2X2X2X2X2X2X2X@X2X2X2X2X2X2X2X@X2X2X2X2X2X2X2X2X2X2X2X2X2X2X",
"2X2X2X2X2X7X7X2X2X2X2X2X2X,X,X,X2X2X2X2X2X2X2X2X2X2X2X2X2X2X2X2X2X2X2X2X2X2X2X2X2X2X2X2X2X2X2X2X2X2X2X2X2X2X2X2X2X2X2X2X2X2X2X2X",
"2X2X2X2X2X2X2X2X2X2X2X2X2X2X2X2X2X2X2X2X2X7X7X2X2X2X2X2X2X2X2X2X2X2X2X2X2X2X2X2X2X2X2X2X@X2X@X2X2X2X2X2X@X2X@X2X2X2X2X2X2X2X2X2X",
"2X2X2X2X2X2X2X2X2X2X2X2X2X2X2X2X2X2X2X2X2X7X7X2X2X2X2X2X2X,X2X2X2X2X2X2X2X2X2X2X2X2X@X2X@X@X2X2X2X2X@X2X@X@X2X2X2X2X2X2X2X2X2X2X",
"2X2X2X7X2X2X2X2X2X2X2X2X2X2X2X2X4X4X2X2X2X2X2X2X2X2X2X2X,X,X2X2X2X2X2X2X2X2X2X2X2X2X@X2X@X@X2X2X2X2X@X2X@X@X2X2X2X2X2X2X2X2X2X2X",
"2X2X2X2X2X2X2X2X2X2X2X2X2X2X2X2X4X4X2X2X2X2X2X2X2X2X2X2X3XC Z.2X2X2X2X2X2X2X2X2X2X2X2X2X@X2X2X2X2X2X2X2X@X2X2X2X2X2X2X2X2X2X2X2X"
};
