/* XPM */
static char *minish_up_left[] = {
/* columns rows colors chars-per-pixel */
"64 64 187 2 ",
"   c #60E0C8",
".  c #80F0A0",
"X  c #308070",
"o  c #40A888",
"O  c #50C090",
"+  c #68E0B8",
"@  c #38B0B8",
"#  c #48D0A8",
"$  c #80F8C8",
"%  c #78D0A0",
"&  c #98D8B8",
"*  c #D8F0D8",
"=  c #AE0017",
"-  c #A30013",
";  c #7B0002",
":  c #B5001D",
">  c #C30026",
",  c #BB0021",
"<  c #93000C",
"1  c #C3002B",
"2  c #E90041",
"3  c #E4003D",
"4  c #CA002A",
"5  c #DC0137",
"6  c #890007",
"7  c #D40032",
"8  c #B20016",
"9  c #730000",
"0  c #AB001A",
"q  c #8D000C",
"w  c #5B0302",
"e  c #150F10",
"r  c #111315",
"t  c #630715",
"y  c #93041C",
"u  c #D3002F",
"i  c #BE3336",
"p  c #A26A50",
"a  c #7E7562",
"s  c #5B472D",
"d  c #383222",
"f  c #6A272B",
"g  c #C21E30",
"h  c #DD0038",
"j  c #BD6F57",
"k  c #CAB487",
"l  c #CCC29F",
"z  c #A87D44",
"x  c #382B1C",
"c  c #936026",
"v  c #B08246",
"b  c #CAA36A",
"n  c #D99370",
"m  c #BB1629",
"M  c #B70520",
"N  c #7E6C51",
"B  c #283123",
"V  c #332F29",
"C  c #665A44",
"Z  c #B59E75",
"A  c #DBC292",
"S  c #EFD8A4",
"D  c #E9CC91",
"F  c #D9A96E",
"G  c #D78E6C",
"H  c #DC9983",
"J  c #E0A491",
"K  c #DFA28F",
"L  c #E39E86",
"P  c #CE8668",
"I  c #735F49",
"U  c #3D3D31",
"Y  c #665744",
"T  c #968566",
"R  c #A29E87",
"E  c #906D43",
"W  c #FCF1BF",
"Q  c #FAEEBC",
"!  c #E8D4A1",
"~  c #CBAF80",
"^  c #322B27",
"/  c #191919",
"(  c #16271A",
")  c #2B301B",
"_  c #7C5F23",
"`  c #B69760",
"'  c #C8AE7F",
"]  c #A48346",
"[  c #5D4C1C",
"{  c #106524",
"}  c #116B25",
"|  c #217226",
" . c #2F4728",
".. c #353129",
"X. c #2A5A27",
"o. c #157627",
"O. c #137326",
"+. c #2E9129",
"@. c #248B28",
"#. c #147C28",
"$. c #206C22",
"%. c #2C651F",
"&. c #168229",
"*. c #2E8D29",
"=. c #34BB1F",
"-. c #39B722",
";. c #369729",
":. c #40A727",
">. c #248627",
",. c #36B421",
"<. c #3AA825",
"1. c #1CE310",
"2. c #29CD18",
"3. c #348C27",
"4. c #2B9327",
"5. c #17EB0D",
"6. c #1C7B28",
"7. c #339D24",
"8. c #18E40E",
"9. c #129521",
"0. c #13FC09",
"q. c #17A00F",
"w. c #183C1C",
"e. c #16C816",
"r. c #13F509",
"t. c #13A61E",
"y. c #155825",
"u. c #184F13",
"i. c #12D60B",
"p. c #249725",
"a. c #14AB1C",
"s. c #118910",
"d. c #249A1A",
"f. c #20E411",
"g. c #27D216",
"h. c #1D731B",
"j. c #146D11",
"k. c #109A15",
"l. c #244235",
"z. c #2C4943",
"x. c #30722D",
"c. c #2AB71E",
"v. c #1FD514",
"b. c #265536",
"n. c #1C1921",
"m. c #114221",
"M. c #1F8429",
"N. c #409E29",
"B. c #469B7C",
"V. c #489E80",
"C. c #227E43",
"Z. c #318A5B",
"A. c #489F7F",
"S. c #49A281",
"D. c #51552B",
"F. c #938743",
"G. c #30735A",
"H. c #213D35",
"J. c #695951",
"K. c #D4B89B",
"L. c #806344",
"P. c #41523E",
"I. c #2F6958",
"U. c #1D362D",
"Y. c #6C6A66",
"T. c #F2E6D8",
"R. c #DCBD8F",
"E. c #705A3C",
"W. c #2B2012",
"Q. c #0E1515",
"!. c #EAC8A0",
"~. c #B78E6C",
"^. c #8D4E16",
"/. c #ED395A",
"(. c #F04573",
"). c #E12E52",
"_. c #B91326",
"`. c #4F0E22",
"'. c #92042A",
"]. c #EB003A",
"[. c #291518",
"{. c #840718",
"}. c #B3042E",
"|. c #2A151A",
" X c #98E078",
".X c #68C878",
"XX c #C0E870",
/* pixels */
"    . . X o O O O O O O O O O O O O O O O O O O O O O O O O O O O O O O O O O O O O O O O O O O O O O O O O O O O O O O O O O O ",
"    o X . o O O O O O O O O O O + + O O O O O O O O O + O O O O O O O + O O O O O O O O O O O O O O O + O O O O O O O O O O O O ",
"      @ o . O O O O O O O O O O + + O O O O O + O O O O O O O O O O O O O O O O O O O O o O O O O O O O O O O O O O O O o O O O ",
"    O . O O O O O O O O O O O O O O # + + # O O O O O O O O O O O O O O O O O O O O O o o O O O O O O O O O O O O O O o o O O O ",
"      o . O O O O O O O O O O O O O + $ $ + O O O O O O O + + O O O O O O + + O O O O O O O o O O O O O O + + O O O O O O O o O ",
". . O O . O O O O O O O O O O O O O + $ $ + O O O O O O O + + O O O O O O + + O O O O O O O O O O O O O O + + O O O O O O O O O ",
"O O . . O O O O O O O O O O O O O O # + + # O O # # O O O O O O # # O O O O O O O o O O O O O O # # O O O O O O O o O O O O O O ",
"O O O O O O O O O O O O O O O O + O O O O O O O # # O O O O O O # # O O O O O O O O O O O O O O # # O O O O O O O O O O O O O O ",
"O O O O O O O O O O O O O O O O O O O O O O O O O O O O O O % O O O O O O O O O O O O O O O O O O O O O O O O O O O O O O O O O ",
"O O O O O O O O o O O o O O O O O O O O O O % O O O O & & O O O O o O O O O O O O O O O O O % O O o O O O O O O O O O O O O % O ",
"O O O O O O O O O o O o O o O O O O O O O O O O O O & * * & O O O O O O O O O O O O O O O O O O O O O O O O O O O O O O O O O O ",
"O O O O O O O O O o o O O o O O O O & & O O O O O O & * * & O O O O O O O O o O O O & & O O O O O O O O O O o O O O & & O O O O ",
"O O O O O O O O O O o O O O O o O O & & O O O O O O O & & O O O O O O o o O O O O O & & O O O O O O O o o O O O O O & & O O O O ",
"O O O O O O O O O O O O O O o O O O O O O O O O O O O O O O O % O O O O o O O O O O O O O O O O O O O O o O O O O O O O O O O O ",
"O O O O O O O O O O O O O O o O O O O O O O O O & & O O O O = - ; O O O O O O O O O O O O O O O O O O O O O O O O O O O O O O O ",
"O O O O O O O O O O O O O O O O O O O O % O O O & & O O O : > , < ; O O O O O O O O O O % O O O O O O O O O O O O O O O % O O O ",
"& & O O O O O O O O O O O O O O O O O O O O O O O O O O ; 1 2 3 , < ; O O O O O O O O O O O O O O O O O O O O O O % O O O O O O ",
"& & O O O O O O O O O O O O O O O O O O O O O O O o O O ; 1 2 2 3 , - O O O O O O O O O O O O O O O O O O O O O O O O & & O O O ",
"O O O O O O O % O O O O o O O O O O O O O O O O O O O O < 4 2 2 2 5 , ; o O O O O O O O O O O O O O O O o O O O O O & * * & O O ",
"O O O & & O O O O O O o o O O O O O O O O O O O O O O O > 5 2 2 2 2 4 6 o O O O O O O O O O O O O O O o o O O O O O & * * & O O ",
"O O & * * & O O O O O O O O o O O O O O O O O O O O O < 5 2 2 2 2 2 7 8 O O o O O O O O O O O O O O O O O O o O O O O & & O O O ",
"O O & * * & O O O O O O O O O O O O O O O O O O O 9 6 0 3 2 2 2 2 2 3 7 q O O O O O O O O O O O O O O O O O O O % O O O O O O O ",
"O O O & & O O O O o O O O O O O O O O O O O O O O < 0 7 3 2 2 2 2 2 2 3 - O O O O O O O O O O O O o O O O O O O O O O O O O & & ",
"O O O O O O % O O O O O O O O O O O O O O O O O o = 4 2 2 2 2 2 2 2 2 3 > 0 O O O O O O O O O O O O O O O O O O O O O O O O & & ",
"O O O O O O O O O O O O O O O O O O O O O O O O O = 4 2 2 2 2 2 2 2 2 2 3 0 9 & O O O O O O O O O O O O O O O O O O O O O O O O ",
"O O O O O O O O O O O O O O % O O O O O O O O O O 8 4 2 2 2 2 2 2 2 2 2 2 0 w e r O O O O O O O O O O O O O O O O O O O O O O O ",
"O O O O o O O O O O O O O O O O O O O O O O O O O t y u 3 2 2 2 2 2 2 3 u i p a s O O O O O O O O O O O O O O O O O O O o O O O ",
"O O O o o O O O O O & & O O O O O O O O O O O O O d f g 5 5 5 5 5 5 h 5 g j k l z O O O O O O O O O O O O O O O O O O o o O O O ",
"O O O O O O o O O O & & O O O O O O O O O O O x c v b n m : M M M M : m n N B V O O O O O O O O O O O O O O O O O O O O O O o O ",
"O O O O O O O O O O O O O O O O O O O O O r C Z A S D F G H J K K J L P I U O O O O O O O O O O O O O O O O O O O O O O O O O O ",
"O o O O O O O O O O O O O O O O O O O O O O Y T R R T E b S W Q Q ! ~ T ^ O O O O O O O O O O O O O O O O O O O O o O O O O O O ",
"O O O O O O O O O O O O % O O O O O O O O O O / / ( ( ) _ ` ~ ~ ' ] [ ( O O O O O O O O O O O O O O O O O O O O O O O O O O O O ",
"O O O O O O O O O O O O O O O O O O O O O O O O O { } } |  .V ....X.o.} O.O O O O O O O O O O O O O O O O O O O O O O O O O O O ",
"O O O O O O O O O O O O O O O O O O O + O O O O O +.+.@.#.$.%.%.%.O.&.+.*.O O O O O O O O O O O O O O O O O % O O O O O O O % O ",
"O O O O o O O O O O O O O O O O O O O O O O O O O =.-.;.#.+.-.-.:.>.>.:.=.,.O O O O O O o O O O O O O O O O O O O O O O O O O O ",
"O O O o o O O O O O O O O O O O O O O O O O O O <.1.2.3.#.4.2.5.,.@.6.7.8.2.<.O O O O o o O O O O O & & O O O O O O & & O O O O ",
"O O O O O O o O O O O O O O O O O O O O O + + 9.8.0.q.w.O.e.r.r.5.t.y.u.i.0.e.#.O O O O O O o O O O & & O O O O O O & & O O O O ",
"O O O O O O O O O O O O O O O O O O O O O + *.p.a.s.u.r w.d.f.r.g.h.( O j.k.a.4.O O O O O O O O O O O O O O O O O O O O O O O O ",
"O o O O O O O O O O O O O O O O # # O O O O O ;.O.l.z.O l.x.c.v.7.b.z.O n.m.M.N.O o O O O O O O O O O O O O O O O O O O O O O O ",
"O O O O O O O O O O O O O O O O # # O O O O O O O B.B.V.B.C.>.N.6.Z.V.A.O O O O O O O O O O O O O O O O % O O O O O O O % O O O ",
"+ O O O O O O O O O O O O O O O O O O O O O O O O S.S.S.B.b.D.F.B G.S.S.O O O O O O O O O O O O O O O O O O O O O O O O O O % O ",
"O O # + + # O O O O O O O O O O O % O O O O O O O O S.S.B.H.J.K.L.P.I.O O O O O O O O O O O % O O O O O O O O O O O O & & O O O ",
"O O + $ $ + O O O O O O O O O O O O O O O O O O O O O S.B.U.Y.T.R.E.W.O O O O O O O O O O O O O O O O O O O O O O O & * * & O O ",
"O O + $ $ + O O O O O O O O O O O O O O & & O O O O O O O Q.Y !.T.~.^.O O O o O O O & & O O O O O O O O O O O O O O & * * & O O ",
"O O # + + # O O O O O O O O O O O O O O & & O O O O O O O Q.f /.(.)._.; o O O O O O & & O O O O O O O O O O O O O O O & & O O O ",
"+ + O O O O O + O O O O O O O O O O O O O O O O O O O O O + `.'.4 ].7 < o O O O O O O O O O O O O O O O O O O O O O O O O O O % ",
"+ + O O O O O O O O O O O O O O O O O O O O O O # # O O O O O [.{.}.}.y O O O O O O O O O O O O O O O O O O O O & & O O O O O O ",
"O O O O O O O O O O O O O O O O O O O % O O O O # # O O O O O O [.|.|.[.O O O O O O O O % O O O O O O O O O O O & & O O O O O O ",
"O O O O O O O O O O O O O O O O O O O O O O O O O O O O O O O O O O O O O O O O O O O O O O O O O O O O O O O O O O O O O O O O ",
"O O O O O O O O O O O O O O O O O O O O O O O O  X XO O O O O O O O O O O O O O O O O O O O O O O O O O O O O O O O O O O O O O ",
"O O O O O O O O O O O O O O O O O O O O O O O O  X XO O O O O  XO O O O O O O O O O O O O O O O O O O O O O O O O O O O O O O O ",
"O O O O O O O O O O O O O O O O O O O O O O O O O O .X X X.XO O O O O O O O O O O O O O O O O O O O O O O O O O O O O O O O O O ",
"O O O O O O O O O O O O O O O O O O O O O O O O O O  XXXXX XO O O O O O O O O O O O O O O O O O O O O O O O O O O O O O O O O O ",
"O O O O O O O O O O O O O O O O O O O O O O O O O O  XXXXX XO O O O O O O O O O O O O O O O O O O O O O O O O O O O O O O O O O ",
"O O O O O O O O O O O O O O O O O O O O O O O O O O .X X X.XO O O O O O O O O O O O O O O O O O O O O O O O O O O O O O O O O O ",
"O O O O O O O O O O O O O O O O O O O O O O O O  XO O O O O O O O O O O O O O O O O O O O O O O O O O O O O O O O O O O O O O O ",
"# # O O O O O O O O O O O O O O O O O O O O O O O O O O O O O O O O O O O O O O O O o O O O O O O O o O O O O O O O O O O O O O ",
"# # O O O O O O O O O O O O O O O O O + O O O O O O O O O O O O O O O O O O O O O o O O O O O O O o O O O O O O O O O O O O O O ",
"O O O O O + + O O O O O O O O O O O O O O O O O O O O O O O O O O O O O O O O O O o O O O O O O O o O O O O O O O O O O O O O O ",
"O O O O O + + O O O O O O O O O O O O O O O O O O O O O O O O O O O O O O O O O O O O O O O O O O O O O O O O O O O O O O O O O ",
"O O O O O O O O O O O O O O O O O O O O O + + O O O O O O O O O O O O O O O O O O O O O o O o O O O O O o O o O O O O O O O O O ",
"O O O O O O O O O O O O O O O O O O O O O + + O O O O O O O O O O O O O O O O O O O o O o o O O O O o O o o O O O O O O O O O O ",
"O O O + O O O O O O O O O O O O # # O O O O O O O O O O O O O O O O O O O O O O O O o O o o O O O O o O o o O O O O O O O O O O ",
"O O O O O O O O O O O O O O O O # # O O O O O O O O O O O X X O O O O O O O O O O O O O o O O O O O O O o O O O O O O O O O O O "
};
