/* XPM */
static char *minish_back[] = {
/* columns rows colors chars-per-pixel */
"64 64 233 2 ",
"   c #1C3B1D",
".  c #2E321C",
"X  c #1F2B27",
"o  c #1C3927",
"O  c #252924",
"+  c #21362A",
"@  c #353529",
"#  c #5A151A",
"$  c #510F1B",
"%  c #7B0D10",
"&  c #76221C",
"*  c #561525",
"=  c #761029",
"-  c #483728",
";  c #463935",
":  c #522B2A",
">  c #6A3A2C",
",  c #79342A",
"<  c #1A5119",
"1  c #166E13",
"2  c #2A6E1E",
"3  c #174B28",
"4  c #165926",
"5  c #1A5D31",
"6  c #284537",
"7  c #374A38",
"8  c #355534",
"9  c #176826",
"0  c #157D28",
"q  c #187E29",
"w  c #137526",
"e  c #177632",
"r  c #266925",
"t  c #326E29",
"y  c #49491B",
"u  c #48452C",
"i  c #55452C",
"p  c #5A5637",
"a  c #4C4D34",
"s  c #6D4535",
"d  c #735B3A",
"f  c #725133",
"g  c #527428",
"h  c #796932",
"j  c #70591F",
"k  c #295745",
"l  c #365C47",
"z  c #2D6549",
"x  c #34654E",
"c  c #2E6451",
"v  c #336A55",
"b  c #2F7156",
"n  c #36765A",
"m  c #2B784E",
"M  c #377A66",
"N  c #535149",
"B  c #665944",
"V  c #7A5444",
"C  c #4F6E51",
"Z  c #776956",
"A  c #6F7049",
"S  c #507969",
"D  c #6F7D64",
"F  c #88040B",
"G  c #98010F",
"H  c #990517",
"J  c #8B0F1B",
"K  c #A60218",
"L  c #B3011D",
"P  c #A80528",
"I  c #BB0121",
"U  c #B50224",
"Y  c #B9192A",
"T  c #A80A32",
"R  c #A9142D",
"E  c #992A33",
"W  c #8C2F32",
"Q  c #BA2A2F",
"!  c #871C21",
"~  c #C0001F",
"^  c #C20124",
"/  c #CC012D",
"(  c #C4022B",
")  c #D4002F",
"_  c #C80634",
"`  c #D40033",
"'  c #DB0035",
"]  c #DD0039",
"[  c #D80C39",
"{  c #C11F2F",
"}  c #E4003D",
"|  c #EA003C",
" . c #C72738",
".. c #A34636",
"X. c #8D6C37",
"o. c #A6773C",
"O. c #A26739",
"+. c #C3473D",
"@. c #E90041",
"#. c #E70040",
"$. c #E9184E",
"%. c #CA3941",
"&. c #844843",
"*. c #896B47",
"=. c #917749",
"-. c #B27744",
";. c #9A685D",
":. c #C35444",
">. c #CF6D5A",
",. c #D5746A",
"<. c #F06E74",
"1. c #13931A",
"2. c #14A71B",
"3. c #16B918",
"4. c #2AB91C",
"5. c #2EB01C",
"6. c #198627",
"7. c #1D8E32",
"8. c #268928",
"9. c #299726",
"0. c #389928",
"q. c #369736",
"w. c #2B8D31",
"e. c #3DA527",
"r. c #36B622",
"t. c #3FA836",
"y. c #32B232",
"u. c #23A020",
"i. c #4F912C",
"p. c #41A226",
"a. c #668B33",
"s. c #14D70E",
"d. c #19D812",
"f. c #10D10C",
"g. c #2CC41C",
"h. c #24D914",
"j. c #33C21D",
"k. c #17EA0D",
"l. c #14F50A",
"z. c #13FB09",
"x. c #1BE211",
"c. c #31C424",
"v. c #20E212",
"b. c #30845A",
"n. c #2B904E",
"m. c #3BA752",
"M. c #3A8566",
"N. c #399569",
"B. c #338270",
"V. c #3F9773",
"C. c #39A866",
"Z. c #3CAD75",
"A. c #548E59",
"S. c #47AF55",
"D. c #418A69",
"F. c #598463",
"G. c #449C7A",
"H. c #449A77",
"J. c #589973",
"K. c #52926B",
"L. c #698267",
"P. c #65936B",
"I. c #4AB367",
"U. c #45A47C",
"Y. c #46AA7C",
"T. c #58A47A",
"R. c #48B57A",
"E. c #49AD70",
"W. c #68B978",
"Q. c #609251",
"!. c #68C879",
"~. c #50C368",
"^. c #B48B53",
"/. c #A7926D",
"(. c #B0936A",
"). c #A59062",
"_. c #C7965E",
"`. c #D58277",
"'. c #D0986D",
"]. c #CEA66B",
"[. c #C9A774",
"{. c #D7AC75",
"}. c #D9B174",
"|. c #8ED777",
" X c #98E078",
".X c #BCE36E",
"XX c #C0E870",
"oX c #3CAB9E",
"OX c #489E81",
"+X c #49A382",
"@X c #4AAC85",
"#X c #40A888",
"$X c #46A985",
"%X c #53AD81",
"&X c #4CB589",
"*X c #4EBC8C",
"=X c #4CB685",
"-X c #51BD8E",
";X c #54B287",
":X c #50BF90",
">X c #6BAF90",
",X c #50C090",
"<X c #4AC191",
"1X c #48D0A8",
"2X c #45CBA2",
"3X c #78D0A0",
"4X c #68E0B8",
"5X c #70C491",
"6X c #60E0C8",
"7X c #B8B0A9",
"8X c #9BA78B",
"9X c #F5819A",
"0X c #D3AE86",
"qX c #E2B988",
"wX c #98D8B8",
"eX c #92D4B0",
"rX c #90CEAE",
"tX c #80F0A0",
"yX c #E8C898",
"uX c #EBD29D",
"iX c #E2C38B",
"pX c #DBD0AA",
"aX c #EAD7A7",
"sX c #E6DBB5",
"dX c #F2DCB8",
"fX c #E6CEAE",
"gX c #F8EDBB",
"hX c #F7EAB6",
"jX c #DCC392",
"kX c #80F8C8",
"lX c #D8F0D8",
"zX c #F4E9CD",
"xX c #F3DAD0",
/* pixels */
"6X6XtXtXB.#X,X,X,X,X,X,X,X,X,X,X,X,X,X,X,X,X,X,X,X,X,X,X,X,X,X,X,X,X:X:X:X:X:X:X,X,X,X,X,X,X,X,X,X,X,X,X,X,X,X,X,X,X,X,X,X,X,X,X",
"6X6X#XB.tX#X,X,X,X,X,X,X,X,X,X,X4X4X,X,X,X,X,X,X,X,X,X4X,X;X%XJ.T.%X%X5X;X:X:X:X,X,X,X,X,X,X,X,X,X,X,X4X,X,X,X,X,X,X,X,X,X,X,X,X",
"6X6X6XoX#XtX,X,X,X,X,X,X,X,X,X,X4X4X,X,X,X,X,X4X,X,X,X,X,XJ.B f &.&.V B F.&X:X,X,X,X,X,X#X,X,X,X,X,X,X,X,X,X,X,X,X,X,X,X#X,X,X,X",
"6X6X,X4X,X,X,X,X,X,X,X,X,X,X,X,X,X,X1X4X4X1X,X,X,X:X:X:X;XC & F L K G % B T.*X:X,X,X,X#X#X,X,X,X,X,X,X,X,X,X,X,X,X,X,X#X#X,X,X,X",
"6X6X6X&XtX,X,X,X,X,X,X,X,X,X,X,X,X,X4XkXkX4X,X,X,X,X;XJ.A &.P U ^ ( I P W Z >XT.,X,X,X,X,X,X#X,X,X,X,X,X,X4X4X,X,X,X,X,X,X,X#X,X",
"tXtX,X,XtX,X,X,X,X,X,X,X,X,X,X,X,X,X4XkXkX4X,X,X,X,XT.C & H ` } } ] } ` P J B J.,X,X,X,X,X,X,X,X,X,X,X,X,X4X4X,X,X,X,X,X,X,X,X,X",
",X,XtXtX,X,X,X,X,X,X,X,X,X,X,X,X,X,X1X4X4X1X,X,X1X1X%XB % H ' @.@.@.@.#.L F > J.,X#X,X,X,X,X,X,X1X1X,X,X,X,X,X,X,X#X,X,X,X,X,X,X",
",X,X,X,X,X,X,X,X,X,X,X,X,X,X,X,X4X,X,X,X,X,X,X,X1X1X%XB % K ` @.@.@.@.] L % > J.,X,X,X,X,X,X,X,X1X1X,X,X,X,X,X,X,X,X,X,X,X,X,X,X",
",X,X,X,X,X,X,X,X,X,X,X,X,X,X,X,X,X,X,X,X,X,X,X,X*X%XF.s F K ' @.@.@.@.} U F s J.-X,X,X,X,X,X,X,X,X,X,X,X,X,X,X,X,X,X,X,X,X,X,X,X",
",X,X,X,X,X,X,X,X#X,X,X#X,X,X,X,X,X,X,X,X,X,X3X,XT.A > ! H I ] @.@.@.@.} ( K &.J.-X,X,X,X,X,X3X,X,X#X,X,X,X,X,X,X,X,X,X,X,X,X3X,X",
",X,X,X,X,X,X,X,X,X#X,X#X,X#X,X,X,X,X,X,X,X,X,X,XJ.s F G L / } @.@.@.@.@._ I W L.;X-X,X,X,X,X,X,X,X,X,X,X,X,X,X,X,X,X,X,X,X,X,X,X",
",X,X,X,X,X,X,X,X,X#X#X,X,X#X,X,X,X,XwXwX,X,X,X,XJ., G L / ] } @.@.@.@.@.} [ R s C T.wXwX,X,X,X,X,X,X,X,X,X,X#X,X,X,XwXwX,X,X,X,X",
",X,X,X,X,X,X,X,X,X,X#X,X,X,X,X#X,X,XwXwX:X:X:X:XP.&.U ` } #.#.#.@.#.@.#.@.} ^ H , F.rXwX:X:X,X,X,X,X,X#X#X,X,X,X,X,XwXwX,X,X,X,X",
",X,X,X,X,X,X,X,X,X,X,X,X,X,X#X,X,X,X,X,X:X:X$XM.C E _ ] @.@.@.@.@.@.#.@.@.@.` U J N M.G.*X:X,X,X,X,X,X,X#X,X,X,X,X,X,X,X,X,X,X,X",
",X,X,X,X,X,X,X,X,X,X,X,X,X,X#X,X,X,X,X,X:X:XN.k : T ] @.#.@.@.@.#.#.#.@.@.@.} } T * 6 M &X:X:X,X,X,X,X,X,X,X,X,X,X,X,X,X,X,X,X,X",
",X,X,X,X,X,X,X,X,X,X,X,X,X,X,X,X,X,X,X,X3X*XD.@ $ T @.@.@.@.#.#.@.| @.#.@.@.@.@._ = . C 5X:X:X,X,X,X,X,X,X,X,X,X,X,X,X,X3X,X,X,X",
"wXwX,X,X,X,X,X,X,X,X,X,X,X,X,X,X,X,X,X,X,X*XF.: % U #.@.@.@.#.@.#.| @.@.@.@.@.@._ F # C %X,X,X,X,X,X,X,X,X,X,X,X,X3X,X,X,X,X,X,X",
"wXwX,X,X,X,X,X,X,X,X,X,X,X,X,X,X,X,X,X,X,X*XF.& G ( #.@.@.@.@.@.@.@.@.@.@.@.@.@.` G J A ;X,X,X,X,X,X,X,X,X,X,X,X,X,X,XwXwX,X,X,X",
",X,X,X,X,X,X,X3X,X,X,X,X#X,X,X,X,X,X,X,X,X,XL.! K ) @.@.@.@.#.#.@.#.@.@.@.@.@.@.] U J A ;X,X,X,X,X,X,X,X#X,X,X,X,X,XwXlXlXwX,X,X",
",X,X,XwXwX,X,X,X,X,X,X#X#X,X,X,X,X,X,X,X,X,XL.E I ` @.@.@.#.@.@.#.@.@.@.@.@.@.@.] I R Z ;X,X,X,X,X,X,X#X#X,X,X,X,X,XwXlXlXwX,X,X",
",X,XwXlXlXwX,X,X,X,X,X,X,X,X#X,X,X,X,X,X,X,XL.E ~ ` | @.@.#.| @.@.@.| #.@.@.@.@.] ^ R Z -X,X,X,X,X,X,X,X,X,X#X,X,X,X,XwXwX,X,X,X",
",X,XwXlXlXwX,X,X,X,X,X,X,X,X,X,X,X,X,X,X,X-XL.E ~ ' | @.@.@.#.@.@.#.@.#.@.| @.@.' ^ R Z ;X,X,X-X:X,X,X,X,X,X,X,X3X,X,X,X,X,X,X,X",
",X,X,XwXwX,X,X,X,X#X,X,X,X,X,X,X,X*XV.M.D.P.=...Q { ` ' #.@.@.@.@.@.@.@.| | | ' ) { ..*.Q.K.M.V.&X#X:X,X,X,X,X,X,X,X,X,X,X,XwXwX",
",X,X,X,X,X,X3X,X,X,X,X,X,X,X,X,X,XY.m 8 a X.o.-.+.Q ^ ` @.@.@.@.@.@.@.@.| | ) ~ { ..>.o.X.p 7 k G.:X:X,X,X,X,X,X,X,X,X,X,X,XwXwX",
",X,X,X,X,X,X,X,X,X,X,X,X,X,X,X=XY.D.l - d =._.]._.:. ._ ' ' ' ' [ ' [ ' ' ' [ { ..`.]._.^.X.- 7 n +X&X*X,X,X,X,X,X,X,X,X,X,X,X,X",
",X,X,X,X,X,X,X,X,X,X,X,X,X,X3XU.v 7 d =.(.qXuXaXuX0X,.%.( L ~ ~ ~ ^ ^ ^ ~ ~  .>.{.yXuXaXiX(.).h a k N.*X,X,X,X,X,X,X,X,X,X,X,X,X",
",X,X,X,X#X,X,X,X,X,X,X,X,X,X*XH.k @ d ^.[.pXsXdXaXuX}.>.Q Y Y Q Y Y Y Y Y { :.'.uXuXaXsXpX0X/.*.u 6 M.*X,X,X,X,X,X,X,X,X#X,X,X,X",
",X,X,X#X#X,X,X,X,X,XwXwX,X,X,X@XM.v a d Z D ).(.].}.}.'.>.,.,.`.`.`.`.`.>.>.`.{.}.[.[./.).Z B p C M G.:X,X,X,X,X,X,X,X#X#X,X,X,X",
",X,X,X,X,X,X#X,X,X,XwXwX,X,X,X,X-XG.x O O O u h o._._.].qXyXaXhXdXdXhXsXuXqX{._._.o.X.p O X O 7 M.&X*X:X,X,X,X,X,X,X,X,X,X,X#X,X",
",X,X,X,X,X,X,X,X,X,X,X,X,X,X,X,X-X&XM.k k k C A h h d ^.].iXhXgXgXgXgXhXyX{.^.=.A h h C k k k n $X:X,X:X,X,X,X,X,X,X,X,X,X,X,X,X",
",X#X,X,X,X,X,X,X,X,X,X,X,X,X,X,X,X-X@XY.U.U.Y.%X8XN @ j O._.iXuXuXuXuXiX].o.j : 7 S T.R.U.U.U.$X*X,X,X,X,X,X,X,X,X#X,X,X,X,X,X,X",
",X,X,X,X,X,X,X,X,X,X,X,X3X,X,X,X,X,X,X,X-X-X-XR.T.z   y j =.).(.[.[.[.).^.h y . 3 b.R.*X,X-X:X:X:X,X,X,X,X,X,X,X,X,X,X,X,X,X,X,X",
",X,X,X,X,X,X,X,X,X,X,X,X,X,X,X,X,X,X,X,X,X,XZ.N.7.9 4 9 2 8 a s O.o.f i 8 t r 4 9 e n.C.<X,X,X,X,X,X,X,X,X,X,X,X,X,X,X,X,X,X,X,X",
",X,X,X,X,X,X,X,X,X,X,X,X,X,X,X,X,X,X,X4X,X<XZ.7.e q q 0 w 4   y j j y . < 9 w 6.q q 7.N.*X,X,X,X,X,X,X,X,X,X3X,X,X,X,X,X,X,X3X,X",
",X,X,X,X#X,X,X,X,X,X,X,X,X,X,X,X,X,X,X,X,X,XE.q.8.9.9.6.w w r t g i.g 2 9 w 6.6.9.w.w.E.#X-X,X,X,X,X,X,X,X,X,X,X,X,X,X,X,X,X,X,X",
",X,X,X#X#X,X,X,X,X,X,X,X,X,X,X,X,X,X,X,X,X<XI.t.e.p.0.8.w 8.0.p.p.p.p.0.8.q 6.0.p.0.t.S.Z.*X,X,X,X,XwXwX,X,X,X,X,X,XwXwX,X,X,X,X",
",X,X,X,X,X,X#X,X,X,X,X,X,X,X,X,X,X,X,X,X*X!.~.c.j.r.p.w.0 8.0.e.j.g.r.e.9.q 8.0.e.j.j.c.S.R.$X<X,X,XwXwX,X,X,X,X,X,XwXwX,X,X,X,X",
",X,X,X,X,X,X,X,X,X,X,X,X,X,X,X,X,X,X,X=XI.p.g.x.d.r.0.8.0 8.0.r.d.x.g.e.8.q q 0.r.h.k.j.p.S.R.<X,X,X,X,X,X,X,X,X,X,X,X,X,X,X,X,X",
",X#X,X,X,X,X,X,X,X,X,X,X,X,X,X,X1X2XR.C.m.4.h.l.x.u.2 r 0 1.4.h.k.l.h.4.u.0 9 2 9.s.l.x.c.m.C.Z.&X<X:X,X,X,X,X,X,X,X,X,X,X,X,X,X",
",X,X,X,X,X,X,X,X,X,X,X,X,X,X,X,X1X2XN.7.4.v.l.z.f.1 3 4 e 2.d.k.l.z.l.d.3.6.4 3 < 3.l.z.k.d.7.n.R.:X,X,X3X,X,X,X,X,X,X,X3X,X,X,X",
"4X,X,X,X,X,X,X,X,X,X,X,X,X,X,X,X<XR.n.7.2.f.s.f.2.9 + 3 9 1.d.k.l.l.l.d.2.w 3 6 4 1.f.s.s.3.1.n.Z.,X,X,X,X,X,X,X,X,X,X,X,X,X3X,X",
",X,X1X4X4X1X,X,X,X,X,X,X,X,X,X,X<X5Xm.q.u.2.1.1 r v n x o 2 5.h.l.l.h.4.2 3 3 n n r 1 1.1.u.9.m.E.,X,X,X,X,X,X,X,X,X,XwXwX,X,X,X",
",X,X4XkXkX4X,X,X,X,X,X,X,X,X,X,X,XR.S.p.w.7.4 o k D.$Xv o r 8.r.d.k.g.0.8 o l G.G.c X 4 0 w.t.S.R.,X,X,X,X,X,X,X,X,XwXlXlXwX,X,X",
",X,X4XkXkX4X,X,X,X,X,X,X,X,X,X,X,X<XI.I.W.T.b.c v G.@XD.x z t u.4.4.5.8.t c M OX+XS S K.N.C.S.I.,X,X,X,X,X,X,X,X,X,XwXlXlXwX,X,X",
",X,X1X4X4X1X,X,X,X,X,X,X,X,X,X,X,X,X,X*XeXrX=XG.G.OXOXOXV.b.e 8.0.e.8.q n.M.OXOX+X&XrXrX&X*X*X*X,X,X,X,X,X,X,X,X,X,X,XwXwX,X,X,X",
"4X4X,X,X,X,X,X4X,X,X,X,X,X,X,X,X,X,X,X,X<X,X*X$X+X+XOX+X+XM.5 r a.a.t 4 m G.@X+X$X&X:X:X,X,X,X,X,X,X,X,X,X,X,X,X,X,X,X,X,X,X,X3X",
"4X4X,X,X,X,X,X,X,X,X,X,X,X,X,X,X,X,X,X,X,X,X&X@X+XOXOX+XG.b + u X.).i o k H.+XOX+X&X:X:X,X,X,X,X,X,X,X,X,X,X,X,XwXwX,X,X,X,X,X,X",
",X,X,X,X,X,X,X,X,X,X,X,X,X,X,X,X,X,X,X3X,X,X&X@X$X+XOX+XG.c X ; /.(.*.u l v D.OX&X-X:X:X3X,X,X,X,X,X,X,X,X,X,X,XwXwX,X,X,X,X,X,X",
",X,X,X,X,X,X,X,X,X,X,X,X,X,X,X,X,X,X,X,X,X,X:X*X&XY.U.+XG.c O N 7XfX0X*.p 7 c H.:X,X,X,X,X,X,X,X,X,X,X,X,X,X,X,X,X,X,X,X,X,X,X,X",
",X,X,X,X,X,X,X,X,X,X,X,X,X,X,X,X,X,X,X,X,X,X,X,X|.>X+X@XU.x X N 7XzXfX[.V @ 8 U.:X,X,X,X,X,X,X,X,X,X,X,X,X,X,X,X,X,X,X,X,X,X,X,X",
",X,X,X,X,X,X,X,X,X,X,X,X,X,X,X,X,X,X,X,X,X,X,X,XtX|.&X&X@Xv X N 8XzXzXsX/.f g @X:X:X,X,X,X,X,X,X,X,X,X,X,X,X,X,X,X,X,X,X,X,X,X,X",
",X,X,X,X,X,X,X,X,X,X,X,X,X,X,X,X,X,X,X,X,X,X,X,X%X,X!. X|.n + a (.yXxXxX0XO.X.J.*X:X,X,X,X,X,X,X,X,X,X,X,X,X,X,X,X,X,X,X,X,X,X,X",
",X,X,X,X,X,X,X,X,X,X,X,X,X,X,X,X,X,X,X,X,X,X,X,X-X-X XXXXXQ.X : :.<.9X9X,.%...V S T.,X,X,X,X,X,X,X,X,X,X,X,X,X,X,X,X,X,X,X,X,X,X",
",X,X,X,X,X,X,X,X,X,X,X,X,X,X,X,X,X,X,X,X,X,X,X,X,X-X XXX.XQ.o $ T $.$.$.$.} I J , F.,X,X,X,X,X,X,X,X,X,X,X,X,X,X,X,X,X,X,X,X,X,X",
",X,X,X,X,X,X,X,X,X,X,X,X,X,X,X,X,X,X,X,X,X,X,X,X,X,X!. X|.A.z ; = T _ ` | | / G & D *X,X,X,X,X,X,X,X,X,X,X,X,X,X,X,X,X,X,X,X,X,X",
",X,X,X,X,X,X,X,X,X,X,X,X,X,X,X,X,X,X,X,X,X,X,X,X X,X,X,X-X=XU.S ; * J U ' | ) L E L.-X,X,X,X,X,X,X,X,X,X,X,X,X,X,X,X,X,X,X,X,X,X",
"1X1X,X,X,X,X,X,X,X,X,X,X,X,X,X,X,X,X,X,X,X,X,X,X,X,X,X,X,X,X:XU.c @ * J P U T P , D #X:X:X<X,X,X,X,X#X,X,X,X,X,X,X,X,X,X,X,X,X,X",
"1X1X,X,X,X,X,X,X,X,X,X,X,X,X,X,X,X,X,X4X,X,X,X,X,X,X,X,X,X:X:X&XOXv @ $ * * $ $ - S &X:X<X:X,X,X,X#X,X,X,X,X,X,X,X,X,X,X,X,X,X,X",
",X,X,X,X,X4X4X,X,X,X,X,X,X,X,X,X,X,X,X,X,X,X,X,X,X,X,X,X,X,X,X,X:X+Xc X X O O X 6 M *X,X:X,X,X,X,X#X,X,X,X,X,X,X,X,X,X,X,X,X,X,X",
",X,X,X,X,X4X4X,X,X,X,X,X,X,X,X,X,X,X,X,X,X,X,X,X,X,X,X,X,X,X,X,X:X&XV.b v b b v M.Y.,X,X:X,X,X,X,X,X,X,X,X,X,X,X,X,X,X,X,X,X,X,X",
",X,X,X,X,X,X,X,X,X,X,X,X,X,X,X,X,X,X,X,X,X4X4X,X,X,X,X,X,X,X,X,X,X*X*X&X&X&X&X@X=X*X,X,X#X,X#X,X,X,X,X,X#X,X#X,X,X,X,X,X,X,X,X,X",
",X,X,X,X,X,X,X,X,X,X,X,X,X,X,X,X,X,X,X,X,X4X4X,X,X,X,X,X,X,X,X,X,X:X:X,X:X:X:X<X,X,X#X,X#X#X,X,X,X,X#X,X#X#X,X,X,X,X,X,X,X,X,X,X",
",X,X,X4X,X,X,X,X,X,X,X,X,X,X,X,X1X1X,X,X,X,X,X,X,X,X,X,X<X,X,X,X,X,X,X,X,X,X,X,X,X,X#X,X#X#X,X,X,X,X#X,X#X#X,X,X,X,X,X,X,X,X,X,X",
",X,X,X,X,X,X,X,X,X,X,X,X,X,X,X,X1X1X,X,X,X,X,X,X,X,X,X,X<XM B.,X,X,X,X,X,X,X,X,X,X,X,X,X#X,X,X,X,X,X,X,X$X,X,X,X,X,X,X,X,X,X,X,X"
};
