/* XPM */
static char *minish_left_right[] = {
/* columns rows colors chars-per-pixel */
"64 64 192 2 ",
"   c #60E0C8",
".  c #80F0A0",
"X  c #308070",
"o  c #40A888",
"O  c #50C090",
"+  c #68E0B8",
"@  c #38B0B8",
"#  c #48D0A8",
"$  c #80F8C8",
"%  c #78D0A0",
"&  c #98D8B8",
"*  c #D8F0D8",
"=  c #740100",
"-  c #93000C",
";  c #A20012",
":  c #7B0002",
">  c #AC001E",
",  c #C30029",
"<  c #CB002C",
"1  c #B70023",
"2  c #930010",
"3  c #BB0024",
"4  c #E5003E",
"5  c #E90041",
"6  c #9D0013",
"7  c #9D000F",
"8  c #DA0034",
"9  c #840109",
"0  c #DD0139",
"q  c #3D0917",
"w  c #B91C2A",
"e  c #D30439",
"r  c #563131",
"t  c #654C24",
"y  c #62411C",
"u  c #1A1C1A",
"i  c #A56F2F",
"p  c #C77E4F",
"a  c #E02044",
"s  c #E8003E",
"d  c #E51A49",
"f  c #CC9B6E",
"g  c #665D42",
"h  c #191617",
"j  c #985C1A",
"k  c #AF7F3D",
"l  c #DCAE78",
"z  c #C92D3A",
"x  c #D1002C",
"c  c #C11429",
"v  c #BC7643",
"b  c #7E6539",
"n  c #673F1A",
"m  c #825F32",
"M  c #C5975C",
"N  c #BB523A",
"B  c #BA262B",
"V  c #CA192F",
"C  c #AF3E2E",
"Z  c #141418",
"A  c #372816",
"S  c #9C692B",
"D  c #BD9256",
"F  c #A95F34",
"G  c #BA2231",
"H  c #B94839",
"J  c #9C7748",
"K  c #312A21",
"L  c #0B1416",
"P  c #423626",
"I  c #E8D1A2",
"U  c #EFE4B9",
"Y  c #E1B184",
"T  c #EAC4A1",
"R  c #EDCEAF",
"E  c #EABB92",
"W  c #977B5C",
"Q  c #0A0C0F",
"!  c #534B3D",
"~  c #DDC89A",
"^  c #8E8871",
"/  c #CDA065",
"(  c #DAB67A",
")  c #F0D89F",
"_  c #F9E7B2",
"`  c #F5E0A9",
"'  c #E2C58C",
"]  c #92805E",
"[  c #0C0E10",
"{  c #43423A",
"}  c #9B9781",
"|  c #343230",
" . c #3F3712",
".. c #7E7125",
"X. c #8B6B41",
"o. c #9E825E",
"O. c #A38C69",
"+. c #364025",
"@. c #0B2718",
"#. c #2E6421",
"$. c #358825",
"%. c #1C2B1C",
"&. c #1A281C",
"*. c #156923",
"=. c #178626",
"-. c #0F6024",
";. c #268928",
":. c #359429",
">. c #287A25",
",. c #18C516",
"<. c #21CC17",
"1. c #3A9A29",
"2. c #167B27",
"3. c #13241D",
"4. c #29B61F",
"5. c #14DC10",
"6. c #18F20B",
"7. c #099F1C",
"8. c #5B9650",
"9. c #A9732E",
"0. c #863C0B",
"q. c #F80045",
"w. c #231D17",
"e. c #493C12",
"r. c #3B9C1C",
"t. c #25D516",
"y. c #2FAA22",
"u. c #33C21E",
"i. c #2FB021",
"p. c #13B819",
"a. c #1CE210",
"s. c #0A8919",
"d. c #587944",
"f. c #D9AD6F",
"g. c #AE7A58",
"h. c #A24546",
"j. c #BC082A",
"k. c #C70130",
"l. c #B50534",
"z. c #970420",
"x. c #4A2E12",
"c. c #A97304",
"v. c #3AD109",
"b. c #13EF09",
"n. c #359626",
"m. c #0D3C1C",
"M. c #51412C",
"N. c #E7D1B5",
"B. c #E4E6E4",
"V. c #E2CFD3",
"C. c #DA3461",
"Z. c #381113",
"A. c #1B811D",
"S. c #176B1B",
"D. c #227B1A",
"F. c #1EDF11",
"G. c #20341C",
"H. c #463E31",
"J. c #4B4A49",
"K. c #48202C",
"L. c #471120",
"P. c #4A111F",
"I. c #285749",
"U. c #184629",
"Y. c #87620B",
"T. c #854F0B",
"R. c #594916",
"E. c #276C1F",
"W. c #10AC15",
"Q. c #134A13",
"!. c #160B16",
"~. c #459A7B",
"^. c #2C4F43",
"/. c #1C2F2E",
"(. c #494D26",
"). c #BC8C07",
"_. c #B97402",
"`. c #673A0B",
"'. c #1C7239",
"]. c #215136",
"[. c #243430",
"{. c #49A382",
"}. c #3A7B64",
"|. c #282419",
" X c #429374",
".X c #377864",
"XX c #3E8269",
"oX c #489E7F",
"OX c #4BA987",
"+X c #98E078",
"@X c #68C878",
"#X c #C0E870",
/* pixels */
"    . . X o O O O O O O O O O O O O O O O O O O O O O O O O O O O O O O O O O O O O O O O O O O O O O O O O O O O O O O O O O O ",
"    o X . o O O O O O O O O O O + + O O O O O O O O O + O O O O O O O + O O O O O O O O O O O O O O O + O O O O O O O O O O O O ",
"      @ o . O O O O O O O O O O + + O O O O O + O O O O O O O O O O O O O O O O O O O O o O O O O O O O O O O O O O O O o O O O ",
"    O . O O O O O O O O O O O O O O # + + # O O O O O O O O O O O O O O O O O O O O O o o O O O O O O O O O O O O O O o o O O O ",
"      o . O O O O O O O O O O O O O + $ $ + O O O O O O O + + O O O O O O + + O O O O O O O o O O O O O O + + O O O O O O O o O ",
". . O O . O O O O O O O O O O O O O + $ $ + O O O O O O O + + O O O O O O + + O O O O O O O O O O O O O O + + O O O O O O O O O ",
"O O . . O O O O O O O O O O O O O O # + + # O O # # O O O O O O # # O O O O O O O o O O O O O O # # O O O O O O O o O O O O O O ",
"O O O O O O O O O O O O O O O O + O O O O O O O # # O O O O O O # # O O O O O O O O O O O O O O # # O O O O O O O O O O O O O O ",
"O O O O O O O O O O O O O O O O O O O O O O O O O O O O O O % O O O O O O O O O O O O O O O O O O O O O O O O O O O O O O O O O ",
"O O O O O O O O o O O o O O O O O O O O O O % O O O O & & O O O O o O O O O O O O O O O O O % O O o O O O O O O O O O O O O % O ",
"O O O O O O O O O o O o O o O O O O O O O O O O O O & * * & O O O O O O O O O O O O O O O O O O O O O O O O O O O O O O O O O O ",
"O O O O O O O O O o o O O o O O O O & & O O O O O O & * * & O O O O O O O O o O O O & & O O O O O O O O O O o O O O & & O O O O ",
"O O O O O O O O O O o O O O O o O O & & O O O O O O O & & O O O O O O o o O O O O O & & O O O O O O O o o O O O O O & & O O O O ",
"O O O O O O O O O O O O O O o O O O O O O O O O O O O O O O O % O O O O o O O O O O O O O O O O O O O O o O O O O O O O O O O O ",
"O O O O O O O O O O O O O O o O O O O O O O O O & & O O O O O O O O O O O O O O O O O O O O O O O O O O O O O O O O O O O O O O ",
"O O O O O O O O O O O O O O O O O O O O % O O O & & O O O O O O O O O O O O O O O O O O % O O O O O O O O O O O O O O O % O O O ",
"& & O O O O O O O O O O O O O O O O O O O O O O O O O O O O O O O O O O O O O O O O O O O O O O O O O O O O O O O % O O O O O O ",
"& & O O O O O O O O O O O O O O O O O O O O O O O = - ; : O O O O O O O O O O O O O O O O O O O O O O O O O O O O O O & & O O O ",
"O O O O O O O % O O O O o O O O O O O O O O O O : > , < 1 2 O O O O O O o O O O O O O O O O O O O O O O o O O O O O & * * & O O ",
"O O O & & O O O O O O o o O O O O O O O O O O O : 3 4 5 5 6 = O O O O o o O O O O O O O O O O O O O O o o O O O O O & * * & O O ",
"O O & * * & O O O O O O O O o O O O O O O O O O : ; < 5 4 6 = O O O O O O O o O O O O O O O O O O O O O O O o O O O O & & O O O ",
"O O & * * & O O O O O O O O O O O O O O O O O O : 7 < 5 4 3 7 o O O O O O O O O O O O O O O O O O O O O O O O O % O O O O O O O ",
"O O O & & O O O O o O O O O O O O O O O O O O : - 3 8 5 4 8 1 o O o O O O O O O O O O O O O O O O o O O O O O O O O O O O O & & ",
"O O O O O O % O O O O O O O O O O O O O O O 9 6 3 0 5 5 5 5 3 : O O O O O O O O O O O O O O O O O O O O O O O O O O O O O O & & ",
"O O O O O O O O O O O O O O O O O O O O O : > 4 4 4 5 5 5 5 3 : O O O O O O & & O O O O O O O O O O O O O O O O O O O O O O O O ",
"O O O O O O O O O O O O O O % O O O O O : 1 0 5 5 5 5 5 5 5 < 6 O O O O O O & & O O O O O O O O O O O O O O O O O O O O O O O O ",
"O O O O o O O O O O O O O O O O O O O O - 8 5 5 5 5 5 5 5 5 0 3 q O O O O O O O O O O O O O O O O O O O O O O O O O O O o O O O ",
"O O O o o O O O O O & & O O O O O O O O w 0 5 5 5 5 5 5 5 5 5 e r t y u & O O O O O O O O O O O O O O O O O O O O O O o o O O O ",
"O O O O O O o O O O & & O O O O O O O i p a s 5 5 5 5 5 5 5 s d f g h * * & O O O O O O O O O O O O O O O O O O O O O O O O o O ",
"O O O O O O O O O O O O O O O O O O j k l z x 5 5 5 5 5 5 5 8 c v b & * * & O O O O O O O O O O O O O O O O O O O O O O O O O O ",
"O o O O O O O O O O O O O O O O O O n m M N B V x x x x x x V C y O O & & O O O O O O O O O O O O O O O O O O O O o O O O O O O ",
"O O O O O O O O O O O O % O O O O O Z A S M D F B w G G G w H J K % O O O O O O O O O O O O O O O O O O O O O O O O O O O O O O ",
"O O O O O O O O O O O O O O O O O O L P D I U I Y T R R R E W K O O O O O O O O O O O O O O O O O O O O O O O O O O O O O O O O ",
"O O O O O O O O O O O O O O O O O O Q ! ~ ^ W / ( ) _ ` ' ] ! O O O O + O O O O O O O O O O O O O O O O O O % O O O O O O O % O ",
"O O O O o O O O O O O O O O O O O O [ { } |  ...X.o.O.o.X.+.@.O O O O O O O O O O O O O o O O O O O O O O O O O O O O O O O O O ",
"O O O o o O O O O O O O O O O O O O O u u u #.$.%.&.%.&.%.*.=.O O O O O O O O O O O O o o O O O O O & & O O O O O O & & O O O O ",
"O O O O O O o O O O O O O O O O O O O O O -.;.:.*.>.>.*.$.,.<.1.2.O O O O + + O O O O O O O o O O O & & O O O O O O & & O O O O ",
"O O O O O O O O O O O O O O O O O O O Z 3.>.4.,.=.:.1.;.;.5.6.<.,.7.8.' / 9.0.= 6 < 5 5 q.3 O O O O O O O O O O O O O O O O O O ",
"O o O O O O O O O O O O O O O O # # Z w.e.r.t.,.=.y.u.i.=.p.5.a.5.s.d.( f.M g.h.j.8 4 k.l.z.= O O O O O O O O O O O O O O O O O ",
"O O O O O O O O O O O O O O O O # # L x.c.v.<.$.2.,.b.a.y.=.;.n.2.m.M.D ( N.B.V.C.0 k.9 Z.u O O O O O O % O O O O O O O % O O O ",
"+ O O O O O O O O O O O O O O O O O O O  .A.S.%.&.m.D.u.F.S.&.G.%.O O P H.J.J.J.K.L.P.O O O O O O O O O O O O O O O O O O O % O ",
"O O # + + # O O O O O O O O O O O % O O I.U.@.A Y.T.R.E.W.Q.!.!.O o O O [ O O O O L O O O O % O O O O O O O O O O O O & & O O O ",
"O O + $ $ + O O O O O O O O O O O O O O ~.^./.(.)._.`.3.'.].[.O O O O O O O O O O O O O O O O O O O O O O O O O O O & * * & O O ",
"O O + $ $ + O O O O O O O O O O O O O O {.~.~.}.K |.w.[. X~. XO O O O O O O o O O O & & O O O O O O O O O O O O O O & * * & O O ",
"O O # + + # O O O O O O O O O O O O O O & {.{.~.}..X.XXXoX{.+ O O O O o o O O O O O & & O O O O O O O O O O O O O O O & & O O O ",
"+ + O O O O O + O O O O O O O O O O O O O O {.{.OXOXOX{.{.+ + O O O O O o O O O O O O O O O O O O O O O O O O O O O O O O O O % ",
"+ + O O O O O O O O O O O O O O O O O O O O O O # # O O O O O O O O O O O O O O O O O O O O O O O O O O O O O O & & O O O O O O ",
"O O O O O O O O O O O O O O O O O O O % O O O O # # O O O O O O O O O O O O O O O O O O % O O O O O O O O O O O & & O O O O O O ",
"O O O O O O O O O O O O O O O O O O O O O O O O O O O O O O O O O O O O O O O O O O O O O O O O O O O O O O O O O O O O O O O O ",
"O O O O O O O O O O O O O O O O O O O O O O O O +X+XO O O O O O O O O O O O O O O O O O O O O O O O O O O O O O O O O O O O O O ",
"O O O O O O O O O O O O O O O O O O O O O O O O +X+XO O O O O +XO O O O O O O O O O O O O O O O O O O O O O O O O O O O O O O O ",
"O O O O O O O O O O O O O O O O O O O O O O O O O O @X+X+X@XO O O O O O O O O O O O O O O O O O O O O O O O O O O O O O O O O O ",
"O O O O O O O O O O O O O O O O O O O O O O O O O O +X#X#X+XO O O O O O O O O O O O O O O O O O O O O O O O O O O O O O O O O O ",
"O O O O O O O O O O O O O O O O O O O O O O O O O O +X#X#X+XO O O O O O O O O O O O O O O O O O O O O O O O O O O O O O O O O O ",
"O O O O O O O O O O O O O O O O O O O O O O O O O O @X+X+X@XO O O O O O O O O O O O O O O O O O O O O O O O O O O O O O O O O O ",
"O O O O O O O O O O O O O O O O O O O O O O O O +XO O O O O O O O O O O O O O O O O O O O O O O O O O O O O O O O O O O O O O O ",
"# # O O O O O O O O O O O O O O O O O O O O O O O O O O O O O O O O O O O O O O O O o O O O O O O O o O O O O O O O O O O O O O ",
"# # O O O O O O O O O O O O O O O O O + O O O O O O O O O O O O O O O O O O O O O o O O O O O O O o O O O O O O O O O O O O O O ",
"O O O O O + + O O O O O O O O O O O O O O O O O O O O O O O O O O O O O O O O O O o O O O O O O O o O O O O O O O O O O O O O O ",
"O O O O O + + O O O O O O O O O O O O O O O O O O O O O O O O O O O O O O O O O O O O O O O O O O O O O O O O O O O O O O O O O ",
"O O O O O O O O O O O O O O O O O O O O O + + O O O O O O O O O O O O O O O O O O O O O o O o O O O O O o O o O O O O O O O O O ",
"O O O O O O O O O O O O O O O O O O O O O + + O O O O O O O O O O O O O O O O O O O o O o o O O O O o O o o O O O O O O O O O O ",
"O O O + O O O O O O O O O O O O # # O O O O O O O O O O O O O O O O O O O O O O O O o O o o O O O O o O o o O O O O O O O O O O ",
"O O O O O O O O O O O O O O O O # # O O O O O O O O O O O X X O O O O O O O O O O O O O o O O O O O O O o O O O O O O O O O O O "
};
