/* XPM */
static char *monster_mid[] = {
/* columns rows colors chars-per-pixel */
"64 64 221 2 ",
"   c #030304",
".  c #08080B",
"X  c #1B1609",
"o  c #0D0D13",
"O  c #0E0E1A",
"+  c #0D1813",
"@  c #141518",
"#  c #0F0F11",
"$  c #271A13",
"%  c #2A1516",
"&  c #13231C",
"*  c #382916",
"=  c #3E3419",
"-  c #2D260E",
";  c #1C1B2B",
":  c #181825",
">  c #251E27",
",  c #182823",
"<  c #1C322B",
"1  c #23222C",
"2  c #282526",
"3  c #352B24",
"4  c #3C3627",
"5  c #2C2B3C",
"6  c #282734",
"7  c #312F35",
"8  c #38363C",
"9  c #2A3139",
"0  c #74121C",
"q  c #49391B",
"w  c #4C320D",
"e  c #453924",
"r  c #46392C",
"t  c #682D23",
"y  c #26483B",
"u  c #3A4231",
"i  c #58491A",
"p  c #575219",
"a  c #4E4A16",
"s  c #6B4A0D",
"d  c #69561C",
"f  c #795914",
"g  c #705012",
"h  c #7B651A",
"j  c #7B761A",
"k  c #484526",
"l  c #534523",
"z  c #5A4923",
"x  c #575132",
"c  c #655424",
"v  c #665A3A",
"b  c #745F20",
"n  c #7A6426",
"m  c #68723A",
"M  c #776D33",
"N  c #4D663D",
"B  c #2F2E41",
"V  c #302F41",
"C  c #343344",
"Z  c #393848",
"A  c #3D3C52",
"S  c #443D44",
"D  c #413F53",
"F  c #3D5854",
"G  c #344849",
"H  c #377159",
"J  c #3C7B64",
"K  c #47444A",
"L  c #4B4B5D",
"P  c #464557",
"I  c #524E55",
"U  c #445755",
"Y  c #56535A",
"T  c #504F4A",
"R  c #63594C",
"E  c #4C6B59",
"W  c #6B6646",
"Q  c #786C48",
"!  c #797446",
"~  c #6F6E52",
"^  c #494861",
"/  c #4A5B60",
"(  c #535263",
")  c #5B5A64",
"_  c #5B596C",
"`  c #555469",
"'  c #57546B",
"]  c #615E6A",
"[  c #625F76",
"{  c #476867",
"}  c #487868",
"|  c #546C6B",
" . c #676575",
".. c #736E7B",
"X. c #6D7776",
"o. c #767479",
"O. c #726C66",
"+. c #8A640C",
"@. c #926B0A",
"#. c #9B770C",
"$. c #866917",
"%. c #977917",
"&. c #8A721E",
"*. c #A27B0D",
"=. c #A37F12",
"-. c #8A762A",
";. c #8C742C",
":. c #8D5E19",
">. c #83754C",
",. c #817965",
"<. c #7F8136",
"1. c #308070",
"2. c #3C8467",
"3. c #638854",
"4. c #62905A",
"5. c #789959",
"6. c #6E8649",
"7. c #488A75",
"8. c #499878",
"9. c #548F71",
"0. c #629964",
"q. c #64877A",
"w. c #48A57D",
"e. c #5AA575",
"r. c #6FAD6D",
"t. c #7CA256",
"y. c #68C878",
"u. c #9E811B",
"i. c #85821E",
"p. c #A9830E",
"a. c #B48D0A",
"s. c #BB930C",
"d. c #BC9B0C",
"f. c #AC8B13",
"g. c #A78717",
"h. c #AB9618",
"j. c #B89514",
"k. c #B38D14",
"l. c #BEAF14",
"z. c #978827",
"x. c #90892F",
"c. c #AA942B",
"v. c #BCB834",
"b. c #ADA930",
"n. c #C49B0B",
"m. c #C59A08",
"M. c #C19C12",
"N. c #C3A30C",
"B. c #C8A90C",
"V. c #D3AA0A",
"C. c #D9B70B",
"Z. c #C9A413",
"A. c #C7B91C",
"S. c #D3B311",
"D. c #CAB125",
"F. c #DCC10C",
"G. c #D4C415",
"H. c #E4C80B",
"J. c #E8D60C",
"K. c #F1DE0D",
"L. c #F1DD12",
"P. c #E9D414",
"I. c #F4EA0D",
"U. c #FAF20D",
"Y. c #EEE60D",
"T. c #D1CB2A",
"R. c #EDD237",
"E. c #908E53",
"W. c #89A758",
"Q. c #A7A948",
"!. c #8A8771",
"~. c #98E078",
"^. c #C0E870",
"/. c #7D7784",
"(. c #717281",
"). c #827C89",
"_. c #38B0B8",
"`. c #739683",
"'. c #40A888",
"]. c #49A882",
"[. c #4FBC8E",
"{. c #4DB488",
"}. c #51BC8D",
"|. c #56B586",
" X c #51BF90",
".X c #5DB790",
"XX c #55AF80",
"oX c #63B886",
"OX c #74B598",
"+X c #50C090",
"@X c #4CC196",
"#X c #48D0A8",
"$X c #78D0A0",
"%X c #68E0B8",
"&X c #60E0C8",
"*X c #8C8486",
"=X c #958C94",
"-X c #988F96",
";X c #9A9096",
":X c #879791",
">X c #8BAB9A",
",X c #97B1A3",
"<X c #B2ABA9",
"1X c #C6B9B9",
"2X c #C7B39F",
"3X c #98D8B8",
"4X c #96D0B0",
"5X c #93C9A8",
"6X c #80F0A0",
"7X c #E3D7B6",
"8X c #80F8C8",
"9X c #D5C8C7",
"0X c #DED3D3",
"qX c #CDC9C5",
"wX c #E3D6D5",
"eX c #D8F0D8",
"rX c #ECE8E6",
"tX c #F0EDEB",
"yX c #F5F3F2",
"uX c #F3F1EF",
"iX c #EDE2DF",
/* pixels */
"&X&X6X6X1.'.+X+X+X+X+X+X+X+X+X+X+X+X+X+X+X+X+X+X+X+X+X+X+X+X+X+X+X+X+X+X+X+X+X+X+X+X+X+X+X+X+X+X+X+X+X+X+X+X+X+X+X+X+X+X+X+X+X+X",
"&X&X'.1.6X'.+X+X+X+X+X+X+X+X+X+X%X%X+X+X+X+X+X+X+X+X+X%X+X+X+X+X+X+X+X%X+X+X+X+X+X+X+X+X+X+X+X+X+X+X+X%X+X+X+X+X+X+X+X+X+X+X+X+X",
"&X&X&X_.'.6X+X+X+X+X+X+X+X+X+X+X%X%X+X+X+X+X+X%X+X+X+X+X+X+X+X+X+X+X+X+X+X+X+X+X+X+X+X+X'.+X+X+X+X+X+X+X+X+X+X+X+X+X+X+X'.+X+X+X",
"&X&X+X6X+X+X+X+X+X+X+X+X+X+X+X+X+X+X#X%X%X#X+X+X+X+X+X+X+X+X+X+X+X+X+X+X+X+X+X+X+X+X+X'.'.+X+X+X+X+X+X+X+X+X+X+X+X+X+X'.'.+X+X+X",
"&X&X&X'.6X+X+X+X+X+X+X+X+X+X+X+X+X+X%X8X8X%X+X+X+X+X+X+X+X%X%X+X+X+X+X+X+X%X%X+X+X+X+X+X+X+X'.+X+X+X+X+X+X%X%X+X+X+X+X+X+X+X'.+X",
"6X6X+X+X6X+X+X+X+X+X+X+X+X+X+X+X+X+X%X8X8X%X+X+X+X+X+X+X+X%X%X+X+X+X+X+X+X%X%X+X+X+X+X+X+X+X+X+X+X+X+X+X+X%X%X+X+X+X+X+X+X+X+X+X",
"+X+X6X6X+X+X+X+X+X+X+X+X+X+X+X+X+X+X#X%X%X#X+X+X#X#X+X+X+X+X+X+X#X#X+X+X+X+X+X+X+X'.+X+X+X+X+X+X#X#X+X+X+X+X+X+X+X'.+X+X+X+X+X+X",
"+X+X+X+X+X+X+X+X+X+X+X+X+X+X+X+X%X+X+X+X+X+X+X+X#X#X+X+X+X+X+X+X#X#X+X+X+X+X+X+X+X+X+X+X+X+X+X+X#X#X+X+X+X+X+X+X+X+X+X+X+X+X+X+X",
"+X+X+X+X+X+X+X+X+X+X+X+X+X+X+X+X+X+X+X+X+X+X+X+X+X+X+X+X+X+X$X+X+X+X+X+X X+X+X+X+X+X+X+X+X+X+X+X+X+X+X+X+X+X+X+X+X+X+X+X+X+X+X+X",
"+X+X+X+X+X+X+X+X'.+X+X'.+X+X+X+X+X+X+X+X+X+X$X+X+X+X+X3X3X+X+X+X+X'.+X+X@X@X+X+X+X+X+X+X+X+X$X+X+X'.+X+X+X+X+X+X+X+X+X+X+X+X$X+X",
"+X+X+X+X+X+X+X+X+X'.+X'.+X'.+X+X+X+X+X+X+X+X+X+X+X+X3XeXeX3X+X+X+X+X+X+X@X X X X+X+X+X+X+X+X+X+X+X+X+X+X+X+X+X+X+X+X+X+X+X+X+X+X",
"+X+X+X+X+X+X+X+X+X'.'.+X+X'.+X+X+X+X3X3X+X+X+X+X+X+X3XeXeX3X+X+X+X+X+X+X X X'. X+X+X3X3X+X+X+X+X+X+X+X+X+X+X'.+X+X+X3X3X+X+X+X+X",
"+X+X+X+X+X+X+X+X+X+X'.+X+X+X+X'.+X+X3X3X+X+X+X X+X X X3X3X+X+X+X+X+X+X7.{ } | }  X X3X3X X X+X+X+X+X+X].'.+X+X+X+X+X3X3X+X+X+X+X",
"+X+X+X+X+X+X+X+X+X+X+X+X+X+X'.+X+X+X+X+X+X+X+X Xw.9.7.} 7.{.3.W.5.9.q.(.(.(.(.(.`.} {. X X X+X+X+X+X+X+X'.+X+X+X+X+X+X+X+X+X+X+X",
"+X+X+X+X+X+X+X+X+X+X+X+X+X+X'.+X+X+X+X X+X+X X7. .R R 8 T W.*.p.n I ..*X-X-X-X-X(.L } XX X X X+Xr.W.+X+X+X+X+X+X+X+X+X+X+X+X+X+X",
"+X+X+X+X+X+X+X+X+X+X+X+X+X+X+X+X+X+X+X X$X X8./  .z.n.;.>.p.n.f.T ..=X=X-X-X-X-X=X..P ].$X Xr.Q.D.x.+X+X+X+X+X+X+X+X+X+X$X+X+X+X",
"3X3X+X+X+X+X+X+X+X+X+X+X+X+X+X+X+X+X+X+X+X X/ L Y n f.S.Z.s.p.j I ).=X-X-X-X;X;X=X).] 5.t.W.v.S.b.r.+X+X+X+X+X+X+X$X+X+X+X+X+X+X",
"3X3X+X+X+X+X+X+X+X+X+X+X+X+X+X+X+X+X+X+X+X X{ ` ] ) n M.L.K.G.4 ] ,.*X=X-X-X-X;X!.!.O.c.B.S.P.d.6.+X+X+X+X+X+X+X+X+X+X3X3X+X+X+X",
"+X+X+X+X+X+X+X$X+X+X+X+X'.+X+X+X|.e.e. X X XU ` [ _ x.m.m.C.A.4 R D.E.).=X=X).).O.b.E.b.Y.J.m.z.0.+X+X+X'.+X+X+X+X+X3XeXeX3X+X+X",
"+X+X+X3X3X+X+X+X+X+X+X'.'.+X+X+X6.+.$.0. X{.G L  .Q k.%.i @.+.4 c.q I D ` (. .D P - @.+.a.a.j 0.+X+X@X{.'.+X+X+X+X+X3XeXeX3X+X+X",
"+X+X3XeXeX3X+X+X+X+X+X+X X X'. X3.p.m.-.e.F A D ` ;.n.g @ a p.* @.- @ 6 L _ D V % X f s @.+.3.+X+X}.{.+X+X+X'.+X+X+X+X3X3X+X+X+X",
"+X+X3XeXeX3X+X+X+X+X+X+X X X XoX`.W.V.k.l P [ ' D ;.k.q X h j.- R % 0 0 V C 6 7 0 % T e %.b H {.oXb.k w.[.+X+X+X$X+X+X+X+X+X+X+X",
"+X+X+X3X3X}.+X+X@X'.OX>XOXOX:X,X<X!.=.Z.:.S ' ' B z c : = s.p.$ I z.t > V ^ Z > t z.~ 8 h.x.9 H oXg.g.u 2.+X+X+X+X+X+X+X+X+X3X3X",
"+X+X+X}.}.OX>X>X,X,X,X1XqXqX1X0XiX7XD.H.s.z S Z B C @ O c B.@.X I E.z.q C G 5 2 &.Q.R ;.Z.;.Z H w.a l.p 8.@X+X+X+X+X+X+X+X+X3X3X",
"+X+X+X+X>X<X1X1X9X9XqX0XrXuXrXuXrX7XR.F.m.g Y P 6 5 : ; W Z.#.$ Z Y v.i.5 P 5 = T.~ >.D.c.T A Z < + l.M 7.+X+X+X+X+X+X+X+X+X+X+X",
"+X+X+XOX<XwXuXuXyXyXtXtXrXrXiXwXqX2XD.n.+.l I C o . O C O.j.*.X   G c.j Z ^ Z 3 A.x.D.G.W ^ ( L 7 p Q.W 8.+X+X+X+X+X+X+X+X+X+X+X",
"+X+X+X,X0XtXuXuXyXuXrX0X9X9X9XqX=X] :.n.s 7 1 y H H U C ] >.k.- . 5 z * @ 2 u p d.A.v.! ^ _ ) L = b.!.L U 9.@X+X+X+X+X+X'.+X+X+X",
"+X+X[.>X1XwXwX0XwX9X1X<X-X!.O.] ) x :.n.s q g N +X Xq.C ] Y R -.- X X X X p T.T.D.v U L ' Y 2 - c.E.' ` ^ / 9.+X+X+X+X'.'.+X+X+X",
"+X+X+X.X:X<X<X<X<X-X,.o.| F y y 2.6.#.h.m s +.m +X+XJ Z  .) ( ~ %.f.f.h.G.G.A.W Y ^ ^ P 7 u b.A.E. .L I ] ( { +X+X+X+X+X+X+X'.+X",
"+X+X+X+X.X`.X.X.X.T y 8.+X+X+X+X[.3.d m {.4.4.e.+X+Xw.{ ( Y ) ) ~ >.! W W ~ R L ' _ K x p &.Q.E.~ ! $.g f M v } [.+X+X+X+X+X+X+X",
"+X'.+X+X X}.|. X}.}.}.}.+X+X+X+X[.|.|.+X[.+X+X+X3X3X+X8.8 ) ) ) _ _ ) ( _ (.(.)...K b T.T.f.n %.d.B.S.S.C.n.#.c } w.+X+X+X+X+X+X",
"+X+X+X+X X X X+X+X+X+X+X$X+X+X+X+X+X+X+X+X+X+X+X3X3X+X8.G P ] ) ) ) )  .*X=X=X/.K p c.O.M @.l.J.Y.U.U.U.Y.Y.J.d.f e.+X+X+X+X+X+X",
"+X+X+X+X+X+X+X+X+X+X+X+X+X+X+X+X+X+X+X+X+X+X+X+X+X+X+X+Xw.G L Y ) ` ( ( o.).). .6 w Z.$.f.C.U.U.I.I.K.J.H.J.I.Y.p.3.}.+X+X+X+X+X",
"+X+X+X+X+X+X+X+X+X+X+X+X+X+X+X+X+X+X+X%X+X+X+X+X+X+X+X+X+X8., 6 K A C C A ( L P : w p.d.J.U.K.H.C.B.f.d.V.C.F.I.F.u.3.+X+X+X$X+X",
"+X+X+X+X'.+X+X+X+X+X+X+X+X+X+X+X+X+X+X+X+X+X+X+X+X+X X+X}.H 1 o o : B ^ D B 5 1 : q *.F.U.I.H.p.i 4 2 l h $.V.F.J.d.m +X+X+X+X+X",
"+X+X+X'.'.+X+X+X+X+X+X+X+X+X+X+X+X+X+X+X+X+X+X+X+X+X3X3XJ 1 1 # 2 7 Z ^ _ ' ' ' G z d.K.K.C.d.i : ; , 4 i d h V.F.F.j 3X+X+X+X+X",
"+X+X+X+X+X+X'.+X+X+X+X+X+X+X+X+X+X+X+X+X+X%X%X+X+X+X3X`.,   O . = t l C Z Z D ^ G t l.I.F.f.e e e ; 3 %.f.p.e p.S.C.&.5X+X+X+X+X",
"+X+X+X+X+X+X+X+X+X+X+X+X+X+X+X+X+X+X+X+X+X%X%X+X+X+X8.F 2     O 2 :.D.j ; 5 Z C r $.F.J.d.f %.k.%.2 3 g.a n 3 q N.V.h e.+X+X+X+X",
"+X'.+X+X+X+X+X+X+X+X+X+X+X+X+X+X#X#X+X+X+X+X+X+X[.w.U ` ^ :   . ; e t a q r C 6 * %.J.C.p.= f.d g.3 3 k.e ; ; 1 f.V.<.{.+X+X+X+X",
"+X+X+X+X+X+X+X+X+X+X+X+X+X+X+X+X#X#X+X+X+X+X+X+X@XJ B ^ P V : . o . O > 3 2 6 ; * #.K.C.$.3 k 3 g.r 1 g.i ; ; > u.s.r.+X$X+X+X+X",
"%X+X+X+X+X+X+X+X+X+X+X+X+X+X+X+X+X+X+X+X+X+X+X+X+X} 9 A A A 6       . O + o O O $ f C.B.e > ; > u.l ; l &.c 2 k d.p.0.[.+X+X$X+X",
"+X+X#X%X%X#X+X+X+X+X+X+X+X+X+X+X+X$X+X+X+X+X+X+X+XJ 6 B B 6 ;     . + + + +   . 2 s m.C.l ; ; z c 2 ; ; 4 &.h u.n.6.}.3X3X+X+X+X",
"+X+X%X8X8X%X+X+X+X+X+X+X+X+X+X+X+X+X+X+X+X+X+X+X[.H B , : ; O   + 2.w.w.w.2.& # K c s.V.i : 3 &.e ; ; e -.h h Z.c.e.3XeXeX3X+X+X",
"+X+X%X&X8X%X+X+X+X+X+X+X+X+X+X+X+X+X+X+X3X3X+X}.8.L ( C 6 ; O o H +X+X+X+X+XJ + 7 Y ;.m.f.c b &.h d : l g.f.j.h.3.+X3XeXeX3X+X+X",
"+X+X#X%X%X#X+X+X+X+X+X+X+X+X+X+X+X+X+X+X3X3X+Xw., C G 8 9 : , H }.+X+X'.'.+X+XJ Z L x +.n.Z.%.h f.k 2 3 d s.@.<.}.+X+X3X3X+X+X+X",
"%X%X+X+X+X+X+X%X+X+X+X+X+X+X+X+X+X+X+X+X+X+X+Xw.< & & , , , 8.+X+X+X+X+X'.+X+X+XH , 1 = f n.V.a.#.$.g.j.d.h.4.e.}.+X+X+X+X+X+X$X",
"%X%X+X+X+X+X+X+X+X+X+X+X+X+X+X+X+X+X+X+X+X+X+X+X@X@X{.{.{.{.[.+X+X+X+X+X+X+X+X+X8.< 1 7 r d :.@.j.a.#.+.b W |.+X3X3X+X+X+X+X+X+X",
"+X+X+X+X+X+X+X+X+X+X+X+X+X+X+X+X+X+X+X$X+X+X+X+X#X#X+X+X+X[.+X+X+X+X+X+X+X+X+X+X[.< 6 K S C $ E M m 3.e.|.+X+X+X3X3X+X+X+X+X+X+X",
"+X+X+X+X+X+X+X+X+X+X+X+X+X+X+X+X+X+X+X+X+X+X+X+X+X+X+X+X+X+X+X+X+X+X+X+X+X+X+X+X+Xy @ @ + + + 2.}.+X+X+X+X+X+X+X+X+X+X+X+X+X+X+X",
"+X+X+X+X+X+X+X+X+X+X+X+X+X+X+X+X+X+X+X+X+X+X+X+X~.~.+X+X+X+X+X+X+X+X+X+X+X+X+X+X+X{.w.w.w.w.w.[.+X+X+X+X+X+X+X+X+X+X+X+X+X+X+X+X",
"+X+X+X+X+X+X+X+X+X+X+X+X+X+X+X+X+X+X+X+X+X+X+X+X~.~.+X+X+X+X+X~.+X+X+X+X+X+X+X+X+X+X+X+X X+X+X+X+X+X+X+X+X+X+X+X+X+X+X+X+X+X+X+X",
"+X+X+X+X+X+X+X+X+X+X+X+X+X+X+X+X+X+X+X+X+X+X+X+X+X+Xy.~.~.y.+X+X+X+X+X+X+X+X+X+X+X+X+X+X+X+X+X+X+X+X+X+X+X+X+X+X+X+X+X+X+X+X+X+X",
"+X+X+X+X+X+X+X+X+X+X+X+X+X+X+X+X+X+X+X+X+X+X+X+X+X+X~.^.^.~.+X+X+X+X+X+X+X+X+X+X+X+X+X+X+X+X+X+X+X+X+X+X+X+X+X+X+X+X+X+X+X+X+X+X",
"+X+X+X+X+X+X+X+X+X+X+X+X+X+X+X+X+X+X+X+X+X+X+X+X+X+X~.^.^.~.+X+X+X+X+X+X+X+X+X+X+X+X+X+X+X+X+X+X+X+X+X+X+X+X+X+X+X+X+X+X+X+X+X+X",
"+X+X+X+X+X+X+X+X+X+X+X+X+X+X+X+X+X+X+X+X+X+X+X+X+X+Xy.~.~.y.+X+X+X+X+X+X+X+X+X+X+X+X+X+X+X+X+X+X+X+X+X+X+X+X+X+X+X+X+X+X+X+X+X+X",
"+X+X+X+X+X+X+X+X+X+X+X+X+X+X+X+X+X+X+X+X+X+X+X+X~.+X+X+X+X+X+X+X+X+X+X+X+X+X+X+X+X+X+X+X+X+X+X+X+X+X+X+X+X+X+X+X+X+X+X+X+X+X+X+X",
"#X#X+X+X+X+X+X+X+X+X+X+X+X+X+X+X+X+X+X+X+X+X+X+X+X+X+X+X+X+X+X+X+X+X+X+X+X+X+X+X+X+X'.+X+X+X+X+X+X+X'.+X+X+X+X+X+X+X+X+X+X+X+X+X",
"#X#X+X+X+X+X+X+X+X+X+X+X+X+X+X+X+X+X+X%X+X+X+X+X+X+X+X+X+X+X+X+X+X+X+X+X+X+X+X+X+X'.+X+X+X+X+X+X+X'.+X+X+X+X+X+X+X+X+X+X+X+X+X+X",
"+X+X+X+X+X%X%X+X+X+X+X+X+X+X+X+X+X+X+X+X+X+X+X+X+X+X+X+X+X+X+X+X+X+X+X+X+X+X+X+X+X'.+X+X+X+X+X+X+X'.+X+X+X+X+X+X+X+X+X+X+X+X+X+X",
"+X+X+X+X+X%X%X+X+X+X+X+X+X+X+X+X+X+X+X+X+X+X+X+X+X+X+X+X+X+X+X+X+X+X+X+X+X+X+X+X+X+X+X+X+X+X+X+X+X+X+X+X+X+X+X+X+X+X+X+X+X+X+X+X",
"+X+X+X+X+X+X+X+X+X+X+X+X+X+X+X+X+X+X+X+X+X%X%X+X+X+X+X+X+X+X+X+X+X+X+X+X+X+X+X+X+X+X+X+X'.+X'.+X+X+X+X+X'.+X'.+X+X+X+X+X+X+X+X+X",
"+X+X+X+X+X+X+X+X+X+X+X+X+X+X+X+X+X+X+X+X+X%X%X+X+X+X+X+X+X+X+X+X+X+X+X+X+X+X+X+X+X+X'.+X'.'.+X+X+X+X'.+X'.'.+X+X+X+X+X+X+X+X+X+X",
"+X+X+X%X+X+X+X+X+X+X+X+X+X+X+X+X#X#X+X+X+X+X+X+X+X+X+X+X+X+X+X+X+X+X+X+X+X+X+X+X+X+X'.+X'.'.+X+X+X+X'.+X'.'.+X+X+X+X+X+X+X+X+X+X",
"+X+X+X+X+X+X+X+X+X+X+X+X+X+X+X+X#X#X+X+X+X+X+X+X+X+X+X+X+X1.1.+X+X+X+X+X+X+X+X+X+X+X+X+X'.+X+X+X+X+X+X+X'.+X+X+X+X+X+X+X+X+X+X+X"
};
