/* XPM */
static char *minish_right[] = {
/* columns rows colors chars-per-pixel */
"64 64 201 2 ",
"   c #60E0C8",
".  c #80F0A0",
"X  c #308070",
"o  c #40A888",
"O  c #50C090",
"+  c #68E0B8",
"@  c #38B0B8",
"#  c #48D0A8",
"$  c #80F8C8",
"%  c #78D0A0",
"&  c #98D8B8",
"*  c #D8F0D8",
"=  c #7C0002",
"-  c #A40013",
";  c #93000D",
":  c #760101",
">  c #8B000B",
",  c #B50022",
"<  c #D1002B",
"1  c #C40029",
"2  c #AB0019",
"3  c #830004",
"4  c #E30140",
"5  c #B70536",
"6  c #CB0235",
"7  c #BC0024",
"8  c #630709",
"9  c #E90041",
"0  c #D5013A",
"q  c #4A1120",
"w  c #700A19",
"e  c #850719",
"r  c #261817",
"t  c #CC002D",
"y  c #DD003A",
"u  c #9A0218",
"i  c #5A0C14",
"p  c #371217",
"a  c #D40031",
"s  c #E6003E",
"d  c #8E0720",
"f  c #B2001B",
"g  c #DA0036",
"h  c #840108",
"j  c #E9003E",
"k  c #9D000F",
"l  c #79040D",
"z  c #9E131A",
"x  c #801C0C",
"c  c #BA0928",
"v  c #B6704E",
"b  c #C19254",
"n  c #AA0423",
"m  c #C60023",
"M  c #C6263B",
"N  c #DD9886",
"B  c #E8CCA3",
"V  c #E2C58C",
"C  c #D09D5A",
"Z  c #8D1F15",
"A  c #B02E21",
"S  c #C94646",
"D  c #EC5A71",
"F  c #E55766",
"G  c #E24250",
"H  c #A11237",
"J  c #DF4E69",
"K  c #CC8E6C",
"L  c #FAEEC3",
"P  c #FFF4C6",
"I  c #C3AC80",
"U  c #82643D",
"Y  c #433829",
"T  c #976B36",
"R  c #DFC08B",
"E  c #F6ECC2",
"W  c #EAD5A6",
"Q  c #E1BA7E",
"!  c #937A56",
"~  c #2B2A26",
"^  c #AAA48A",
"/  c #EFE7C1",
"(  c #F8F0C7",
")  c #F4E9BE",
"_  c #DBC394",
"`  c #7D6D51",
"'  c #171515",
"]  c #0C0D11",
"[  c #665944",
"{  c #CEB585",
"}  c #EBE2BB",
"|  c #B4AB8B",
" . c #252421",
".. c #9A9780",
"X. c #E3C996",
"o. c #494133",
"O. c #6C604B",
"+. c #6D6A5D",
"@. c #CAA065",
"#. c #EDD39E",
"$. c #9B8A69",
"%. c #B09061",
"&. c #AD8C5A",
"*. c #332F28",
"=. c #0B090F",
"-. c #0C2216",
";. c #253319",
":. c #6D471F",
">. c #AB9A7A",
",. c #B2AA90",
"<. c #8B6840",
"1. c #513913",
"2. c #178526",
"3. c #156823",
"4. c #1C2A1C",
"5. c #1C251B",
"6. c #20291D",
"7. c #167B27",
"8. c #389828",
"9. c #21D016",
"0. c #18C616",
"q. c #338926",
"w. c #297A25",
"e. c #0F6525",
"r. c #F80045",
"t. c #863C0B",
"y. c #A9732E",
"u. c #5B9650",
"i. c #099F1C",
"p. c #18F20B",
"a. c #14DC10",
"s. c #268B28",
"d. c #2AB81F",
"f. c #13241D",
"g. c #141418",
"h. c #970420",
"j. c #A24546",
"k. c #D9AD6F",
"l. c #D9B67D",
"z. c #587944",
"x. c #0A8919",
"c. c #1CE210",
"v. c #13B819",
"b. c #2FB021",
"n. c #33C21E",
"m. c #2FAA22",
"M. c #28D917",
"N. c #3B9C1C",
"B. c #1F171A",
"V. c #DA3461",
"C. c #E2CFD3",
"Z. c #E4E6E4",
"A. c #E0D1B9",
"S. c #BD9359",
"D. c #51412C",
"F. c #0D3C1C",
"G. c #13EF09",
"H. c #2ECD11",
"J. c #B17303",
"K. c #4A2E12",
"L. c #0B1618",
"P. c #4A111F",
"I. c #48202C",
"U. c #4B4A49",
"Y. c #463E31",
"T. c #176B1B",
"R. c #1EDF11",
"E. c #227B1A",
"W. c #132D1C",
"Q. c #1B811D",
"!. c #3F3411",
"~. c #160B16",
"^. c #134A13",
"/. c #10AC15",
"(. c #276C1F",
"). c #594916",
"_. c #854F0B",
"`. c #87620B",
"'. c #312311",
"]. c #184629",
"[. c #285749",
"{. c #243430",
"}. c #215136",
"|. c #1C7239",
" X c #673A0B",
".X c #BC8C07",
"XX c #494D26",
"oX c #1C2F2E",
"OX c #2C4F43",
"+X c #459A7B",
"@X c #429374",
"#X c #282419",
"$X c #3A7B64",
"%X c #49A382",
"&X c #489E7F",
"*X c #3E8269",
"=X c #377864",
"-X c #4BA987",
";X c #98E078",
":X c #68C878",
">X c #C0E870",
/* pixels */
"    . . X o O O O O O O O O O O O O O O O O O O O O O O O O O O O O O O O O O O O O O O O O O O O O O O O O O O O O O O O O O O ",
"    o X . o O O O O O O O O O O + + O O O O O O O O O + O O O O O O O + O O O O O O O O O O O O O O O + O O O O O O O O O O O O ",
"      @ o . O O O O O O O O O O + + O O O O O + O O O O O O O O O O O O O O O O O O O O o O O O O O O O O O O O O O O O o O O O ",
"    O . O O O O O O O O O O O O O O # + + # O O O O O O O O O O O O O O O O O O O O O o o O O O O O O O O O O O O O O o o O O O ",
"      o . O O O O O O O O O O O O O + $ $ + O O O O O O O + + O O O O O O + + O O O O O O O o O O O O O O + + O O O O O O O o O ",
". . O O . O O O O O O O O O O O O O + $ $ + O O O O O O O + + O O O O O O + + O O O O O O O O O O O O O O + + O O O O O O O O O ",
"O O . . O O O O O O O O O O O O O O # + + # O O # # O O O O O O # # O O O O O O O o O O O O O O # # O O O O O O O o O O O O O O ",
"O O O O O O O O O O O O O O O O + O O O O O O O # # O O O O O O # # O O O O O O O O O O O O O O # # O O O O O O O O O O O O O O ",
"O O O O O O O O O O O O O O O O O O O O O O O O O O O O O O % O O O O O O O O O O O O O O O O O O O O O O O O O O O O O O O O O ",
"O O O O O O O O o O O o O O O O O O O O O O % O O O O & & O O O O o O O O O O O O O O O O O % O O o O O O O O O O O O O O O % O ",
"O O O O O O O O O o O o O o O O O O O O O O O O O O & * * & O O O O O O O O O O O O O O O O O O O O O O O O O O O O O O O O O O ",
"O O O O O O O O O o o O O o O O O O & & O O O O O O & * * & O O O O O O O O o O O O & & O O O O O O O O O O o O O O & & O O O O ",
"O O O O O O O O O O o O O O O o O O & & O O O O O O O & & O O O O O O o o O O O O O & & O O O O O O O o o O O O O O & & O O O O ",
"O O O O O O O O O O O O O O o O O O O O O O O O O O O O O O O % O O O O o O O O O O O O O O O O O O O O o O O O O O O O O O O O ",
"O O O O O O O O O O O O O O o O O O O O O O O O & & O O O O O O O O O O O O O O O O O O O O O O O O O O O O O O O O O O O O O O ",
"O O O O O O O O O O O O O O O O O O O O % O O O & & O O O O O O O O O O O O O O O O O O % O O O O O O O O O O O O O O O % O O O ",
"& & O O O O O O O O O O O O O O O O O O O O O O O O O O O O O O O O O O O O O O O O O O O O O O O O O O O O O O O % O O O O O O ",
"& & O O O O O O O O O O O O O O O O O O O O O O O o O O O O O O O O O = - ; : O O O O O O O O O O O O O O O O O O O O & & O O O ",
"O O O O O O O % O O O O o O O O O O O O O O O O O O O O O O O O O O > , < 1 2 3 O O O O O O O O O O O O o O O O O O & * * & O O ",
"O O O & & O O O O O O o o O O O O O O O O O O O O O O O O O O O O > , 4 5 6 7 8 O O O O O O O O O O O o o O O O O O & * * & O O ",
"O O & * * & O O O O O O O O o O O O O O O O O O O O O O O O O O = 7 9 0 q w e r O O O O O O O O O O O O O O o O O O O & & O O O ",
"O O & * * & O O O O O O O O O O O O O O O O O O O O O O O O O o - t 9 y u i p O O O O O O O O O O O O O O O O O % O O O O O O O ",
"O O O & & O O O O o O O O O O O O O O O O O O O O o O O O O o 3 2 a 9 s a d i O O O O O O O O O O o O O O O O O O O O O O O & & ",
"O O O O O O % O O O O O O O O O O O O O O O O O o o O O O O O 3 f g 9 9 9 a f ; O O O O O O O O O O O O O O O O O O O O O O & & ",
"O O O O O O O O O O O O O O O O O O O O O O O O O O O O O O % h a 9 9 9 9 s s y 7 ; = O O O O O O O O O O O O O O O O O O O O O ",
"O O O O O O O O O O O O O O % O O O O O O O O O O O O & & O O > g 9 9 9 9 9 9 9 g a 1 f O O O O O O O O O O O O O O O O O O O O ",
"O O O O o O O O O O O O O O O O O O O O O O O O O O & * * & O > g 9 9 9 9 9 j 9 9 9 s t k O O O O O O O O O O O O O O O o O O O ",
"O O O o o O O O O O & & O O O O O O O O O O O O O O & * * & O l 0 9 9 9 9 9 9 9 9 9 s g z x O O O O O O O O O O O O O o o O O O ",
"O O O O O O o O O O & & O O O O O O O O O O O O O O O & & O O p 6 9 s 9 9 9 9 9 9 9 g c v b O O O O O O O O O O O O O O O O o O ",
"O O O O O O O O O O O O O O O O O O O O O O O O O O O O O O O r n m t s j j j 9 j < M N B V C O O O O O O O O O O O O O O O O O ",
"O o O O O O O O O O O O O O O O O O O O O O O O & & O O O O O r Z A S D F G M H J F K L P I U O O O O O O O O O O o O O O O O O ",
"O O O O O O O O O O O O % O O O O O O O O O O O & & O O O O O Y T b R E W Q ! ~ ^ / ( ) _ ` ' O O O O O O O O O O O O O O O O O ",
"O O O O O O O O O O O O O O O O O O O O O O O O O O O O O ] [ { W } ) ( E L |  .~ ..L X.[  .O O O O O O O O O O O O O O O O O O ",
"O O O O O O O O O O O O O O O O O O O + O O O O O O O O O O o.O.+.+.! @.#.P } ^ $.%.&.[ *.O O O O O O O O O % O O O O O O O % O ",
"O O O O o O O O O O O O O O O O O O O O O O O O O O O O O O O ] =.-.;.:.! >.,.,.>.<.1.' o O O O O O O O O O O O O O O O O O O O ",
"O O O o o O O O O O O O O O O O O O O O O O O O O O & & O O O O O 2.3.4.5.4.6.5.6.5.5.o o O O O O O & & O O O O O O & & O O O O ",
"O O O O O O o O O O O O O O O O O O O O O + + O O O & & O O O 7.8.9.0.q.3.w.w.3.w.w.e.O O O o O O O & & O O O O O O & & O O O O ",
"O O O O O O O O O O O O O O O O O O 7 r.9 9 t k : t.y.@.V u.i.0.9.p.a.s.s.8.8.2.0.d.w.f.g.O O O O O O O O O O O O O O O O O O O ",
"O o O O O O O O O O O O O O O O # : h.5 t s g c j.v @.k.l.z.x.a.c.a.v.2.b.n.m.2.0.M.N.1.r g.O O O O O O O O O O O O O O O O O O ",
"O O O O O O O O O O O O O O O O # # B.p h 6 g V.C.Z.A.l.S.D.F.7.8.s.2.m.c.G.0.7.q.9.H.J.K.L.O O O O O O % O O O O O O O % O O O ",
"+ O O O O O O O O O O O O O O O O O O O O P.q I.U.U.U.Y.Y O O 4.;.4.T.R.n.E.F.W.4.T.Q.!.O O O O O O O O O O O O O O O O O O % O ",
"O O # + + # O O O O O O O O O O O % O O O O L.O O O O ] O O O O ~.~.^./.(.)._.`.'.-.].[.O O % O O O O O O O O O O O O & & O O O ",
"O O + $ $ + O O O O O O O O O O O O O O O O O O O O O O O O O O O {.}.|.f. XJ..XXXoXOX+XO O O O O O O O O O O O O O & * * & O O ",
"O O + $ $ + O O O O O O O O O O O O O O & & O O O O O O O O O O O +X+X@X{.r #X~ $X+X+X%XO O O O O O O O O O O O O O & * * & O O ",
"O O # + + # O O O O O O O O O O O O O O & & O O O O O O O + + O O O %X&X*X=X=X$X+X%X%X& O O O O O O O O O O O O O O O & & O O O ",
"+ + O O O O O + O O O O O O O O O O O O O O O O O O O O O + + O O O O %X%X-X-X-X%X%XO O O O O O O O O O O O O O O O O O O O O % ",
"+ + O O O O O O O O O O O O O O O O O O O O O O # # O O O O O O O O O O O O O O O O O O O O O O O O O O O O O O & & O O O O O O ",
"O O O O O O O O O O O O O O O O O O O % O O O O # # O O O O O O O O O O O O O O O O O O % O O O O O O O O O O O & & O O O O O O ",
"O O O O O O O O O O O O O O O O O O O O O O O O O O O O O O O O O O O O O O O O O O O O O O O O O O O O O O O O O O O O O O O O ",
"O O O O O O O O O O O O O O O O O O O O O O O O ;X;XO O O O O O O O O O O O O O O O O O O O O O O O O O O O O O O O O O O O O O ",
"O O O O O O O O O O O O O O O O O O O O O O O O ;X;XO O O O O ;XO O O O O O O O O O O O O O O O O O O O O O O O O O O O O O O O ",
"O O O O O O O O O O O O O O O O O O O O O O O O O O :X;X;X:XO O O O O O O O O O O O O O O O O O O O O O O O O O O O O O O O O O ",
"O O O O O O O O O O O O O O O O O O O O O O O O O O ;X>X>X;XO O O O O O O O O O O O O O O O O O O O O O O O O O O O O O O O O O ",
"O O O O O O O O O O O O O O O O O O O O O O O O O O ;X>X>X;XO O O O O O O O O O O O O O O O O O O O O O O O O O O O O O O O O O ",
"O O O O O O O O O O O O O O O O O O O O O O O O O O :X;X;X:XO O O O O O O O O O O O O O O O O O O O O O O O O O O O O O O O O O ",
"O O O O O O O O O O O O O O O O O O O O O O O O ;XO O O O O O O O O O O O O O O O O O O O O O O O O O O O O O O O O O O O O O O ",
"# # O O O O O O O O O O O O O O O O O O O O O O O O O O O O O O O O O O O O O O O O o O O O O O O O o O O O O O O O O O O O O O ",
"# # O O O O O O O O O O O O O O O O O + O O O O O O O O O O O O O O O O O O O O O o O O O O O O O o O O O O O O O O O O O O O O ",
"O O O O O + + O O O O O O O O O O O O O O O O O O O O O O O O O O O O O O O O O O o O O O O O O O o O O O O O O O O O O O O O O ",
"O O O O O + + O O O O O O O O O O O O O O O O O O O O O O O O O O O O O O O O O O O O O O O O O O O O O O O O O O O O O O O O O ",
"O O O O O O O O O O O O O O O O O O O O O + + O O O O O O O O O O O O O O O O O O O O O o O o O O O O O o O o O O O O O O O O O ",
"O O O O O O O O O O O O O O O O O O O O O + + O O O O O O O O O O O O O O O O O O O o O o o O O O O o O o o O O O O O O O O O O ",
"O O O + O O O O O O O O O O O O # # O O O O O O O O O O O O O O O O O O O O O O O O o O o o O O O O o O o o O O O O O O O O O O ",
"O O O O O O O O O O O O O O O O # # O O O O O O O O O O O X X O O O O O O O O O O O O O o O O O O O O O o O O O O O O O O O O O "
};
