/* XPM */
static char *minish_right_right[] = {
/* columns rows colors chars-per-pixel */
"64 64 196 2 ",
"   c #60E0C8",
".  c #80F0A0",
"X  c #308070",
"o  c #40A888",
"O  c #50C090",
"+  c #68E0B8",
"@  c #38B0B8",
"#  c #48D0A8",
"$  c #80F8C8",
"%  c #78D0A0",
"&  c #98D8B8",
"*  c #D8F0D8",
"=  c #7B0002",
"-  c #A50013",
";  c #93000C",
":  c #760101",
">  c #B50022",
",  c #D0002D",
"<  c #C6002B",
"1  c #AA001A",
"2  c #E5003E",
"3  c #B70536",
"4  c #C90234",
"5  c #C30024",
"6  c #9B000F",
"7  c #CA002C",
"8  c #D3023B",
"9  c #481120",
"0  c #6B0B19",
"q  c #9E0113",
"w  c #DA0139",
"e  c #77050E",
"r  c #420E0D",
"t  c #3A1114",
"y  c #E90041",
"u  c #BC0023",
"i  c #80071A",
"p  c #5E0B13",
"a  c #D60034",
"s  c #870006",
"d  c #880009",
"f  c #B3011B",
"g  c #4B0E13",
"h  c #AF0222",
"j  c #E9003D",
"k  c #DA3645",
"l  c #D26D53",
"z  c #D38162",
"x  c #AC6C38",
"c  c #0A0E11",
"v  c #231A16",
"b  c #8D1F15",
"n  c #BB3C31",
"m  c #C54C44",
"M  c #B21A38",
"N  c #B02245",
"B  c #EF5C73",
"V  c #E24052",
"C  c #D87962",
"Z  c #D9C295",
"A  c #ECD9A4",
"S  c #C19557",
"D  c #AA722F",
"F  c #342F28",
"G  c #34312B",
"H  c #473F31",
"J  c #90692B",
"K  c #D4AE74",
"L  c #EAD19D",
"P  c #E8C993",
"I  c #614D34",
"U  c #494741",
"Y  c #CEC8A7",
"T  c #E3C995",
"R  c #FBF1C7",
"E  c #F3E6BB",
"W  c #CBA269",
"Q  c #AC7D50",
"!  c #1B1818",
"~  c #917E5D",
"^  c #DAD2AF",
"/  c #E4D6B4",
"(  c #F6EBC0",
")  c #77725E",
"_  c #474830",
"`  c #C9BB97",
"'  c #675943",
"]  c #262219",
"[  c #5C513E",
"{  c #6F6958",
"}  c #716E5E",
"|  c #A6875C",
" . c #E3C58D",
".. c #9F9C85",
"X. c #A5A28B",
"o. c #EAE6C2",
"O. c #0C080E",
"+. c #524717",
"@. c #746327",
"#. c #8E6E46",
"$. c #A79A7F",
"%. c #BBAF92",
"&. c #8B7251",
"*. c #513913",
"=. c #141418",
"-. c #1B8726",
";. c #176823",
":. c #1B2B1C",
">. c #1A241B",
",. c #574627",
"<. c #3C3618",
"1. c #167B27",
"2. c #399A29",
"3. c #1FD713",
"4. c #18C616",
"5. c #338625",
"6. c #337E24",
"7. c #468B25",
"8. c #277726",
"9. c #0F6525",
"0. c #F80045",
"q. c #863C0B",
"w. c #5B9650",
"e. c #099F1C",
"r. c #25D516",
"t. c #18F20B",
"y. c #14DC10",
"u. c #268B28",
"i. c #339427",
"p. c #118327",
"a. c #2AB81F",
"s. c #13241D",
"d. c #970420",
"f. c #D90036",
"g. c #B90F2B",
"h. c #A24546",
"j. c #C49B63",
"k. c #D9AD6F",
"l. c #D9B67D",
"z. c #587944",
"x. c #0A8919",
"c. c #1CE210",
"v. c #13B819",
"b. c #2FB021",
"n. c #33C21E",
"m. c #2FAA22",
"M. c #3B9C1C",
"N. c #830109",
"B. c #DA3461",
"V. c #E2CFD3",
"C. c #E4E6E4",
"Z. c #BD9359",
"A. c #0D3C1C",
"S. c #13EF09",
"D. c #2ECD11",
"F. c #B17303",
"G. c #4A2E12",
"H. c #0B1618",
"J. c #4A111F",
"K. c #48202C",
"L. c #4C4C4D",
"P. c #403527",
"I. c #20341C",
"U. c #176B1B",
"Y. c #227B1A",
"T. c #132D1C",
"R. c #1B811D",
"E. c #160B16",
"W. c #134A13",
"Q. c #10AC15",
"!. c #276C1F",
"~. c #854F0B",
"^. c #87620B",
"/. c #312311",
"(. c #0F2317",
"). c #184629",
"_. c #285749",
"`. c #243430",
"'. c #215136",
"]. c #1C7239",
"[. c #673A0B",
"{. c #BC8C07",
"}. c #1C2F2E",
"|. c #2C4F43",
" X c #459A7B",
".X c #429374",
"XX c #273327",
"oX c #3A7B64",
"OX c #489E7F",
"+X c #4BA987",
"@X c #3E8269",
"#X c #377864",
"$X c #49A382",
"%X c #98E078",
"&X c #68C878",
"*X c #C0E870",
/* pixels */
"    . . X o O O O O O O O O O O O O O O O O O O O O O O O O O O O O O O O O O O O O O O O O O O O O O O O O O O O O O O O O O O ",
"    o X . o O O O O O O O O O O + + O O O O O O O O O + O O O O O O O + O O O O O O O O O O O O O O O + O O O O O O O O O O O O ",
"      @ o . O O O O O O O O O O + + O O O O O + O O O O O O O O O O O O O O O O O O O O o O O O O O O O O O O O O O O O o O O O ",
"    O . O O O O O O O O O O O O O O # + + # O O O O O O O O O O O O O O O O O O O O O o o O O O O O O O O O O O O O O o o O O O ",
"      o . O O O O O O O O O O O O O + $ $ + O O O O O O O + + O O O O O O + + O O O O O O O o O O O O O O + + O O O O O O O o O ",
". . O O . O O O O O O O O O O O O O + $ $ + O O O O O O O + + O O O O O O + + O O O O O O O O O O O O O O + + O O O O O O O O O ",
"O O . . O O O O O O O O O O O O O O # + + # O O # # O O O O O O # # O O O O O O O o O O O O O O # # O O O O O O O o O O O O O O ",
"O O O O O O O O O O O O O O O O + O O O O O O O # # O O O O O O # # O O O O O O O O O O O O O O # # O O O O O O O O O O O O O O ",
"O O O O O O O O O O O O O O O O O O O O O O O O O O O O O O % O O O O O O O O O O O O O O O O O O O O O O O O O O O O O O O O O ",
"O O O O O O O O o O O o O O O O O O O O O O % O O O O & & O O O O o O O O O O O O O O O O O % O O o O O O O O O O O O O O O % O ",
"O O O O O O O O O o O o O o O O O O O O O O O O O O & * * & O O O O O O O O O O O O O O O O O O O O O O O O O O O O O O O O O O ",
"O O O O O O O O O o o O O o O O O O & & O O O O O O & * * & O O O O O O O O o O O O & & O O O O O O O O O O o O O O & & O O O O ",
"O O O O O O O O O O o O O O O o O O & & O O O O O O O & & O O O O O O o o O O O O O & & O O O O O O O o o O O O O O & & O O O O ",
"O O O O O O O O O O O O O O o O O O O O O O O O O O O O O O O % O O O O o O O O O O O O O O O O O O O O o O O O O O O O O O O O ",
"O O O O O O O O O O O O O O o O O O O O O O O O & & O O O O O O O O O O O O O O O O O O O O O O O O O O O O O O O O O O O O O O ",
"O O O O O O O O O O O O O O O O O O O O % O O O & & O O O O O O O O O O O O O O O O O O % O O O O O O O O O O O O O O O % O O O ",
"& & O O O O O O O O O O O O O O O O O O O O O O O O O O O O O O O O O O O O O O O O O O O O O O O O O O O O O O O % O O O O O O ",
"& & O O O O O O O O O O O O O O O O O O O O O O O o O O O O O O O O O = - ; : O O O O O O O O O O O O O O O O O O O O & & O O O ",
"O O O O O O O % O O O O o O O O O O O O O O O O O O O O O O O O O O ; > , < 1 = O O O O O O O O O O O O o O O O O O & * * & O O ",
"O O O & & O O O O O O o o O O O O O O O O O O O O O O O O O O O O = 1 2 3 4 5 = O O O O O O O O O O O o o O O O O O & * * & O O ",
"O O & * * & O O O O O O O O o O O O O O O O O O O O O O O O O O : 6 7 8 9 0 q : O O O O O O O O O O O O O O o O O O O & & O O O ",
"O O & * * & O O O O O O O O O O O O O O O O O O O O O O O O O o : > 2 w e r t O O O O O O O O O O O O O O O O O % O O O O O O O ",
"O O O & & O O O O o O O O O O O O O O O O O O O O o O O O O o o ; < y 2 u i p O O O O O O O O O O o O O O O O O O O O O O O & & ",
"O O O O O O % O O O O O O O O O O O O O O O O O o o O O O O O O u a y y y a 1 s O O O O O O O O O O O O O O O O O O O O O O & & ",
"O O O O O O O O O O O O O O O O O O O O O O O O O O O O O O % d a y y y y y a f f ; : O O O O O O O O O O O O O O O O O O O O O ",
"O O O O O O O O O O O O O O % O O O O O O O O O O O O & & O O d w y y y y y 2 w w u ; : O O O O O O O O O O O O O O O O O O O O ",
"O O O O o O O O O O O O O O O O O O O O O O O O O O & * * & O d w y y y y y y y y w u ; O O O O O O O O O O O O O O O O o O O O ",
"O O O o o O O O O O & & O O O O O O O O O O O O O O & * * & O d w y y y y y y y y y w f O O O O O O O O O O O O O O O o o O O O ",
"O O O O O O o O O O & & O O O O O O O O O O O O O O O & & O O d a y 2 2 y y y y y y w f O O O O O O O O O O O O O O O O O O o O ",
"O O O O O O O O O O O O O O O O O O O O O O O O O O O O O O O g h 5 5 5 2 y j j j k l z x O O O O O O O O O O O O O O O O O O O ",
"O o O O O O O O O O O O O O O O O O O O O O O O & & O O O O c v b n m m k M N B V C Z A S D O O O O O O O O O O O o O O O O O O ",
"O O O O O O O O O O O O % O O O O O O O O O O O & & O O O F G H J K L P K I U Y K T R E W Q O O O O O O O O O O O O O O O O O O ",
"O O O O O O O O O O O O O O O O O O O O O O O O O O O O ! ~ Z ^ / E ( ( E ) ! _ ` R E T ' ] O O O O O O O O O O O O O O O O O O ",
"O O O O O O O O O O O O O O O O O O O + O O O O O O O O O [ { } } | W  .R Y ..X.o.L | ' G O O O O O O O O O % O O O O O O O % O ",
"O O O O o O O O O O O O O O O O O O O O O O O O O O O O O O c O.O.+.@.#.$.` T Z %.&.*.=.o O O O O O O O O O O O O O O O O O O O ",
"O O O o o O O O O O O O O O O O O O O O O O O O O O & & O O O O O -.;.:.>.,.J J <.>.>.o o O O O O O & & O O O O O O & & O O O O ",
"O O O O O O o O O O O O O O O O O O O O O + + O O O & & O O O 1.2.3.4.5.;.6.7.8.5.8.9.O O O o O O O & & O O O O O O & & O O O O ",
"O O O O O O O O O O O O O O O O O O u 0.y y 7 6 : q.D W  .w.e.4.r.t.y.u.u.2.i.p.4.a.8.s.=.O O O O O O O O O O O O O O O O O O O ",
"O o O O O O O O O O O O O O O O # : d.3 7 2 f.g.h.Q j.k.l.z.x.y.c.y.v.-.b.n.m.p.4.r.M.*.v =.O O O O O O O O O O O O O O O O O O ",
"O O O O O O O O O O O O O O O O # # ! t N.4 w B.V.C./ l.Z.,.A.1.i.u.-.m.c.S.4.1.i.4.D.F.G.H.O O O O O O % O O O O O O O % O O O ",
"+ O O O O O O O O O O O O O O O O O O O O J.9 K.L.L.U H P.O O :.I.:.U.3.n.Y.A.T.:.U.R.G.O O O O O O O O O O O O O O O O O O % O ",
"O O # + + # O O O O O O O O O O O % O O O O H.O O O O c O O O O E.E.W.Q.!.+.~.^./.(.)._.O O % O O O O O O O O O O O O & & O O O ",
"O O + $ $ + O O O O O O O O O O O O O O O O O O O O O O O O O O O `.'.].s.[.F.{._ }.|. XO O O O O O O O O O O O O O & * * & O O ",
"O O + $ $ + O O O O O O O O O O O O O O & & O O O O O O O O O O O  X X.X`.v ] XXoX X XOXO O O O O O O O O O O O O O & * * & O O ",
"O O # + + # O O O O O O O O O O O O O O & & O O O O O O O + + O O O +XOX@X#X#XoX X$X$X& O O O O O O O O O O O O O O O & & O O O ",
"+ + O O O O O + O O O O O O O O O O O O O O O O O O O O O + + O O O O $X+X+X+X+X$X$XO O O O O O O O O O O O O O O O O O O O O % ",
"+ + O O O O O O O O O O O O O O O O O O O O O O # # O O O O O O O O O O O O O O O O O O O O O O O O O O O O O O & & O O O O O O ",
"O O O O O O O O O O O O O O O O O O O % O O O O # # O O O O O O O O O O O O O O O O O O % O O O O O O O O O O O & & O O O O O O ",
"O O O O O O O O O O O O O O O O O O O O O O O O O O O O O O O O O O O O O O O O O O O O O O O O O O O O O O O O O O O O O O O O ",
"O O O O O O O O O O O O O O O O O O O O O O O O %X%XO O O O O O O O O O O O O O O O O O O O O O O O O O O O O O O O O O O O O O ",
"O O O O O O O O O O O O O O O O O O O O O O O O %X%XO O O O O %XO O O O O O O O O O O O O O O O O O O O O O O O O O O O O O O O ",
"O O O O O O O O O O O O O O O O O O O O O O O O O O &X%X%X&XO O O O O O O O O O O O O O O O O O O O O O O O O O O O O O O O O O ",
"O O O O O O O O O O O O O O O O O O O O O O O O O O %X*X*X%XO O O O O O O O O O O O O O O O O O O O O O O O O O O O O O O O O O ",
"O O O O O O O O O O O O O O O O O O O O O O O O O O %X*X*X%XO O O O O O O O O O O O O O O O O O O O O O O O O O O O O O O O O O ",
"O O O O O O O O O O O O O O O O O O O O O O O O O O &X%X%X&XO O O O O O O O O O O O O O O O O O O O O O O O O O O O O O O O O O ",
"O O O O O O O O O O O O O O O O O O O O O O O O %XO O O O O O O O O O O O O O O O O O O O O O O O O O O O O O O O O O O O O O O ",
"# # O O O O O O O O O O O O O O O O O O O O O O O O O O O O O O O O O O O O O O O O o O O O O O O O o O O O O O O O O O O O O O ",
"# # O O O O O O O O O O O O O O O O O + O O O O O O O O O O O O O O O O O O O O O o O O O O O O O o O O O O O O O O O O O O O O ",
"O O O O O + + O O O O O O O O O O O O O O O O O O O O O O O O O O O O O O O O O O o O O O O O O O o O O O O O O O O O O O O O O ",
"O O O O O + + O O O O O O O O O O O O O O O O O O O O O O O O O O O O O O O O O O O O O O O O O O O O O O O O O O O O O O O O O ",
"O O O O O O O O O O O O O O O O O O O O O + + O O O O O O O O O O O O O O O O O O O O O o O o O O O O O o O o O O O O O O O O O ",
"O O O O O O O O O O O O O O O O O O O O O + + O O O O O O O O O O O O O O O O O O O o O o o O O O O o O o o O O O O O O O O O O ",
"O O O + O O O O O O O O O O O O # # O O O O O O O O O O O O O O O O O O O O O O O O o O o o O O O O o O o o O O O O O O O O O O ",
"O O O O O O O O O O O O O O O O # # O O O O O O O O O O O X X O O O O O O O O O O O O O o O O O O O O O o O O O O O O O O O O O "
};
