/* XPM */
static char *minish_up_right[] = {
/* columns rows colors chars-per-pixel */
"64 64 188 2 ",
"   c #60E0C8",
".  c #80F0A0",
"X  c #308070",
"o  c #40A888",
"O  c #50C090",
"+  c #68E0B8",
"@  c #38B0B8",
"#  c #48D0A8",
"$  c #80F8C8",
"%  c #78D0A0",
"&  c #98D8B8",
"*  c #D8F0D8",
"=  c #7B0002",
"-  c #A30013",
";  c #AE0017",
":  c #93000C",
">  c #BB0021",
",  c #C30026",
"<  c #B5001D",
"1  c #E4003D",
"2  c #E90041",
"3  c #C3002B",
"4  c #DC0137",
"5  c #CA002A",
"6  c #890007",
"7  c #D40032",
"8  c #8D000C",
"9  c #AB001A",
"0  c #730000",
"q  c #111315",
"w  c #150F10",
"e  c #5B0302",
"r  c #B20016",
"t  c #4E3316",
"y  c #5B472D",
"u  c #7E7562",
"i  c #A26A50",
"p  c #BE3336",
"a  c #D3002F",
"s  c #93041C",
"d  c #630715",
"f  c #A87D44",
"g  c #CCC29F",
"h  c #CAB487",
"j  c #BD6F57",
"k  c #C21E2F",
"l  c #DD0038",
"z  c #6A272B",
"x  c #383222",
"c  c #332F29",
"v  c #283123",
"b  c #7E6C51",
"n  c #D99370",
"m  c #BB1629",
"M  c #B70520",
"N  c #CAA36A",
"B  c #B08246",
"V  c #936026",
"C  c #382B1C",
"Z  c #3D3D31",
"A  c #735F49",
"S  c #CE8668",
"D  c #E39E86",
"F  c #E0A491",
"G  c #DFA28F",
"H  c #DC9983",
"J  c #D78E6C",
"K  c #D9A96E",
"L  c #E9CC91",
"P  c #EFD8A4",
"I  c #DBC292",
"U  c #B59E75",
"Y  c #665A44",
"T  c #322B27",
"R  c #968566",
"E  c #C8AE7F",
"W  c #E8D4A1",
"Q  c #FAEEBC",
"!  c #FCF1BF",
"~  c #906D43",
"^  c #A29E87",
"/  c #16271A",
"(  c #5D4C1C",
")  c #A48346",
"_  c #CBAF80",
"`  c #B69760",
"'  c #7C5F23",
"]  c #2B301B",
"[  c #191919",
"{  c #137326",
"}  c #116B25",
"|  c #157627",
" . c #2A5A27",
".. c #353129",
"X. c #2F4728",
"o. c #217226",
"O. c #106524",
"+. c #2E9129",
"@. c #168229",
"#. c #2C651F",
"$. c #206C22",
"%. c #147C28",
"&. c #248B28",
"*. c #36B421",
"=. c #39B722",
"-. c #40A727",
";. c #34BB1F",
":. c #369729",
">. c #3AA825",
",. c #29CD18",
"<. c #18E40E",
"1. c #339D24",
"2. c #1C7B28",
"3. c #17EB0D",
"4. c #2B9327",
"5. c #348C27",
"6. c #24CE15",
"7. c #1CE310",
"8. c #16C816",
"9. c #13FC09",
"0. c #12D60B",
"q. c #184F13",
"w. c #155825",
"e. c #13A61E",
"r. c #13F509",
"t. c #183C1C",
"y. c #17A00F",
"u. c #129521",
"i. c #14AB1C",
"p. c #109A15",
"a. c #146D11",
"s. c #1D731B",
"d. c #27D216",
"f. c #20E411",
"g. c #249A1A",
"h. c #118910",
"j. c #249725",
"k. c #409E29",
"l. c #1F8429",
"z. c #114221",
"x. c #1C1921",
"c. c #2C4943",
"v. c #265536",
"b. c #1FD514",
"n. c #2AB71E",
"m. c #30722D",
"M. c #244235",
"N. c #489F7F",
"B. c #489E80",
"V. c #318A5B",
"C. c #288928",
"Z. c #227E43",
"A. c #469B7C",
"S. c #49A281",
"D. c #30735A",
"F. c #938743",
"G. c #51552B",
"H. c #2F6958",
"J. c #41523E",
"K. c #806344",
"L. c #D4B89B",
"P. c #695951",
"I. c #213D35",
"U. c #2B2012",
"Y. c #705A3C",
"T. c #DCBD8F",
"R. c #F2E6D8",
"E. c #6C6A66",
"W. c #1D362D",
"Q. c #8D4E16",
"!. c #B78E6C",
"~. c #EAC8A0",
"^. c #665744",
"/. c #0E1515",
"(. c #B91326",
"). c #E12E52",
"_. c #F04573",
"`. c #ED395A",
"'. c #EB003A",
"]. c #92042A",
"[. c #4F0E22",
"{. c #B3042E",
"}. c #840718",
"|. c #291518",
" X c #2A151A",
".X c #98E078",
"XX c #68C878",
"oX c #C0E870",
/* pixels */
"    . . X o O O O O O O O O O O O O O O O O O O O O O O O O O O O O O O O O O O O O O O O O O O O O O O O O O O O O O O O O O O ",
"    o X . o O O O O O O O O O O + + O O O O O O O O O + O O O O O O O + O O O O O O O O O O O O O O O + O O O O O O O O O O O O ",
"      @ o . O O O O O O O O O O + + O O O O O + O O O O O O O O O O O O O O O O O O O O o O O O O O O O O O O O O O O O o O O O ",
"    O . O O O O O O O O O O O O O O # + + # O O O O O O O O O O O O O O O O O O O O O o o O O O O O O O O O O O O O O o o O O O ",
"      o . O O O O O O O O O O O O O + $ $ + O O O O O O O + + O O O O O O + + O O O O O O O o O O O O O O + + O O O O O O O o O ",
". . O O . O O O O O O O O O O O O O + $ $ + O O O O O O O + + O O O O O O + + O O O O O O O O O O O O O O + + O O O O O O O O O ",
"O O . . O O O O O O O O O O O O O O # + + # O O # # O O O O O O # # O O O O O O O o O O O O O O # # O O O O O O O o O O O O O O ",
"O O O O O O O O O O O O O O O O + O O O O O O O # # O O O O O O # # O O O O O O O O O O O O O O # # O O O O O O O O O O O O O O ",
"O O O O O O O O O O O O O O O O O O O O O O O O O O O O O O % O O O O O O O O O O O O O O O O O O O O O O O O O O O O O O O O O ",
"O O O O O O O O o O O o O O O O O O O O O O % O O O O & & O O O O o O O O O O O O O O O O O % O O o O O O O O O O O O O O O % O ",
"O O O O O O O O O o O o O o O O O O O O O O O O O O & * * & O O O O O O O O O O O O O O O O O O O O O O O O O O O O O O O O O O ",
"O O O O O O O O O o o O O o O O O O & & O O O O O O & * * & O O O O O O O O o O O O & & O O O O O O O O O O o O O O & & O O O O ",
"O O O O O O O O O O o O O O O o O O & & O O O O O O O & & O O O O O O o o O O O O O & & O O O O O O O o o O O O O O & & O O O O ",
"O O O O O O O O O O O O O O o O O O O O O O O O O O O O O O O % O O O O o O O O O O O O O O O O O O O O o O O O O O O O O O O O ",
"O O O O O O O O O O O O O O o O O O O O O O O O & & O O O O O = - ; O O O O O O O O O O O O O O O O O O O O O O O O O O O O O O ",
"O O O O O O O O O O O O O O O O O O O O % O O O & & O O O O = : > , < O O O O O O O O O % O O O O O O O O O O O O O O O % O O O ",
"& & O O O O O O O O O O O O O O O O O O O O O O O O O O O = : > 1 2 3 = O O O O O O O O O O O O O O O O O O O O O % O O O O O O ",
"& & O O O O O O O O O O O O O O O O O O O O O O O o O O O - > 1 1 2 3 = O O O O O O O O O O O O O O O O O O O O O O O & & O O O ",
"O O O O O O O % O O O O o O O O O O O O O O O O O O O O = > 4 2 2 2 5 : o O O O O O O O O O O O O O O O o O O O O O & * * & O O ",
"O O O & & O O O O O O o o O O O O O O O O O O O O O O O 6 5 2 2 2 2 4 , o O O O O O O O O O O O O O O o o O O O O O & * * & O O ",
"O O & * * & O O O O O O O O o O O O O O O O O O O O O O < 7 2 2 2 2 2 4 : O o O O O O O O O O O O O O O O O o O O O O & & O O O ",
"O O & * * & O O O O O O O O O O O O O O O O O O O O O 8 7 1 2 2 2 2 2 1 9 6 0 O O O O O O O O O O O O O O O O O % O O O O O O O ",
"O O O & & O O O O o O O O O O O O O O O O O O O O o O - 1 2 2 2 2 2 2 1 7 9 : O O O O O O O O O O o O O O O O O O O O O O O & & ",
"O O O O O O % O O O O O O O O O O O O O O O O O o o 9 , 1 2 2 2 2 2 2 2 2 5 ; O O O O O O O O O O O O O O O O O O O O O O O & & ",
"O O O O O O O O O O O O O O O O O O O O O O O O O 0 9 1 2 2 2 2 2 2 2 2 2 5 ; & O O O O O O O O O O O O O O O O O O O O O O O O ",
"O O O O O O O O O O O O O O % O O O O O O O O q w e 9 2 2 2 2 2 2 2 2 2 2 5 r & O O O O O O O O O O O O O O O O O O O O O O O O ",
"O O O O o O O O O O O O O O O O O O O O O O t y u i p a 1 2 2 2 2 2 2 1 a s d O O O O O O O O O O O O O O O O O O O O O o O O O ",
"O O O o o O O O O O & & O O O O O O O O O O O f g h j k 4 4 4 4 4 4 l 4 k z x O O O O O O O O O O O O O O O O O O O O o o O O O ",
"O O O O O O o O O O & & O O O O O O O O O O O O c v b n m < M M M M < m n N B V C O O O O O O O O O O O O O O O O O O O O O o O ",
"O O O O O O O O O O O O O O O O O O O O O O O O O O Z A S D F G G F H J K L P I U Y q O O O O O O O O O O O O O O O O O O O O O ",
"O o O O O O O O O O O O O O O O O O O O O O O O & & O T R E W Q Q ! P N ~ R ^ ^ R Y O O O O O O O O O O O O O O O o O O O O O O ",
"O O O O O O O O O O O O % O O O O O O O O O O O & & O O / ( ) E _ _ ` ' ] / / [ [ O O O O O O O O O O O O O O O O O O O O O O O ",
"O O O O O O O O O O O O O O O O O O O O O O O O O O O { } |  .....c X.o.} } O.O O O O O O O O O O O O O O O O O O O O O O O O O ",
"O O O O O O O O O O O O O O O O O O O + O O O O O O O +.+.@.{ #.#.#.$.%.&.+.+.O O O O O O O O O O O O O O O % O O O O O O O % O ",
"O O O O o O O O O O O O O O O O O O O O O O O O O O *.=.-.&.&.-.;.=.+.%.:.=.;.O O O O O o O O O O O O O O O O O O O O O O O O O ",
"O O O o o O O O O O O O O O O O O O O O O O O O O >.,.<.1.2.&.*.3.,.4.%.5.6.7.>.O O O o o O O O O O & & O O O O O O & & O O O O ",
"O O O O O O o O O O O O O O O O O O O O O + + O %.8.9.0.q.w.e.3.r.r.8.{ t.y.9.<.u.O O O O O o O O O & & O O O O O O & & O O O O ",
"O O O O O O O O O O O O O O O O O O O O O + + O 4.i.p.a.O / s.d.r.f.g.t.q q.h.i.j.O O O O O O O O O O O O O O O O O O O O O O O ",
"O o O O O O O O O O O O O O O O # # O O O O O O k.l.z.x.O c.v.1.b.n.m.M.O c.M.{ :.o O O O O O O O O O O O O O O O O O O O O O O ",
"O O O O O O O O O O O O O O O O # # O O O O O O O O O O N.B.V.2.:.C.Z.A.B.A.A.O O O O O O O O O O O O O % O O O O O O O % O O O ",
"+ O O O O O O O O O O O O O O O O O O O O O O O O O O O S.S.D.v F.G.v.A.S.S.S.O O O O O O O O O O O O O O O O O O O O O O O % O ",
"O O # + + # O O O O O O O O O O O % O O O O O O O O O + O H.J.K.L.P.I.A.S.S.O O O O O O O O % O O O O O O O O O O O O & & O O O ",
"O O + $ $ + O O O O O O O O O O O O O O O O O O O O O O O U.Y.T.R.E.W.A.S.O O O O O O O O O O O O O O O O O O O O O & * * & O O ",
"O O + $ $ + O O O O O O O O O O O O O O & & O O O O O O O Q.!.R.~.^./.O O O o O O O & & O O O O O O O O O O O O O O & * * & O O ",
"O O # + + # O O O O O O O O O O O O O O & & O O O O O O = (.)._.`.z /.o o O O O O O & & O O O O O O O O O O O O O O O & & O O O ",
"+ + O O O O O + O O O O O O O O O O O O O O O O O O O O : 7 '.5 ].[.O O o O O O O O O O O O O O O O O O O O O O O O O O O O O % ",
"+ + O O O O O O O O O O O O O O O O O O O O O O # # O O s {.{.}.|.O O O O O O O O O O O O O O O O O O O O O O O & & O O O O O O ",
"O O O O O O O O O O O O O O O O O O O % O O O O # # O O |. X X|.O O O O O O O O O O O O % O O O O O O O O O O O & & O O O O O O ",
"O O O O O O O O O O O O O O O O O O O O O O O O O O O O O O O O O O O O O O O O O O O O O O O O O O O O O O O O O O O O O O O O ",
"O O O O O O O O O O O O O O O O O O O O O O O O .X.XO O O O O O O O O O O O O O O O O O O O O O O O O O O O O O O O O O O O O O ",
"O O O O O O O O O O O O O O O O O O O O O O O O .X.XO O O O O .XO O O O O O O O O O O O O O O O O O O O O O O O O O O O O O O O ",
"O O O O O O O O O O O O O O O O O O O O O O O O O O XX.X.XXXO O O O O O O O O O O O O O O O O O O O O O O O O O O O O O O O O O ",
"O O O O O O O O O O O O O O O O O O O O O O O O O O .XoXoX.XO O O O O O O O O O O O O O O O O O O O O O O O O O O O O O O O O O ",
"O O O O O O O O O O O O O O O O O O O O O O O O O O .XoXoX.XO O O O O O O O O O O O O O O O O O O O O O O O O O O O O O O O O O ",
"O O O O O O O O O O O O O O O O O O O O O O O O O O XX.X.XXXO O O O O O O O O O O O O O O O O O O O O O O O O O O O O O O O O O ",
"O O O O O O O O O O O O O O O O O O O O O O O O .XO O O O O O O O O O O O O O O O O O O O O O O O O O O O O O O O O O O O O O O ",
"# # O O O O O O O O O O O O O O O O O O O O O O O O O O O O O O O O O O O O O O O O o O O O O O O O o O O O O O O O O O O O O O ",
"# # O O O O O O O O O O O O O O O O O + O O O O O O O O O O O O O O O O O O O O O o O O O O O O O o O O O O O O O O O O O O O O ",
"O O O O O + + O O O O O O O O O O O O O O O O O O O O O O O O O O O O O O O O O O o O O O O O O O o O O O O O O O O O O O O O O ",
"O O O O O + + O O O O O O O O O O O O O O O O O O O O O O O O O O O O O O O O O O O O O O O O O O O O O O O O O O O O O O O O O ",
"O O O O O O O O O O O O O O O O O O O O O + + O O O O O O O O O O O O O O O O O O O O O o O o O O O O O o O o O O O O O O O O O ",
"O O O O O O O O O O O O O O O O O O O O O + + O O O O O O O O O O O O O O O O O O O o O o o O O O O o O o o O O O O O O O O O O ",
"O O O + O O O O O O O O O O O O # # O O O O O O O O O O O O O O O O O O O O O O O O o O o o O O O O o O o o O O O O O O O O O O ",
"O O O O O O O O O O O O O O O O # # O O O O O O O O O O O X X O O O O O O O O O O O O O o O O O O O O O o O O O O O O O O O O O "
};
